<?xml version="1.0" encoding="UTF-8"?>
<svg version="1.1" xmlns="http://www.w3.org/2000/svg" width="1536" height="1024">
<path d="M0 0 C506.88 0 1013.76 0 1536 0 C1536 337.92 1536 675.84 1536 1024 C1029.12 1024 522.24 1024 0 1024 C0 686.08 0 348.16 0 0 Z " fill="#FEFEFE" transform="translate(0,0)"/>
<path d="M0 0 C17.51100798 15.46644374 30.08876888 34.61749661 37.2734375 56.83984375 C37.58925781 57.80277344 37.90507813 58.76570313 38.23046875 59.7578125 C43.04000387 75.79749365 44.12984083 92.77589021 39.69677734 108.94287109 C37.75584278 116.09995929 37.42430174 121.1486174 41.01660156 127.63671875 C41.43135742 128.343125 41.84611328 129.04953125 42.2734375 129.77734375 C42.70624023 130.53660156 43.13904297 131.29585937 43.58496094 132.078125 C48.81610776 141.0683732 54.69282591 149.64932416 60.5390625 158.24609375 C74.88804842 179.49719318 74.88804842 179.49719318 74.3359375 188.15234375 C73.01980655 192.72009233 72.2014091 194.12047879 68.2734375 196.83984375 C63.16902173 198.72434253 57.93109678 200.11830729 52.68359375 201.54296875 C50.28239494 202.22608862 50.28239494 202.22608862 47.2734375 203.83984375 C45.84905998 206.63466184 45.84905998 206.63466184 46.2734375 209.83984375 C47.2396876 211.85636569 48.24052074 213.85664357 49.2734375 215.83984375 C49.96728401 220.00292282 49.55833239 221.40818483 47.2109375 224.96484375 C44.32528639 228.11584208 41.05789458 229.91051269 37.2734375 231.83984375 C38.0778125 232.78859375 38.8821875 233.73734375 39.7109375 234.71484375 C42.00398075 237.41945886 43.1864641 239.05164732 43.5859375 242.671875 C43.19610885 246.62376289 42.0134868 247.72545306 39.2734375 250.52734375 C35.26689548 255.20517588 34.47268262 258.22045962 34.89453125 264.296875 C35.1445885 265.9750943 35.44077743 267.64716308 35.78515625 269.30859375 C37.32686491 277.30081143 36.96914687 284.46120706 32.875 291.5859375 C27.71427689 298.84871124 21.04253928 303.2307469 12.2734375 304.83984375 C-6.1933094 306.60059971 -24.87016144 303.56650186 -42.78808594 299.1965332 C-46.050345 298.5962611 -48.57329119 298.89386236 -51.7265625 299.83984375 C-58.21240884 307.62285936 -56.29463692 321.20133214 -56.7265625 329.83984375 C-119.0965625 329.83984375 -181.4665625 329.83984375 -245.7265625 329.83984375 C-243.0865625 325.21984375 -240.4465625 320.59984375 -237.7265625 315.83984375 C-226.86535846 292.92270322 -223.37114024 268.59224298 -230.875 244.08984375 C-234.28339294 234.94825807 -239.04244017 226.69560171 -244.04296875 218.34765625 C-245.91750993 215.21497398 -247.76447669 212.06963135 -249.56640625 208.89453125 C-249.98140381 208.16476074 -250.39640137 207.43499023 -250.82397461 206.68310547 C-251.7265625 204.83984375 -251.7265625 204.83984375 -251.7265625 202.83984375 C-255.74782717 202.80962881 -259.76611243 202.82544102 -263.78710938 202.88256836 C-265.15260678 202.89564846 -266.51828152 202.89649674 -267.88378906 202.88452148 C-275.78157955 202.55102496 -275.78157955 202.55102496 -282.85009766 205.37695312 C-284.29993577 207.13084117 -285.50303514 208.92539969 -286.7265625 210.83984375 C-288.921875 212.36328125 -288.921875 212.36328125 -290.8515625 213.21484375 C-291.49351562 213.51132812 -292.13546875 213.8078125 -292.796875 214.11328125 C-299.10885669 216.48985735 -305.02662194 216.79035258 -311.2890625 214.21484375 C-317.63741091 211.08445126 -323.12549368 206.98250486 -326.06640625 200.375 C-327.86651125 193.46217076 -328.13200799 184.98086202 -325.2265625 178.33984375 C-321.68393414 172.56573774 -316.21133192 167.83876689 -309.7265625 165.83984375 C-301.92564849 165.00151023 -294.33533097 164.73741639 -287.59375 169.21484375 C-283.13666209 173.09381566 -279.24798031 178.05845606 -277.7265625 183.83984375 C-277.70175051 185.83968984 -277.69916781 187.84003138 -277.7265625 189.83984375 C-277.0383139 189.83318192 -276.35006531 189.82652008 -275.64096069 189.81965637 C-268.47081173 189.75323119 -261.30075034 189.70801306 -254.13037109 189.67504883 C-251.45506529 189.66166824 -248.78024101 189.6395099 -246.10498047 189.61352539 C-242.25742499 189.57709291 -238.41019664 189.56010547 -234.5625 189.546875 C-232.77155411 189.52364922 -232.77155411 189.52364922 -230.94442749 189.49995422 C-220.41636807 189.49782558 -220.41636807 189.49782558 -215.7265625 192.83984375 C-212.43768002 197.55390864 -212.44027985 201.30504592 -212.7265625 206.83984375 C-213.40203125 206.92621094 -214.0775 207.01257813 -214.7734375 207.1015625 C-218.97074799 207.76269956 -221.96640399 208.24257635 -225.3515625 210.90234375 C-227.26078907 214.98114596 -227.63952271 218.41919429 -226.7265625 222.83984375 C-224.12634679 226.62197569 -222.56291101 227.63796652 -218.1015625 228.71484375 C-214.73387757 229.03735069 -214.73387757 229.03735069 -211.7265625 227.83984375 C-209.35168306 227.72950636 -206.97380938 227.68073964 -204.59643555 227.6628418 C-203.87411743 227.6562706 -203.15179932 227.6496994 -202.40759277 227.64292908 C-200.01782117 227.62322302 -197.62811233 227.61153971 -195.23828125 227.6015625 C-194.01247817 227.59544921 -194.01247817 227.59544921 -192.76191139 227.58921242 C-188.43673583 227.56836344 -184.11159188 227.55405651 -179.78637695 227.54467773 C-175.32411677 227.53361394 -170.86235533 227.49921138 -166.40027142 227.45950603 C-162.96439195 227.43333535 -159.52863128 227.42498553 -156.0926609 227.42139626 C-154.44805342 227.41653167 -152.80345119 227.40492125 -151.15894127 227.38635826 C-148.8538519 227.36195544 -146.5500526 227.36293319 -144.24487305 227.36987305 C-142.93487839 227.36400681 -141.62488373 227.35814056 -140.27519226 227.35209656 C-136.13689864 227.92089106 -134.06642048 229.41101602 -130.7265625 231.83984375 C-126.41546723 232.44490975 -124.51808711 232.35605545 -120.8515625 229.96484375 C-118.00714842 227.12042967 -117.52302078 225.45110055 -117.3515625 221.52734375 C-117.41956656 218.0138005 -117.69434008 216.8924737 -119.6015625 213.77734375 C-123.36518786 211.44389603 -125.88154077 211.24367221 -130.2265625 211.17578125 C-132.98117984 211.66348597 -132.98117984 211.66348597 -134.98014832 214.34587097 C-138.32849152 217.38644543 -139.71893252 217.45135884 -144.16918945 217.4074707 C-146.09061516 217.40690422 -146.09061516 217.40690422 -148.05085754 217.40632629 C-149.43886294 217.38079684 -150.8268583 217.35471693 -152.21484375 217.328125 C-153.64258077 217.31879256 -155.07033386 217.31167848 -156.49809265 217.3066864 C-160.24513418 217.28764976 -163.99119743 217.23858008 -167.737854 217.1831665 C-171.56533577 217.1319006 -175.39297655 217.10915685 -179.22070312 217.08398438 C-186.72310091 217.03045607 -194.22469432 216.94518627 -201.7265625 216.83984375 C-201.74843628 215.94060181 -201.74843628 215.94060181 -201.77075195 215.02319336 C-201.84580071 212.2739692 -201.94227002 209.52588486 -202.0390625 206.77734375 C-202.06162109 205.83439453 -202.08417969 204.89144531 -202.10742188 203.91992188 C-202.38044957 196.79638116 -203.37694659 191.79364661 -207.9140625 186.08984375 C-214.62492674 180.72115236 -221.52558837 180.38163552 -229.7890625 180.328125 C-230.82095703 180.3101738 -231.85285156 180.2922226 -232.91601562 180.27372742 C-236.18615734 180.21988919 -239.45615531 180.18581353 -242.7265625 180.15234375 C-244.95444697 180.11914733 -247.18231254 180.08465554 -249.41015625 180.04882812 C-254.84882935 179.96417821 -260.28752168 179.89571708 -265.7265625 179.83984375 C-274.60169989 158.45949422 -274.60169989 158.45949422 -276.7265625 148.40234375 C-276.92894531 147.53287109 -277.13132812 146.66339844 -277.33984375 145.76757812 C-278.25893018 141.68795978 -278.8223326 138.0385338 -278.7265625 133.83984375 C-277.69249268 133.82526123 -276.65842285 133.81067871 -275.59301758 133.7956543 C-271.74420168 133.73753493 -267.89596251 133.66030352 -264.04760742 133.57739258 C-262.38429142 133.5442072 -260.72086454 133.51615541 -259.05737305 133.4934082 C-256.66146751 133.45974376 -254.26657215 133.40742435 -251.87109375 133.3515625 C-250.76142998 133.34197762 -250.76142998 133.34197762 -249.62934875 133.3321991 C-245.17115976 133.206196 -242.29588024 132.54909505 -238.7265625 129.83984375 C-236.00448631 126.3400315 -236.29926462 122.07794114 -236.7265625 117.83984375 C-237.89669476 114.41945715 -238.59966973 113.92443893 -241.7265625 111.83984375 C-246.1570694 111.20374426 -250.29469107 111.01651768 -254.2265625 113.27734375 C-256.39546296 116.6828543 -256.39546296 116.6828543 -257.7265625 124.83984375 C-269.2765625 124.83984375 -280.8265625 124.83984375 -292.7265625 124.83984375 C-293.0565625 126.48984375 -293.3865625 128.13984375 -293.7265625 129.83984375 C-297.10705403 136.19516783 -302.19288679 140.14982493 -308.6015625 143.21484375 C-316.4382038 144.78217201 -322.40613113 144.33161936 -329.46484375 140.38671875 C-335.39204476 136.33288179 -339.25995543 130.8963876 -340.7265625 123.83984375 C-341.77537771 115.41436155 -340.63459405 108.84763683 -335.7265625 101.83984375 C-331.6881913 97.33592306 -326.42345561 94.22328827 -320.4296875 93.37109375 C-311.68550357 93.29196086 -304.78083719 94.28611317 -298.109375 100.296875 C-295.86750029 102.81069309 -294.70065 104.92567891 -293.7265625 108.15234375 C-291.96302131 111.1520284 -291.96302131 111.1520284 -288.65234375 111.4375 C-285.33437725 111.69217635 -282.05369555 111.83035122 -278.7265625 111.83984375 C-278.7884375 110.58171875 -278.8503125 109.32359375 -278.9140625 108.02734375 C-278.85636144 87.57231659 -272.62520193 67.0755929 -263.7265625 48.83984375 C-263.41847656 48.20449707 -263.11039062 47.56915039 -262.79296875 46.91455078 C-255.52879261 32.14129629 -246.14287511 19.64151713 -234.7265625 7.83984375 C-233.84097656 6.90269531 -232.95539063 5.96554687 -232.04296875 5 C-170.20903032 -58.98780566 -65.38057593 -56.1318694 0 0 Z " fill="#3113A9" transform="translate(484.7265625,336.16015625)"/>
<path d="M0 0 C0.86359131 0.40532959 1.72718262 0.81065918 2.61694336 1.22827148 C4.07052246 1.90684204 4.07052246 1.90684204 5.5534668 2.59912109 C6.5528125 3.07357666 7.5521582 3.54803223 8.58178711 4.03686523 C9.53214844 4.48489502 10.48250977 4.9329248 11.46166992 5.39453125 C14.44393564 6.80730279 17.42001877 8.23233715 20.39428711 9.66186523 C21.47887207 10.18256592 22.56345703 10.7032666 23.6809082 11.23974609 C31.6310765 15.06882802 39.52995269 18.99248771 47.41113281 22.96118164 C53.93007907 26.23504473 60.49283487 29.40654352 67.08178711 32.53686523 C77.48393944 37.47968168 87.80051763 42.58249378 98.0769043 47.78149414 C99.82130401 48.65573423 101.57254722 49.51639594 103.32885742 50.36645508 C104.66255371 51.01541748 104.66255371 51.01541748 106.02319336 51.67749023 C106.82313721 52.06195313 107.62308105 52.44641602 108.44726562 52.8425293 C111.92061225 54.78598254 113.52314681 56.60579807 115.58178711 60.03686523 C116.20678711 63.53686523 116.20678711 63.53686523 115.58178711 67.03686523 C112.23717819 71.7327345 109.28835111 74.11591432 104.03881836 76.68530273 C103.42914719 76.98755768 102.81947601 77.28981262 102.19132996 77.60122681 C100.91464166 78.23106556 99.63465005 78.85424945 98.3515625 79.47094727 C96.38259381 80.41748654 94.42412435 81.38341152 92.46655273 82.35327148 C82.92657647 87.03686523 82.92657647 87.03686523 80.58178711 87.03686523 C80.59177986 87.88678543 80.59177986 87.88678543 80.60197449 88.75387573 C80.6687385 94.6918974 80.71375679 100.6298111 80.74658203 106.56811523 C80.76159748 108.77942237 80.78201602 110.99070009 80.80810547 113.2019043 C80.84480865 116.39436132 80.86158641 119.58642199 80.87475586 122.77905273 C80.89023972 123.75550751 80.90572357 124.73196228 80.92167664 125.73800659 C80.92445955 137.28536811 77.81545855 145.45445693 69.90600586 153.80639648 C50.47780836 172.23614272 22.09581043 176.21366043 -3.54418945 176.27709961 C-5.88538189 176.28673018 -8.2256657 176.31779696 -10.56665039 176.34936523 C-36.36803302 176.53057118 -65.22506378 170.21116107 -84.52758789 152.05249023 C-92.72171658 143.61911691 -95.01298568 134.2251011 -95.02758789 122.68139648 C-95.04412415 121.6537468 -95.0606604 120.62609711 -95.07769775 119.56730652 C-95.12576508 116.32792948 -95.1474567 113.08902037 -95.16821289 109.84936523 C-95.19640708 107.6351495 -95.22633925 105.42095518 -95.25805664 103.20678711 C-95.33151218 97.81689698 -95.38339506 92.4271362 -95.41821289 87.03686523 C-96.17440918 86.66924072 -96.93060547 86.30161621 -97.7097168 85.92285156 C-100.54211545 84.54095539 -103.37071007 83.15162276 -106.19702148 81.75732422 C-107.41562424 81.15801403 -108.63565443 80.56159652 -109.85717773 79.96826172 C-125.83621856 72.20085389 -125.83621856 72.20085389 -128.41821289 67.03686523 C-128.83347558 63.38255354 -128.61291369 61.41342976 -126.91113281 58.12207031 C-123.77527717 54.2411764 -120.64331719 52.58517436 -116.21899414 50.42358398 C-115.38958817 50.00308273 -114.56018219 49.58258148 -113.7056427 49.14933777 C-110.95178127 47.76048458 -108.18627186 46.39718031 -105.41821289 45.03686523 C-103.46809434 44.06910231 -101.5180635 43.10116263 -99.56811523 42.13305664 C-94.35405997 39.55431535 -89.12847289 36.9998121 -83.89874268 34.45303345 C-78.27862489 31.71609973 -72.66285038 28.97028553 -67.04711914 26.22436523 C-65.94926086 25.68773758 -64.85140259 25.15110992 -63.72027588 24.59822083 C-53.6588008 19.67540872 -43.63430618 14.68105918 -33.63769531 9.62792969 C-28.26040621 6.91802695 -22.86155219 4.26030695 -17.41821289 1.68530273 C-16.37922852 1.19336426 -15.34024414 0.70142578 -14.26977539 0.19458008 C-9.11808793 -1.89696974 -5.17586869 -2.06146411 0 0 Z " fill="#FDFCFC" transform="translate(377.418212890625,346.963134765625)"/>
<path d="M0 0 C0.87913559 0.43934875 1.75827118 0.87869751 2.66404724 1.33135986 C5.53990297 2.77032427 8.41142504 4.21771646 11.28295898 5.6652832 C13.28765488 6.67043174 15.29261815 7.67504719 17.2978363 8.67915344 C22.55294047 11.31240927 27.80439936 13.95285483 33.05511475 16.59484863 C38.42248653 19.2939291 43.79329808 21.98614644 49.16381836 24.67895508 C59.68476136 29.95547252 70.20186356 35.23959706 80.71655273 40.52856445 C80.71655273 41.18856445 80.71655273 41.84856445 80.71655273 42.52856445 C72.87263528 46.47388749 65.02253185 50.40342705 57.11499023 54.2199707 C56.47617416 54.52850479 55.83735809 54.83703888 55.17918396 55.15492249 C52.4268719 56.48342094 49.67402725 57.81080052 46.92007446 59.13589478 C37.02101281 63.90358468 27.19682118 68.79672586 17.42358398 73.81762695 C14.28425223 75.42121963 11.14427913 77.02355087 8.00421143 78.6257019 C5.94282417 79.68318103 3.88512118 80.74787407 1.83123779 81.81985474 C-1.05888838 83.32782958 -3.96053564 84.81110369 -6.86547852 86.2902832 C-7.7296489 86.74976349 -8.59381927 87.20924377 -9.48417664 87.68264771 C-10.29296768 88.08901459 -11.10175873 88.49538147 -11.93505859 88.9140625 C-12.63335281 89.27582077 -13.33164703 89.63757904 -14.05110168 90.01029968 C-19.74073055 91.33121264 -26.17347304 86.71912184 -31.1628418 84.20239258 C-32.03511414 83.76640244 -32.90738647 83.33041229 -33.80609131 82.88121033 C-36.67806096 81.44453102 -39.5471573 80.00220995 -42.41625977 78.55981445 C-44.41574895 77.5582034 -46.41541589 76.5569471 -48.41525269 75.55603027 C-53.67289937 72.92339448 -58.92812683 70.28596463 -64.18286133 67.64752197 C-69.53134996 64.96305594 -74.88209861 62.28310281 -80.23266602 59.6027832 C-88.87026167 55.27519322 -97.50642972 50.94476981 -106.14089966 46.61094666 C-106.89500122 46.23245071 -107.64910278 45.85395477 -108.42605591 45.46398926 C-109.07826677 45.13658501 -109.73047764 44.80918076 -110.40245247 44.47185516 C-112.36199429 43.4891743 -114.32255272 42.50854286 -116.28344727 41.52856445 C-113.44256956 39.63464598 -110.6356087 38.14112457 -107.5847168 36.61450195 C-106.41143829 36.02628662 -105.23815979 35.43807129 -104.02932739 34.83203125 C-102.74168834 34.18910852 -101.45399769 33.54628913 -100.16625977 32.90356445 C-98.83074207 32.23546811 -97.49528372 31.56725311 -96.15988159 30.89892578 C-93.34771574 29.4921045 -90.53483011 28.08673543 -87.72143555 26.68237305 C-84.18026213 24.91458711 -80.64086121 23.14328693 -77.10198212 21.37091351 C-50.2640447 7.93335403 -50.2640447 7.93335403 -36.70803833 1.60461426 C-31.30457933 -0.92852812 -26.14371783 -3.68740214 -21.04907227 -6.8034668 C-14.16020298 -8.46730387 -6.03247651 -3.05644125 0 0 Z " fill="#F9AC15" transform="translate(388.283447265625,369.471435546875)"/>
<path d="M0 0 C8.25 0 16.5 0 25 0 C25 42.57 25 85.14 25 129 C16.75 129 8.5 129 0 129 C-0.33 125.04 -0.66 121.08 -1 117 C-2.546875 118.85625 -2.546875 118.85625 -4.125 120.75 C-9.07978594 126.39267372 -14.44269871 130.41502092 -22.11987305 131.22314453 C-24.52155208 131.34062211 -26.90795718 131.37972452 -29.3125 131.375 C-30.15901123 131.37338867 -31.00552246 131.37177734 -31.87768555 131.37011719 C-38.02913518 131.24895317 -42.78552085 130.43654461 -48 127 C-49.546875 126.13375 -49.546875 126.13375 -51.125 125.25 C-63.12980499 115.85493522 -68.13369623 102.82156241 -70 88 C-71.37680184 71.76521163 -67.68674294 55.88021673 -57.3125 43.125 C-51.06470195 36.50401941 -43.10713692 32.30602687 -34.0234375 31.76171875 C-24.15404167 31.52374839 -15.57134679 31.36331994 -7.625 37.9765625 C-5.60195106 39.90829326 -3.71327145 41.78901841 -2 44 C-2 44.66 -2 45.32 -2 46 C-1.34 46 -0.68 46 0 46 C0 30.82 0 15.64 0 0 Z " fill="#2F13A8" transform="translate(774,423)"/>
<path d="M0 0 C11.0156889 8.39028305 17.85660656 19.1981488 20 33 C21.06961426 48.11212151 19.5600384 62.46334158 9.94140625 74.82421875 C1.58193642 84.19288011 -8.45348555 91.13094835 -21.29321289 92.18896484 C-23.69885997 92.26700733 -26.09328317 92.27317865 -28.5 92.25 C-29.30308594 92.25773438 -30.10617187 92.26546875 -30.93359375 92.2734375 C-42.93790759 92.23452562 -54.10754454 88.1034778 -62.875 79.75 C-74.17094525 67.43272155 -78.0818047 52.49978388 -77.3828125 36.046875 C-76.41321486 23.15549503 -70.55576614 11.62519817 -61.1953125 2.81640625 C-44.25191742 -11.20259502 -18.29333973 -12.75894166 0 0 Z " fill="#3013A8" transform="translate(1114,463)"/>
<path d="M0 0 C29.04 0 58.08 0 88 0 C88 7.26 88 14.52 88 22 C67.87 22 47.74 22 27 22 C27 32.56 27 43.12 27 54 C45.48 54 63.96 54 83 54 C83 60.93 83 67.86 83 75 C64.52 75 46.04 75 27 75 C27 85.56 27 96.12 27 107 C48.45 107 69.9 107 92 107 C92 114.26 92 121.52 92 129 C61.64 129 31.28 129 0 129 C0 86.43 0 43.86 0 0 Z " fill="#3115A9" transform="translate(596,423)"/>
<path d="M0 0 C9.24 0 18.48 0 28 0 C31.37516625 7.87538792 31.37516625 7.87538792 32.63476562 11.82910156 C32.91974411 12.71785477 33.2047226 13.60660797 33.49833679 14.52229309 C33.79794815 15.46884262 34.09755951 16.41539215 34.40625 17.390625 C34.72765457 18.39659225 35.04905914 19.40255951 35.38020325 20.43901062 C36.42364262 23.7082345 37.46199197 26.97904796 38.5 30.25 C39.21879349 32.50730674 39.93778898 34.76454917 40.65698242 37.02172852 C42.44478455 42.63692314 44.22772669 48.253645 46.00823975 53.87115479 C46.93007593 56.77940073 47.85284911 59.68734756 48.77587891 62.59521484 C50.06073319 66.64473028 51.34256375 70.6951875 52.62109375 74.7467041 C53.07545972 76.18641211 53.53035903 77.62595192 53.98583984 79.06530762 C56.49441258 86.99986862 58.89150045 94.94831792 61 103 C61.22550537 102.26813477 61.45101074 101.53626953 61.68334961 100.78222656 C62.766364 97.27095694 63.85122297 93.76026137 64.9375 90.25 C65.14073883 89.59321259 65.34397766 88.93642517 65.55337524 88.25973511 C68.36792047 79.17270421 71.24652446 70.10954024 74.1875 61.0625 C80.76049612 40.80355465 86.83352213 20.3853408 93 0 C102.57 0 112.14 0 122 0 C116.29387191 17.38174402 110.39015648 34.65941419 104.20428467 51.87487793 C98.07659033 68.93026057 92.05554077 86.02196839 86.0625 103.125 C85.60524958 104.42965861 85.14799457 105.7343156 84.69073486 107.03897095 C82.12549412 114.35873301 79.56251169 121.67928133 77 129 C66.44 129 55.88 129 45 129 C30.21833981 87.78873139 30.21833981 87.78873139 24.22363281 70.25219727 C21.17165673 61.34727849 18.06284585 52.46283269 14.94140625 43.58203125 C14.7149045 42.93746412 14.48840275 42.292897 14.25503731 41.62879753 C11.93364545 35.0229347 9.61054464 28.4176779 7.28366375 21.81374645 C6.19581898 18.72517724 5.10983765 15.6359526 4.0234375 12.546875 C3.61771011 11.39729813 3.21198273 10.24772125 2.79396057 9.06330872 C2.42544479 8.01471176 2.05692902 6.96611481 1.67724609 5.88574219 C1.35211029 4.96283386 1.02697449 4.03992554 0.69198608 3.08905029 C0 1 0 1 0 0 Z " fill="#3013A8" transform="translate(916,423)"/>
<path d="M0 0 C11.89206884 10.03550113 17.80566243 21.86001263 19.6875 37.3125 C19.6875 41.6025 19.6875 45.8925 19.6875 50.3125 C-2.0925 50.3125 -23.8725 50.3125 -46.3125 50.3125 C-44.54485945 62.03147722 -44.54485945 62.03147722 -37.55859375 70.69140625 C-31.69465902 74.09130376 -25.67791407 74.19344842 -19.14453125 72.875 C-15.07723092 71.61626102 -12.98228465 70.04303399 -10.3515625 66.71875 C-7.14487469 63.42240642 -4.9512662 62.79523242 -0.37890625 62.62890625 C1.79012299 62.67505581 3.95863681 62.75800353 6.125 62.875 C7.23810547 62.90658203 8.35121094 62.93816406 9.49804688 62.97070312 C12.23062072 63.05279762 14.95765941 63.16754989 17.6875 63.3125 C16.55901274 72.24960023 11.83420025 79.16278453 4.890625 84.78125 C-8.71880923 94.24028939 -25.06210256 95.42376561 -41.09765625 92.66015625 C-51.90482529 89.41103317 -61.28839354 81.51746515 -66.78515625 71.67578125 C-73.52264975 57.59186627 -75.01807009 40.06449543 -70.625 25 C-65.36271984 10.83800393 -57.71710944 1.87716288 -44.046875 -4.79296875 C-30.63478792 -9.78732985 -11.71924343 -8.12202392 0 0 Z " fill="#2F13A8" transform="translate(1372.3125,461.6875)"/>
<path d="M0 0 C14.57069569 6.82970392 28.98395551 13.93958221 43.3515625 21.18603516 C46.73472945 22.89181478 50.11987836 24.59281719 53.515625 26.2734375 C55.72166691 27.36656589 57.92063256 28.47419516 60.109375 29.6015625 C65.91528791 32.47244209 70.53332322 34.18440545 77 33 C85.61449836 29.93822046 93.7754178 25.73547285 101.9140625 21.60546875 C103.71168753 20.70087228 105.50931473 19.7962801 107.30707359 18.89194965 C110.41480081 17.32726709 113.51979998 15.75719027 116.625 14.1875 C120.37423043 12.29246152 124.12395433 10.39844427 127.87680054 8.51057434 C130.20242915 7.34021587 132.52623949 6.16623599 134.84805298 4.98832703 C135.89029022 4.46390518 136.93252747 3.93948334 138.00634766 3.39916992 C138.92501617 2.93459885 139.84368469 2.47002777 140.79019165 1.99137878 C143 1 143 1 145 1 C145.09943082 6.26524445 145.17173199 11.52993343 145.21972656 16.79589844 C145.23974959 18.58440684 145.26697654 20.37285054 145.30175781 22.16113281 C145.35068955 24.74300162 145.37306165 27.3239995 145.390625 29.90625 C145.41127014 30.69616333 145.43191528 31.48607666 145.45318604 32.29992676 C145.45582063 38.928915 143.48167272 43.96559108 139.28125 49.1015625 C121.84015436 64.01828903 96.55692784 67.43174538 74.375 67.3125 C73.67067841 67.31067719 72.96635681 67.30885437 72.24069214 67.30697632 C61.25635983 67.25917841 50.68844454 66.67602727 40 64 C38.92540527 63.74259033 38.92540527 63.74259033 37.82910156 63.47998047 C27.76455389 61.01127621 18.78758414 57.61150016 10 52 C9.15953125 51.47535156 8.3190625 50.95070313 7.453125 50.41015625 C1.75545085 44.81228212 -0.22253258 39.0984335 -0.46829224 31.21478271 C-0.50248362 26.93193399 -0.41760997 22.65634726 -0.3125 18.375 C-0.28737794 16.58987509 -0.26457169 14.80471601 -0.24414062 13.01953125 C-0.1894722 8.67883282 -0.10341948 4.33979939 0 0 Z " fill="#F9AB15" transform="translate(298,441)"/>
<path d="M0 0 C8.25 0 16.5 0 25 0 C25.01458252 1.87179932 25.02916504 3.74359863 25.04418945 5.67211914 C25.0959544 11.87486074 25.16127062 18.07734547 25.23571491 24.27985477 C25.28033415 28.03835444 25.31960837 31.79674782 25.34643555 35.55541992 C25.37255354 39.18663302 25.41301461 42.81743527 25.46318626 46.44839287 C25.47979788 47.82972519 25.49134757 49.21112848 25.49761391 50.59254646 C25.43762246 60.73285358 25.43762246 60.73285358 29 70 C33.04279174 73.93913042 35.77587363 74.82891336 41.25 75.25 C46.90442346 74.87303844 51.26289834 73.69138846 55.375 69.6875 C58.31789994 64.82039626 59.24857467 60.36450158 59.31884766 54.71923828 C59.33871735 53.4984256 59.35858704 52.27761292 59.37905884 51.01980591 C59.39061005 49.71647308 59.40216125 48.41314026 59.4140625 47.0703125 C59.4327915 45.71124112 59.45236619 44.35218115 59.4727478 42.99313354 C59.52389241 39.43240108 59.56361204 35.871631 59.60089111 32.31072998 C59.6410422 28.67060168 59.69208364 25.0306275 59.7421875 21.390625 C59.83873722 14.2605239 59.92220074 7.13033395 60 0 C68.25 0 76.5 0 85 0 C85 31.68 85 63.36 85 96 C77.08 96 69.16 96 61 96 C60.67 92.37 60.34 88.74 60 85 C59.01 86.0725 58.02 87.145 57 88.25 C49.64943145 95.55628801 40.800142 97.94078341 30.625 98.375 C21.15369982 98.13689469 13.69429752 94.74543681 6.87890625 88.22265625 C4.00054449 84.81769192 2.33536236 81.22864746 1 77 C0.73570946 76.16707428 0.73570946 76.16707428 0.46607971 75.31732178 C-0.17415182 72.13412709 -0.11912357 69.0916683 -0.11352539 65.84472656 C-0.11374443 64.77583443 -0.11374443 64.77583443 -0.1139679 63.68534851 C-0.11327291 61.33707605 -0.10549994 58.98888355 -0.09765625 56.640625 C-0.0957906 55.00966434 -0.09436739 53.37870312 -0.09336853 51.7477417 C-0.08955494 47.46025031 -0.07973454 43.17279292 -0.06866455 38.88531494 C-0.05842553 34.50818339 -0.05386557 30.13104633 -0.04882812 25.75390625 C-0.03811123 17.16925351 -0.02052381 8.58463491 0 0 Z " fill="#3014A9" transform="translate(821,457)"/>
<path d="M0 0 C7.90797782 6.16457637 13.57591709 13.51500884 16.1875 23.3125 C16.1875 24.9625 16.1875 26.6125 16.1875 28.3125 C7.6075 28.3125 -0.9725 28.3125 -9.8125 28.3125 C-11.1325 25.3425 -12.4525 22.3725 -13.8125 19.3125 C-17.16188822 15.39126502 -19.30321223 13.53337526 -24.51953125 13.07421875 C-30.79956119 12.92412998 -34.9755672 12.83833716 -39.8125 17.3125 C-47.25911599 25.1846369 -48.11787349 34.3342115 -48.03125 44.6640625 C-47.57569533 52.26206362 -45.83861242 59.4247683 -40.8125 65.3125 C-34.89199998 69.78308164 -30.10436252 71.15023825 -22.8125 70.3125 C-16.95431654 68.5139349 -13.71900237 65.79013908 -10.8125 60.3125 C-10.1525 58.6625 -9.4925 57.0125 -8.8125 55.3125 C-0.2325 55.3125 8.3475 55.3125 17.1875 55.3125 C14.78973099 67.30134503 11.10844504 76.73077444 1.1875 84.3125 C-12.13601392 92.37484198 -26.94981232 94.69044195 -42.2421875 91.625 C-44.92887236 90.71167937 -47.31967299 89.66418491 -49.8125 88.3125 C-50.59625 87.88839844 -51.38 87.46429687 -52.1875 87.02734375 C-63.15284834 80.37774906 -69.83099301 70.52414433 -72.921875 58.17578125 C-75.58970698 45.49104501 -75.59426308 30.0455241 -69.8125 18.3125 C-69.42707031 17.49910156 -69.04164062 16.68570312 -68.64453125 15.84765625 C-63.09669767 5.0572097 -54.83534122 -2.30455278 -43.375 -6.625 C-28.59768616 -10.40799234 -12.60217116 -8.53201047 0 0 Z " fill="#3014A9" transform="translate(1269.8125,462.6875)"/>
<path d="M0 0 C8.25 0 16.5 0 25 0 C25 31.68 25 63.36 25 96 C16.75 96 8.5 96 0 96 C0 64.32 0 32.64 0 0 Z " fill="#2F12A8" transform="translate(1152,457)"/>
<path d="M0 0 C6.86545087 4.74043036 11.15060275 11.13469692 13.25390625 19.234375 C14.94631252 30.99214486 13.72582739 41.58543315 7.33984375 51.640625 C4.16033454 55.66752049 -0.23073721 58.188953 -5.375 58.8125 C-12.44181812 59.27589791 -16.97174023 57.94943055 -23.0625 54.125 C-29.12401523 48.06348477 -31.59903255 39.43030974 -31.75537109 31.03613281 C-31.7317629 20.16348689 -30.8007367 11.45463274 -22.9921875 3.21875 C-16.61285337 -2.32849707 -7.72146802 -2.71681282 0 0 Z " fill="#FDFCFE" transform="translate(1094.375,476.1875)"/>
<path d="M0 0 C5.41621897 3.551619 9.25327634 7.62114364 11.375 13.796875 C13.80158278 26.23311173 12.99716359 38.07346465 6.1875 48.875 C0.54099337 54.36017787 -5.86985969 56.44579132 -13.625 56.34375 C-19.14432722 55.54490001 -22.90101823 52.05013813 -26.8125 48.3125 C-33.5372624 38.12928836 -33.65518963 24.53619807 -31.37890625 12.796875 C-28.91818462 5.66625053 -23.90810843 1.19235351 -17.4375 -2.4375 C-11.07346261 -3.90612401 -5.68009308 -3.02938297 0 0 Z " fill="#FDFCFE" transform="translate(762,478)"/>
<path d="M0 0 C6.18063892 3.24317397 8.96328893 8.02187901 11.30078125 14.30078125 C11.81640625 16.265625 11.81640625 16.265625 11.81640625 20.265625 C-1.38359375 20.265625 -14.58359375 20.265625 -28.18359375 20.265625 C-27.1774901 12.21679581 -26.23369463 8.13759644 -20.49609375 2.65234375 C-14.50416502 -1.77918688 -7.02771377 -2.36352449 0 0 Z " fill="#FCFCFD" transform="translate(1354.18359375,474.734375)"/>
<path d="M0 0 C8.25 0 16.5 0 25 0 C25 6.93 25 13.86 25 21 C16.75 21 8.5 21 0 21 C0 14.07 0 7.14 0 0 Z " fill="#3314AA" transform="translate(1152,423)"/>
<path d="M0 0 C2.87029869 1.79393668 4.49131638 2.98263276 6 6 C6.53118173 9.79415519 6.85089348 13.46331178 4.953125 16.890625 C2.0632428 20.39248226 0.23797875 21.8571563 -4.25 22.375 C-9.19272958 21.88072704 -10.53828301 20.46171699 -14 17 C-15.72869779 13.54260443 -15.48966895 9.78024432 -15 6 C-11.10231905 -0.23628951 -6.98983895 -0.90541955 0 0 Z " fill="#FAF9FD" transform="translate(173,444)"/>
<path d="M0 0 C2.87029869 1.79393668 4.49131638 2.98263276 6 6 C6.54399285 10.539219 6.62289461 13.9544269 4.25 17.9375 C0.78133288 21.11711152 -0.6332667 22.04969939 -5.4375 21.875 C-9.29943186 20.92645533 -11.17092464 19.74586726 -14 17 C-15.72869779 13.54260443 -15.48966895 9.78024432 -15 6 C-11.10231905 -0.23628951 -6.98983895 -0.90541955 0 0 Z " fill="#FBFAFD" transform="translate(187,516)"/>
<path d="M0 0 C8.25 0 16.5 0 25 0 C25 6.93 25 13.86 25 21 C16.75 21 8.5 21 0 21 C0 14.07 0 7.14 0 0 Z M2 1 C2 6.94 2 12.88 2 19 C9.26 19 16.52 19 24 19 C24 13.06 24 7.12 24 1 C16.74 1 9.48 1 2 1 Z " fill="#14059C" transform="translate(1152,423)"/>
<path d="M0 0 C9.24 0 18.48 0 28 0 C28 0.66 28 1.32 28 2 C20.08 2.33 12.16 2.66 4 3 C4 4.65 4 6.3 4 8 C3.34 7.67 2.68 7.34 2 7 C1.34 4.69 0.68 2.38 0 0 Z " fill="#19099E" transform="translate(916,423)"/>
<path d="M0 0 C8.58 0 17.16 0 26 0 C25.67 1.65 25.34 3.3 25 5 C24.67 4.01 24.34 3.02 24 2 C16.41 2 8.82 2 1 2 C0.34 3.98 -0.32 5.96 -1 8 C-1.66 7.67 -2.32 7.34 -3 7 C-2.01 4.69 -1.02 2.38 0 0 Z " fill="#1A08A1" transform="translate(1261,518)"/>
<path d="M0 0 C7.92 0 15.84 0 24 0 C22.875 6.75 22.875 6.75 20 10 C20.52268466 7.23723823 21.10869587 4.6739124 22 2 C14.41 2 6.82 2 -1 2 C-0.67 1.34 -0.34 0.68 0 0 Z " fill="#16059F" transform="translate(1366,525)"/>
<path d="M0 0 C2.55049551 2.55049551 2.2606479 4.23482754 2.2734375 7.71679688 C2.26570312 8.44962891 2.25796875 9.18246094 2.25 9.9375 C2.25773438 10.66646484 2.26546875 11.39542969 2.2734375 12.14648438 C2.25946171 15.95838223 2.16125927 17.7581111 0 21 C-1.09016409 17.46994485 -1.13344314 14.18121037 -1.125 10.5 C-1.12757813 9.3759375 -1.13015625 8.251875 -1.1328125 7.09375 C-1.02266367 4.5279301 -0.75270662 2.43733573 0 0 Z " fill="#3724AB" transform="translate(705,494)"/>
<path d="M0 0 C-1.19625 0.515625 -2.3925 1.03125 -3.625 1.5625 C-7.6959767 3.55835937 -10.01762891 5.9839294 -12.67578125 9.609375 C-13.11277344 10.06828125 -13.54976562 10.5271875 -14 11 C-14.99 11 -15.98 11 -17 11 C-17.28875 11.804375 -17.5775 12.60875 -17.875 13.4375 C-19 16 -19 16 -21 17 C-18.99282832 9.86338959 -13.48864687 4.59112843 -7.25 0.9375 C-3.4407677 -1.14692257 -3.4407677 -1.14692257 0 0 Z " fill="#1C0D9F" transform="translate(733,458)"/>
<path d="M0 0 C0.66 0.33 1.32 0.66 2 1 C1.34 1.66 0.68 2.32 0 3 C-0.309375 4.175625 -0.61875 5.35125 -0.9375 6.5625 C-1.288125 7.696875 -1.63875 8.83125 -2 10 C-2.99 10.33 -3.98 10.66 -5 11 C-5.33 11.99 -5.66 12.98 -6 14 C-5.5414571 8.26821381 -4.14522 4.14522 0 0 Z " fill="#200F9F" transform="translate(151,436)"/>
<path d="M0 0 C3.3 0.33 6.6 0.66 10 1 C6.00889681 2.9955516 4.30013434 3.19546065 0 3 C0 2.01 0 1.02 0 0 Z " fill="#3B21AE" transform="translate(1075,455)"/>
<path d="M0 0 C2.67927341 4.01891012 2.15601248 6.24161923 2 11 C0.4375 9.4375 0.4375 9.4375 -1 7 C-0.6875 3.25 -0.6875 3.25 0 0 Z " fill="#381EAC" transform="translate(945,427)"/>
<path d="M0 0 C2.625 -0.1875 2.625 -0.1875 5 0 C5.33 0.99 5.66 1.98 6 3 C3.36 3 0.72 3 -2 3 C-1.34 2.01 -0.68 1.02 0 0 Z " fill="#361EAB" transform="translate(353,294)"/>
</svg>
