<?xml version="1.0" encoding="UTF-8"?>
<svg version="1.1" xmlns="http://www.w3.org/2000/svg" width="1024" height="1024">
<path d="M0 0 C337.92 0 675.84 0 1024 0 C1024 337.92 1024 675.84 1024 1024 C686.08 1024 348.16 1024 0 1024 C0 686.08 0 348.16 0 0 Z " fill="#FEFEFE" transform="translate(0,0)"/>
<path d="M0 0 C1.18335938 0.33902344 2.36671875 0.67804688 3.5859375 1.02734375 C31.27120876 9.92844355 56.75552325 29.28040028 70.296875 55.28515625 C72.37161864 59.45318044 74.23658472 63.69205178 76 68 C76.38285156 68.91910156 76.76570313 69.83820313 77.16015625 70.78515625 C81.11713468 82.39842783 80.51239127 97.93731605 76.55859375 109.4296875 C75.25223433 115.44076792 77.17976139 119.90686417 80.28955078 124.89892578 C80.75087402 125.61290527 81.21219727 126.32688477 81.6875 127.0625 C82.40268799 128.2069458 82.40268799 128.2069458 83.13232422 129.37451172 C85.96357084 133.88514271 88.8769959 138.3392819 91.80859375 142.78515625 C92.4425708 143.75638428 93.07654785 144.7276123 93.72973633 145.72827148 C94.96976966 147.62354335 96.2230546 149.51022722 97.4909668 151.38696289 C100.97573559 156.71190921 102.94304914 160.57879022 103 167 C101.28248329 171.19837418 98.67382769 173.42627391 95 176 C91.703125 177.01171875 91.703125 177.01171875 88.25 177.6875 C84.30885318 178.17570369 84.30885318 178.17570369 81 180 C80.66202118 183.63327236 80.82433306 185.65598557 82.5 188.9375 C84.31995816 192.6532479 84.60556909 194.91240865 84 199 C81.40444213 201.66570809 79.523188 202.825604 76 204 C76.46970726 206.1919672 76.9795266 207.96266615 78.0625 209.9375 C79.23163043 212.50958695 79.35860113 214.20291119 79 217 C77.6875 218.8125 77.6875 218.8125 76 220 C75.01 220 74.02 220 73 220 C72.855625 220.804375 72.71125 221.60875 72.5625 222.4375 C72 225 72 225 71 226 C71.09290181 227.48343205 71.25116064 228.96288852 71.4375 230.4375 C73.0428571 245.85332639 73.0428571 245.85332639 68.35546875 252.37890625 C64.28068484 257.25220689 59.49227202 258.75388166 53.2421875 259.37109375 C51.78685389 259.41160878 50.33088877 259.43247265 48.875 259.4375 C47.67870972 259.44330078 47.67870972 259.44330078 46.45825195 259.44921875 C35.12825597 259.24517042 24.01340298 256.72948518 12.94995117 254.45898438 C9.88557781 253.98219699 7.09485011 253.78093473 4 254 C-1.92887928 260.77586203 -1.3692463 271.80020189 -2 280 C-45.56 280 -89.12 280 -134 280 C-131.03 273.73 -128.06 267.46 -125 261 C-119.50571874 243.46505982 -114.33638942 224.88471649 -121 207 C-121.33 206.01 -121.66 205.02 -122 204 C-121.15697327 204.00888245 -120.31394653 204.01776489 -119.44537354 204.0269165 C-111.49995807 204.1070705 -103.55467842 204.16796841 -95.60895157 204.20724869 C-91.5239563 204.22812211 -87.43929515 204.25643463 -83.35449219 204.30175781 C-79.41225655 204.3452253 -75.47034223 204.36913895 -71.52788544 204.37950897 C-70.02395316 204.38689882 -68.52003843 204.40132967 -67.01624298 204.42292023 C-64.90920541 204.45196812 -62.80349471 204.45595571 -60.69628906 204.45410156 C-59.49715881 204.46298401 -58.29802856 204.47186646 -57.06256104 204.48101807 C-53.38806694 203.90388735 -52.26231775 202.88520056 -50 200 C-48.2150043 196.4300086 -48.74503169 192.95613116 -49.75 189.1875 C-50.77465305 186.92488435 -50.77465305 186.92488435 -52.625 186.1875 C-53.40875 186.125625 -54.1925 186.06375 -55 186 C-56.27875 185.835 -57.5575 185.67 -58.875 185.5 C-61.00958702 185.41521108 -61.00958702 185.41521108 -63 186 C-64.43765094 187.54775661 -64.43765094 187.54775661 -65.6484375 189.47265625 C-67.39716559 191.62296433 -68.42916167 192.81693115 -71.08740234 193.66943359 C-73.66214197 193.92631517 -76.16241729 193.96943983 -78.75 193.9375 C-80.2038208 193.95731934 -80.2038208 193.95731934 -81.68701172 193.97753906 C-83.87488692 194.00116987 -86.0629837 194.00806465 -88.25097656 194.00146484 C-91.69913974 194.00011755 -95.14256373 194.0440564 -98.58996582 194.10523987 C-101.6697741 194.1576598 -104.74962627 194.19350019 -107.82971191 194.22512817 C-109.35408736 194.24164636 -110.87842879 194.26169977 -112.40270996 194.28536987 C-114.56296264 194.31515852 -116.72237654 194.32436648 -118.8828125 194.328125 C-120.13465332 194.3374707 -121.38649414 194.34681641 -122.67626953 194.35644531 C-127.88658339 193.797678 -130.43747003 191.65118048 -133.81054688 187.86669922 C-136.58084861 185.01378257 -138.79679065 184.26648384 -142.86218262 184.11502075 C-143.57797485 184.12089203 -144.29376709 184.12676331 -145.03125 184.1328125 C-145.78539185 184.1223288 -146.53953369 184.11184509 -147.31652832 184.1010437 C-148.90318906 184.08825732 -150.49004006 184.09080809 -152.07666016 184.10791016 C-154.49596019 184.12497151 -156.90584825 184.06735343 -159.32421875 184.00390625 C-167.27565323 183.70691963 -167.27565323 183.70691963 -174.31323242 186.77246094 C-175.92291439 188.8581649 -175.92291439 188.8581649 -176.97924805 191.08544922 C-178 193 -178 193 -181.3125 195 C-187.3032592 196.62461266 -192.44379415 196.96025672 -198.25 194.5 C-202.66453335 191.96605786 -205.2604411 188.77979716 -207 184 C-207.9929597 178.40849741 -207.74383206 173.56914557 -204.9375 168.5625 C-201.51531179 163.9201444 -198.12126101 161.48988401 -192.38671875 160.58984375 C-186.55826033 160.27544558 -182.4212962 161.06455346 -177.66015625 164.49609375 C-175.13623048 166.78247356 -173.60470668 168.99117498 -172 172 C-172 172.66 -172 173.32 -172 174 C-164.13421797 173.95833521 -156.26914373 173.8860121 -148.40380859 173.79248047 C-145.72854791 173.76207056 -143.05389447 173.74305956 -140.37841797 173.72900391 C-136.53049079 173.70757097 -132.68356476 173.66091483 -128.8359375 173.609375 C-127.64197357 173.60814636 -126.44800964 173.60691772 -125.21786499 173.60565186 C-118.9131452 173.49472169 -114.73311478 173.37013018 -110 169 C-108.44975536 165.89951072 -108.71007985 163.42105782 -109 160 C-110.79562405 157.24670979 -112.05254922 155.47372539 -115 154 C-119.96773498 153.51141276 -119.96773498 153.51141276 -124.3125 155.625 C-126.45698481 158.39861625 -126.45698481 158.39861625 -128 164 C-134.27 164 -140.54 164 -147 164 C-157 139.28301887 -157 139.28301887 -157 129 C-162.09368015 128.95565204 -166.98298482 129.06033998 -172 130 C-174.28046705 132.89877276 -174.28046705 132.89877276 -175 135.14453125 C-177.14737364 139.12891593 -181.91590718 140.56898453 -186 142 C-191.86637591 142.91029971 -196.17743295 141.24656474 -201 138 C-206.20428427 132.52180603 -207.46474551 128.11825829 -207.31640625 120.69140625 C-206.7239975 115.652275 -204.14133226 113.02719903 -200.5 109.75 C-195.63473976 106.34431783 -192.02924067 105.27739438 -186 106 C-180.80605951 107.6726249 -177.45164542 109.75940706 -174 114 C-173.34 115.98 -172.68 117.96 -172 120 C-167.38 120 -162.76 120 -158 120 C-158 119.34 -158 118.68 -158 118 C-154.37 118 -150.74 118 -147 118 C-146.34 119.32 -145.68 120.64 -145 122 C-141.7800434 124.299969 -138.87718692 124.40387364 -135 124 C-132.55797882 123.14782671 -132.55797882 123.14782671 -131 121 C-130.02780168 118.2612462 -129.44824455 115.86912835 -130 113 C-131.67706817 110.02007995 -131.67706817 110.02007995 -135 108 C-138.95572821 107.3894019 -142.82215617 107.52905629 -146.8125 107.6875 C-147.88693359 107.71005859 -148.96136719 107.73261719 -150.06835938 107.75585938 C-152.7136685 107.81464402 -155.35611413 107.89676043 -158 108 C-156.48660262 89.31737022 -151.23455037 72.30147534 -142 56 C-141.18595703 54.54400391 -141.18595703 54.54400391 -140.35546875 53.05859375 C-123.76520803 25.32742803 -95.2972589 5.9843491 -64.23657227 -1.90722656 C-43.84063716 -6.48698166 -19.96832293 -6.06127068 0 0 Z " fill="#381C9A" transform="translate(262,360)"/>
<path d="M0 0 C2.98356871 1.46535795 5.98091302 2.90144363 8.97792053 4.33906555 C10.53659522 5.08684385 12.09458356 5.83605437 13.65190125 6.58665466 C21.0550125 10.14855114 28.52405222 13.55661978 36.01290894 16.9336853 C39.43539632 18.47749932 42.85443579 20.02890512 46.27346802 21.58035278 C46.91344727 21.87071411 47.55342651 22.16107544 48.21279907 22.4602356 C53.8369659 25.01359641 59.45407982 27.58065051 65.05081177 30.19363403 C65.80547729 30.54031128 66.56014282 30.88698853 67.337677 31.24417114 C70.63377757 32.79659406 73.30245817 34.1621572 75.67581177 36.94363403 C76.36331177 39.75613403 76.36331177 39.75613403 75.67581177 42.94363403 C70.21331702 48.47473154 62.74024267 51.594252 55.80081177 54.81863403 C54.75667114 55.31621216 53.71253052 55.81379028 52.63674927 56.32644653 C44.96513182 59.94363403 44.96513182 59.94363403 42.67581177 59.94363403 C42.69675903 60.92122681 42.7177063 61.89881958 42.73928833 62.90603638 C42.81238897 66.57743334 42.85786219 70.24876776 42.89553833 73.92068481 C42.91549599 75.50152449 42.94267237 77.08229186 42.97756958 78.66287231 C43.23920113 90.8287393 42.61234836 100.79176374 33.76565552 110.06863403 C19.4341449 122.92681178 0.04125009 126.35666272 -18.63668823 126.25613403 C-19.72755737 126.25121948 -20.81842651 126.24630493 -21.94235229 126.24124146 C-40.43895461 125.97375129 -58.22820569 121.36342355 -72.13668823 108.63113403 C-80.63008057 99.30844275 -79.82043437 89.28806414 -79.57418823 77.38113403 C-79.55409311 75.68779577 -79.53584766 73.9944345 -79.51950073 72.30105591 C-79.47574161 68.18134032 -79.40688213 64.06274452 -79.32418823 59.94363403 C-79.85423462 59.78435425 -80.38428101 59.62507446 -80.9303894 59.46096802 C-87.13047719 57.50733133 -92.83843839 54.92914687 -98.63668823 52.00613403 C-99.95636597 51.36128052 -99.95636597 51.36128052 -101.30270386 50.70339966 C-109.63803736 46.53256839 -109.63803736 46.53256839 -112.32418823 42.94363403 C-112.69918823 39.56863403 -112.69918823 39.56863403 -111.32418823 35.94363403 C-104.6812821 30.82649891 -96.48845573 27.4553135 -88.94918823 23.88113403 C-87.19674805 23.04412964 -87.19674805 23.04412964 -85.40890503 22.19021606 C-74.70029432 17.08350942 -63.94863758 12.06806573 -53.16793823 7.11550903 C-48.59860332 5.01278324 -44.06261673 2.85410492 -39.54293823 0.64675903 C-38.46294556 0.12807251 -37.38295288 -0.39061401 -36.27023315 -0.92501831 C-34.24648211 -1.89786942 -32.23030955 -2.8867204 -30.22384644 -3.89474487 C-18.56503966 -9.43848942 -10.91233963 -5.35992652 0 0 Z " fill="#FDFCFB" transform="translate(236.32418823242188,401.0563659667969)"/>
<path d="M0 0 C0.67736206 0.32131897 1.35472412 0.64263794 2.0526123 0.97369385 C3.50679798 1.66421485 4.95979796 2.35723738 6.41171265 3.05252075 C9.47038403 4.5172314 12.53463337 5.97008402 15.59870911 7.42344666 C17.15285736 8.16069056 18.70672011 8.89853663 20.26029968 9.63697815 C27.20897366 12.93772817 34.18597818 16.17388758 41.17578125 19.38671875 C43.25001807 20.34110656 45.32423763 21.29553188 47.3984375 22.25 C48.8218042 22.90476318 48.8218042 22.90476318 50.27392578 23.57275391 C56.18946892 26.3001396 62.08989472 29.05995839 67.98828125 31.82421875 C64.9446834 35.09706264 61.3973785 36.76888301 57.41015625 38.66796875 C56.27734222 39.21659576 56.27734222 39.21659576 55.12164307 39.77630615 C52.66338804 40.96498964 50.20095227 42.14471515 47.73828125 43.32421875 C46.04663159 44.13979479 44.3552261 44.95587748 42.6640625 45.77246094 C38.51898512 47.77203765 34.37046161 49.76433086 30.22045898 51.75366211 C28.21324869 52.71632394 26.2069095 53.68075885 24.20117188 54.64648438 C18.55557526 57.3647346 12.90222526 60.06527661 7.23876953 62.74609375 C5.12132184 63.76048397 3.02005966 64.80193444 0.921875 65.85546875 C-0.23183594 66.42265625 -1.38554687 66.98984375 -2.57421875 67.57421875 C-3.50363281 68.0434375 -4.43304688 68.51265625 -5.390625 68.99609375 C-11.14595743 70.81447002 -16.16037796 68.03969829 -21.26953125 65.46484375 C-21.96243256 65.123927 -22.65533386 64.78301025 -23.36923218 64.4317627 C-24.85609845 63.69946044 -26.34129469 62.96375928 -27.82495117 62.22497559 C-31.74635835 60.27296875 -35.68043183 58.34678905 -39.61328125 56.41796875 C-40.40555115 56.02865173 -41.19782104 55.63933472 -42.01409912 55.23822021 C-49.46734195 51.58294683 -56.97588922 48.05546113 -64.51171875 44.57421875 C-66.17098389 43.80706543 -66.17098389 43.80706543 -67.86376953 43.02441406 C-74.56855935 39.93306419 -81.28728915 36.87258232 -88.01171875 33.82421875 C-87.01171875 30.82421875 -87.01171875 30.82421875 -84.71557617 29.46826172 C-83.69310791 29.00564941 -82.67063965 28.54303711 -81.6171875 28.06640625 C-80.45082764 27.53128418 -79.28446777 26.99616211 -78.08276367 26.44482422 C-76.78826311 25.86292366 -75.49374772 25.2810561 -74.19921875 24.69921875 C-72.17623012 23.77597017 -70.15499583 22.84894784 -68.13374329 21.92190552 C-66.70094394 21.26514357 -65.26756915 20.60963575 -63.83366394 19.95529175 C-55.08103849 15.95728027 -46.39272189 11.82375337 -37.69921875 7.69921875 C-33.34511442 5.63410615 -28.99032946 3.57078857 -24.62646484 1.52636719 C-22.45938925 0.50591257 -20.29849542 -0.52807146 -18.15087891 -1.58886719 C-17.36890137 -1.9655957 -16.58692383 -2.34232422 -15.78125 -2.73046875 C-14.84116089 -3.19815674 -14.84116089 -3.19815674 -13.88208008 -3.67529297 C-8.95692394 -4.99321101 -4.34286088 -2.09653929 0 0 Z " fill="#FBAC0B" transform="translate(228.01171875,408.17578125)"/>
<path d="M0 0 C6.27 0 12.54 0 19 0 C19 31.68 19 63.36 19 96 C12.73 96 6.46 96 0 96 C-0.33 94.02 -0.66 92.04 -1 90 C-1.43570313 90.40992188 -1.87140625 90.81984375 -2.3203125 91.2421875 C-2.91585937 91.78101563 -3.51140625 92.31984375 -4.125 92.875 C-4.70507812 93.40867187 -5.28515625 93.94234375 -5.8828125 94.4921875 C-12.14971789 98.95533414 -19.63439283 98.71536473 -27 98 C-35.29031797 95.72446762 -41.63183878 90.63526471 -45.8984375 83.203125 C-51.12480087 72.75039825 -51.84280617 59.80592827 -48.875 48.5 C-45.51541654 39.26899498 -39.55179254 31.80950276 -30.7734375 27.3671875 C-26.92747349 25.79011318 -23.19070409 25.46339718 -19.0625 25.5 C-18.3617334 25.50209473 -17.6609668 25.50418945 -16.93896484 25.50634766 C-9.81416585 25.72345598 -5.87249431 28.12750569 -1 33 C-0.67 22.11 -0.34 11.22 0 0 Z " fill="#351A98" transform="translate(520,450)"/>
<path d="M0 0 C6.61563739 5.27309973 11.85000442 13.50371068 13.1875 21.875 C14.18962595 34.56441987 13.31272825 45.83420506 4.9453125 56.09375 C-2.34340131 63.47964666 -10.99221136 66.96138695 -21.25 67.25 C-31.32319154 66.99110956 -38.76998479 64.30257433 -46.375 57.625 C-54.63813184 48.30249228 -57.45450241 39.07491263 -57.15625 26.66015625 C-56.27890782 16.99942245 -52.86592717 8.64682647 -45.8125 1.875 C-32.03264742 -8.42665828 -14.73291907 -9.22037919 0 0 Z " fill="#361A99" transform="translate(765.8125,481.125)"/>
<path d="M0 0 C21.12 0 42.24 0 64 0 C64 5.28 64 10.56 64 16 C49.15 16 34.3 16 19 16 C19 24.25 19 32.5 19 41 C32.53 41 46.06 41 60 41 C60 45.95 60 50.9 60 56 C46.47 56 32.94 56 19 56 C19 63.92 19 71.84 19 80 C34.51 80 50.02 80 66 80 C66 85.28 66 90.56 66 96 C44.22 96 22.44 96 0 96 C0 64.32 0 32.64 0 0 Z " fill="#391C9A" transform="translate(394,450)"/>
<path d="M0 0 C6.6 0 13.2 0 20 0 C26.70810237 19.3257235 32.61294161 38.85495718 38.38916016 58.47680664 C38.68694366 59.48674683 38.98472717 60.49668701 39.29153442 61.53723145 C39.85698596 63.45675331 40.42060027 65.37681759 40.98214722 67.29748535 C41.23360504 68.15201294 41.48506287 69.00654053 41.74414062 69.88696289 C41.96348267 70.63603409 42.18282471 71.38510529 42.40881348 72.15687561 C42.96955308 74.06632535 42.96955308 74.06632535 44 76 C44.20187424 75.31112198 44.40374847 74.62224396 44.61174011 73.91249084 C46.53791499 67.3396443 48.4641713 60.76682162 50.39051342 54.19402409 C51.3802584 50.81694339 52.36997463 47.43985428 53.35961914 44.06274414 C53.5512306 43.40889551 53.74284206 42.75504688 53.94025993 42.08138466 C54.32422644 40.77112676 54.70817453 39.46086347 55.09210396 38.15059471 C56.03149509 34.94489168 56.97151089 31.73937462 57.912323 28.53408813 C59.49367561 23.1460341 61.07284254 17.75750514 62.63134766 12.36279297 C62.86557938 11.55539169 63.0998111 10.74799042 63.34114075 9.91612244 C63.7577997 8.47871732 64.1719698 7.04058723 64.58305359 5.60157776 C65.88779448 1.11220552 65.88779448 1.11220552 67 0 C68.4887186 -0.08669432 69.981445 -0.10703494 71.47265625 -0.09765625 C72.37177734 -0.09443359 73.27089844 -0.09121094 74.19726562 -0.08789062 C75.61555664 -0.07532227 75.61555664 -0.07532227 77.0625 -0.0625 C78.4865918 -0.05573242 78.4865918 -0.05573242 79.93945312 -0.04882812 C82.29303369 -0.03700109 84.64647581 -0.01968094 87 0 C85.08521461 8.12346478 82.79552639 16.02587931 80.12109375 23.9296875 C79.75233627 25.03171509 79.3835788 26.13374268 79.00364685 27.26916504 C77.81916024 30.80587801 76.62839923 34.34044179 75.4375 37.875 C74.62276227 40.30404921 73.80847348 42.73324905 72.99462891 45.16259766 C71.39585272 49.93333716 69.79489469 54.70333442 68.19189453 59.47265625 C65.40451637 67.76842818 62.63853288 76.07126254 59.875 84.375 C58.59625 88.21125 57.3175 92.0475 56 96 C47.75 96 39.5 96 31 96 C26.95333607 83.92770721 22.9104637 71.85416312 18.87430573 59.77835369 C17.00013033 54.17150249 15.12427984 48.56522327 13.24462891 42.96020508 C11.43170609 37.55396389 9.62314732 32.14628115 7.81764221 26.73755836 C7.12704128 24.67131094 6.43485284 22.60559342 5.74107361 20.540411 C4.77177841 17.65421045 3.80807654 14.76620014 2.84570312 11.87768555 C2.55583023 11.01885269 2.26595734 10.16001984 1.96730042 9.27516174 C1.70646164 8.48852142 1.44562286 7.7018811 1.17687988 6.8914032 C0.94827522 6.2083546 0.71967056 5.525306 0.48413849 4.82155895 C0 3 0 3 0 0 Z " fill="#361B99" transform="translate(626,450)"/>
<path d="M0 0 C7.78253686 6.59914574 11.11987268 14.76122681 12.125 24.8125 C12.125 28.1125 12.125 31.4125 12.125 34.8125 C-3.385 34.8125 -18.895 34.8125 -34.875 34.8125 C-33.09389985 45.86391773 -33.09389985 45.86391773 -29.4375 49.5625 C-23.02832124 51.81133465 -16.66496881 51.77455821 -10.25 49.5625 C-7.49483472 47.81013137 -7.49483472 47.81013137 -5.875 43.8125 C-0.265 43.8125 5.345 43.8125 11.125 43.8125 C9.09261171 51.03876947 6.62369521 57.67365883 0.23828125 62.12890625 C-9.70817629 67.42456439 -21.2937877 68.5242294 -32.1875 65.6875 C-40.96083154 62.61612299 -46.59754565 56.96764662 -50.875 48.8125 C-55.07737535 39.86857662 -55.38805726 28.37762979 -53.18359375 18.8125 C-52.25577786 16.32797208 -51.1860983 14.11611197 -49.875 11.8125 C-49.45089844 11.02359375 -49.02679687 10.2346875 -48.58984375 9.421875 C-44.14879528 1.95002743 -37.95632202 -2.22610349 -29.875 -5.1875 C-19.3782401 -7.52011331 -8.8352994 -6.43903684 0 0 Z " fill="#371B99" transform="translate(947.875,481.1875)"/>
<path d="M0 0 C1.60488281 0.76570313 1.60488281 0.76570313 3.2421875 1.546875 C14.2458552 6.78374455 25.29197438 11.92354279 36.36474609 17.01269531 C37.42902832 17.5022168 38.49331055 17.99173828 39.58984375 18.49609375 C40.53722412 18.93107178 41.48460449 19.3660498 42.46069336 19.81420898 C45 21 45 21 46.90063477 22.21899414 C51.35251397 23.87518225 55.68059197 22.27178318 59.83300781 20.40527344 C61.21123722 19.73317726 62.58443149 19.05068364 63.953125 18.359375 C64.69399353 17.99531555 65.43486206 17.6312561 66.19818115 17.25616455 C68.55343842 16.09658755 70.90182646 14.92384514 73.25 13.75 C75.57961247 12.59607981 77.91058629 11.44494964 80.24182129 10.29431152 C81.74554489 9.55201601 83.24872852 8.80862551 84.75134277 8.06408691 C90.44502661 5.24971726 96.18849016 2.56343311 102 0 C102.09938095 4.16253275 102.17170617 8.32442479 102.21972656 12.48779297 C102.23975843 13.90197795 102.26699248 15.31608097 102.30175781 16.72998047 C102.35065489 18.77071419 102.37305123 20.8103469 102.390625 22.8515625 C102.4220459 24.68968506 102.4220459 24.68968506 102.45410156 26.56494141 C101.79439294 31.55531794 99.43606798 34.56393202 95.9375 38.0625 C84.8876308 45.3507116 71.20681136 49.54527446 58 50 C56.39898437 50.05994141 56.39898437 50.05994141 54.765625 50.12109375 C37.89461864 50.43976831 18.62426619 47.92418435 5 37 C0.17637337 32.09586652 0.17637337 32.09586652 -0.56762695 27.47314453 C-0.54144287 26.20583496 -0.51525879 24.93852539 -0.48828125 23.6328125 C-0.48120651 22.95322479 -0.47413177 22.27363708 -0.46684265 21.57345581 C-0.43906147 19.42280539 -0.37636888 17.27485043 -0.3125 15.125 C-0.28739541 13.65889203 -0.26458602 12.19274285 -0.24414062 10.7265625 C-0.18929288 7.15017977 -0.1031413 3.57535336 0 0 Z " fill="#FBAB0A" transform="translate(167,466)"/>
<path d="M0 0 C6.27 0 12.54 0 19 0 C19.01458252 1.39758545 19.02916504 2.7951709 19.04418945 4.23510742 C19.10220831 9.42563322 19.17944163 14.61572685 19.26245117 19.8059082 C19.29568351 22.0512795 19.32372069 24.296734 19.34643555 26.54223633 C19.38001202 29.77200743 19.43233073 33.00101727 19.48828125 36.23046875 C19.49467117 37.23272995 19.5010611 38.23499115 19.50764465 39.2676239 C19.64174626 45.63999175 20.36494324 49.36494324 25 54 C30.33842485 54.67814555 35.33855281 54.89718148 40.125 52.3125 C44.54277695 46.86390843 44.33297958 41.39618974 44.4140625 34.66796875 C44.43342865 33.67622147 44.4527948 32.68447418 44.4727478 31.66267395 C44.53238453 28.5043693 44.57886555 25.3460279 44.625 22.1875 C44.6631944 20.04230208 44.70224698 17.89711925 44.7421875 15.75195312 C44.83807313 10.50142512 44.92216312 5.25082533 45 0 C51.27 0 57.54 0 64 0 C64 22.77 64 45.54 64 69 C57.73 69 51.46 69 45 69 C44.505 65.04 44.505 65.04 44 61 C43.505 61.7425 43.01 62.485 42.5 63.25 C38.40538192 67.75407989 32.5289521 70.62400815 26.43359375 71.2734375 C18.85847014 71.53022135 13.20338557 70.53017882 7 66 C0.83921066 59.76673079 -0.22780248 52.7314777 -0.22659302 44.23953247 C-0.21110916 42.54701859 -0.21110916 42.54701859 -0.1953125 40.8203125 C-0.1924826 39.6524118 -0.18965271 38.48451111 -0.18673706 37.28121948 C-0.17556973 33.56237409 -0.15047104 29.84377223 -0.125 26.125 C-0.11496576 23.59896182 -0.10584069 21.07291985 -0.09765625 18.546875 C-0.07564161 12.36448994 -0.04113508 6.18228622 0 0 Z " fill="#351998" transform="translate(553,477)"/>
<path d="M0 0 C7.36225542 5.52637494 9.21641556 12.15551063 11.16015625 20.90234375 C4.89015625 20.90234375 -1.37984375 20.90234375 -7.83984375 20.90234375 C-8.82984375 18.59234375 -9.81984375 16.28234375 -10.83984375 13.90234375 C-13.73451794 11.40970764 -15.47288121 10.94237603 -19.27734375 10.52734375 C-23.33099606 10.95404399 -25.51035644 11.53470833 -28.83984375 13.90234375 C-32.79003538 19.49859027 -33.44196495 24.83628835 -33.27734375 31.52734375 C-33.28443359 32.3471875 -33.29152344 33.16703125 -33.29882812 34.01171875 C-33.23781403 39.85029861 -32.15948291 44.09944643 -28.33984375 48.71484375 C-24.49716637 51.75696335 -19.47793103 51.35145431 -14.83984375 50.90234375 C-11.41297937 49.48689977 -10.19308787 48.74303943 -8.75 45.30859375 C-6.83984375 42.90234375 -6.83984375 42.90234375 -5.00683594 42.49682617 C-2.70396736 42.40934607 -0.45352055 42.46713949 1.84765625 42.58984375 C3.04358398 42.62368164 3.04358398 42.62368164 4.26367188 42.65820312 C6.22996959 42.71707431 8.19530116 42.8067562 10.16015625 42.90234375 C9.43679401 50.18061818 7.06533667 54.5480355 2.16015625 59.90234375 C-7.56567306 67.20039418 -17.05076546 67.85785428 -28.83984375 66.90234375 C-36.08677738 65.40048235 -42.04799047 61.51596252 -46.83984375 55.90234375 C-53.89774805 44.73181837 -55.49141702 32.42382992 -53.2578125 19.546875 C-50.80003696 10.87171292 -45.81531773 4.1061356 -38.20703125 -0.79296875 C-26.01702701 -7.16088141 -11.91714271 -7.10980277 0 0 Z " fill="#351A98" transform="translate(874.83984375,480.09765625)"/>
<path d="M0 0 C6.27 0 12.54 0 19 0 C19 22.77 19 45.54 19 69 C12.73 69 6.46 69 0 69 C0 46.23 0 23.46 0 0 Z " fill="#341997" transform="translate(791,477)"/>
<path d="M0 0 C4.22402675 2.70993497 6.28594413 6.48106199 7.8359375 11.234375 C9.36108973 19.34933591 9.23374891 28.13396033 5.25 35.4375 C1.63823102 39.27079081 -1.7083899 41.5790126 -7 41.75 C-11.65982768 41.69016273 -14.16212726 40.52473934 -17.75 37.4375 C-22.97245525 32.06997655 -23.8536344 26.71040366 -24.0625 19.5 C-23.92605161 12.67758036 -22.83458507 7.89624136 -18.3125 2.5625 C-12.71335251 -2.08069548 -6.71061911 -3.36252527 0 0 Z " fill="#FBFAFD" transform="translate(751.75,491.5625)"/>
<path d="M0 0 C4.62198193 1.80860162 6.53616693 4.77628616 9 9 C11.32554604 15.97663811 11.18833607 26.68752104 8.875 33.75 C6.73244571 37.46376077 4.98275393 40.29643924 1 42 C-3.91962942 42.89509924 -8.61742748 43.11186718 -13.2265625 40.9609375 C-17.99097222 37.33187648 -19.98905436 32.80155289 -21 27 C-21.81173751 19.07698459 -21.36713194 11.3683894 -16.37109375 4.88671875 C-11.37576612 -0.14897517 -6.94186747 -1.29485611 0 0 Z " fill="#FCFBFD" transform="translate(510,491)"/>
<path d="M0 0 C21.12 0 42.24 0 64 0 C64 5.28 64 10.56 64 16 C49.15 16 34.3 16 19 16 C19 24.25 19 32.5 19 41 C18.67 41 18.34 41 18 41 C17.97113463 36.68751391 17.95324745 32.37505238 17.9375 28.0625 C17.92912109 26.83080078 17.92074219 25.59910156 17.91210938 24.33007812 C17.90727539 22.5753418 17.90727539 22.5753418 17.90234375 20.78515625 C17.89448853 19.15912476 17.89448853 19.15912476 17.88647461 17.50024414 C18 15 18 15 19 14 C20.38160115 13.9072167 21.76788038 13.88252957 23.15258789 13.88647461 C24.03342545 13.88655014 24.914263 13.88662567 25.8217926 13.88670349 C26.77907761 13.89186478 27.73636261 13.89702606 28.72265625 13.90234375 C30.18547279 13.90446617 30.18547279 13.90446617 31.67784119 13.90663147 C34.80609143 13.91224867 37.93427123 13.92480407 41.0625 13.9375 C43.17773334 13.94251278 45.29296781 13.94707607 47.40820312 13.95117188 C52.60549607 13.96222369 57.80273608 13.97949984 63 14 C63 10.04 63 6.08 63 2 C42.54 2 22.08 2 1 2 C1 32.36 1 62.72 1 94 C21.79 94 42.58 94 64 94 C64 89.71 64 85.42 64 81 C49.15 81 34.3 81 19 81 C19 80.67 19 80.34 19 80 C34.51 80 50.02 80 66 80 C66 85.28 66 90.56 66 96 C44.22 96 22.44 96 0 96 C0 64.32 0 32.64 0 0 Z " fill="#140489" transform="translate(394,450)"/>
<path d="M0 0 C4.3934329 2.19671645 7.05384852 4.45897989 9 9 C9 10.98 9 12.96 9 15 C-0.24 15 -9.48 15 -19 15 C-17.93447307 7.54131151 -17.80731527 6.80731527 -13 2 C-8.77435105 -0.55281472 -4.81910072 -0.67768604 0 0 Z " fill="#FCFBFD" transform="translate(932,489)"/>
<path d="M0 0 C6.27 0 12.54 0 19 0 C19 5.61 19 11.22 19 17 C12.73 17 6.46 17 0 17 C0 11.39 0 5.78 0 0 Z " fill="#3A1D9B" transform="translate(791,450)"/>
<path d="M0 0 C2.375 1.5625 2.375 1.5625 4 4 C4.5625 7.5 4.5625 7.5 4 11 C1.9375 13.5 1.9375 13.5 -1 15 C-4.80284671 15 -7.01930006 14.7968187 -10 12.375 C-11.46981805 8.88418213 -10.98413921 6.60851044 -10 3 C-7.08550322 -0.34627408 -4.29616198 -0.62652362 0 0 Z " fill="#F9F8FC" transform="translate(76,531)"/>
<path d="M0 0 C3.25856111 1.23101197 4.29403221 1.9412051 5.8125 5.0625 C6.34005517 8.68002119 6.27182313 10.36432885 4.25 13.4375 C0.85379157 15.70163895 -1.18849302 15.70519755 -5.1875 15.0625 C-7.84244735 12.67985494 -8.94949956 11.01450177 -9.8125 7.5625 C-8.57818007 2.62522026 -4.96898697 0.09743112 0 0 Z " fill="#F8F7FB" transform="translate(74.1875,475.9375)"/>
<path d="M0 0 C6.27 0 12.54 0 19 0 C19 5.61 19 11.22 19 17 C12.73 17 6.46 17 0 17 C0 11.39 0 5.78 0 0 Z M1 2 C1 6.62 1 11.24 1 16 C6.28 16 11.56 16 17 16 C17 11.38 17 6.76 17 2 C11.72 2 6.44 2 1 2 Z " fill="#140487" transform="translate(791,450)"/>
<path d="M0 0 C6.6 0 13.2 0 20 0 C19.34 1.32 18.68 2.64 18 4 C18 3.34 18 2.68 18 2 C9.585 2.495 9.585 2.495 1 3 C-1.475 11.415 -1.475 11.415 -4 20 C-4.66 20 -5.32 20 -6 20 C-5.56881521 18.16517111 -5.12967947 16.33221033 -4.6875 14.5 C-4.44386719 13.4790625 -4.20023438 12.458125 -3.94921875 11.40625 C-2.86913761 7.53040328 -1.41275437 3.76734498 0 0 Z " fill="#1F0C8F" transform="translate(693,450)"/>
<path d="M0 0 C0.33 0 0.66 0 1 0 C0.67 3.96 0.34 7.92 0 12 C1.53011719 11.95359375 3.06023437 11.9071875 4.63671875 11.859375 C6.65362629 11.82185114 8.67055497 11.78545164 10.6875 11.75 C12.19860352 11.69972656 12.19860352 11.69972656 13.74023438 11.6484375 C21.28221903 11.54887335 21.28221903 11.54887335 25.20703125 14.015625 C25.79871094 14.67046875 26.39039063 15.3253125 27 16 C26.67 16.66 26.34 17.32 26 18 C25.41863281 17.34515625 24.83726562 16.6903125 24.23828125 16.015625 C19.36014431 12.97929368 14.80736038 13.57148275 9.1875 13.75 C7.57584961 13.77707031 7.57584961 13.77707031 5.93164062 13.8046875 C3.28684535 13.85170608 0.64388411 13.9174084 -2 14 C-1.85795259 12.41632253 -1.71119847 10.83306682 -1.5625 9.25 C-1.48128906 8.36828125 -1.40007812 7.4865625 -1.31640625 6.578125 C-1.03761535 4.30649548 -0.61209423 2.20148177 0 0 Z " fill="#200C8F" transform="translate(106,454)"/>
<path d="M0 0 C5.61 0 11.22 0 17 0 C16.34 1.98 15.68 3.96 15 6 C14.67 5.34 14.34 4.68 14 4 C14.33 3.34 14.66 2.68 15 2 C10.05 2 5.1 2 0 2 C0 1.34 0 0.68 0 0 Z " fill="#1D078D" transform="translate(942,525)"/>
<path d="M0 0 C0.33 0 0.66 0 1 0 C1.144375 1.03125 1.28875 2.0625 1.4375 3.125 C2.71263363 7.8324482 6.10858732 9.52143367 10.1015625 11.93359375 C10.72804687 12.28550781 11.35453125 12.63742187 12 13 C11.67 13.99 11.34 14.98 11 16 C11 15.34 11 14.68 11 14 C10.113125 13.773125 9.22625 13.54625 8.3125 13.3125 C4.41379923 11.76773177 2.52772014 10.34551195 0 7 C-0.3125 3.1875 -0.3125 3.1875 0 0 Z " fill="#24128F" transform="translate(123,438)"/>
<path d="M0 0 C-0.33 0.66 -0.66 1.32 -1 2 C-3.1796875 2.44921875 -3.1796875 2.44921875 -5.875 2.6875 C-6.75929688 2.77386719 -7.64359375 2.86023438 -8.5546875 2.94921875 C-11 3 -11 3 -14 2 C-9.35150485 -0.3992233 -5.08913926 -0.19957409 0 0 Z " fill="#2A1695" transform="translate(746,475)"/>
<path d="M0 0 C0.70125 0.7425 1.4025 1.485 2.125 2.25 C4.97718006 4.97817223 7.6763063 6.91302954 11 9 C8 10 8 10 5.5 8.875 C2.75843779 6.81882835 1.49214149 5.06281674 0 2 C0 1.34 0 0.68 0 0 Z " fill="#241491" transform="translate(729,523)"/>
<path d="M0 0 C1.15941038 3.47823115 0.70820884 5.45895578 0 9 C-0.66 9 -1.32 9 -2 9 C-1.125 1.125 -1.125 1.125 0 0 Z " fill="#250F8E" transform="translate(897,496)"/>
</svg>
