<?xml version="1.0" encoding="UTF-8"?>
<!DOCTYPE svg PUBLIC "-//W3C//DTD SVG 1.1//EN" "http://www.w3.org/Graphics/SVG/1.1/DTD/svg11.dtd">
<svg xmlns="http://www.w3.org/2000/svg" version="1.1" width="1024px" height="1024px" style="shape-rendering:geometricPrecision; text-rendering:geometricPrecision; image-rendering:optimizeQuality; fill-rule:evenodd; clip-rule:evenodd; transform: scale(1.3);" xmlns:xlink="http://www.w3.org/1999/xlink">
<g><path style="opacity:0.004" fill="#97722c" d="M 419.5,5.5 C 420.833,6.16667 420.833,6.16667 419.5,5.5 Z"/></g>
<g><path style="opacity:0.004" fill="#97722c" d="M 291.5,13.5 C 292.833,14.1667 292.833,14.1667 291.5,13.5 Z"/></g>
<g><path style="opacity:0.004" fill="#946f29" d="M 635.5,13.5 C 636.833,14.1667 636.833,14.1667 635.5,13.5 Z"/></g>
<g><path style="opacity:0.004" fill="#936f2a" d="M 659.5,13.5 C 660.833,14.1667 660.833,14.1667 659.5,13.5 Z"/></g>
<g><path style="opacity:0.004" fill="#8f6c29" d="M 723.5,13.5 C 724.833,14.1667 724.833,14.1667 723.5,13.5 Z"/></g>
<g><path style="opacity:0.004" fill="#96702c" d="M 411.5,21.5 C 412.833,22.1667 412.833,22.1667 411.5,21.5 Z"/></g>
<g><path style="opacity:0.004" fill="#95702c" d="M 1019.5,21.5 C 1020.83,22.1667 1020.83,22.1667 1019.5,21.5 Z"/></g>
<g><path style="opacity:0.004" fill="#946f2c" d="M 467.5,29.5 C 468.833,30.1667 468.833,30.1667 467.5,29.5 Z"/></g>
<g><path style="opacity:0.004" fill="#8b692a" d="M 731.5,29.5 C 732.833,30.1667 732.833,30.1667 731.5,29.5 Z"/></g>
<g><path style="opacity:0.004" fill="#936e2b" d="M 179.5,45.5 C 180.833,46.1667 180.833,46.1667 179.5,45.5 Z"/></g>
<g><path style="opacity:0.004" fill="#926d2a" d="M 267.5,53.5 C 268.833,54.1667 268.833,54.1667 267.5,53.5 Z"/></g>
<g><path style="opacity:0.004" fill="#926e2a" d="M 307.5,53.5 C 308.833,54.1667 308.833,54.1667 307.5,53.5 Z"/></g>
<g><path style="opacity:0.004" fill="#956e2a" d="M 107.5,61.5 C 108.833,62.1667 108.833,62.1667 107.5,61.5 Z"/></g>
<g><path style="opacity:0.004" fill="#8c6a28" d="M 611.5,61.5 C 612.833,62.1667 612.833,62.1667 611.5,61.5 Z"/></g>
<g><path style="opacity:0.004" fill="#8a6726" d="M 651.5,61.5 C 652.833,62.1667 652.833,62.1667 651.5,61.5 Z"/></g>
<g><path style="opacity:0.004" fill="#785c24" d="M 795.5,61.5 C 796.833,62.1667 796.833,62.1667 795.5,61.5 Z"/></g>
<g><path style="opacity:0.004" fill="#926c28" d="M 987.5,61.5 C 988.833,62.1667 988.833,62.1667 987.5,61.5 Z"/></g>
<g><path style="opacity:0.004" fill="#8e6a28" d="M 315.5,69.5 C 316.833,70.1667 316.833,70.1667 315.5,69.5 Z"/></g>
<g><path style="opacity:0.004" fill="#8e6929" d="M 403.5,69.5 C 404.833,70.1667 404.833,70.1667 403.5,69.5 Z"/></g>
<g><path style="opacity:0.004" fill="#806022" d="M 643.5,93.5 C 644.833,94.1667 644.833,94.1667 643.5,93.5 Z"/></g>
<g><path style="opacity:0.004" fill="#8c6a27" d="M 963.5,101.5 C 964.833,102.167 964.833,102.167 963.5,101.5 Z"/></g>
<g><path style="opacity:0.004" fill="#3d2b17" d="M 800.5,112.5 C 799.833,111.167 799.833,111.167 800.5,112.5 Z"/></g>
<g><path style="opacity:0.998" fill="#000000" d="M 822.5,161.5 C 823.132,165.431 824.799,168.765 827.5,171.5C 827.75,173.674 828.75,175.341 830.5,176.5C 838.503,190.508 846.503,204.508 854.5,218.5C 871.292,260.407 862.625,295.907 828.5,325C 799.204,344.003 770.871,342.67 743.5,321C 739.935,317.604 736.602,314.104 733.5,310.5C 730.488,306.462 727.488,302.462 724.5,298.5C 723.62,295.738 722.454,293.071 721,290.5C 720.667,291.167 720.333,291.833 720,292.5C 720.143,287.594 718.643,283.094 715.5,279C 710.522,255.997 712.022,232.831 720,209.5C 724.459,197.916 729.959,186.916 736.5,176.5C 746.057,162.101 757.057,148.768 769.5,136.5C 772.167,134.5 774.5,132.167 776.5,129.5C 784.505,123.826 792.505,118.159 800.5,112.5C 803.931,110.612 807.598,110.112 811.5,111C 812.126,111.75 812.626,112.584 813,113.5C 814.105,123.476 815.105,133.476 816,143.5C 817.106,149.992 819.272,155.992 822.5,161.5 Z"/></g>
<g><path style="opacity:0.004" fill="#382b10" d="M 794.5,113.5 C 795.833,114.167 795.833,114.167 794.5,113.5 Z"/></g>
<g><path style="opacity:0.004" fill="#362913" d="M 792.5,115.5 C 793.833,116.167 793.833,116.167 792.5,115.5 Z"/></g>
<g><path style="opacity:0.008" fill="#2b2012" d="M 776.5,129.5 C 775.227,128.923 775.227,128.257 776.5,127.5C 777.463,127.97 777.463,128.637 776.5,129.5 Z"/></g>
<g><path style="opacity:0.004" fill="#291f11" d="M 769.5,136.5 C 768.833,135.167 768.833,135.167 769.5,136.5 Z"/></g>
<g><path style="opacity:0.004" fill="#7f5f24" d="M 259.5,141.5 C 260.833,142.167 260.833,142.167 259.5,141.5 Z"/></g>
<g><path style="opacity:0.004" fill="#291f0e" d="M 817.5,144.5 C 818.833,145.167 818.833,145.167 817.5,144.5 Z"/></g>
<g><path style="opacity:0.004" fill="#5f481a" d="M 683.5,149.5 C 684.833,150.167 684.833,150.167 683.5,149.5 Z"/></g>
<g><path style="opacity:0.004" fill="#644a1c" d="M 643.5,157.5 C 644.833,158.167 644.833,158.167 643.5,157.5 Z"/></g>
<g><path style="opacity:0.008" fill="#201a10" d="M 822.5,161.5 C 822.369,160.761 822.536,160.094 823,159.5C 823.692,160.437 823.525,161.103 822.5,161.5 Z"/></g>
<g><path style="opacity:0.004" fill="#251c0f" d="M 743.5,162.5 C 744.833,163.167 744.833,163.167 743.5,162.5 Z"/></g>
<g><path style="opacity:0.012" fill="#241d0d" d="M 827.5,170.5 C 828.833,171.167 828.833,171.167 827.5,170.5 Z"/></g>
<g><path style="opacity:0.027" fill="#1f180d" d="M 736.5,176.5 C 735.833,175.167 735.833,175.167 736.5,176.5 Z"/></g>
<g><path style="opacity:0.008" fill="#1f170f" d="M 830.5,175.5 C 831.833,176.167 831.833,176.167 830.5,175.5 Z"/></g>
<g><path style="opacity:0.004" fill="#241c0e" d="M 845.5,199.5 C 846.833,200.167 846.833,200.167 845.5,199.5 Z"/></g>
<g><path style="opacity:0.008" fill="#211a0f" d="M 846.5,201.5 C 847.833,202.167 847.833,202.167 846.5,201.5 Z"/></g>
<g><path style="opacity:0.004" fill="#846324" d="M 107.5,205.5 C 108.833,206.167 108.833,206.167 107.5,205.5 Z"/></g>
<g><path style="opacity:0.008" fill="#271d12" d="M 854.5,218.5 C 854.369,217.761 854.536,217.094 855,216.5C 855.692,217.437 855.525,218.103 854.5,218.5 Z"/></g>
<g><path style="opacity:0.009" fill="#22180e" d="M 439.5,224.5 C 440.946,223.387 442.613,223.22 444.5,224C 442.866,224.494 441.199,224.66 439.5,224.5 Z"/></g>
<g><path style="opacity:0.004" fill="#21180b" d="M 445.5,223.5 C 446.833,224.167 446.833,224.167 445.5,223.5 Z"/></g>
<g><path style="opacity:0.004" fill="#20170a" d="M 448.5,223.5 C 449.833,224.167 449.833,224.167 448.5,223.5 Z"/></g>
<g><path style="opacity:0.016" fill="#241c10" d="M 471.5,225.5 C 467.167,225.5 462.833,225.5 458.5,225.5C 458.783,224.711 459.283,224.044 460,223.5C 463.333,223.5 466.667,223.5 470,223.5C 470.717,224.044 471.217,224.711 471.5,225.5 Z"/></g>
<g><path style="opacity:0.008" fill="#1f190d" d="M 477.5,223.5 C 478.833,224.167 478.833,224.167 477.5,223.5 Z"/></g>
<g><path style="opacity:0.02" fill="#211b0e" d="M 483.5,223.5 C 484.833,224.167 484.833,224.167 483.5,223.5 Z"/></g>
<g><path style="opacity:0.004" fill="#201a0d" d="M 494.5,224.5 C 495.833,225.167 495.833,225.167 494.5,224.5 Z"/></g>
<g><path style="opacity:0.998" fill="#000000" d="M 458.5,225.5 C 462.833,225.5 467.167,225.5 471.5,225.5C 504.692,225.715 536.358,232.715 566.5,246.5C 587.739,257.557 606.239,272.224 622,290.5C 626.755,297.071 631.255,303.738 635.5,310.5C 648.656,335.77 652.823,362.436 648,390.5C 643.4,408.706 634.9,424.706 622.5,438.5C 616.833,443.5 611.5,448.833 606.5,454.5C 603.5,456.833 600.833,459.5 598.5,462.5C 584.047,482.112 581.214,503.445 590,526.5C 593.582,534.003 597.915,541.003 603,547.5C 612.036,556.204 621.369,564.538 631,572.5C 665.812,608.616 679.146,651.616 671,701.5C 664.495,734.5 650.995,764.167 630.5,790.5C 629.026,791.436 628.026,792.77 627.5,794.5C 615.802,807.199 603.469,819.199 590.5,830.5C 582.463,835.846 574.463,841.18 566.5,846.5C 558.61,850.277 550.943,854.277 543.5,858.5C 473.272,883.7 404.938,879.2 338.5,845C 328.281,839.396 318.281,833.562 308.5,827.5C 307.564,826.026 306.23,825.026 304.5,824.5C 302.45,822.453 300.117,820.786 297.5,819.5C 284.895,808.9 272.561,797.9 260.5,786.5C 258.167,783.5 255.5,780.833 252.5,778.5C 250.547,774.88 247.881,771.88 244.5,769.5C 241.633,765.091 238.299,761.091 234.5,757.5C 234.573,755.973 233.906,754.973 232.5,754.5C 230.975,751.437 228.975,748.77 226.5,746.5C 225.241,742.975 223.241,739.975 220.5,737.5C 218.124,733.805 215.79,730.138 213.5,726.5C 202.579,707.236 192.913,686.903 184.5,665.5C 183.538,661.605 182.204,657.939 180.5,654.5C 180.737,653.209 180.404,652.209 179.5,651.5C 177.373,642.867 175.373,634.201 173.5,625.5C 173.672,624.508 173.338,623.842 172.5,623.5C 172.5,622.5 172.5,621.5 172.5,620.5C 172.672,619.508 172.338,618.842 171.5,618.5C 171.067,615.834 170.567,613.168 170,610.5C 169.086,611.654 168.253,611.487 167.5,610C 168.578,609.326 169.245,608.326 169.5,607C 162.057,565.164 161.724,522.997 168.5,480.5C 171.314,468.239 174.314,455.906 177.5,443.5C 184.021,424.445 191.688,405.779 200.5,387.5C 201.338,387.158 201.672,386.492 201.5,385.5C 206.987,377.873 211.987,369.873 216.5,361.5C 218.735,358.709 220.735,355.709 222.5,352.5C 226.064,348.386 229.397,344.052 232.5,339.5C 236.647,335.205 240.313,330.538 243.5,325.5C 245.5,324.167 247.167,322.5 248.5,320.5C 265.638,302.694 284.304,286.694 304.5,272.5C 322.326,261.253 340.993,251.587 360.5,243.5C 363.397,242.871 366.064,241.871 368.5,240.5C 397.146,231.237 426.479,225.571 456.5,223.5C 457.182,224.243 457.849,224.909 458.5,225.5 Z M 513.5,309.5 C 515.735,310.228 517.568,311.561 519,313.5C 521.08,316.065 522.913,318.732 524.5,321.5C 526.924,324.008 528.59,327.008 529.5,330.5C 537.532,353.618 531.532,373.118 511.5,389C 499.339,396.724 486.005,398.89 471.5,395.5C 461.064,393.387 452.731,388.054 446.5,379.5C 435.528,365.92 432.362,350.587 437,333.5C 438.188,329.387 440.021,325.72 442.5,322.5C 444.709,317.619 448.043,313.619 452.5,310.5C 460.736,302.913 470.57,298.913 482,298.5C 493.985,298.326 504.485,301.993 513.5,309.5 Z M 358.5,371.5 C 359.492,371.328 360.158,371.662 360.5,372.5C 362.153,372.66 363.486,373.326 364.5,374.5C 370.405,377.11 375.072,381.11 378.5,386.5C 390.415,400.63 393.248,416.964 387,435.5C 384.462,441.267 380.962,446.267 376.5,450.5C 361.458,465.279 343.792,469.445 323.5,463C 317.245,460.719 311.912,457.219 307.5,452.5C 294.484,439.456 289.984,423.789 294,405.5C 300.936,382.401 316.436,369.734 340.5,367.5C 346.847,367.865 352.847,369.198 358.5,371.5 Z M 330.5,530.5 C 333.219,532.219 335.219,534.553 336.5,537.5C 335.453,538.078 335.62,538.744 337,539.5C 337.399,539.272 337.565,538.938 337.5,538.5C 339.008,540.181 340.008,542.181 340.5,544.5C 343.25,547.574 344.25,551.074 343.5,555C 345.322,557.975 346.322,561.308 346.5,565C 346.008,569.005 345.341,572.838 344.5,576.5C 342.434,587.873 336.768,596.873 327.5,603.5C 314.934,614.298 299.267,617.132 280.5,612C 276.654,610.914 273.32,609.081 270.5,606.5C 254.249,595.662 246.749,580.328 248,560.5C 250.393,543.528 258.893,530.695 273.5,522C 277.009,520.241 280.675,519.074 284.5,518.5C 302.103,513.755 317.437,517.755 330.5,530.5 Z M 574.5,654.5 C 580.768,659.302 584.935,665.635 587,673.5C 590.949,697.515 584.782,718.849 568.5,737.5C 564.431,743.904 559.098,748.904 552.5,752.5C 547.89,757.229 542.39,759.563 536,759.5C 512.628,765.978 496.962,757.645 489,734.5C 485.243,700.85 496.743,673.683 523.5,653C 538.351,644.28 553.684,643.28 569.5,650C 571.618,651.049 573.284,652.549 574.5,654.5 Z M 400.5,669.5 C 402.167,670.5 403.5,671.833 404.5,673.5C 406.9,675.296 408.567,677.63 409.5,680.5C 409.062,680.435 408.728,680.601 408.5,681C 409.474,683.665 410.141,683.831 410.5,681.5C 411.674,682.514 412.34,683.847 412.5,685.5C 415.013,689.378 416.346,693.711 416.5,698.5C 419.74,717.446 413.74,732.779 398.5,744.5C 383.644,756.425 366.977,758.592 348.5,751C 323.832,736.345 315.665,715.178 324,687.5C 339.383,658.484 362.216,650.317 392.5,663C 395.42,664.946 398.087,667.113 400.5,669.5 Z"/></g>
<g><path style="opacity:0.004" fill="#251e0e" d="M 415.5,226.5 C 416.833,227.167 416.833,227.167 415.5,226.5 Z"/></g>
<g><path style="opacity:0.004" fill="#221d0e" d="M 417.5,226.5 C 418.833,227.167 418.833,227.167 417.5,226.5 Z"/></g>
<g><path style="opacity:0.01" fill="#231b10" d="M 391.5,232.5 C 391.897,231.475 392.563,231.308 393.5,232C 392.906,232.464 392.239,232.631 391.5,232.5 Z"/></g>
<g><path style="opacity:0.008" fill="#21190e" d="M 534.5,232.5 C 535.833,233.167 535.833,233.167 534.5,232.5 Z"/></g>
<g><path style="opacity:0.008" fill="#201a0d" d="M 537.5,233.5 C 538.833,234.167 538.833,234.167 537.5,233.5 Z"/></g>
<g><path style="opacity:0.004" fill="#251b0e" d="M 380.5,234.5 C 381.833,235.167 381.833,235.167 380.5,234.5 Z"/></g>
<g><path style="opacity:0.012" fill="#221b0d" d="M 368.5,240.5 C 367.833,239.167 367.833,239.167 368.5,240.5 Z"/></g>
<g><path style="opacity:0.004" fill="#1e180e" d="M 556.5,240.5 C 557.833,241.167 557.833,241.167 556.5,240.5 Z"/></g>
<g><path style="opacity:0.004" fill="#1e140c" d="M 360.5,243.5 C 359.833,242.167 359.833,242.167 360.5,243.5 Z"/></g>
<g><path style="opacity:0.004" fill="#7a5b21" d="M 131.5,245.5 C 132.833,246.167 132.833,246.167 131.5,245.5 Z"/></g>
<g><path style="opacity:0.004" fill="#21190d" d="M 566.5,245.5 C 567.833,246.167 567.833,246.167 566.5,245.5 Z"/></g>
<g><path style="opacity:0.012" fill="#22190f" d="M 343.5,249.5 C 343.897,248.475 344.563,248.308 345.5,249C 344.906,249.464 344.239,249.631 343.5,249.5 Z"/></g>
<g><path style="opacity:0.024" fill="#1f180c" d="M 304.5,272.5 C 303.833,271.167 303.833,271.167 304.5,272.5 Z"/></g>
<g><path style="opacity:0.004" fill="#403012" d="M 251.5,277.5 C 252.833,278.167 252.833,278.167 251.5,277.5 Z"/></g>
<g><path style="opacity:0.004" fill="#21190f" d="M 287.5,282.5 C 288.833,283.167 288.833,283.167 287.5,282.5 Z"/></g>
<g><path style="opacity:0.004" fill="#20190e" d="M 279.5,288.5 C 280.833,289.167 280.833,289.167 279.5,288.5 Z"/></g>
<g><path style="opacity:0.004" fill="#1d170e" d="M 720.5,293.5 C 721.833,294.167 721.833,294.167 720.5,293.5 Z"/></g>
<g><path style="opacity:0.008" fill="#211a11" d="M 271.5,295.5 C 272.833,296.167 272.833,296.167 271.5,295.5 Z"/></g>
<g><path style="opacity:0.004" fill="#1e160e" d="M 724.5,298.5 C 723.833,299.167 723.833,299.167 724.5,298.5 Z"/></g>
<g><path style="opacity:0.004" fill="#18120c" d="M 481.5,299.5 C 482.773,300.077 482.773,300.743 481.5,301.5C 480.537,301.03 480.537,300.363 481.5,299.5 Z"/></g>
<g><path style="opacity:0.004" fill="#7b5c22" d="M 91.5,309.5 C 92.8333,310.167 92.8333,310.167 91.5,309.5 Z"/></g>
<g><path style="opacity:0.004" fill="#1b190b" d="M 635.5,309.5 C 636.833,310.167 636.833,310.167 635.5,309.5 Z"/></g>
<g><path style="opacity:0.008" fill="#1e180d" d="M 730.5,309.5 C 731.833,310.167 731.833,310.167 730.5,309.5 Z"/></g>
<g><path style="opacity:0.004" fill="#816222" d="M 987.5,309.5 C 988.833,310.167 988.833,310.167 987.5,309.5 Z"/></g>
<g><path style="opacity:0.004" fill="#876424" d="M 1019.5,309.5 C 1020.83,310.167 1020.83,310.167 1019.5,309.5 Z"/></g>
<g><path style="opacity:0.008" fill="#21170b" d="M 733.5,310.5 C 732.833,311.167 732.833,311.167 733.5,310.5 Z"/></g>
<g><path style="opacity:0.004" fill="#221e10" d="M 247.5,311.5 C 248.833,312.167 248.833,312.167 247.5,311.5 Z"/></g>
<g><path style="opacity:0.004" fill="#201b0e" d="M 245.5,319.5 C 246.833,320.167 246.833,320.167 245.5,319.5 Z"/></g>
<g><path style="opacity:0.008" fill="#1f190f" d="M 248.5,320.5 C 247.833,319.167 247.833,319.167 248.5,320.5 Z"/></g>
<g><path style="opacity:0.004" fill="#1f190e" d="M 245.5,320.5 C 244.833,321.167 244.833,321.167 245.5,320.5 Z"/></g>
<g><path style="opacity:0.004" fill="#221a0d" d="M 243.5,325.5 C 242.833,324.167 242.833,324.167 243.5,325.5 Z"/></g>
<g><path style="opacity:0.004" fill="#22190f" d="M 744.5,324.5 C 745.833,325.167 745.833,325.167 744.5,324.5 Z"/></g>
<g><path style="opacity:0.004" fill="#826223" d="M 987.5,325.5 C 988.833,326.167 988.833,326.167 987.5,325.5 Z"/></g>
<g><path style="opacity:0.008" fill="#1d150b" d="M 643.5,326.5 C 644.833,327.167 644.833,327.167 643.5,326.5 Z"/></g>
<g><path style="opacity:0.016" fill="#221b0f" d="M 817.5,332.5 C 818.833,333.167 818.833,333.167 817.5,332.5 Z"/></g>
<g><path style="opacity:0.008" fill="#18130b" d="M 646.5,335.5 C 647.833,336.167 647.833,336.167 646.5,335.5 Z"/></g>
<g><path style="opacity:0.008" fill="#21190f" d="M 771.5,337.5 C 772.833,338.167 772.833,338.167 771.5,337.5 Z"/></g>
<g><path style="opacity:0.004" fill="#1f190e" d="M 232.5,339.5 C 231.833,338.167 231.833,338.167 232.5,339.5 Z"/></g>
<g><path style="opacity:0.008" fill="#1f190e" d="M 777.5,338.5 C 778.833,339.167 778.833,339.167 777.5,338.5 Z"/></g>
<g><path style="opacity:0.004" fill="#1e180e" d="M 797.5,338.5 C 798.833,339.167 798.833,339.167 797.5,338.5 Z"/></g>
<g><path style="opacity:0.004" fill="#1f180c" d="M 773.5,342.5 C 774.833,343.167 774.833,343.167 773.5,342.5 Z"/></g>
<g><path style="opacity:0.004" fill="#6d521d" d="M 115.5,349.5 C 116.833,350.167 116.833,350.167 115.5,349.5 Z"/></g>
<g><path style="opacity:0.004" fill="#4f3a17" d="M 171.5,349.5 C 172.833,350.167 172.833,350.167 171.5,349.5 Z"/></g>
<g><path style="opacity:0.004" fill="#533f1c" d="M 883.5,349.5 C 884.833,350.167 884.833,350.167 883.5,349.5 Z"/></g>
<g><path style="opacity:0.004" fill="#846424" d="M 1003.5,349.5 C 1004.83,350.167 1004.83,350.167 1003.5,349.5 Z"/></g>
<g><path style="opacity:0.004" fill="#221b0e" d="M 222.5,352.5 C 221.833,351.167 221.833,351.167 222.5,352.5 Z"/></g>
<g><path style="opacity:0.008" fill="#201b11" d="M 755.5,352.5 C 756.833,353.167 756.833,353.167 755.5,352.5 Z"/></g>
<g><path style="opacity:0.008" fill="#1d190f" d="M 820.5,352.5 C 821.833,353.167 821.833,353.167 820.5,352.5 Z"/></g>
<g><path style="opacity:0.997" fill="#000000" d="M 778.5,360.5 C 784.833,361.833 791.167,361.833 797.5,360.5C 805.19,359.413 812.524,357.413 819.5,354.5C 821.488,354.173 823.488,353.84 825.5,353.5C 827.374,353.39 828.874,354.056 830,355.5C 833.303,386.11 835.637,416.777 837,447.5C 827.333,448.167 817.667,448.833 808,449.5C 786.276,448.597 764.776,448.597 743.5,449.5C 740.479,448.972 738.812,447.139 738.5,444C 741.417,414.496 744.25,384.996 747,355.5C 747.956,354.106 749.289,353.439 751,353.5C 760.038,356.346 769.204,358.679 778.5,360.5 Z"/></g>
<g><path style="opacity:0.004" fill="#1f180f" d="M 819.5,354.5 C 818.761,354.631 818.094,354.464 817.5,354C 818.437,353.308 819.103,353.475 819.5,354.5 Z"/></g>
<g><path style="opacity:0.004" fill="#211b10" d="M 216.5,361.5 C 215.833,360.167 215.833,360.167 216.5,361.5 Z"/></g>
<g><path style="opacity:0.004" fill="#201810" d="M 743.5,360.5 C 744.622,362.288 744.789,364.288 744,366.5C 743.505,364.527 743.338,362.527 743.5,360.5 Z"/></g>
<g><path style="opacity:0.159" fill="#1a150e" d="M 797.5,360.5 C 791.167,361.833 784.833,361.833 778.5,360.5C 784.515,359.957 790.848,359.957 797.5,360.5 Z"/></g>
<g><path style="opacity:0.004" fill="#6f521f" d="M 107.5,365.5 C 108.833,366.167 108.833,366.167 107.5,365.5 Z"/></g>
<g><path style="opacity:0.008" fill="#221d0e" d="M 211.5,365.5 C 212.833,366.167 212.833,366.167 211.5,365.5 Z"/></g>
<g><path style="opacity:0.008" fill="#211b0f" d="M 208.5,370.5 C 209.833,371.167 209.833,371.167 208.5,370.5 Z"/></g>
<g><path style="opacity:0.01" fill="#1f1910" d="M 201.5,385.5 C 198.999,385.489 198.832,384.822 201,383.5C 201.464,384.094 201.631,384.761 201.5,385.5 Z"/></g>
<g><path style="opacity:0.004" fill="#20190e" d="M 200.5,387.5 C 199.833,386.167 199.833,386.167 200.5,387.5 Z"/></g>
<g><path style="opacity:0.004" fill="#745621" d="M 83.5,389.5 C 84.8333,390.167 84.8333,390.167 83.5,389.5 Z"/></g>
<g><path style="opacity:0.008" fill="#211c0d" d="M 192.5,399.5 C 193.833,400.167 193.833,400.167 192.5,399.5 Z"/></g>
<g><path style="opacity:0.008" fill="#1e180d" d="M 740.5,400.5 C 741.833,401.167 741.833,401.167 740.5,400.5 Z"/></g>
<g><path style="opacity:0.012" fill="#221b0f" d="M 191.5,402.5 C 192.833,403.167 192.833,403.167 191.5,402.5 Z"/></g>
<g><path style="opacity:0.004" fill="#1f190e" d="M 740.5,404.5 C 741.833,405.167 741.833,405.167 740.5,404.5 Z"/></g>
<g><path style="opacity:0.004" fill="#261e11" d="M 835.5,405.5 C 836.833,406.167 836.833,406.167 835.5,405.5 Z"/></g>
<g><path style="opacity:0.004" fill="#221c0e" d="M 188.5,408.5 C 189.833,409.167 189.833,409.167 188.5,408.5 Z"/></g>
<g><path style="opacity:0.004" fill="#886627" d="M 1019.5,421.5 C 1020.83,422.167 1020.83,422.167 1019.5,421.5 Z"/></g>
<g><path style="opacity:0.004" fill="#231a11" d="M 738.5,424.5 C 739.833,425.167 739.833,425.167 738.5,424.5 Z"/></g>
<g><path style="opacity:0.004" fill="#211b10" d="M 738.5,427.5 C 739.833,428.167 739.833,428.167 738.5,427.5 Z"/></g>
<g><path style="opacity:0.004" fill="#221e0e" d="M 179.5,432.5 C 180.833,433.167 180.833,433.167 179.5,432.5 Z"/></g>
<g><path style="opacity:0.005" fill="#211a0f" d="M 737.5,433.5 C 738.573,434.251 738.74,435.251 738,436.5C 737.517,435.552 737.351,434.552 737.5,433.5 Z"/></g>
<g><path style="opacity:0.004" fill="#221c10" d="M 737.5,437.5 C 738.833,438.167 738.833,438.167 737.5,437.5 Z"/></g>
<g><path style="opacity:0.004" fill="#856425" d="M 987.5,437.5 C 988.833,438.167 988.833,438.167 987.5,437.5 Z"/></g>
<g><path style="opacity:0.004" fill="#1e180d" d="M 622.5,438.5 C 623.833,439.167 623.833,439.167 622.5,438.5 Z"/></g>
<g><path style="opacity:0.004" fill="#292214" d="M 838.5,440.5 C 839.833,441.167 839.833,441.167 838.5,440.5 Z"/></g>
<g><path style="opacity:0.004" fill="#221c10" d="M 177.5,443.5 C 176.833,442.167 176.833,442.167 177.5,443.5 Z"/></g>
<g><path style="opacity:0.004" fill="#70531e" d="M 83.5,445.5 C 84.8333,446.167 84.8333,446.167 83.5,445.5 Z"/></g>
<g><path style="opacity:0.004" fill="#785a23" d="M 939.5,445.5 C 940.833,446.167 940.833,446.167 939.5,445.5 Z"/></g>
<g><path style="opacity:0.004" fill="#261d10" d="M 743.5,449.5 C 742.833,450.167 742.833,450.167 743.5,449.5 Z"/></g>
<g><path style="opacity:0.004" fill="#20180e" d="M 606.5,454.5 C 607.833,455.167 607.833,455.167 606.5,454.5 Z"/></g>
<g><path style="opacity:0.004" fill="#18140c" d="M 598.5,462.5 C 599.833,463.167 599.833,463.167 598.5,462.5 Z"/></g>
<g><path style="opacity:0.004" fill="#241c10" d="M 170.5,463.5 C 171.833,464.167 171.833,464.167 170.5,463.5 Z"/></g>
<g><path style="opacity:0.004" fill="#251e10" d="M 169.5,465.5 C 170.833,466.167 170.833,466.167 169.5,465.5 Z"/></g>
<g><path style="opacity:0.004" fill="#403016" d="M 859.5,469.5 C 860.833,470.167 860.833,470.167 859.5,469.5 Z"/></g>
<g><path style="opacity:0.004" fill="#211811" d="M 737.5,472.5 C 736.833,471.167 736.833,471.167 737.5,472.5 Z"/></g>
<g><path style="opacity:0.998" fill="#000000" d="M 773.5,886.5 C 773.737,885.209 773.404,884.209 772.5,883.5C 771.432,875.992 770.099,868.659 768.5,861.5C 764.096,830.663 759.429,799.996 754.5,769.5C 754.5,767.5 754.5,765.5 754.5,763.5C 754.784,761.585 754.451,759.919 753.5,758.5C 752.387,747.197 750.387,736.197 747.5,725.5C 748.147,724.726 748.48,723.726 748.5,722.5C 748.068,718.65 747.402,714.983 746.5,711.5C 746.638,706.586 745.972,701.919 744.5,697.5C 744.414,696.504 744.748,695.671 745.5,695C 743.493,683.279 741.993,671.446 741,659.5C 740.5,659 740,658.5 739.5,658C 740.108,656.769 740.441,655.436 740.5,654C 739.486,641.65 738.153,629.484 736.5,617.5C 736.5,617.167 736.5,616.833 736.5,616.5C 737.043,616.44 737.376,616.107 737.5,615.5C 733.956,569.382 733.123,523.715 735,478.5C 735.573,476.359 736.406,474.359 737.5,472.5C 738.922,472.291 740.255,471.791 741.5,471C 772.5,470.333 803.5,470.333 834.5,471C 836.848,471.346 838.681,472.513 840,474.5C 841.061,481.002 841.894,487.502 842.5,494C 844.122,578.202 838.288,662.035 825,745.5C 818.187,791.193 811.187,836.86 804,882.5C 803.048,888.26 801.715,893.926 800,899.5C 792.657,908.425 784.99,908.759 777,900.5C 774.579,896.149 773.412,891.483 773.5,886.5 Z"/></g>
<g><path style="opacity:0.008" fill="#20190d" d="M 168.5,480.5 C 167.833,479.167 167.833,479.167 168.5,480.5 Z"/></g>
<g><path style="opacity:0.008" fill="#201a0f" d="M 732.5,480.5 C 733.833,481.167 733.833,481.167 732.5,480.5 Z"/></g>
<g><path style="opacity:0.004" fill="#1e190e" d="M 732.5,484.5 C 733.833,485.167 733.833,485.167 732.5,484.5 Z"/></g>
<g><path style="opacity:0.004" fill="#1a150f" d="M 587.5,485.5 C 588.833,486.167 588.833,486.167 587.5,485.5 Z"/></g>
<g><path style="opacity:0.004" fill="#1e180d" d="M 732.5,488.5 C 733.833,489.167 733.833,489.167 732.5,488.5 Z"/></g>
<g><path style="opacity:0.008" fill="#1f170e" d="M 732.5,496.5 C 733.833,497.167 733.833,497.167 732.5,496.5 Z"/></g>
<g><path style="opacity:0.004" fill="#292011" d="M 843.5,507.5 C 844.833,508.167 844.833,508.167 843.5,507.5 Z"/></g>
<g><path style="opacity:0.004" fill="#1e190e" d="M 731.5,509.5 C 732.833,510.167 732.833,510.167 731.5,509.5 Z"/></g>
<g><path style="opacity:0.004" fill="#281f12" d="M 843.5,509.5 C 844.833,510.167 844.833,510.167 843.5,509.5 Z"/></g>
<g><path style="opacity:0.004" fill="#261e10" d="M 843.5,513.5 C 844.833,514.167 844.833,514.167 843.5,513.5 Z"/></g>
<g><path style="opacity:0.006" fill="#271e12" d="M 843.5,517.5 C 844.525,517.897 844.692,518.563 844,519.5C 843.536,518.906 843.369,518.239 843.5,517.5 Z"/></g>
<g><path style="opacity:0.007" fill="#281d11" d="M 843.5,521.5 C 844.573,522.251 844.74,523.251 844,524.5C 843.517,523.552 843.351,522.552 843.5,521.5 Z"/></g>
<g><path style="opacity:0.004" fill="#271f12" d="M 843.5,525.5 C 844.833,526.167 844.833,526.167 843.5,525.5 Z"/></g>
<g><path style="opacity:0.008" fill="#251c10" d="M 843.5,527.5 C 844.634,529.966 844.801,532.633 844,535.5C 843.503,532.854 843.336,530.187 843.5,527.5 Z"/></g>
<g><path style="opacity:0.004" fill="#846325" d="M 987.5,533.5 C 988.833,534.167 988.833,534.167 987.5,533.5 Z"/></g>
<g><path style="opacity:0.004" fill="#261d0f" d="M 843.5,537.5 C 844.833,538.167 844.833,538.167 843.5,537.5 Z"/></g>
<g><path style="opacity:0.004" fill="#221b0c" d="M 161.5,539.5 C 162.833,540.167 162.833,540.167 161.5,539.5 Z"/></g>
<g><path style="opacity:0.004" fill="#271d12" d="M 843.5,541.5 C 844.833,542.167 844.833,542.167 843.5,541.5 Z"/></g>
<g><path style="opacity:0.004" fill="#1e160e" d="M 732.5,542.5 C 733.833,543.167 733.833,543.167 732.5,542.5 Z"/></g>
<g><path style="opacity:0.004" fill="#20190e" d="M 731.5,549.5 C 732.833,550.167 732.833,550.167 731.5,549.5 Z"/></g>
<g><path style="opacity:0.004" fill="#1c170b" d="M 732.5,560.5 C 733.833,561.167 733.833,561.167 732.5,560.5 Z"/></g>
<g><path style="opacity:0.004" fill="#241d11" d="M 162.5,564.5 C 163.833,565.167 163.833,565.167 162.5,564.5 Z"/></g>
<g><path style="opacity:0.004" fill="#231d0e" d="M 162.5,566.5 C 163.833,567.167 163.833,567.167 162.5,566.5 Z"/></g>
<g><path style="opacity:0.004" fill="#1c180c" d="M 732.5,566.5 C 733.833,567.167 733.833,567.167 732.5,566.5 Z"/></g>
<g><path style="opacity:0.004" fill="#1f160d" d="M 732.5,568.5 C 733.833,569.167 733.833,569.167 732.5,568.5 Z"/></g>
<g><path style="opacity:0.004" fill="#231c10" d="M 163.5,577.5 C 164.833,578.167 164.833,578.167 163.5,577.5 Z"/></g>
<g><path style="opacity:0.004" fill="#221b0d" d="M 164.5,588.5 C 165.833,589.167 165.833,589.167 164.5,588.5 Z"/></g>
<g><path style="opacity:0.004" fill="#896525" d="M 1019.5,597.5 C 1020.83,598.167 1020.83,598.167 1019.5,597.5 Z"/></g>
<g><path style="opacity:0.004" fill="#251b0f" d="M 167.5,607.5 C 168.833,608.167 168.833,608.167 167.5,607.5 Z"/></g>
<g><path style="opacity:0.004" fill="#251b10" d="M 168.5,612.5 C 169.525,612.897 169.692,613.563 169,614.5C 168.536,613.906 168.369,613.239 168.5,612.5 Z"/></g>
<g><path style="opacity:0.004" fill="#1a170e" d="M 662.5,615.5 C 663.833,616.167 663.833,616.167 662.5,615.5 Z"/></g>
<g><path style="opacity:0.004" fill="#1a160d" d="M 736.5,616.5 C 735.833,615.167 735.833,615.167 736.5,616.5 Z"/></g>
<g><path style="opacity:0.004" fill="#1d160e" d="M 736.5,617.5 C 736.631,618.239 736.464,618.906 736,619.5C 735.308,618.563 735.475,617.897 736.5,617.5 Z"/></g>
<g><path style="opacity:0.007" fill="#241c10" d="M 171.5,618.5 C 172.338,618.842 172.672,619.508 172.5,620.5C 171.732,621.263 171.232,622.263 171,623.5C 170.598,622.128 170.098,620.795 169.5,619.5C 170.2,619.213 170.867,618.88 171.5,618.5 Z"/></g>
<g><path style="opacity:0.004" fill="#826023" d="M 3.5,621.5 C 4.83333,622.167 4.83333,622.167 3.5,621.5 Z"/></g>
<g><path style="opacity:0.008" fill="#1d170f" d="M 735.5,621.5 C 736.833,622.167 736.833,622.167 735.5,621.5 Z"/></g>
<g><path style="opacity:0.004" fill="#896627" d="M 1019.5,621.5 C 1020.83,622.167 1020.83,622.167 1019.5,621.5 Z"/></g>
<g><path style="opacity:0.012" fill="#281e11" d="M 172.5,623.5 C 173.338,623.842 173.672,624.508 173.5,625.5C 171.323,626.504 170.989,625.838 172.5,623.5 Z"/></g>
<g><path style="opacity:0.004" fill="#574018" d="M 891.5,629.5 C 892.833,630.167 892.833,630.167 891.5,629.5 Z"/></g>
<g><path style="opacity:0.008" fill="#1e170e" d="M 736.5,633.5 C 737.525,633.897 737.692,634.563 737,635.5C 736.536,634.906 736.369,634.239 736.5,633.5 Z"/></g>
<g><path style="opacity:0.004" fill="#1c150c" d="M 670.5,638.5 C 671.833,639.167 671.833,639.167 670.5,638.5 Z"/></g>
<g><path style="opacity:0.004" fill="#1d180d" d="M 737.5,642.5 C 738.525,642.897 738.692,643.563 738,644.5C 737.536,643.906 737.369,643.239 737.5,642.5 Z"/></g>
<g><path style="opacity:0.004" fill="#1c170f" d="M 737.5,646.5 C 738.833,647.167 738.833,647.167 737.5,646.5 Z"/></g>
<g><path style="opacity:0.004" fill="#241c10" d="M 177.5,649.5 C 176.475,649.103 176.308,648.437 177,647.5C 177.464,648.094 177.631,648.761 177.5,649.5 Z"/></g>
<g><path style="opacity:0.012" fill="#221a0f" d="M 177.5,649.5 C 178.833,650.167 178.833,650.167 177.5,649.5 Z"/></g>
<g><path style="opacity:0.008" fill="#251c10" d="M 179.5,651.5 C 179.631,652.239 179.464,652.906 179,653.5C 178.308,652.563 178.475,651.897 179.5,651.5 Z"/></g>
<g><path style="opacity:0.004" fill="#1f170d" d="M 738.5,652.5 C 739.833,653.167 739.833,653.167 738.5,652.5 Z"/></g>
<g><path style="opacity:0.008" fill="#231d10" d="M 180.5,654.5 C 180.103,655.525 179.437,655.692 178.5,655C 179.094,654.536 179.761,654.369 180.5,654.5 Z"/></g>
<g><path style="opacity:0.004" fill="#26200f" d="M 175.5,656.5 C 176.833,657.167 176.833,657.167 175.5,656.5 Z"/></g>
<g><path style="opacity:0.004" fill="#1c170c" d="M 673.5,656.5 C 674.833,657.167 674.833,657.167 673.5,656.5 Z"/></g>
<g><path style="opacity:0.004" fill="#1c170e" d="M 739.5,661.5 C 740.833,662.167 740.833,662.167 739.5,661.5 Z"/></g>
<g><path style="opacity:0.006" fill="#231b0f" d="M 184.5,665.5 C 184.631,666.239 184.464,666.906 184,667.5C 183.308,666.563 183.475,665.897 184.5,665.5 Z"/></g>
<g><path style="opacity:0.004" fill="#1b150c" d="M 739.5,666.5 C 740.833,667.167 740.833,667.167 739.5,666.5 Z"/></g>
<g><path style="opacity:0.004" fill="#231c0f" d="M 184.5,672.5 C 185.833,673.167 185.833,673.167 184.5,672.5 Z"/></g>
<g><path style="opacity:0.008" fill="#231c0f" d="M 186.5,678.5 C 186.897,677.475 187.563,677.308 188.5,678C 187.906,678.464 187.239,678.631 186.5,678.5 Z"/></g>
<g><path style="opacity:0.004" fill="#251d12" d="M 194.5,693.5 C 195.833,694.167 195.833,694.167 194.5,693.5 Z"/></g>
<g><path style="opacity:0.004" fill="#1d150d" d="M 744.5,697.5 C 743.833,698.167 743.833,698.167 744.5,697.5 Z"/></g>
<g><path style="opacity:0.008" fill="#1f180f" d="M 744.5,705.5 C 745.525,705.897 745.692,706.563 745,707.5C 744.536,706.906 744.369,706.239 744.5,705.5 Z"/></g>
<g><path style="opacity:0.004" fill="#1f190d" d="M 744.5,708.5 C 745.833,709.167 745.833,709.167 744.5,708.5 Z"/></g>
<g><path style="opacity:0.004" fill="#453314" d="M 171.5,709.5 C 172.833,710.167 172.833,710.167 171.5,709.5 Z"/></g>
<g><path style="opacity:0.005" fill="#1e170d" d="M 746.5,711.5 C 746.66,713.199 746.494,714.866 746,716.5C 745.22,714.613 745.387,712.946 746.5,711.5 Z"/></g>
<g><path style="opacity:0.008" fill="#231a12" d="M 830.5,712.5 C 831.525,712.897 831.692,713.563 831,714.5C 830.536,713.906 830.369,713.239 830.5,712.5 Z"/></g>
<g><path style="opacity:0.004" fill="#22190c" d="M 208.5,720.5 C 209.833,721.167 209.833,721.167 208.5,720.5 Z"/></g>
<g><path style="opacity:0.008" fill="#231d0f" d="M 209.5,722.5 C 210.833,723.167 210.833,723.167 209.5,722.5 Z"/></g>
<g><path style="opacity:0.004" fill="#20190d" d="M 747.5,725.5 C 746.833,724.167 746.833,724.167 747.5,725.5 Z"/></g>
<g><path style="opacity:0.008" fill="#251b0d" d="M 213.5,726.5 C 212.833,727.167 212.833,727.167 213.5,726.5 Z"/></g>
<g><path style="opacity:0.004" fill="#1f190e" d="M 747.5,729.5 C 748.833,730.167 748.833,730.167 747.5,729.5 Z"/></g>
<g><path style="opacity:0.004" fill="#251d11" d="M 827.5,734.5 C 828.833,735.167 828.833,735.167 827.5,734.5 Z"/></g>
<g><path style="opacity:0.008" fill="#241d0d" d="M 220.5,737.5 C 219.833,738.167 219.833,738.167 220.5,737.5 Z"/></g>
<g><path style="opacity:0.004" fill="#271c0e" d="M 225.5,746.5 C 224.833,745.167 224.833,745.167 225.5,746.5 Z"/></g>
<g><path style="opacity:0.008" fill="#241e0e" d="M 225.5,746.5 C 225.833,746.5 226.167,746.5 226.5,746.5C 226.315,747.17 225.981,747.17 225.5,746.5 Z"/></g>
<g><path style="opacity:0.004" fill="#261e0e" d="M 225.5,747.5 C 224.833,748.167 224.833,748.167 225.5,747.5 Z"/></g>
<g><path style="opacity:0.004" fill="#251d0e" d="M 227.5,749.5 C 226.833,748.167 226.833,748.167 227.5,749.5 Z"/></g>
<g><path style="opacity:0.004" fill="#241e10" d="M 825.5,748.5 C 826.833,749.167 826.833,749.167 825.5,748.5 Z"/></g>
<g><path style="opacity:0.004" fill="#261e0f" d="M 227.5,749.5 C 228.833,750.167 228.833,750.167 227.5,749.5 Z"/></g>
<g><path style="opacity:0.016" fill="#231b0e" d="M 232.5,754.5 C 231.833,755.167 231.833,755.167 232.5,754.5 Z"/></g>
<g><path style="opacity:0.008" fill="#261c10" d="M 233.5,757.5 C 232.833,756.167 232.833,756.167 233.5,757.5 Z"/></g>
<g><path style="opacity:0.004" fill="#251f0f" d="M 233.5,757.5 C 233.833,757.5 234.167,757.5 234.5,757.5C 234.315,758.17 233.981,758.17 233.5,757.5 Z"/></g>
<g><path style="opacity:0.082" fill="#21190f" d="M 753.5,758.5 C 754.451,759.919 754.784,761.585 754.5,763.5C 753.352,764.895 752.352,764.728 751.5,763C 753.107,761.951 753.773,760.451 753.5,758.5 Z"/></g>
<g><path style="opacity:0.004" fill="#221a0e" d="M 752.5,765.5 C 753.833,766.167 753.833,766.167 752.5,765.5 Z"/></g>
<g><path style="opacity:0.004" fill="#241c10" d="M 822.5,768.5 C 823.833,769.167 823.833,769.167 822.5,768.5 Z"/></g>
<g><path style="opacity:0.004" fill="#241e0f" d="M 244.5,769.5 C 243.833,770.167 243.833,770.167 244.5,769.5 Z"/></g>
<g><path style="opacity:0.006" fill="#21190e" d="M 754.5,769.5 C 754.649,770.552 754.483,771.552 754,772.5C 753.26,771.251 753.427,770.251 754.5,769.5 Z"/></g>
<g><path style="opacity:0.004" fill="#63481c" d="M 163.5,773.5 C 164.833,774.167 164.833,774.167 163.5,773.5 Z"/></g>
<g><path style="opacity:0.004" fill="#211a0e" d="M 753.5,775.5 C 754.833,776.167 754.833,776.167 753.5,775.5 Z"/></g>
<g><path style="opacity:0.004" fill="#241c0d" d="M 252.5,778.5 C 251.833,779.167 251.833,779.167 252.5,778.5 Z"/></g>
<g><path style="opacity:0.004" fill="#221c10" d="M 754.5,780.5 C 755.833,781.167 755.833,781.167 754.5,780.5 Z"/></g>
<g><path style="opacity:0.004" fill="#241b0d" d="M 260.5,786.5 C 259.833,787.167 259.833,787.167 260.5,786.5 Z"/></g>
<g><path style="opacity:0.008" fill="#281e10" d="M 819.5,787.5 C 820.833,788.167 820.833,788.167 819.5,787.5 Z"/></g>
<g><path style="opacity:0.008" fill="#1a140e" d="M 630.5,790.5 C 631.833,791.167 631.833,791.167 630.5,790.5 Z"/></g>
<g><path style="opacity:0.008" fill="#281e11" d="M 819.5,789.5 C 820.525,789.897 820.692,790.563 820,791.5C 819.536,790.906 819.369,790.239 819.5,789.5 Z"/></g>
<g><path style="opacity:0.004" fill="#1f170b" d="M 627.5,794.5 C 628.833,795.167 628.833,795.167 627.5,794.5 Z"/></g>
<g><path style="opacity:0.004" fill="#1f180b" d="M 630.5,794.5 C 631.833,795.167 631.833,795.167 630.5,794.5 Z"/></g>
<g><path style="opacity:0.004" fill="#896525" d="M 43.5,813.5 C 44.8333,814.167 44.8333,814.167 43.5,813.5 Z"/></g>
<g><path style="opacity:0.004" fill="#352810" d="M 739.5,813.5 C 740.833,814.167 740.833,814.167 739.5,813.5 Z"/></g>
<g><path style="opacity:0.004" fill="#20190e" d="M 760.5,818.5 C 761.833,819.167 761.833,819.167 760.5,818.5 Z"/></g>
<g><path style="opacity:0.012" fill="#231b10" d="M 297.5,819.5 C 296.833,820.167 296.833,820.167 297.5,819.5 Z"/></g>
<g><path style="opacity:0.008" fill="#221a0f" d="M 814.5,822.5 C 815.833,823.167 815.833,823.167 814.5,822.5 Z"/></g>
<g><path style="opacity:0.004" fill="#22190d" d="M 304.5,824.5 C 303.833,825.167 303.833,825.167 304.5,824.5 Z"/></g>
<g><path style="opacity:0.004" fill="#231a0e" d="M 761.5,824.5 C 762.598,825.601 762.765,826.934 762,828.5C 761.51,827.207 761.343,825.873 761.5,824.5 Z"/></g>
<g><path style="opacity:0.008" fill="#221b0c" d="M 305.5,826.5 C 306.833,827.167 306.833,827.167 305.5,826.5 Z"/></g>
<g><path style="opacity:0.004" fill="#241a0d" d="M 308.5,827.5 C 307.833,828.167 307.833,828.167 308.5,827.5 Z"/></g>
<g><path style="opacity:0.02" fill="#21160d" d="M 590.5,830.5 C 591.833,831.167 591.833,831.167 590.5,830.5 Z"/></g>
<g><path style="opacity:0.008" fill="#241c0e" d="M 763.5,838.5 C 764.833,839.167 764.833,839.167 763.5,838.5 Z"/></g>
<g><path style="opacity:0.02" fill="#20170e" d="M 335.5,844.5 C 336.833,845.167 336.833,845.167 335.5,844.5 Z"/></g>
<g><path style="opacity:0.004" fill="#241c0e" d="M 764.5,844.5 C 765.833,845.167 765.833,845.167 764.5,844.5 Z"/></g>
<g><path style="opacity:0.012" fill="#20180c" d="M 566.5,846.5 C 567.833,847.167 567.833,847.167 566.5,846.5 Z"/></g>
<g><path style="opacity:0.008" fill="#22190d" d="M 345.5,849.5 C 346.833,850.167 346.833,850.167 345.5,849.5 Z"/></g>
<g><path style="opacity:0.004" fill="#25190e" d="M 543.5,858.5 C 544.833,859.167 544.833,859.167 543.5,858.5 Z"/></g>
<g><path style="opacity:0.004" fill="#251c0e" d="M 368.5,859.5 C 369.833,860.167 369.833,860.167 368.5,859.5 Z"/></g>
<g><path style="opacity:0.004" fill="#241d0f" d="M 768.5,861.5 C 767.833,862.167 767.833,862.167 768.5,861.5 Z"/></g>
<g><path style="opacity:0.005" fill="#271c0f" d="M 767.5,863.5 C 768.573,864.251 768.74,865.251 768,866.5C 767.517,865.552 767.351,864.552 767.5,863.5 Z"/></g>
<g><path style="opacity:0.004" fill="#261d0d" d="M 389.5,866.5 C 390.833,867.167 390.833,867.167 389.5,866.5 Z"/></g>
<g><path style="opacity:0.004" fill="#251d0e" d="M 521.5,866.5 C 522.833,867.167 522.833,867.167 521.5,866.5 Z"/></g>
<g><path style="opacity:0.008" fill="#241d10" d="M 514.5,868.5 C 515.833,869.167 515.833,869.167 514.5,868.5 Z"/></g>
<g><path style="opacity:0.004" fill="#25190f" d="M 508.5,870.5 C 509.833,871.167 509.833,871.167 508.5,870.5 Z"/></g>
<g><path style="opacity:0.004" fill="#241b0f" d="M 806.5,870.5 C 807.833,871.167 807.833,871.167 806.5,870.5 Z"/></g>
<g><path style="opacity:0.004" fill="#241b0f" d="M 425.5,873.5 C 426.833,874.167 426.833,874.167 425.5,873.5 Z"/></g>
<g><path style="opacity:0.004" fill="#241b0c" d="M 433.5,874.5 C 434.833,875.167 434.833,875.167 433.5,874.5 Z"/></g>
<g><path style="opacity:0.004" fill="#271c11" d="M 485.5,875.5 C 485.897,874.475 486.563,874.308 487.5,875C 486.906,875.464 486.239,875.631 485.5,875.5 Z"/></g>
<g><path style="opacity:0.004" fill="#251c10" d="M 440.5,876.5 C 440.897,875.475 441.563,875.308 442.5,876C 441.906,876.464 441.239,876.631 440.5,876.5 Z"/></g>
<g><path style="opacity:0.006" fill="#271b11" d="M 469.5,876.5 C 469.897,875.475 470.563,875.308 471.5,876C 470.906,876.464 470.239,876.631 469.5,876.5 Z"/></g>
<g><path style="opacity:0.008" fill="#271d0e" d="M 476.5,875.5 C 477.833,876.167 477.833,876.167 476.5,875.5 Z"/></g>
<g><path style="opacity:0.004" fill="#7f5c23" d="M 147.5,877.5 C 148.833,878.167 148.833,878.167 147.5,877.5 Z"/></g>
<g><path style="opacity:0.004" fill="#8c6927" d="M 987.5,877.5 C 988.833,878.167 988.833,878.167 987.5,877.5 Z"/></g>
<g><path style="opacity:0.004" fill="#29200f" d="M 769.5,878.5 C 770.833,879.167 770.833,879.167 769.5,878.5 Z"/></g>
<g><path style="opacity:0.004" fill="#2c2311" d="M 769.5,882.5 C 770.833,883.167 770.833,883.167 769.5,882.5 Z"/></g>
<g><path style="opacity:0.004" fill="#654a1c" d="M 243.5,885.5 C 244.833,886.167 244.833,886.167 243.5,885.5 Z"/></g>
<g><path style="opacity:0.004" fill="#2d2111" d="M 772.5,883.5 C 773.404,884.209 773.737,885.209 773.5,886.5C 772.637,887.463 771.97,887.463 771.5,886.5C 772.127,885.583 772.461,884.583 772.5,883.5 Z"/></g>
<g><path style="opacity:0.008" fill="#372a15" d="M 800.5,900.5 C 801.833,901.167 801.833,901.167 800.5,900.5 Z"/></g>
<g><path style="opacity:0.004" fill="#896624" d="M 107.5,901.5 C 108.833,902.167 108.833,902.167 107.5,901.5 Z"/></g>
<g><path style="opacity:0.004" fill="#654a1b" d="M 291.5,917.5 C 292.833,918.167 292.833,918.167 291.5,917.5 Z"/></g>
<g><path style="opacity:0.004" fill="#7e5f22" d="M 187.5,925.5 C 188.833,926.167 188.833,926.167 187.5,925.5 Z"/></g>
<g><path style="opacity:0.004" fill="#5e451b" d="M 331.5,925.5 C 332.833,926.167 332.833,926.167 331.5,925.5 Z"/></g>
<g><path style="opacity:0.004" fill="#705220" d="M 851.5,925.5 C 852.833,926.167 852.833,926.167 851.5,925.5 Z"/></g>
<g><path style="opacity:0.004" fill="#806022" d="M 899.5,925.5 C 900.833,926.167 900.833,926.167 899.5,925.5 Z"/></g>
<g><path style="opacity:0.008" fill="#664c1d" d="M 307.5,933.5 C 308.833,934.167 308.833,934.167 307.5,933.5 Z"/></g>
<g><path style="opacity:0.004" fill="#916e28" d="M 1011.5,933.5 C 1012.83,934.167 1012.83,934.167 1011.5,933.5 Z"/></g>
<g><path style="opacity:0.004" fill="#654c1e" d="M 539.5,957.5 C 540.833,958.167 540.833,958.167 539.5,957.5 Z"/></g>
<g><path style="opacity:0.004" fill="#71531e" d="M 643.5,957.5 C 644.833,958.167 644.833,958.167 643.5,957.5 Z"/></g>
<g><path style="opacity:0.004" fill="#785a22" d="M 835.5,957.5 C 836.833,958.167 836.833,958.167 835.5,957.5 Z"/></g>
<g><path style="opacity:0.004" fill="#8b6725" d="M 915.5,965.5 C 916.833,966.167 916.833,966.167 915.5,965.5 Z"/></g>
<g><path style="opacity:0.004" fill="#7a5b22" d="M 819.5,973.5 C 820.833,974.167 820.833,974.167 819.5,973.5 Z"/></g>
<g><path style="opacity:0.004" fill="#70531f" d="M 507.5,989.5 C 508.833,990.167 508.833,990.167 507.5,989.5 Z"/></g>
<g><path style="opacity:0.004" fill="#725520" d="M 427.5,997.5 C 428.833,998.167 428.833,998.167 427.5,997.5 Z"/></g>
<g><path style="opacity:0.004" fill="#836025" d="M 267.5,1005.5 C 268.833,1006.17 268.833,1006.17 267.5,1005.5 Z"/></g>
<g><path style="opacity:0.004" fill="#896526" d="M 227.5,1013.5 C 228.833,1014.17 228.833,1014.17 227.5,1013.5 Z"/></g>
<g><path style="opacity:0.004" fill="#7d5c23" d="M 595.5,1013.5 C 596.833,1014.17 596.833,1014.17 595.5,1013.5 Z"/></g>
<g><path style="opacity:0.004" fill="#836126" d="M 747.5,1013.5 C 748.833,1014.17 748.833,1014.17 747.5,1013.5 Z"/></g>
<g><path style="opacity:0.004" fill="#7f5e24" d="M 331.5,1021.5 C 332.833,1022.17 332.833,1022.17 331.5,1021.5 Z"/></g>
<g><path style="opacity:0.004" fill="#7d5e23" d="M 339.5,1021.5 C 340.833,1022.17 340.833,1022.17 339.5,1021.5 Z"/></g>
<g><path style="opacity:0.004" fill="#846325" d="M 771.5,1021.5 C 772.833,1022.17 772.833,1022.17 771.5,1021.5 Z"/></g>
</svg>
