<?xml version="1.0" encoding="UTF-8"?>
<!DOCTYPE svg PUBLIC "-//W3C//DTD SVG 1.1//EN" "http://www.w3.org/Graphics/SVG/1.1/DTD/svg11.dtd">
<svg xmlns="http://www.w3.org/2000/svg" version="1.1" width="1024px" height="1024px" style="shape-rendering:geometricPrecision; text-rendering:geometricPrecision; image-rendering:optimizeQuality; fill-rule:evenodd; clip-rule:evenodd; transform: scale(1.4);" xmlns:xlink="http://www.w3.org/1999/xlink">
<g><path style="opacity:0.004" fill="#606260" d="M 963.5,101.5 C 964.833,102.167 964.833,102.167 963.5,101.5 Z"/></g>
<g><path style="opacity:0.004" fill="#626362" d="M 259.5,141.5 C 260.833,142.167 260.833,142.167 259.5,141.5 Z"/></g>
<g><path style="opacity:0.004" fill="#434341" d="M 634.5,176.5 C 635.833,177.167 635.833,177.167 634.5,176.5 Z"/></g>
<g><path style="opacity:0.004" fill="#434443" d="M 475.5,177.5 C 476.833,178.167 476.833,178.167 475.5,177.5 Z"/></g>
<g><path style="opacity:0.004" fill="#454441" d="M 646.5,177.5 C 647.833,178.167 647.833,178.167 646.5,177.5 Z"/></g>
<g><path style="opacity:0.004" fill="#444242" d="M 383.5,178.5 C 384.833,179.167 384.833,179.167 383.5,178.5 Z"/></g>
<g><path style="opacity:0.008" fill="#454642" d="M 551.5,178.5 C 552.833,179.167 552.833,179.167 551.5,178.5 Z"/></g>
<g><path style="opacity:0.012" fill="#454342" d="M 639.5,178.5 C 640.833,179.167 640.833,179.167 639.5,178.5 Z"/></g>
<g><path style="opacity:0.004" fill="#444541" d="M 641.5,178.5 C 642.833,179.167 642.833,179.167 641.5,178.5 Z"/></g>
<g><path style="opacity:0.004" fill="#424242" d="M 462.5,179.5 C 463.833,180.167 463.833,180.167 462.5,179.5 Z"/></g>
<g><path style="opacity:0.012" fill="#424341" d="M 651.5,181.5 C 652.833,182.167 652.833,182.167 651.5,181.5 Z"/></g>
<g><path style="opacity:0.012" fill="#403f3c" d="M 361.5,195.5 C 362.833,196.167 362.833,196.167 361.5,195.5 Z"/></g>
<g><path style="opacity:0.961" fill="#141313" d="M 657.5,192.5 C 658.193,196.565 658.86,200.732 659.5,205C 659.791,222.924 659.458,241.424 658.5,260.5C 658.5,267.5 658.5,274.5 658.5,281.5C 664.167,281.5 669.833,281.5 675.5,281.5C 680.227,281.779 684.893,282.446 689.5,283.5C 690.93,284.537 692.597,285.204 694.5,285.5C 694.5,286.167 694.833,286.5 695.5,286.5C 696.85,287.65 696.684,288.317 695,288.5C 683.733,284.127 672.233,282.461 660.5,283.5C 658.971,283.471 657.804,282.804 657,281.5C 656.169,251.664 656.336,221.997 657.5,192.5 Z"/></g>
<g><path style="opacity:0.004" fill="#3d3d38" d="M 361.5,202.5 C 362.525,202.897 362.692,203.563 362,204.5C 361.536,203.906 361.369,203.239 361.5,202.5 Z"/></g>
<g><path style="opacity:0.976" fill="#0c0c0c" d="M 364.5,193.5 C 366.013,203.517 367.013,213.684 367.5,224C 366.38,243.188 366.38,261.855 367.5,280C 367.231,281.607 366.397,282.774 365,283.5C 354.157,282.286 343.324,283.286 332.5,286.5C 331.584,286.457 330.917,286.124 330.5,285.5C 334.041,283.765 337.707,282.431 341.5,281.5C 343.167,281.5 344.833,281.5 346.5,281.5C 352.425,281.808 358.259,281.475 364,280.5C 364.5,251.502 364.667,222.502 364.5,193.5 Z"/></g>
<g><path style="opacity:0.004" fill="#393936" d="M 361.5,218.5 C 362.525,218.897 362.692,219.563 362,220.5C 361.536,219.906 361.369,219.239 361.5,218.5 Z"/></g>
<g><path style="opacity:0.644" fill="#201f1f" d="M 364.5,192.5 C 364.5,192.833 364.5,193.167 364.5,193.5C 364.667,222.502 364.5,251.502 364,280.5C 358.259,281.475 352.425,281.808 346.5,281.5C 346.5,281.167 346.5,280.833 346.5,280.5C 351.844,280.666 357.177,280.499 362.5,280C 363.8,276.168 363.8,272.334 362.5,268.5C 363.167,243.167 363.833,217.833 364.5,192.5 Z"/></g>
<g><path style="opacity:0.004" fill="#383736" d="M 361.5,226.5 C 362.573,227.251 362.74,228.251 362,229.5C 361.517,228.552 361.351,227.552 361.5,226.5 Z"/></g>
<g><path style="opacity:0.004" fill="#353434" d="M 361.5,232.5 C 362.833,233.167 362.833,233.167 361.5,232.5 Z"/></g>
<g><path style="opacity:0.004" fill="#363633" d="M 361.5,234.5 C 362.525,234.897 362.692,235.563 362,236.5C 361.536,235.906 361.369,235.239 361.5,234.5 Z"/></g>
<g><path style="opacity:0.004" fill="#363431" d="M 361.5,243.5 C 362.833,244.167 362.833,244.167 361.5,243.5 Z"/></g>
<g><path style="opacity:0.004" fill="#353533" d="M 361.5,251.5 C 362.833,252.167 362.833,252.167 361.5,251.5 Z"/></g>
<g><path style="opacity:0.004" fill="#333432" d="M 361.5,256.5 C 362.833,257.167 362.833,257.167 361.5,256.5 Z"/></g>
<g><path style="opacity:0.008" fill="#353431" d="M 361.5,259.5 C 362.833,260.167 362.833,260.167 361.5,259.5 Z"/></g>
<g><path style="opacity:0.004" fill="#323430" d="M 362.5,268.5 C 361.833,267.167 361.833,267.167 362.5,268.5 Z"/></g>
<g><path style="opacity:0.998" fill="#131313" d="M 394.5,186.5 C 394.5,186.833 394.5,187.167 394.5,187.5C 393.903,187.735 393.57,188.235 393.5,189C 395.139,192.302 395.806,195.802 395.5,199.5C 391.551,199.693 391.551,200.193 395.5,201C 394.833,201.333 394.167,201.667 393.5,202C 394.574,202.739 395.241,203.739 395.5,205C 395.495,209.674 395.329,214.508 395,219.5C 394.667,219.167 394.333,218.833 394,218.5C 393.833,219.333 393.667,220.167 393.5,221C 396.037,226.583 396.037,232.083 393.5,237.5C 395.679,239.1 395.346,240.6 392.5,242C 393.167,242.667 393.833,243.333 394.5,244C 394.153,245.569 393.986,247.402 394,249.5C 394.333,248.833 394.667,248.167 395,247.5C 395.168,258.848 395.668,270.181 396.5,281.5C 397.107,281.376 397.44,281.043 397.5,280.5C 399.167,280.5 400.833,280.5 402.5,280.5C 418.626,279.959 434.626,279.959 450.5,280.5C 450.169,251.995 450.502,223.662 451.5,195.5C 451.333,224.169 451.5,252.835 452,281.5C 452.333,281.167 452.667,280.833 453,280.5C 453.682,250.61 453.516,220.943 452.5,191.5C 458.124,181.168 466.457,178.335 477.5,183C 480.848,185.501 483.182,188.668 484.5,192.5C 483.336,221.997 483.169,251.664 484,281.5C 502.264,282.831 520.431,282.831 538.5,281.5C 539.664,254.336 539.83,227.003 539,199.5C 538.722,198.584 538.222,197.918 537.5,197.5C 537.5,197.167 537.5,196.833 537.5,196.5C 538.72,186.282 544.553,180.949 555,180.5C 559.167,180.944 563.001,182.278 566.5,184.5C 569.248,187.33 570.915,190.663 571.5,194.5C 569.508,223.481 568.841,252.814 569.5,282.5C 588.41,282.826 607.243,282.493 626,281.5C 626.333,252.5 626.667,223.5 627,194.5C 627.309,193.234 627.809,192.067 628.5,191C 627.906,190.536 627.239,190.369 626.5,190.5C 629.391,183.796 634.558,180.463 642,180.5C 646.308,180.824 650.141,182.324 653.5,185C 655.54,187.185 656.874,189.685 657.5,192.5C 656.336,221.997 656.169,251.664 657,281.5C 657.804,282.804 658.971,283.471 660.5,283.5C 672.233,282.461 683.733,284.127 695,288.5C 696.684,288.317 696.85,287.65 695.5,286.5C 697.98,287.242 700.313,288.242 702.5,289.5C 703.965,290.737 705.632,291.737 707.5,292.5C 711.267,295.087 714.933,297.92 718.5,301C 721.669,305.001 725.003,308.834 728.5,312.5C 729.669,315.511 731.336,318.178 733.5,320.5C 733.328,321.492 733.662,322.158 734.5,322.5C 736.788,328.319 738.455,334.319 739.5,340.5C 738.512,345.64 738.179,350.974 738.5,356.5C 737.5,356.5 736.5,356.5 735.5,356.5C 735.587,359.598 735.087,359.932 734,357.5C 732.89,359.037 731.39,359.703 729.5,359.5C 729.649,358.448 729.483,357.448 729,356.5C 726.376,356.47 723.709,356.803 721,357.5C 720.667,356.5 720.333,355.5 720,354.5C 719.363,356.303 718.197,357.636 716.5,358.5C 717.688,358.307 719.022,358.807 720.5,360C 719.978,360.561 719.645,361.228 719.5,362C 719.953,364.481 720.953,365.814 722.5,366C 720.652,368.093 718.319,369.426 715.5,370C 718.195,372.566 719.695,375.399 720,378.5C 722.134,375.916 723.968,376.25 725.5,379.5C 724.624,380.251 723.624,380.751 722.5,381C 722.833,381.333 723.167,381.667 723.5,382C 725.735,380.887 728.235,379.72 731,378.5C 734.097,379.289 734.264,380.456 731.5,382C 734.481,383.38 735.147,385.546 733.5,388.5C 732.614,387.675 732.281,386.675 732.5,385.5C 729.86,387.008 727.527,386.674 725.5,384.5C 723.146,385.06 720.813,385.727 718.5,386.5C 719.999,387.904 719.666,388.57 717.5,388.5C 714.261,387.71 712.094,385.71 711,382.5C 708.798,383.913 706.632,385.413 704.5,387C 706.997,389.17 708.83,388.67 710,385.5C 710.374,386.416 710.874,387.25 711.5,388C 710.874,388.75 710.374,389.584 710,390.5C 708.602,389.949 707.268,389.616 706,389.5C 705.667,390.167 705.333,390.833 705,391.5C 703.887,390.695 702.721,390.028 701.5,389.5C 701.666,379.161 701.5,368.828 701,358.5C 700.333,355.833 699.667,353.167 699,350.5C 698.505,352.473 698.338,354.473 698.5,356.5C 694.299,339.965 683.966,329.298 667.5,324.5C 667.5,324.167 667.5,323.833 667.5,323.5C 668.552,323.649 669.552,323.483 670.5,323C 668.608,322.027 666.608,321.36 664.5,321C 561.833,320.333 459.167,320.333 356.5,321C 352.615,321.739 348.948,323.073 345.5,325C 346.448,325.483 347.448,325.649 348.5,325.5C 340.288,329.708 333.621,335.708 328.5,343.5C 328.214,341.067 327.548,341.067 326.5,343.5C 324.355,343.262 322.688,342.262 321.5,340.5C 323.679,339.243 325.679,337.743 327.5,336C 325.007,334.417 325.174,332.917 328,331.5C 329.84,332.833 330.34,332.666 329.5,331C 327.553,330.009 325.553,329.675 323.5,330C 324.815,331.395 324.481,332.395 322.5,333C 324.674,334.264 324.34,335.431 321.5,336.5C 320.259,335.963 319.092,335.296 318,334.5C 316.144,335.736 314.311,335.736 312.5,334.5C 312.167,334.833 311.833,335.167 311.5,335.5C 316.052,341.947 314.719,343.614 307.5,340.5C 306.808,341.025 306.308,341.692 306,342.5C 303.455,338.364 304.622,336.031 309.5,335.5C 309.5,334.5 309.5,333.5 309.5,332.5C 310.873,332.657 312.207,332.49 313.5,332C 311.61,330.127 309.61,329.294 307.5,329.5C 305.875,332.067 303.709,334.067 301,335.5C 299.605,334.185 298.605,334.519 298,336.5C 297.626,335.584 297.126,334.75 296.5,334C 298.246,333.529 299.913,332.862 301.5,332C 300.72,330.927 300.887,329.76 302,328.5C 302.333,328.833 302.667,329.167 303,329.5C 304.947,326.014 307.28,325.681 310,328.5C 310.5,328 311,327.5 311.5,327C 309.096,326.492 308.429,325.325 309.5,323.5C 308.376,322.086 307.376,320.586 306.5,319C 306.833,318.667 307.167,318.333 307.5,318C 306.5,317.667 305.5,317.333 304.5,317C 305.552,315.881 306.719,315.381 308,315.5C 307.512,311.77 308.845,311.436 312,314.5C 312.333,312.953 311.833,311.62 310.5,310.5C 311.631,309.396 312.465,309.729 313,311.5C 313.72,309.888 313.554,308.388 312.5,307C 313.725,306.437 314.725,306.77 315.5,308C 314.167,309.667 314.167,311.333 315.5,313C 313.875,313.853 313.542,314.853 314.5,316C 313.5,316.333 312.5,316.667 311.5,317C 311.376,320.555 313.043,323.388 316.5,325.5C 317.731,324.349 317.731,323.183 316.5,322C 319.265,321.875 320.932,321.042 321.5,319.5C 323.865,320.566 325.865,319.9 327.5,317.5C 326.448,315.57 325.114,314.07 323.5,313C 324.899,312.405 326.232,312.572 327.5,313.5C 328.364,311.803 329.697,310.637 331.5,310C 330.273,308.413 330.606,307.079 332.5,306C 330.408,305.047 330.075,303.714 331.5,302C 330.667,301.167 329.833,300.333 329,299.5C 328.481,300.516 327.647,301.182 326.5,301.5C 325.136,300.957 323.803,300.79 322.5,301C 323.815,302.395 323.481,303.395 321.5,304C 317.997,305.369 314.497,305.869 311,305.5C 310.833,305.167 310.667,304.833 310.5,304.5C 311.948,303.646 313.281,302.646 314.5,301.5C 315.478,301.977 316.311,302.643 317,303.5C 317.309,302.234 317.809,301.067 318.5,300C 315.833,299.667 313.167,299.333 310.5,299C 312.439,298.092 313.439,296.592 313.5,294.5C 315.809,292.013 318.476,290.013 321.5,288.5C 324.406,287.213 327.406,286.213 330.5,285.5C 330.917,286.124 331.584,286.457 332.5,286.5C 343.324,283.286 354.157,282.286 365,283.5C 366.397,282.774 367.231,281.607 367.5,280C 366.38,261.855 366.38,243.188 367.5,224C 367.013,213.684 366.013,203.517 364.5,193.5C 364.5,193.167 364.5,192.833 364.5,192.5C 369.129,182.521 376.796,179.021 387.5,182C 390.202,183.012 392.535,184.512 394.5,186.5 Z"/></g>
<g><path style="opacity:0.008" fill="#343232" d="M 448.5,271.5 C 449.634,273.966 449.801,276.633 449,279.5C 447.788,276.784 447.621,274.117 448.5,271.5 Z"/></g>
<g><path style="opacity:0.004" fill="#333033" d="M 536.5,271.5 C 535.833,270.167 535.833,270.167 536.5,271.5 Z"/></g>
<g><path style="opacity:0.008" fill="#474544" d="M 537.5,262.5 C 537.5,264.5 537.5,266.5 537.5,268.5C 535.006,266.594 535.006,264.594 537.5,262.5 Z"/></g>
<g><path style="opacity:0.006" fill="#353332" d="M 448.5,262.5 C 449.629,264.628 449.796,266.961 449,269.5C 448.503,267.19 448.337,264.857 448.5,262.5 Z"/></g>
<g><path style="opacity:0.006" fill="#353433" d="M 448.5,257.5 C 449.598,258.601 449.765,259.934 449,261.5C 448.51,260.207 448.343,258.873 448.5,257.5 Z"/></g>
<g><path style="opacity:0.007" fill="#343332" d="M 448.5,254.5 C 449.773,255.077 449.773,255.743 448.5,256.5C 447.537,256.03 447.537,255.363 448.5,254.5 Z"/></g>
<g><path style="opacity:0.987" fill="#080707" d="M 452.5,191.5 C 453.516,220.943 453.682,250.61 453,280.5C 452.667,280.833 452.333,281.167 452,281.5C 451.5,252.835 451.333,224.169 451.5,195.5C 451.232,193.901 451.566,192.568 452.5,191.5 Z"/></g>
<g><path style="opacity:0.268" fill="#464544" d="M 397.5,194.5 C 398.498,222.662 398.831,250.995 398.5,279.5C 400.099,279.232 401.432,279.566 402.5,280.5C 400.833,280.5 399.167,280.5 397.5,280.5C 397.5,251.833 397.5,223.167 397.5,194.5 Z"/></g>
<g><path style="opacity:0.007" fill="#353333" d="M 448.5,249.5 C 449.598,250.601 449.765,251.934 449,253.5C 448.51,252.207 448.343,250.873 448.5,249.5 Z"/></g>
<g><path style="opacity:0.011" fill="#4b4848" d="M 537.5,196.5 C 537.5,196.833 537.5,197.167 537.5,197.5C 537.5,218.833 537.5,240.167 537.5,261.5C 536.79,259.107 536.123,256.607 535.5,254C 536.059,235.721 536.059,217.054 535.5,198C 536.044,197.283 536.711,196.783 537.5,196.5 Z"/></g>
<g><path style="opacity:0.009" fill="#343232" d="M 448.5,238.5 C 449.641,241.64 449.808,244.973 449,248.5C 448.502,245.183 448.335,241.85 448.5,238.5 Z"/></g>
<g><path style="opacity:0.008" fill="#363435" d="M 448.5,233.5 C 449.573,234.251 449.74,235.251 449,236.5C 448.517,235.552 448.351,234.552 448.5,233.5 Z"/></g>
<g><path style="opacity:0.004" fill="#333332" d="M 448.5,231.5 C 449.833,232.167 449.833,232.167 448.5,231.5 Z"/></g>
<g><path style="opacity:0.005" fill="#353433" d="M 448.5,225.5 C 449.573,226.251 449.74,227.251 449,228.5C 448.517,227.552 448.351,226.552 448.5,225.5 Z"/></g>
<g><path style="opacity:0.004" fill="#363534" d="M 448.5,221.5 C 449.573,222.251 449.74,223.251 449,224.5C 448.517,223.552 448.351,222.552 448.5,221.5 Z"/></g>
<g><path style="opacity:0.005" fill="#373535" d="M 448.5,215.5 C 449.613,216.946 449.78,218.613 449,220.5C 448.506,218.866 448.34,217.199 448.5,215.5 Z"/></g>
<g><path style="opacity:0.99" fill="#0b0b0b" d="M 394.5,187.5 C 396.293,189.426 397.293,191.759 397.5,194.5C 397.5,223.167 397.5,251.833 397.5,280.5C 397.44,281.043 397.107,281.376 396.5,281.5C 395.668,270.181 395.168,258.848 395,247.5C 394.667,248.167 394.333,248.833 394,249.5C 393.986,247.402 394.153,245.569 394.5,244C 393.833,243.333 393.167,242.667 392.5,242C 395.346,240.6 395.679,239.1 393.5,237.5C 396.037,232.083 396.037,226.583 393.5,221C 393.667,220.167 393.833,219.333 394,218.5C 394.333,218.833 394.667,219.167 395,219.5C 395.329,214.508 395.495,209.674 395.5,205C 395.241,203.739 394.574,202.739 393.5,202C 394.167,201.667 394.833,201.333 395.5,201C 391.551,200.193 391.551,199.693 395.5,199.5C 395.806,195.802 395.139,192.302 393.5,189C 393.57,188.235 393.903,187.735 394.5,187.5 Z"/></g>
<g><path style="opacity:0.006" fill="#393637" d="M 448.5,210.5 C 449.525,210.897 449.692,211.563 449,212.5C 448.536,211.906 448.369,211.239 448.5,210.5 Z"/></g>
<g><path style="opacity:0.983" fill="#0c0c0c" d="M 626.5,190.5 C 627.239,190.369 627.906,190.536 628.5,191C 627.809,192.067 627.309,193.234 627,194.5C 626.667,223.5 626.333,252.5 626,281.5C 607.243,282.493 588.41,282.826 569.5,282.5C 568.841,252.814 569.508,223.481 571.5,194.5C 571.5,223.167 571.5,251.833 571.5,280.5C 574.167,280.5 576.833,280.5 579.5,280.5C 579.833,280.5 580.167,280.5 580.5,280.5C 595.088,281.483 609.755,281.816 624.5,281.5C 624.5,280.167 624.5,278.833 624.5,277.5C 623.647,255.758 623.313,233.258 623.5,210C 624.269,204.204 624.769,198.371 625,192.5C 625.278,191.584 625.778,190.918 626.5,190.5 Z"/></g>
<g><path style="opacity:0.008" fill="#363531" d="M 573.5,270.5 C 574.833,271.167 574.833,271.167 573.5,270.5 Z"/></g>
<g><path style="opacity:0.008" fill="#363433" d="M 573.5,262.5 C 574.833,263.167 574.833,263.167 573.5,262.5 Z"/></g>
<g><path style="opacity:0.004" fill="#353436" d="M 573.5,259.5 C 574.833,260.167 574.833,260.167 573.5,259.5 Z"/></g>
<g><path style="opacity:0.004" fill="#363533" d="M 573.5,254.5 C 574.833,255.167 574.833,255.167 573.5,254.5 Z"/></g>
<g><path style="opacity:0.246" fill="#444242" d="M 571.5,194.5 C 572.332,222.664 572.832,250.997 573,279.5C 573.333,279.167 573.667,278.833 574,278.5C 575.948,279.109 577.782,279.776 579.5,280.5C 576.833,280.5 574.167,280.5 571.5,280.5C 571.5,251.833 571.5,223.167 571.5,194.5 Z"/></g>
<g><path style="opacity:0.008" fill="#373432" d="M 573.5,249.5 C 574.833,250.167 574.833,250.167 573.5,249.5 Z"/></g>
<g><path style="opacity:0.016" fill="#373534" d="M 573.5,246.5 C 574.833,247.167 574.833,247.167 573.5,246.5 Z"/></g>
<g><path style="opacity:0.004" fill="#393334" d="M 573.5,242.5 C 574.833,243.167 574.833,243.167 573.5,242.5 Z"/></g>
<g><path style="opacity:0.008" fill="#363634" d="M 573.5,239.5 C 574.833,240.167 574.833,240.167 573.5,239.5 Z"/></g>
<g><path style="opacity:0.012" fill="#393736" d="M 573.5,213.5 C 574.573,214.251 574.74,215.251 574,216.5C 573.517,215.552 573.351,214.552 573.5,213.5 Z"/></g>
<g><path style="opacity:0.004" fill="#393835" d="M 573.5,210.5 C 574.833,211.167 574.833,211.167 573.5,210.5 Z"/></g>
<g><path style="opacity:0.012" fill="#3c3938" d="M 573.5,206.5 C 574.833,207.167 574.833,207.167 573.5,206.5 Z"/></g>
<g><path style="opacity:0.008" fill="#3b3a39" d="M 448.5,201.5 C 449.598,202.601 449.765,203.934 449,205.5C 448.51,204.207 448.343,202.873 448.5,201.5 Z"/></g>
<g><path style="opacity:0.004" fill="#3b3b39" d="M 448.5,199.5 C 449.833,200.167 449.833,200.167 448.5,199.5 Z"/></g>
<g><path style="opacity:0.975" fill="#030203" d="M 537.5,197.5 C 538.222,197.918 538.722,198.584 539,199.5C 539.83,227.003 539.664,254.336 538.5,281.5C 538.672,280.508 538.338,279.842 537.5,279.5C 537.5,279.167 537.5,278.833 537.5,278.5C 537.5,276.167 537.5,273.833 537.5,271.5C 537.5,270.5 537.5,269.5 537.5,268.5C 537.5,266.5 537.5,264.5 537.5,262.5C 537.5,262.167 537.5,261.833 537.5,261.5C 537.5,240.167 537.5,218.833 537.5,197.5 Z"/></g>
<g><path style="opacity:0.004" fill="#3d3a3b" d="M 447.5,196.5 C 447.897,195.475 448.563,195.308 449.5,196C 448.906,196.464 448.239,196.631 447.5,196.5 Z"/></g>
<g><path style="opacity:0.009" fill="#3d3a3b" d="M 535.5,192.5 C 536.573,193.251 536.74,194.251 536,195.5C 535.517,194.552 535.351,193.552 535.5,192.5 Z"/></g>
<g><path style="opacity:0.008" fill="#3e3b3a" d="M 486.5,192.5 C 487.833,193.167 487.833,193.167 486.5,192.5 Z"/></g>
<g><path style="opacity:0.982" fill="#101010" d="M 484.5,192.5 C 485.224,194.218 485.891,196.052 486.5,198C 486.491,225.445 486.158,252.278 485.5,278.5C 485.5,279.167 485.5,279.833 485.5,280.5C 502.992,281.497 520.659,281.83 538.5,281.5C 520.431,282.831 502.264,282.831 484,281.5C 483.169,251.664 483.336,221.997 484.5,192.5 Z"/></g>
<g><path style="opacity:0.004" fill="#403f3d" d="M 485.5,190.5 C 486.833,191.167 486.833,191.167 485.5,190.5 Z"/></g>
<g><path style="opacity:0.004" fill="#40413d" d="M 394.5,185.5 C 395.833,186.167 395.833,186.167 394.5,185.5 Z"/></g>
<g><path style="opacity:0.004" fill="#423f3f" d="M 481.5,184.5 C 482.833,185.167 482.833,185.167 481.5,184.5 Z"/></g>
<g><path style="opacity:0.004" fill="#454342" d="M 566.5,183.5 C 567.833,184.167 567.833,184.167 566.5,183.5 Z"/></g>
<g><path style="opacity:0.004" fill="#423f3f" d="M 481.5,184.5 C 480.833,183.167 480.833,183.167 481.5,184.5 Z"/></g>
<g><path style="opacity:0.013" fill="#4b4948" d="M 536.5,271.5 C 536.833,271.5 537.167,271.5 537.5,271.5C 537.5,273.833 537.5,276.167 537.5,278.5C 536.761,278.631 536.094,278.464 535.5,278C 536.423,275.959 536.756,273.792 536.5,271.5 Z"/></g>
<g><path style="opacity:0.004" fill="#333130" d="M 491.5,277.5 C 492.833,278.167 492.833,278.167 491.5,277.5 Z"/></g>
<g><path style="opacity:0.004" fill="#343232" d="M 499.5,277.5 C 500.833,278.167 500.833,278.167 499.5,277.5 Z"/></g>
<g><path style="opacity:0.004" fill="#343332" d="M 507.5,277.5 C 508.833,278.167 508.833,278.167 507.5,277.5 Z"/></g>
<g><path style="opacity:0.008" fill="#3f3e3e" d="M 343.5,279.5 C 344.833,280.167 344.833,280.167 343.5,279.5 Z"/></g>
<g><path style="opacity:0.008" fill="#383736" d="M 346.5,280.5 C 345.833,279.167 345.833,279.167 346.5,280.5 Z"/></g>
<g><path style="opacity:0.01" fill="#494849" d="M 485.5,278.5 C 487.626,279.048 489.626,279.715 491.5,280.5C 489.5,280.5 487.5,280.5 485.5,280.5C 485.5,279.833 485.5,279.167 485.5,278.5 Z"/></g>
<g><path style="opacity:0.004" fill="#3f3e3d" d="M 341.5,281.5 C 340.761,281.631 340.094,281.464 339.5,281C 340.437,280.308 341.103,280.475 341.5,281.5 Z"/></g>
<g><path style="opacity:0.842" fill="#242324" d="M 537.5,279.5 C 538.338,279.842 538.672,280.508 538.5,281.5C 520.659,281.83 502.992,281.497 485.5,280.5C 487.5,280.5 489.5,280.5 491.5,280.5C 506.924,280.025 522.257,279.692 537.5,279.5 Z"/></g>
<g><path style="opacity:0.841" fill="#252425" d="M 624.5,277.5 C 624.5,278.833 624.5,280.167 624.5,281.5C 609.755,281.816 595.088,281.483 580.5,280.5C 594.93,279.713 609.096,279.713 623,280.5C 623.232,279.263 623.732,278.263 624.5,277.5 Z"/></g>
<g><path style="opacity:0.52" fill="#393837" d="M 658.5,260.5 C 659.491,266.979 659.824,273.646 659.5,280.5C 664.233,280.777 668.9,280.443 673.5,279.5C 674.522,279.855 675.189,280.522 675.5,281.5C 669.833,281.5 664.167,281.5 658.5,281.5C 658.5,274.5 658.5,267.5 658.5,260.5 Z"/></g>
<g><path style="opacity:0.008" fill="#3a3938" d="M 683.5,280.5 C 684.833,281.167 684.833,281.167 683.5,280.5 Z"/></g>
<g><path style="opacity:0.007" fill="#3c3b3b" d="M 689.5,283.5 C 689.082,282.778 688.416,282.278 687.5,282C 688.635,281.251 689.635,281.417 690.5,282.5C 690.376,283.107 690.043,283.44 689.5,283.5 Z"/></g>
<g><path style="opacity:0.004" fill="#3d3d3b" d="M 327.5,282.5 C 328.833,283.167 328.833,283.167 327.5,282.5 Z"/></g>
<g><path style="opacity:0.004" fill="#3e3e3c" d="M 694.5,284.5 C 695.833,285.167 695.833,285.167 694.5,284.5 Z"/></g>
<g><path style="opacity:0.004" fill="#403f41" d="M 321.5,288.5 C 320.761,288.631 320.094,288.464 319.5,288C 320.437,287.308 321.103,287.475 321.5,288.5 Z"/></g>
<g><path style="opacity:0.004" fill="#3c3938" d="M 702.5,288.5 C 701.833,287.167 701.833,287.167 702.5,288.5 Z"/></g>
<g><path style="opacity:0.004" fill="#413f3e" d="M 702.5,288.5 C 703.833,289.167 703.833,289.167 702.5,288.5 Z"/></g>
<g><path style="opacity:0.004" fill="#3d3c39" d="M 708.5,288.5 C 709.833,289.167 709.833,289.167 708.5,288.5 Z"/></g>
<g><path style="opacity:0.004" fill="#3f3e3a" d="M 707.5,291.5 C 708.833,292.167 708.833,292.167 707.5,291.5 Z"/></g>
<g><path style="opacity:0.004" fill="#3b3c3b" d="M 304.5,295.5 C 305.833,296.167 305.833,296.167 304.5,295.5 Z"/></g>
<g><path style="opacity:0.004" fill="#3e3c3b" d="M 306.5,296.5 C 307.833,297.167 307.833,297.167 306.5,296.5 Z"/></g>
<g><path style="opacity:0.008" fill="#3b3e3b" d="M 299.5,305.5 C 298.833,304.167 298.833,304.167 299.5,305.5 Z"/></g>
<g><path style="opacity:0.004" fill="#3a3b38" d="M 723.5,304.5 C 724.833,305.167 724.833,305.167 723.5,304.5 Z"/></g>
<g><path style="opacity:0.008" fill="#3c3d3d" d="M 296.5,306.5 C 295.475,306.103 295.308,305.437 296,304.5C 296.464,305.094 296.631,305.761 296.5,306.5 Z"/></g>
<g><path style="opacity:0.004" fill="#3d3f3b" d="M 296.5,306.5 C 297.833,307.167 297.833,307.167 296.5,306.5 Z"/></g>
<g><path style="opacity:0.004" fill="#5e615d" d="M 987.5,309.5 C 988.833,310.167 988.833,310.167 987.5,309.5 Z"/></g>
<g><path style="opacity:0.012" fill="#3c3939" d="M 728.5,311.5 C 729.833,312.167 729.833,312.167 728.5,311.5 Z"/></g>
<g><path style="opacity:0.005" fill="#3e3c3c" d="M 293.5,313.5 C 292.637,314.463 291.97,314.463 291.5,313.5C 292.257,312.227 292.923,312.227 293.5,313.5 Z"/></g>
<g><path style="opacity:0.004" fill="#3a3c39" d="M 287.5,313.5 C 288.833,314.167 288.833,314.167 287.5,313.5 Z"/></g>
<g><path style="opacity:0.008" fill="#3c3b38" d="M 733.5,319.5 C 734.833,320.167 734.833,320.167 733.5,319.5 Z"/></g>
<g><path style="opacity:0.985" fill="#171717" d="M 667.5,323.5 C 563.167,323.5 458.833,323.5 354.5,323.5C 353.209,323.263 352.209,323.596 351.5,324.5C 350.609,325.11 349.609,325.443 348.5,325.5C 347.448,325.649 346.448,325.483 345.5,325C 348.948,323.073 352.615,321.739 356.5,321C 459.167,320.333 561.833,320.333 664.5,321C 666.608,321.36 668.608,322.027 670.5,323C 669.552,323.483 668.552,323.649 667.5,323.5 Z"/></g>
<g><path style="opacity:0.012" fill="#3c3d39" d="M 734.5,321.5 C 735.833,322.167 735.833,322.167 734.5,321.5 Z"/></g>
<g><path style="opacity:0.004" fill="#393737" d="M 351.5,324.5 C 352.209,323.596 353.209,323.263 354.5,323.5C 354.5,324.5 354.5,325.5 354.5,326.5C 351.402,326.587 351.068,326.087 353.5,325C 352.906,324.536 352.239,324.369 351.5,324.5 Z"/></g>
<g><path style="opacity:0.004" fill="#383636" d="M 368.5,324.5 C 371.001,324.511 371.168,325.178 369,326.5C 368.536,325.906 368.369,325.239 368.5,324.5 Z"/></g>
<g><path style="opacity:0.006" fill="#373636" d="M 463.5,325.5 C 465.185,324.156 466.852,324.323 468.5,326C 466.893,325.981 465.226,325.815 463.5,325.5 Z"/></g>
<g><path style="opacity:0.007" fill="#373536" d="M 480.5,325.5 C 481.946,324.387 483.613,324.22 485.5,325C 484.038,326.628 482.372,326.795 480.5,325.5 Z"/></g>
<g><path style="opacity:0.005" fill="#383536" d="M 488.5,325.5 C 489.386,324.224 490.386,324.224 491.5,325.5C 490.767,326.087 489.767,326.087 488.5,325.5 Z"/></g>
<g><path style="opacity:0.006" fill="#363534" d="M 496.5,325.5 C 497.386,324.224 498.386,324.224 499.5,325.5C 498.767,326.087 497.767,326.087 496.5,325.5 Z"/></g>
<g><path style="opacity:0.008" fill="#373535" d="M 510.5,325.5 C 512.517,324.126 514.517,324.293 516.5,326C 514.575,325.865 512.575,325.698 510.5,325.5 Z"/></g>
<g><path style="opacity:0.009" fill="#373434" d="M 519.5,325.5 C 520.708,324.218 522.042,324.218 523.5,325.5C 522.443,325.906 521.109,325.906 519.5,325.5 Z"/></g>
<g><path style="opacity:0.008" fill="#393636" d="M 624.5,325.5 C 625.386,324.224 626.386,324.224 627.5,325.5C 626.767,326.087 625.767,326.087 624.5,325.5 Z"/></g>
<g><path style="opacity:0.01" fill="#373634" d="M 667.5,324.5 C 667.631,325.239 667.464,325.906 667,326.5C 662.295,325.118 662.461,324.451 667.5,324.5 Z"/></g>
<g><path style="opacity:0.006" fill="#393737" d="M 416.5,325.5 C 417.849,324.203 419.182,324.37 420.5,326C 419.181,326.195 417.847,326.028 416.5,325.5 Z"/></g>
<g><path style="opacity:0.004" fill="#5e605d" d="M 987.5,325.5 C 988.833,326.167 988.833,326.167 987.5,325.5 Z"/></g>
<g><path style="opacity:0.004" fill="#3c393b" d="M 284.5,327.5 C 285.833,328.167 285.833,328.167 284.5,327.5 Z"/></g>
<g><path style="opacity:0.008" fill="#3a3a38" d="M 282.5,332.5 C 283.833,333.167 283.833,333.167 282.5,332.5 Z"/></g>
<g><path style="opacity:0.004" fill="#3b3c3a" d="M 275.5,333.5 C 276.833,334.167 276.833,334.167 275.5,333.5 Z"/></g>
<g><path style="opacity:0.004" fill="#3a3a37" d="M 282.5,339.5 C 281.833,338.167 281.833,338.167 282.5,339.5 Z"/></g>
<g><path style="opacity:0.986" fill="#161516" d="M 328.5,343.5 C 326.232,348.234 324.732,353.234 324,358.5C 323.5,461.833 323.333,565.166 323.5,668.5C 323.657,669.873 323.49,671.207 323,672.5C 322.617,671.944 322.117,671.611 321.5,671.5C 321.333,566.499 321.5,461.499 322,356.5C 322.943,351.953 324.443,347.62 326.5,343.5C 327.548,341.067 328.214,341.067 328.5,343.5 Z"/></g>
<g><path style="opacity:0.004" fill="#373835" d="M 741.5,343.5 C 742.833,344.167 742.833,344.167 741.5,343.5 Z"/></g>
<g><path style="opacity:0.004" fill="#383638" d="M 279.5,344.5 C 280.573,345.251 280.74,346.251 280,347.5C 279.517,346.552 279.351,345.552 279.5,344.5 Z"/></g>
<g><path style="opacity:0.004" fill="#5c5d5d" d="M 883.5,349.5 C 884.833,350.167 884.833,350.167 883.5,349.5 Z"/></g>
<g><path style="opacity:0.004" fill="#5c5f5d" d="M 1003.5,349.5 C 1004.83,350.167 1004.83,350.167 1003.5,349.5 Z"/></g>
<g><path style="opacity:0.008" fill="#343433" d="M 279.5,350.5 C 280.833,351.167 280.833,351.167 279.5,350.5 Z"/></g>
<g><path style="opacity:0.004" fill="#373734" d="M 742.5,350.5 C 743.833,351.167 743.833,351.167 742.5,350.5 Z"/></g>
<g><path style="opacity:0.999" fill="#131314" d="M 539.5,472.5 C 539.66,470.801 539.494,469.134 539,467.5C 536.986,471.716 536.486,476.049 537.5,480.5C 563.399,481.171 589.232,481.838 615,482.5C 615.464,481.906 615.631,481.239 615.5,480.5C 621.73,482.916 625.063,487.583 625.5,494.5C 624.974,497.272 624.141,499.938 623,502.5C 577.984,559.998 533.818,616.832 490.5,673C 485.608,676.059 480.275,677.225 474.5,676.5C 467.18,673.825 463.18,668.492 462.5,660.5C 469.486,631.224 476.153,601.89 482.5,572.5C 483.338,572.158 483.672,571.492 483.5,570.5C 484.338,570.158 484.672,569.492 484.5,568.5C 484.517,566.435 484.85,564.435 485.5,562.5C 487.163,560.562 487.829,558.228 487.5,555.5C 487.517,553.435 487.85,551.435 488.5,549.5C 489.404,548.791 489.737,547.791 489.5,546.5C 489.938,546.565 490.272,546.399 490.5,546C 489.833,545.667 489.167,545.333 488.5,545C 476.5,544.833 464.5,544.667 452.5,544.5C 440.148,544.501 428.148,545.168 416.5,546.5C 416.167,546.5 415.833,546.5 415.5,546.5C 405.656,542.813 402.156,535.813 405,525.5C 417.741,508.938 430.241,492.271 442.5,475.5C 468.223,443.717 493.223,411.384 517.5,378.5C 524.84,370.347 531.84,361.847 538.5,353C 540.717,351.725 543.051,350.725 545.5,350C 550.494,349.928 555.161,350.594 559.5,352C 559.167,352.333 558.833,352.667 558.5,353C 561.967,356.434 563.967,360.601 564.5,365.5C 556.528,401.383 548.194,437.05 539.5,472.5 Z"/></g>
<g><path style="opacity:0.994" fill="#0c0b0b" d="M 701.5,389.5 C 701.667,481.834 701.5,574.167 701,666.5C 700.731,672.305 699.064,677.639 696,682.5C 695.536,681.906 695.369,681.239 695.5,680.5C 697.817,673.72 698.984,666.72 699,659.5C 699.515,556.304 699.349,455.304 698.5,356.5C 698.338,354.473 698.505,352.473 699,350.5C 699.667,353.167 700.333,355.833 701,358.5C 701.5,368.828 701.666,379.161 701.5,389.5 Z"/></g>
<g><path style="opacity:0.008" fill="#333534" d="M 742.5,353.5 C 743.833,354.167 743.833,354.167 742.5,353.5 Z"/></g>
<g><path style="opacity:0.008" fill="#353536" d="M 279.5,360.5 C 280.833,361.167 280.833,361.167 279.5,360.5 Z"/></g>
<g><path style="opacity:0.804" fill="#282828" d="M 282.5,344.5 C 282.5,350.833 282.5,357.167 282.5,363.5C 281.5,363.5 280.5,363.5 279.5,363.5C 281.082,357.264 282.082,350.93 282.5,344.5 Z"/></g>
<g><path style="opacity:0.012" fill="#444543" d="M 827.5,361.5 C 828.833,362.167 828.833,362.167 827.5,361.5 Z"/></g>
<g><path style="opacity:0.99" fill="#030303" d="M 282.5,339.5 C 282.833,339.5 283.167,339.5 283.5,339.5C 284.654,345.987 284.821,352.654 284,359.5C 283.879,361.727 283.046,363.56 281.5,365C 253.833,365.667 226.167,365.667 198.5,365C 197.944,364.617 197.611,364.117 197.5,363.5C 224.454,363.418 251.788,363.418 279.5,363.5C 280.5,363.5 281.5,363.5 282.5,363.5C 282.5,357.167 282.5,350.833 282.5,344.5C 282.5,342.833 282.5,341.167 282.5,339.5 Z"/></g>
<g><path style="opacity:0.989" fill="#0b0a0b" d="M 739.5,340.5 C 740.969,347.95 741.803,355.617 742,363.5C 742.807,359.551 743.307,359.551 743.5,363.5C 772.169,363.333 800.835,363.5 829.5,364C 830.527,364.513 831.527,365.013 832.5,365.5C 832.649,366.552 832.483,367.552 832,368.5C 831.097,367.299 829.931,366.465 828.5,366C 799.167,365.667 769.833,365.333 740.5,365C 739.518,362.262 738.852,359.428 738.5,356.5C 738.179,350.974 738.512,345.64 739.5,340.5 Z"/></g>
<g><path style="opacity:0.004" fill="#4a4a4b" d="M 186.5,368.5 C 185.833,367.167 185.833,367.167 186.5,368.5 Z"/></g>
<g><path style="opacity:0.008" fill="#464547" d="M 183.5,368.5 C 184.833,369.167 184.833,369.167 183.5,368.5 Z"/></g>
<g><path style="opacity:0.006" fill="#363735" d="M 517.5,378.5 C 516.078,378.291 514.745,377.791 513.5,377C 515.463,376.156 516.796,376.656 517.5,378.5 Z"/></g>
<g><path style="opacity:0.004" fill="#494849" d="M 180.5,384.5 C 181.833,385.167 181.833,385.167 180.5,384.5 Z"/></g>
<g><path style="opacity:0.004" fill="#434343" d="M 838.5,390.5 C 839.833,391.167 839.833,391.167 838.5,390.5 Z"/></g>
<g><path style="opacity:0.999" fill="#020202" d="M 282.5,397.5 C 253.5,397.5 224.5,397.5 195.5,397.5C 193.447,397.598 191.78,396.931 190.5,395.5C 189.537,394.637 189.537,393.97 190.5,393.5C 193.308,394.97 196.308,395.803 199.5,396C 227.336,396.168 255.003,396.668 282.5,397.5 Z"/></g>
<g><path style="opacity:0.004" fill="#434242" d="M 190.5,397.5 C 191.773,398.077 191.773,398.743 190.5,399.5C 189.537,399.03 189.537,398.363 190.5,397.5 Z"/></g>
<g><path style="opacity:0.196" fill="#3a3939" d="M 825.5,397.5 C 825.833,397.5 826.167,397.5 826.5,397.5C 806.431,398.172 786.264,398.839 766,399.5C 757.919,398.518 749.752,398.184 741.5,398.5C 741.5,416.167 741.5,433.833 741.5,451.5C 740.503,433.674 740.17,415.674 740.5,397.5C 768.833,397.5 797.167,397.5 825.5,397.5 Z"/></g>
<g><path style="opacity:0.004" fill="#313232" d="M 742.5,399.5 C 743.833,400.167 743.833,400.167 742.5,399.5 Z"/></g>
<g><path style="opacity:0.004" fill="#343332" d="M 279.5,401.5 C 280.833,402.167 280.833,402.167 279.5,401.5 Z"/></g>
<g><path style="opacity:0.008" fill="#323231" d="M 742.5,405.5 C 743.833,406.167 743.833,406.167 742.5,405.5 Z"/></g>
<g><path style="opacity:0.012" fill="#313031" d="M 742.5,411.5 C 743.525,411.897 743.692,412.563 743,413.5C 742.536,412.906 742.369,412.239 742.5,411.5 Z"/></g>
<g><path style="opacity:0.004" fill="#333432" d="M 279.5,414.5 C 280.833,415.167 280.833,415.167 279.5,414.5 Z"/></g>
<g><path style="opacity:0.007" fill="#343233" d="M 279.5,416.5 C 280.629,418.628 280.796,420.961 280,423.5C 279.503,421.19 279.337,418.857 279.5,416.5 Z"/></g>
<g><path style="opacity:0.004" fill="#323331" d="M 742.5,417.5 C 743.833,418.167 743.833,418.167 742.5,417.5 Z"/></g>
<g><path style="opacity:0.004" fill="#323131" d="M 742.5,419.5 C 743.833,420.167 743.833,420.167 742.5,419.5 Z"/></g>
<g><path style="opacity:0.004" fill="#353333" d="M 279.5,426.5 C 280.833,427.167 280.833,427.167 279.5,426.5 Z"/></g>
<g><path style="opacity:0.624" fill="#2d2c2b" d="M 195.5,397.5 C 224.5,397.5 253.5,397.5 282.5,397.5C 282.5,415.5 282.5,433.5 282.5,451.5C 281.5,451.5 280.5,451.5 279.5,451.5C 280.801,443.9 281.467,436.067 281.5,428C 281.055,417.994 281.055,408.327 281.5,399C 252.664,398.832 223.997,398.332 195.5,397.5 Z"/></g>
<g><path style="opacity:0.008" fill="#303231" d="M 742.5,431.5 C 743.833,432.167 743.833,432.167 742.5,431.5 Z"/></g>
<g><path style="opacity:0.008" fill="#323131" d="M 279.5,432.5 C 280.598,433.601 280.765,434.934 280,436.5C 279.51,435.207 279.343,433.873 279.5,432.5 Z"/></g>
<g><path style="opacity:0.004" fill="#343234" d="M 742.5,436.5 C 743.525,436.897 743.692,437.563 743,438.5C 742.536,437.906 742.369,437.239 742.5,436.5 Z"/></g>
<g><path style="opacity:0.004" fill="#333430" d="M 279.5,438.5 C 280.833,439.167 280.833,439.167 279.5,438.5 Z"/></g>
<g><path style="opacity:0.004" fill="#343332" d="M 742.5,440.5 C 743.525,440.897 743.692,441.563 743,442.5C 742.536,441.906 742.369,441.239 742.5,440.5 Z"/></g>
<g><path style="opacity:0.004" fill="#323132" d="M 279.5,442.5 C 280.833,443.167 280.833,443.167 279.5,442.5 Z"/></g>
<g><path style="opacity:0.004" fill="#606160" d="M 939.5,445.5 C 940.833,446.167 940.833,446.167 939.5,445.5 Z"/></g>
<g><path style="opacity:0.008" fill="#333132" d="M 279.5,447.5 C 280.773,448.077 280.773,448.743 279.5,449.5C 278.537,449.03 278.537,448.363 279.5,447.5 Z"/></g>
<g><path style="opacity:0.004" fill="#383a38" d="M 261.5,449.5 C 262.833,450.167 262.833,450.167 261.5,449.5 Z"/></g>
<g><path style="opacity:0.012" fill="#323130" d="M 742.5,448.5 C 743.525,448.897 743.692,449.563 743,450.5C 742.536,449.906 742.369,449.239 742.5,448.5 Z"/></g>
<g><path style="opacity:0.004" fill="#434342" d="M 827.5,449.5 C 828.833,450.167 828.833,450.167 827.5,449.5 Z"/></g>
<g><path style="opacity:0.004" fill="#404141" d="M 829.5,450.5 C 830.833,451.167 830.833,451.167 829.5,450.5 Z"/></g>
<g><path style="opacity:0.987" fill="#020203" d="M 282.5,397.5 C 283.831,415.902 283.831,434.402 282.5,453C 252.664,453.831 222.997,453.664 193.5,452.5C 195.343,451.717 197.343,451.05 199.5,450.5C 226.122,451.491 252.789,451.824 279.5,451.5C 280.5,451.5 281.5,451.5 282.5,451.5C 282.5,433.5 282.5,415.5 282.5,397.5 Z"/></g>
<g><path style="opacity:0.986" fill="#020202" d="M 825.5,397.5 C 797.167,397.5 768.833,397.5 740.5,397.5C 740.17,415.674 740.503,433.674 741.5,451.5C 770.688,451.381 800.021,451.381 829.5,451.5C 830.167,452.167 830.833,452.833 831.5,453.5C 830.504,453.414 829.671,453.748 829,454.5C 799.572,453.671 770.072,453.171 740.5,453C 739.507,434.243 739.174,415.41 739.5,396.5C 768.338,396.169 797.005,396.502 825.5,397.5 Z"/></g>
<g><path style="opacity:0.004" fill="#474548" d="M 186.5,456.5 C 185.761,456.631 185.094,456.464 184.5,456C 185.437,455.308 186.103,455.475 186.5,456.5 Z"/></g>
<g><path style="opacity:0.004" fill="#454442" d="M 838.5,458.5 C 839.833,459.167 839.833,459.167 838.5,458.5 Z"/></g>
<g><path style="opacity:0.004" fill="#393737" d="M 695.5,464.5 C 698.001,464.511 698.168,465.178 696,466.5C 695.536,465.906 695.369,465.239 695.5,464.5 Z"/></g>
<g><path style="opacity:0.004" fill="#444344" d="M 179.5,467.5 C 180.833,468.167 180.833,468.167 179.5,467.5 Z"/></g>
<g><path style="opacity:0.004" fill="#515150" d="M 859.5,469.5 C 860.833,470.167 860.833,470.167 859.5,469.5 Z"/></g>
<g><path style="opacity:0.008" fill="#434544" d="M 179.5,470.5 C 180.833,471.167 180.833,471.167 179.5,470.5 Z"/></g>
<g><path style="opacity:0.004" fill="#454645" d="M 181.5,472.5 C 180.833,473.167 180.833,473.167 181.5,472.5 Z"/></g>
<g><path style="opacity:0.005" fill="#3b3939" d="M 695.5,473.5 C 697.225,473.843 697.725,474.843 697,476.5C 695.961,475.756 695.461,474.756 695.5,473.5 Z"/></g>
<g><path style="opacity:0.008" fill="#3a3937" d="M 442.5,475.5 C 440.108,476.368 439.941,475.701 442,473.5C 442.464,474.094 442.631,474.761 442.5,475.5 Z"/></g>
<g><path style="opacity:0.984" fill="#181717" d="M 539.5,472.5 C 539.373,474.915 539.207,477.249 539,479.5C 563.761,478.339 588.594,478.173 613.5,479C 614.416,479.278 615.082,479.778 615.5,480.5C 615.631,481.239 615.464,481.906 615,482.5C 589.232,481.838 563.399,481.171 537.5,480.5C 536.486,476.049 536.986,471.716 539,467.5C 539.494,469.134 539.66,470.801 539.5,472.5 Z"/></g>
<g><path style="opacity:0.004" fill="#424341" d="M 184.5,481.5 C 183.833,480.167 183.833,480.167 184.5,481.5 Z"/></g>
<g><path style="opacity:0.007" fill="#434142" d="M 184.5,481.5 C 184.833,481.5 185.167,481.5 185.5,481.5C 185.5,482.167 185.833,482.5 186.5,482.5C 185.377,483.757 184.711,483.424 184.5,481.5 Z"/></g>
<g><path style="opacity:0.004" fill="#444240" d="M 184.5,484.5 C 185.833,485.167 185.833,485.167 184.5,484.5 Z"/></g>
<g><path style="opacity:0.999" fill="#020202" d="M 282.5,486.5 C 253.167,486.5 223.833,486.5 194.5,486.5C 192.716,486.107 191.05,485.441 189.5,484.5C 189.369,483.624 189.702,482.957 190.5,482.5C 192.22,483.934 194.22,484.767 196.5,485C 225.336,485.168 254.003,485.668 282.5,486.5 Z"/></g>
<g><path style="opacity:0.008" fill="#403f3f" d="M 187.5,486.5 C 187.897,485.475 188.563,485.308 189.5,486C 188.906,486.464 188.239,486.631 187.5,486.5 Z"/></g>
<g><path style="opacity:0.004" fill="#413f3f" d="M 830.5,486.5 C 831.239,486.369 831.906,486.536 832.5,487C 831.563,487.692 830.897,487.525 830.5,486.5 Z"/></g>
<g><path style="opacity:0.012" fill="#323030" d="M 279.5,488.5 C 280.573,489.251 280.74,490.251 280,491.5C 279.517,490.552 279.351,489.552 279.5,488.5 Z"/></g>
<g><path style="opacity:0.008" fill="#323230" d="M 742.5,489.5 C 743.833,490.167 743.833,490.167 742.5,489.5 Z"/></g>
<g><path style="opacity:0.26" fill="#343232" d="M 827.5,486.5 C 799.005,487.498 770.338,487.831 741.5,487.5C 741.333,504.17 741.5,520.837 742,537.5C 742.333,535.167 742.667,532.833 743,530.5C 743.333,533.167 743.667,535.833 744,538.5C 744.995,539.066 745.828,539.733 746.5,540.5C 744.5,540.5 742.5,540.5 740.5,540.5C 740.5,522.5 740.5,504.5 740.5,486.5C 769.5,486.5 798.5,486.5 827.5,486.5 Z"/></g>
<g><path style="opacity:0.008" fill="#323131" d="M 279.5,493.5 C 280.573,494.251 280.74,495.251 280,496.5C 279.517,495.552 279.351,494.552 279.5,493.5 Z"/></g>
<g><path style="opacity:0.004" fill="#323030" d="M 279.5,497.5 C 280.525,497.897 280.692,498.563 280,499.5C 279.536,498.906 279.369,498.239 279.5,497.5 Z"/></g>
<g><path style="opacity:0.004" fill="#333131" d="M 279.5,502.5 C 280.833,503.167 280.833,503.167 279.5,502.5 Z"/></g>
<g><path style="opacity:0.6" fill="#222222" d="M 194.5,486.5 C 223.833,486.5 253.167,486.5 282.5,486.5C 282.5,486.833 282.5,487.167 282.5,487.5C 282.83,505.341 282.497,523.008 281.5,540.5C 281.5,540.167 281.5,539.833 281.5,539.5C 281.666,535.154 281.499,530.821 281,526.5C 280.667,527.5 280.333,528.5 280,529.5C 279.365,527.365 279.699,525.365 281,523.5C 281.5,511.505 281.667,499.505 281.5,487.5C 252.329,487.831 223.329,487.498 194.5,486.5 Z"/></g>
<g><path style="opacity:0.008" fill="#333132" d="M 279.5,521.5 C 280.833,522.167 280.833,522.167 279.5,521.5 Z"/></g>
<g><path style="opacity:0.008" fill="#353131" d="M 279.5,530.5 C 280.833,531.167 280.833,531.167 279.5,530.5 Z"/></g>
<g><path style="opacity:0.004" fill="#474444" d="M 825.5,538.5 C 826.833,539.167 826.833,539.167 825.5,538.5 Z"/></g>
<g><path style="opacity:0.016" fill="#434242" d="M 281.5,539.5 C 281.5,539.833 281.5,540.167 281.5,540.5C 279.5,540.5 277.5,540.5 275.5,540.5C 276.568,539.566 277.901,539.232 279.5,539.5C 279.34,537.801 279.506,536.134 280,534.5C 280.198,536.382 280.698,538.048 281.5,539.5 Z"/></g>
<g><path style="opacity:0.975" fill="#171717" d="M 282.5,487.5 C 283.497,505.659 283.83,523.992 283.5,542.5C 252.625,542.535 221.958,542.535 191.5,542.5C 193.476,540.989 195.809,540.156 198.5,540C 201.333,539.833 204.167,539.667 207,539.5C 229.781,539.253 252.614,539.587 275.5,540.5C 277.5,540.5 279.5,540.5 281.5,540.5C 282.497,523.008 282.83,505.341 282.5,487.5 Z"/></g>
<g><path style="opacity:0.976" fill="#131313" d="M 835.5,482.5 C 833.809,483.864 832.142,485.197 830.5,486.5C 829.5,486.5 828.5,486.5 827.5,486.5C 798.5,486.5 769.5,486.5 740.5,486.5C 740.5,504.5 740.5,522.5 740.5,540.5C 742.5,540.5 744.5,540.5 746.5,540.5C 771.485,539.687 796.485,539.354 821.5,539.5C 824.029,539.929 826.362,540.596 828.5,541.5C 799.005,542.498 769.338,542.831 739.5,542.5C 739.197,523.588 739.197,504.754 739.5,486C 768.5,485.667 797.5,485.333 826.5,485C 829.698,484.152 832.531,482.652 835,480.5C 835.464,481.094 835.631,481.761 835.5,482.5 Z"/></g>
<g><path style="opacity:0.004" fill="#444444" d="M 183.5,543.5 C 184.833,544.167 184.833,544.167 183.5,543.5 Z"/></g>
<g><path style="opacity:0.996" fill="#030303" d="M 489.5,546.5 C 465.167,546.5 440.833,546.5 416.5,546.5C 428.148,545.168 440.148,544.501 452.5,544.5C 464.5,544.667 476.5,544.833 488.5,545C 489.167,545.333 489.833,545.667 490.5,546C 490.272,546.399 489.938,546.565 489.5,546.5 Z"/></g>
<g><path style="opacity:0.008" fill="#454544" d="M 184.5,547.5 C 183.833,546.167 183.833,546.167 184.5,547.5 Z"/></g>
<g><path style="opacity:0.246" fill="#403f3e" d="M 415.5,546.5 C 415.833,546.5 416.167,546.5 416.5,546.5C 440.833,546.5 465.167,546.5 489.5,546.5C 489.737,547.791 489.404,548.791 488.5,549.5C 464.35,547.836 440.017,546.836 415.5,546.5 Z"/></g>
<g><path style="opacity:0.008" fill="#474547" d="M 180.5,552.5 C 181.525,552.897 181.692,553.563 181,554.5C 180.536,553.906 180.369,553.239 180.5,552.5 Z"/></g>
<g><path style="opacity:0.961" fill="#2b2a2a" d="M 487.5,555.5 C 487.829,558.228 487.163,560.562 485.5,562.5C 485.721,559.933 486.388,557.599 487.5,555.5 Z"/></g>
<g><path style="opacity:0.004" fill="#474647" d="M 181.5,560.5 C 180.833,561.167 180.833,561.167 181.5,560.5 Z"/></g>
<g><path style="opacity:0.004" fill="#464747" d="M 180.5,563.5 C 181.833,564.167 181.833,564.167 180.5,563.5 Z"/></g>
<g><path style="opacity:0.004" fill="#393737" d="M 484.5,568.5 C 484.672,569.492 484.338,570.158 483.5,570.5C 482.58,569.933 482.246,570.599 482.5,572.5C 481.387,571.054 481.22,569.387 482,567.5C 482.671,568.252 483.504,568.586 484.5,568.5 Z"/></g>
<g><path style="opacity:0.004" fill="#464645" d="M 184.5,570.5 C 185.833,571.167 185.833,571.167 184.5,570.5 Z"/></g>
<g><path style="opacity:0.004" fill="#414141" d="M 189.5,573.5 C 189.5,573.833 189.5,574.167 189.5,574.5C 186.833,574.167 186.833,573.833 189.5,573.5 Z"/></g>
<g><path style="opacity:0.972" fill="#020303" d="M 830.5,573.5 C 829.833,573.5 829.5,573.833 829.5,574.5C 800.667,575.163 771.833,575.829 743,576.5C 742.617,575.944 742.117,575.611 741.5,575.5C 755.484,574.167 769.817,573.501 784.5,573.5C 800.054,573.138 815.387,573.138 830.5,573.5 Z"/></g>
<g><path style="opacity:0.008" fill="#404241" d="M 189.5,574.5 C 190.833,575.167 190.833,575.167 189.5,574.5 Z"/></g>
<g><path style="opacity:0.008" fill="#434142" d="M 829.5,574.5 C 829.5,573.833 829.833,573.5 830.5,573.5C 830.833,573.5 831.167,573.5 831.5,573.5C 832.504,575.677 831.838,576.011 829.5,574.5 Z"/></g>
<g><path style="opacity:0.007" fill="#333333" d="M 742.5,577.5 C 743.573,578.251 743.74,579.251 743,580.5C 742.517,579.552 742.351,578.552 742.5,577.5 Z"/></g>
<g><path style="opacity:0.004" fill="#31312f" d="M 279.5,581.5 C 280.833,582.167 280.833,582.167 279.5,581.5 Z"/></g>
<g><path style="opacity:0.999" fill="#131313" d="M 738.5,356.5 C 738.852,359.428 739.518,362.262 740.5,365C 769.833,365.333 799.167,365.667 828.5,366C 829.931,366.465 831.097,367.299 832,368.5C 832.483,367.552 832.649,366.552 832.5,365.5C 840.67,372.255 842.67,380.588 838.5,390.5C 835.508,394.478 831.508,396.811 826.5,397.5C 826.167,397.5 825.833,397.5 825.5,397.5C 797.005,396.502 768.338,396.169 739.5,396.5C 739.174,415.41 739.507,434.243 740.5,453C 770.072,453.171 799.572,453.671 829,454.5C 829.671,453.748 830.504,453.414 831.5,453.5C 834.473,454.81 836.807,456.81 838.5,459.5C 841.946,467.886 840.946,475.552 835.5,482.5C 835.631,481.761 835.464,481.094 835,480.5C 832.531,482.652 829.698,484.152 826.5,485C 797.5,485.333 768.5,485.667 739.5,486C 739.197,504.754 739.197,523.588 739.5,542.5C 769.338,542.831 799.005,542.498 828.5,541.5C 834.384,542.881 838.217,546.547 840,552.5C 842.087,561.64 839.254,568.64 831.5,573.5C 831.167,573.5 830.833,573.5 830.5,573.5C 815.387,573.138 800.054,573.138 784.5,573.5C 769.817,573.501 755.484,574.167 741.5,575.5C 741.5,593.5 741.5,611.5 741.5,629.5C 740.668,611.671 740.168,593.671 740,575.5C 739.5,594.164 739.333,612.83 739.5,631.5C 768.835,631.333 798.169,631.5 827.5,632C 829.329,632.273 830.829,633.107 832,634.5C 832.483,633.552 832.649,632.552 832.5,631.5C 834.167,632.833 835.833,634.167 837.5,635.5C 841.659,643.252 841.493,650.919 837,658.5C 834.872,660.808 832.372,662.474 829.5,663.5C 830.85,662.35 830.684,661.683 829,661.5C 797.958,662.827 766.958,662.827 736,661.5C 735.812,663.061 736.645,663.728 738.5,663.5C 738.5,666.833 738.5,670.167 738.5,673.5C 737.223,671.086 735.557,670.919 733.5,673C 734.654,673.914 734.487,674.747 733,675.5C 731.913,673.068 731.413,673.402 731.5,676.5C 728.654,676.809 727.154,678.475 727,681.5C 726.667,681.167 726.333,680.833 726,680.5C 725.072,682.307 723.906,683.974 722.5,685.5C 725.072,687.673 727.739,689.84 730.5,692C 729.377,693.044 728.044,693.71 726.5,694C 727.328,694.915 728.328,695.581 729.5,696C 726.924,698.332 724.924,697.665 723.5,694C 722.552,693.517 721.552,693.351 720.5,693.5C 720.5,695.167 720.5,696.833 720.5,698.5C 718.139,698.326 715.806,697.993 713.5,697.5C 713.617,699.484 712.95,701.15 711.5,702.5C 713.491,705.092 715.824,707.258 718.5,709C 717.54,710.419 716.707,711.919 716,713.5C 715.517,712.552 715.351,711.552 715.5,710.5C 712.86,708.992 710.527,709.326 708.5,711.5C 705.833,710.5 705.833,709.5 708.5,708.5C 707.726,707.289 706.893,707.289 706,708.5C 703.837,707.332 701.837,706.665 700,706.5C 699.508,707.549 699.674,708.549 700.5,709.5C 700.081,710.672 699.415,711.672 698.5,712.5C 698.173,710.159 696.507,708.492 693.5,707.5C 692.316,709.046 691.316,710.713 690.5,712.5C 687.718,708.431 685.552,708.765 684,713.5C 683.667,711.5 683.333,709.5 683,707.5C 681.214,706.088 679.714,704.421 678.5,702.5C 679.04,701.252 679.707,700.085 680.5,699C 679.906,698.536 679.239,698.369 678.5,698.5C 685.546,693.787 691.213,687.787 695.5,680.5C 695.369,681.239 695.536,681.906 696,682.5C 699.064,677.639 700.731,672.305 701,666.5C 701.5,574.167 701.667,481.834 701.5,389.5C 702.721,390.028 703.887,390.695 705,391.5C 705.333,390.833 705.667,390.167 706,389.5C 707.268,389.616 708.602,389.949 710,390.5C 710.374,389.584 710.874,388.75 711.5,388C 710.874,387.25 710.374,386.416 710,385.5C 708.83,388.67 706.997,389.17 704.5,387C 706.632,385.413 708.798,383.913 711,382.5C 712.094,385.71 714.261,387.71 717.5,388.5C 719.666,388.57 719.999,387.904 718.5,386.5C 720.813,385.727 723.146,385.06 725.5,384.5C 727.527,386.674 729.86,387.008 732.5,385.5C 732.281,386.675 732.614,387.675 733.5,388.5C 735.147,385.546 734.481,383.38 731.5,382C 734.264,380.456 734.097,379.289 731,378.5C 728.235,379.72 725.735,380.887 723.5,382C 723.167,381.667 722.833,381.333 722.5,381C 723.624,380.751 724.624,380.251 725.5,379.5C 723.968,376.25 722.134,375.916 720,378.5C 719.695,375.399 718.195,372.566 715.5,370C 718.319,369.426 720.652,368.093 722.5,366C 720.953,365.814 719.953,364.481 719.5,362C 719.645,361.228 719.978,360.561 720.5,360C 719.022,358.807 717.688,358.307 716.5,358.5C 718.197,357.636 719.363,356.303 720,354.5C 720.333,355.5 720.667,356.5 721,357.5C 723.709,356.803 726.376,356.47 729,356.5C 729.483,357.448 729.649,358.448 729.5,359.5C 731.39,359.703 732.89,359.037 734,357.5C 735.087,359.932 735.587,359.598 735.5,356.5C 736.5,356.5 737.5,356.5 738.5,356.5 Z"/></g>
<g><path style="opacity:0.008" fill="#303131" d="M 742.5,583.5 C 743.833,584.167 743.833,584.167 742.5,583.5 Z"/></g>
<g><path style="opacity:0.004" fill="#333030" d="M 279.5,585.5 C 280.525,585.897 280.692,586.563 280,587.5C 279.536,586.906 279.369,586.239 279.5,585.5 Z"/></g>
<g><path style="opacity:0.008" fill="#2f3231" d="M 742.5,585.5 C 743.833,586.167 743.833,586.167 742.5,585.5 Z"/></g>
<g><path style="opacity:0.004" fill="#2f3131" d="M 742.5,587.5 C 743.833,588.167 743.833,588.167 742.5,587.5 Z"/></g>
<g><path style="opacity:0.008" fill="#303130" d="M 279.5,590.5 C 280.833,591.167 280.833,591.167 279.5,590.5 Z"/></g>
<g><path style="opacity:0.004" fill="#313132" d="M 742.5,591.5 C 743.573,592.251 743.74,593.251 743,594.5C 742.517,593.552 742.351,592.552 742.5,591.5 Z"/></g>
<g><path style="opacity:0.595" fill="#262625" d="M 281.5,575.5 C 282.497,593.326 282.83,611.326 282.5,629.5C 280.5,629.5 278.5,629.5 276.5,629.5C 277.952,628.698 279.618,628.198 281.5,628C 279.009,627.374 279.009,626.541 281.5,625.5C 281.154,624.304 280.654,624.304 280,625.5C 279.333,624.167 279.333,622.833 280,621.5C 280.333,622.167 280.667,622.833 281,623.5C 281.5,607.503 281.667,591.503 281.5,575.5 Z"/></g>
<g><path style="opacity:0.008" fill="#323031" d="M 279.5,592.5 C 280.643,595.976 280.81,599.642 280,603.5C 279.501,599.848 279.335,596.182 279.5,592.5 Z"/></g>
<g><path style="opacity:0.008" fill="#2f3031" d="M 742.5,602.5 C 743.833,603.167 743.833,603.167 742.5,602.5 Z"/></g>
<g><path style="opacity:0.004" fill="#313031" d="M 742.5,604.5 C 743.833,605.167 743.833,605.167 742.5,604.5 Z"/></g>
<g><path style="opacity:0.004" fill="#333130" d="M 279.5,605.5 C 280.525,605.897 280.692,606.563 280,607.5C 279.536,606.906 279.369,606.239 279.5,605.5 Z"/></g>
<g><path style="opacity:0.004" fill="#323031" d="M 742.5,607.5 C 743.613,608.946 743.78,610.613 743,612.5C 742.506,610.866 742.34,609.199 742.5,607.5 Z"/></g>
<g><path style="opacity:0.004" fill="#313130" d="M 279.5,610.5 C 280.833,611.167 280.833,611.167 279.5,610.5 Z"/></g>
<g><path style="opacity:0.008" fill="#323132" d="M 279.5,613.5 C 280.525,613.897 280.692,614.563 280,615.5C 279.536,614.906 279.369,614.239 279.5,613.5 Z"/></g>
<g><path style="opacity:0.006" fill="#323030" d="M 279.5,616.5 C 280.573,617.251 280.74,618.251 280,619.5C 279.517,618.552 279.351,617.552 279.5,616.5 Z"/></g>
<g><path style="opacity:0.004" fill="#333131" d="M 742.5,617.5 C 743.833,618.167 743.833,618.167 742.5,617.5 Z"/></g>
<g><path style="opacity:0.004" fill="#313031" d="M 742.5,619.5 C 743.525,619.897 743.692,620.563 743,621.5C 742.536,620.906 742.369,620.239 742.5,619.5 Z"/></g>
<g><path style="opacity:0.004" fill="#606160" d="M 1019.5,621.5 C 1020.83,622.167 1020.83,622.167 1019.5,621.5 Z"/></g>
<g><path style="opacity:0.004" fill="#323231" d="M 742.5,622.5 C 743.833,623.167 743.833,623.167 742.5,622.5 Z"/></g>
<g><path style="opacity:0.004" fill="#3c3c3a" d="M 217.5,626.5 C 218.833,627.167 218.833,627.167 217.5,626.5 Z"/></g>
<g><path style="opacity:0.008" fill="#373735" d="M 265.5,626.5 C 266.833,627.167 266.833,627.167 265.5,626.5 Z"/></g>
<g><path style="opacity:0.004" fill="#3a3837" d="M 759.5,626.5 C 760.833,627.167 760.833,627.167 759.5,626.5 Z"/></g>
<g><path style="opacity:0.004" fill="#383535" d="M 758.5,628.5 C 757.833,627.167 757.833,627.167 758.5,628.5 Z"/></g>
<g><path style="opacity:0.008" fill="#424141" d="M 827.5,627.5 C 828.833,628.167 828.833,628.167 827.5,627.5 Z"/></g>
<g><path style="opacity:0.962" fill="#111111" d="M 187.5,633.5 C 187.5,633.167 187.5,632.833 187.5,632.5C 191.767,630.041 196.434,628.707 201.5,628.5C 226.788,628.266 251.788,628.599 276.5,629.5C 278.5,629.5 280.5,629.5 282.5,629.5C 282.83,611.326 282.497,593.326 281.5,575.5C 280.71,576.609 280.21,577.942 280,579.5C 279.51,578.207 279.343,576.873 279.5,575.5C 250.831,575.667 222.165,575.5 193.5,575C 192.584,574.722 191.918,574.222 191.5,573.5C 191.696,571.354 192.696,571.188 194.5,573C 223.833,573.333 253.167,573.667 282.5,574C 284.153,592.746 284.653,611.579 284,630.5C 253.905,631.329 223.738,631.829 193.5,632C 191.667,633.167 189.833,634.333 188,635.5C 187.536,634.906 187.369,634.239 187.5,633.5 Z"/></g>
<g><path style="opacity:0.959" fill="#141414" d="M 741.5,629.5 C 742.29,628.391 742.79,627.058 743,625.5C 743.49,626.793 743.657,628.127 743.5,629.5C 748.598,628.733 753.598,628.4 758.5,628.5C 779.303,629.521 801.136,629.521 824,628.5C 826.95,629.189 829.783,630.189 832.5,631.5C 832.649,632.552 832.483,633.552 832,634.5C 830.829,633.107 829.329,632.273 827.5,632C 798.169,631.5 768.835,631.333 739.5,631.5C 739.333,612.83 739.5,594.164 740,575.5C 740.168,593.671 740.668,611.671 741.5,629.5 Z"/></g>
<g><path style="opacity:0.004" fill="#5b5b5a" d="M 891.5,629.5 C 892.833,630.167 892.833,630.167 891.5,629.5 Z"/></g>
<g><path style="opacity:0.008" fill="#434140" d="M 187.5,632.5 C 186.833,631.167 186.833,631.167 187.5,632.5 Z"/></g>
<g><path style="opacity:0.004" fill="#383536" d="M 463.5,632.5 C 465.76,633.238 465.927,634.238 464,635.5C 463.517,634.552 463.351,633.552 463.5,632.5 Z"/></g>
<g><path style="opacity:0.004" fill="#434242" d="M 183.5,634.5 C 184.833,635.167 184.833,635.167 183.5,634.5 Z"/></g>
<g><path style="opacity:0.004" fill="#444446" d="M 837.5,634.5 C 838.833,635.167 838.833,635.167 837.5,634.5 Z"/></g>
<g><path style="opacity:0.998" fill="#131313" d="M 313.5,294.5 C 313.439,296.592 312.439,298.092 310.5,299C 313.167,299.333 315.833,299.667 318.5,300C 317.809,301.067 317.309,302.234 317,303.5C 316.311,302.643 315.478,301.977 314.5,301.5C 313.281,302.646 311.948,303.646 310.5,304.5C 310.667,304.833 310.833,305.167 311,305.5C 314.497,305.869 317.997,305.369 321.5,304C 323.481,303.395 323.815,302.395 322.5,301C 323.803,300.79 325.136,300.957 326.5,301.5C 327.647,301.182 328.481,300.516 329,299.5C 329.833,300.333 330.667,301.167 331.5,302C 330.075,303.714 330.408,305.047 332.5,306C 330.606,307.079 330.273,308.413 331.5,310C 329.697,310.637 328.364,311.803 327.5,313.5C 326.232,312.572 324.899,312.405 323.5,313C 325.114,314.07 326.448,315.57 327.5,317.5C 325.865,319.9 323.865,320.566 321.5,319.5C 320.932,321.042 319.265,321.875 316.5,322C 317.731,323.183 317.731,324.349 316.5,325.5C 313.043,323.388 311.376,320.555 311.5,317C 312.5,316.667 313.5,316.333 314.5,316C 313.542,314.853 313.875,313.853 315.5,313C 314.167,311.333 314.167,309.667 315.5,308C 314.725,306.77 313.725,306.437 312.5,307C 313.554,308.388 313.72,309.888 313,311.5C 312.465,309.729 311.631,309.396 310.5,310.5C 311.833,311.62 312.333,312.953 312,314.5C 308.845,311.436 307.512,311.77 308,315.5C 306.719,315.381 305.552,315.881 304.5,317C 305.5,317.333 306.5,317.667 307.5,318C 307.167,318.333 306.833,318.667 306.5,319C 307.376,320.586 308.376,322.086 309.5,323.5C 308.429,325.325 309.096,326.492 311.5,327C 311,327.5 310.5,328 310,328.5C 307.28,325.681 304.947,326.014 303,329.5C 302.667,329.167 302.333,328.833 302,328.5C 300.887,329.76 300.72,330.927 301.5,332C 299.913,332.862 298.246,333.529 296.5,334C 297.126,334.75 297.626,335.584 298,336.5C 298.605,334.519 299.605,334.185 301,335.5C 303.709,334.067 305.875,332.067 307.5,329.5C 309.61,329.294 311.61,330.127 313.5,332C 312.207,332.49 310.873,332.657 309.5,332.5C 309.5,333.5 309.5,334.5 309.5,335.5C 304.622,336.031 303.455,338.364 306,342.5C 306.308,341.692 306.808,341.025 307.5,340.5C 314.719,343.614 316.052,341.947 311.5,335.5C 311.833,335.167 312.167,334.833 312.5,334.5C 314.311,335.736 316.144,335.736 318,334.5C 319.092,335.296 320.259,335.963 321.5,336.5C 324.34,335.431 324.674,334.264 322.5,333C 324.481,332.395 324.815,331.395 323.5,330C 325.553,329.675 327.553,330.009 329.5,331C 330.34,332.666 329.84,332.833 328,331.5C 325.174,332.917 325.007,334.417 327.5,336C 325.679,337.743 323.679,339.243 321.5,340.5C 322.688,342.262 324.355,343.262 326.5,343.5C 324.443,347.62 322.943,351.953 322,356.5C 321.5,461.499 321.333,566.499 321.5,671.5C 320.194,671.879 318.861,672.212 317.5,672.5C 318.167,673.167 318.833,673.833 319.5,674.5C 317.893,676.851 315.893,677.518 313.5,676.5C 312.646,677.522 311.646,678.355 310.5,679C 312.285,680.593 312.452,682.093 311,683.5C 309.499,681.631 307.999,679.797 306.5,678C 307.706,676.982 307.373,676.482 305.5,676.5C 300.842,677.734 296.508,680.234 292.5,684C 293.5,684.333 294.5,684.667 295.5,685C 293.842,685.725 293.342,686.892 294,688.5C 296.029,686.564 298.195,686.73 300.5,689C 299.692,689.308 299.025,689.808 298.5,690.5C 299.098,691.795 299.598,693.128 300,694.5C 301.398,693.949 302.732,693.616 304,693.5C 304.374,694.416 304.874,695.25 305.5,696C 302.732,697.731 300.065,699.564 297.5,701.5C 298.948,702.354 300.281,703.354 301.5,704.5C 302.324,702.252 303.324,702.086 304.5,704C 304.167,704.333 303.833,704.667 303.5,705C 305.914,706.885 308.581,707.552 311.5,707C 310.833,705.667 309.833,704.667 308.5,704C 308.833,703.667 309.167,703.333 309.5,703C 308.333,702.5 307.5,701.667 307,700.5C 305.358,701.846 304.691,701.513 305,699.5C 306,698.167 307,698.167 308,699.5C 309.02,695.906 311.187,694.906 314.5,696.5C 316.274,696.113 317.941,695.447 319.5,694.5C 320.192,695.025 320.692,695.692 321,696.5C 322.379,691.701 324.379,691.367 327,695.5C 326.555,692.61 326.555,689.943 327,687.5C 331.586,690.082 335.586,693.416 339,697.5C 338.393,699.582 337.56,701.749 336.5,704C 336.833,704.5 337.167,705 337.5,705.5C 341.139,704.123 344.139,705.457 346.5,709.5C 347.281,708.271 347.781,706.938 348,705.5C 349.113,706.76 349.28,707.927 348.5,709C 349.646,709.645 350.646,710.478 351.5,711.5C 353.167,710.167 354.833,710.167 356.5,711.5C 357.594,710.132 357.26,708.965 355.5,708C 356,707.5 356.5,707 357,706.5C 358.562,706.259 360.062,706.759 361.5,708C 361.945,710.672 361.111,713.172 359,715.5C 356.325,714.303 353.991,713.303 352,712.5C 349.904,713.715 350.071,714.549 352.5,715C 349.508,717.017 347.174,716.351 345.5,713C 346.328,712.085 347.328,711.419 348.5,711C 347.216,710.316 346.049,710.483 345,711.5C 344.549,709.071 343.715,708.904 342.5,711C 345.354,713.078 345.688,715.245 343.5,717.5C 343.331,716.603 342.998,715.603 342.5,714.5C 341.833,714.833 341.167,715.167 340.5,715.5C 339.842,717.437 339.509,719.27 339.5,721C 342.063,722.079 344.729,722.579 347.5,722.5C 349.028,725.364 349.861,728.364 350,731.5C 350.833,729 352,728.833 353.5,731C 353.043,731.414 352.709,731.914 352.5,732.5C 355.675,734.846 359.008,735.013 362.5,733C 363.641,732.259 363.641,731.425 362.5,730.5C 364.197,729.636 365.363,728.303 366,726.5C 366.667,727.833 367.333,727.833 368,726.5C 367.103,730.017 365.603,732.684 363.5,734.5C 364.789,734.832 366.455,735.166 368.5,735.5C 368.35,738.926 369.516,739.259 372,736.5C 374.148,737.977 375.482,739.977 376,742.5C 376.92,739.692 376.087,737.525 373.5,736C 374.126,735.25 374.626,734.416 375,733.5C 375.561,734.022 376.228,734.355 377,734.5C 378.171,733.66 379.338,732.827 380.5,732C 378.071,731.549 377.904,730.715 380,729.5C 380.718,730.451 381.551,730.617 382.5,730C 381.167,729 379.833,728 378.5,727C 380.991,726.374 380.991,725.541 378.5,724.5C 378.833,723.5 379.5,722.833 380.5,722.5C 381.72,723.711 382.887,723.711 384,722.5C 384.915,723.328 385.581,724.328 386,725.5C 386.333,725.167 386.667,724.833 387,724.5C 387.318,726.061 388.151,727.228 389.5,728C 387.709,728.415 386.376,729.415 385.5,731C 386.025,731.692 386.692,732.192 387.5,732.5C 391.162,729.21 393.329,730.21 394,735.5C 395.934,733.581 395.767,732.081 393.5,731C 394.253,729.513 395.086,729.346 396,730.5C 396.471,728.754 397.138,727.087 398,725.5C 397.877,727.45 398.877,729.117 401,730.5C 402.087,728.068 402.587,728.402 402.5,731.5C 399.402,731.413 399.068,731.913 401.5,733C 397.998,735.011 397.998,736.344 401.5,737C 400.638,739.734 399.805,739.901 399,737.5C 397.745,738.211 396.579,739.044 395.5,740C 396.833,740.667 396.833,741.333 395.5,742C 396.094,742.464 396.761,742.631 397.5,742.5C 396.675,771.428 396.175,800.428 396,829.5C 395.55,831.519 394.717,833.352 393.5,835C 394.252,835.671 394.586,836.504 394.5,837.5C 387.519,844.575 379.519,845.908 370.5,841.5C 370.5,840.833 370.167,840.5 369.5,840.5C 368.5,838.833 367.167,837.5 365.5,836.5C 365.5,836.167 365.5,835.833 365.5,835.5C 366.376,835.631 367.043,835.298 367.5,834.5C 366.846,832.885 366.346,831.218 366,829.5C 365.837,800.428 365.337,772.095 364.5,744.5C 364.167,744.5 363.833,744.5 363.5,744.5C 353.41,744.877 343.41,744.21 333.5,742.5C 331.786,741.262 329.786,740.595 327.5,740.5C 326.07,739.463 324.403,738.796 322.5,738.5C 319.992,736.076 316.992,734.41 313.5,733.5C 312.421,731.457 310.754,730.124 308.5,729.5C 302.795,723.962 297.628,717.962 293,711.5C 292.333,710.167 291.667,710.167 291,711.5C 290.383,710.551 290.549,709.718 291.5,709C 290.934,708.005 290.267,707.172 289.5,706.5C 288.537,703.256 287.204,700.256 285.5,697.5C 285.423,696.25 284.756,695.417 283.5,695C 283.957,694.586 284.291,694.086 284.5,693.5C 283.449,690.243 282.782,686.91 282.5,683.5C 282.784,681.585 282.451,679.919 281.5,678.5C 281.342,674.788 281.342,671.288 281.5,668C 279.273,667.296 278.94,666.129 280.5,664.5C 252.518,662.673 224.184,661.84 195.5,662C 194,661.5 192.5,661 191,660.5C 190.235,660.57 189.735,660.903 189.5,661.5C 188.5,660.833 187.5,660.167 186.5,659.5C 184.065,656.626 182.731,653.293 182.5,649.5C 182.5,648.167 182.5,646.833 182.5,645.5C 182.319,640.696 183.985,636.696 187.5,633.5C 187.369,634.239 187.536,634.906 188,635.5C 189.833,634.333 191.667,633.167 193.5,632C 223.738,631.829 253.905,631.329 284,630.5C 284.653,611.579 284.153,592.746 282.5,574C 253.167,573.667 223.833,573.333 194.5,573C 192.696,571.188 191.696,571.354 191.5,573.5C 190.833,573.5 190.167,573.5 189.5,573.5C 185.534,569.89 182.868,565.556 181.5,560.5C 181.867,555.997 182.867,551.664 184.5,547.5C 186.573,545.42 188.907,543.754 191.5,542.5C 221.958,542.535 252.625,542.535 283.5,542.5C 283.83,523.992 283.497,505.659 282.5,487.5C 282.5,487.167 282.5,486.833 282.5,486.5C 254.003,485.668 225.336,485.168 196.5,485C 194.22,484.767 192.22,483.934 190.5,482.5C 189.702,482.957 189.369,483.624 189.5,484.5C 188.5,483.833 187.5,483.167 186.5,482.5C 185.833,482.5 185.5,482.167 185.5,481.5C 184.157,478.457 182.823,475.457 181.5,472.5C 181.322,466.534 182.988,461.201 186.5,456.5C 188.372,454.396 190.705,453.063 193.5,452.5C 222.997,453.664 252.664,453.831 282.5,453C 283.831,434.402 283.831,415.902 282.5,397.5C 255.003,396.668 227.336,396.168 199.5,396C 196.308,395.803 193.308,394.97 190.5,393.5C 189.537,393.97 189.537,394.637 190.5,395.5C 188.629,395.141 187.129,394.141 186,392.5C 180.55,384.475 180.717,376.475 186.5,368.5C 189.532,365.485 193.199,363.818 197.5,363.5C 197.611,364.117 197.944,364.617 198.5,365C 226.167,365.667 253.833,365.667 281.5,365C 283.046,363.56 283.879,361.727 284,359.5C 284.821,352.654 284.654,345.987 283.5,339.5C 285.171,330.164 288.504,321.498 293.5,313.5C 295.878,311.122 297.878,308.455 299.5,305.5C 303.834,301.342 308.501,297.676 313.5,294.5 Z"/></g>
<g><path style="opacity:0.004" fill="#464747" d="M 180.5,640.5 C 181.833,641.167 181.833,641.167 180.5,640.5 Z"/></g>
<g><path style="opacity:0.004" fill="#474747" d="M 179.5,645.5 C 180.525,645.897 180.692,646.563 180,647.5C 179.536,646.906 179.369,646.239 179.5,645.5 Z"/></g>
<g><path style="opacity:0.004" fill="#545353" d="M 182.5,645.5 C 182.5,646.833 182.5,648.167 182.5,649.5C 181.761,649.631 181.094,649.464 180.5,649C 181.085,647.698 181.751,646.531 182.5,645.5 Z"/></g>
<g><path style="opacity:0.008" fill="#464746" d="M 180.5,651.5 C 181.833,652.167 181.833,652.167 180.5,651.5 Z"/></g>
<g><path style="opacity:0.004" fill="#474746" d="M 186.5,659.5 C 185.833,660.167 185.833,660.167 186.5,659.5 Z"/></g>
<g><path style="opacity:0.991" fill="#060606" d="M 280.5,664.5 C 251.831,664.667 223.165,664.5 194.5,664C 192.846,663.392 191.179,662.892 189.5,662.5C 189.5,662.167 189.5,661.833 189.5,661.5C 189.735,660.903 190.235,660.57 191,660.5C 192.5,661 194,661.5 195.5,662C 224.184,661.84 252.518,662.673 280.5,664.5 Z"/></g>
<g><path style="opacity:0.004" fill="#403f42" d="M 189.5,662.5 C 188.833,663.167 188.833,663.167 189.5,662.5 Z"/></g>
<g><path style="opacity:0.994" fill="#0c0c0c" d="M 829.5,663.5 C 800.24,664.491 770.907,664.825 741.5,664.5C 740.512,669.64 740.179,674.974 740.5,680.5C 740.189,688.09 738.189,695.09 734.5,701.5C 733.903,701.265 733.57,700.765 733.5,700C 737.05,691.532 738.717,682.699 738.5,673.5C 738.5,670.167 738.5,666.833 738.5,663.5C 736.645,663.728 735.812,663.061 736,661.5C 766.958,662.827 797.958,662.827 829,661.5C 830.684,661.683 830.85,662.35 829.5,663.5 Z"/></g>
<g><path style="opacity:0.004" fill="#444443" d="M 195.5,665.5 C 196.833,666.167 196.833,666.167 195.5,665.5 Z"/></g>
<g><path style="opacity:0.008" fill="#363436" d="M 742.5,671.5 C 743.613,672.946 743.78,674.613 743,676.5C 742.506,674.866 742.34,673.199 742.5,671.5 Z"/></g>
<g><path style="opacity:0.312" fill="#393838" d="M 741.5,664.5 C 741.369,665.239 741.536,665.906 742,666.5C 742.654,665.304 743.154,665.304 743.5,666.5C 741.947,671.123 740.947,675.789 740.5,680.5C 740.179,674.974 740.512,669.64 741.5,664.5 Z"/></g>
<g><path style="opacity:0.004" fill="#383536" d="M 279.5,673.5 C 280.525,673.897 280.692,674.563 280,675.5C 279.536,674.906 279.369,674.239 279.5,673.5 Z"/></g>
<g><path style="opacity:0.004" fill="#363635" d="M 742.5,677.5 C 743.833,678.167 743.833,678.167 742.5,677.5 Z"/></g>
<g><path style="opacity:0.012" fill="#3a3738" d="M 279.5,678.5 C 280.573,679.251 280.74,680.251 280,681.5C 279.517,680.552 279.351,679.552 279.5,678.5 Z"/></g>
<g><path style="opacity:0.016" fill="#444342" d="M 281.5,678.5 C 282.451,679.919 282.784,681.585 282.5,683.5C 281.761,683.631 281.094,683.464 280.5,683C 281.38,681.644 281.714,680.144 281.5,678.5 Z"/></g>
<g><path style="opacity:0.004" fill="#3b3938" d="M 280.5,684.5 C 281.525,684.897 281.692,685.563 281,686.5C 280.536,685.906 280.369,685.239 280.5,684.5 Z"/></g>
<g><path style="opacity:0.008" fill="#393838" d="M 281.5,688.5 C 280.833,687.167 280.833,687.167 281.5,688.5 Z"/></g>
<g><path style="opacity:0.016" fill="#3a3938" d="M 281.5,688.5 C 282.598,689.601 282.765,690.934 282,692.5C 281.51,691.207 281.343,689.873 281.5,688.5 Z"/></g>
<g><path style="opacity:0.004" fill="#393c3a" d="M 739.5,693.5 C 740.833,694.167 740.833,694.167 739.5,693.5 Z"/></g>
<g><path style="opacity:0.004" fill="#3c3c3a" d="M 285.5,697.5 C 284.833,698.167 284.833,698.167 285.5,697.5 Z"/></g>
<g><path style="opacity:0.008" fill="#3a3b39" d="M 736.5,700.5 C 737.833,701.167 737.833,701.167 736.5,700.5 Z"/></g>
<g><path style="opacity:0.02" fill="#3e3b3a" d="M 288.5,706.5 C 287.833,705.167 287.833,705.167 288.5,706.5 Z"/></g>
<g><path style="opacity:0.998" fill="#131313" d="M 323.5,668.5 C 327.023,684.361 336.356,695.361 351.5,701.5C 350.127,701.343 348.793,701.51 347.5,702C 350.648,703.605 353.981,704.605 357.5,705C 459.5,705.667 561.5,705.667 663.5,705C 667.424,704.74 671.091,703.74 674.5,702C 673.552,701.517 672.552,701.351 671.5,701.5C 673.649,700.264 675.982,699.264 678.5,698.5C 679.239,698.369 679.906,698.536 680.5,699C 679.707,700.085 679.04,701.252 678.5,702.5C 679.714,704.421 681.214,706.088 683,707.5C 683.333,709.5 683.667,711.5 684,713.5C 685.552,708.765 687.718,708.431 690.5,712.5C 691.316,710.713 692.316,709.046 693.5,707.5C 696.507,708.492 698.173,710.159 698.5,712.5C 699.415,711.672 700.081,710.672 700.5,709.5C 699.674,708.549 699.508,707.549 700,706.5C 701.837,706.665 703.837,707.332 706,708.5C 706.893,707.289 707.726,707.289 708.5,708.5C 705.833,709.5 705.833,710.5 708.5,711.5C 710.527,709.326 712.86,708.992 715.5,710.5C 715.351,711.552 715.517,712.552 716,713.5C 716.707,711.919 717.54,710.419 718.5,709C 715.824,707.258 713.491,705.092 711.5,702.5C 712.95,701.15 713.617,699.484 713.5,697.5C 715.806,697.993 718.139,698.326 720.5,698.5C 720.5,696.833 720.5,695.167 720.5,693.5C 721.552,693.351 722.552,693.517 723.5,694C 724.924,697.665 726.924,698.332 729.5,696C 728.328,695.581 727.328,694.915 726.5,694C 728.044,693.71 729.377,693.044 730.5,692C 727.739,689.84 725.072,687.673 722.5,685.5C 723.906,683.974 725.072,682.307 726,680.5C 726.333,680.833 726.667,681.167 727,681.5C 727.154,678.475 728.654,676.809 731.5,676.5C 731.413,673.402 731.913,673.068 733,675.5C 734.487,674.747 734.654,673.914 733.5,673C 735.557,670.919 737.223,671.086 738.5,673.5C 738.717,682.699 737.05,691.532 733.5,700C 733.57,700.765 733.903,701.265 734.5,701.5C 733.5,704.167 732.5,706.833 731.5,709.5C 726.863,715.142 722.197,720.809 717.5,726.5C 708.136,734.35 697.469,739.85 685.5,743C 683.527,743.495 681.527,743.662 679.5,743.5C 672.098,742.173 664.598,742.173 657,743.5C 656.818,773.19 656.318,802.856 655.5,832.5C 655.543,833.416 655.876,834.083 656.5,834.5C 652.004,843.16 645.004,845.994 635.5,843C 632.798,841.988 630.465,840.488 628.5,838.5C 628.5,837.833 628.167,837.5 627.5,837.5C 626.89,836.609 626.557,835.609 626.5,834.5C 627.124,834.083 627.457,833.416 627.5,832.5C 626.682,803.19 626.182,773.857 626,744.5C 625.667,744.167 625.333,743.833 625,743.5C 624.5,753.161 624.334,762.828 624.5,772.5C 623.506,763.348 623.173,754.015 623.5,744.5C 606.353,744.691 589.353,744.691 572.5,744.5C 572.167,744.5 571.833,744.5 571.5,744.5C 588.662,743.668 605.995,743.168 623.5,743C 605.824,742.167 588.157,742.334 570.5,743.5C 569.675,773.125 569.175,802.791 569,832.5C 568.365,833.966 567.531,835.3 566.5,836.5C 566.957,837.298 567.624,837.631 568.5,837.5C 559.184,846.706 549.85,846.706 540.5,837.5C 541.376,837.631 542.043,837.298 542.5,836.5C 541.066,834.78 540.233,832.78 540,830.5C 539.825,801.458 539.325,772.458 538.5,743.5C 520.179,742.5 501.845,742.167 483.5,742.5C 483.667,771.835 483.5,801.169 483,830.5C 482.768,833.738 481.268,836.238 478.5,838C 479.056,838.383 479.389,838.883 479.5,839.5C 476.985,842.567 473.651,843.901 469.5,843.5C 468.167,843.5 466.833,843.5 465.5,843.5C 462.183,843.336 459.183,842.336 456.5,840.5C 456.167,839.5 455.5,838.833 454.5,838.5C 453.833,836.833 453.167,835.167 452.5,833.5C 453.376,833.631 454.043,833.298 454.5,832.5C 453.185,808.594 453.851,784.761 456.5,761C 456.099,755.059 455.766,748.893 455.5,742.5C 436.167,742.5 416.833,742.5 397.5,742.5C 396.761,742.631 396.094,742.464 395.5,742C 396.833,741.333 396.833,740.667 395.5,740C 396.579,739.044 397.745,738.211 399,737.5C 399.805,739.901 400.638,739.734 401.5,737C 397.998,736.344 397.998,735.011 401.5,733C 399.068,731.913 399.402,731.413 402.5,731.5C 402.587,728.402 402.087,728.068 401,730.5C 398.877,729.117 397.877,727.45 398,725.5C 397.138,727.087 396.471,728.754 396,730.5C 395.086,729.346 394.253,729.513 393.5,731C 395.767,732.081 395.934,733.581 394,735.5C 393.329,730.21 391.162,729.21 387.5,732.5C 386.692,732.192 386.025,731.692 385.5,731C 386.376,729.415 387.709,728.415 389.5,728C 388.151,727.228 387.318,726.061 387,724.5C 386.667,724.833 386.333,725.167 386,725.5C 385.581,724.328 384.915,723.328 384,722.5C 382.887,723.711 381.72,723.711 380.5,722.5C 379.5,722.833 378.833,723.5 378.5,724.5C 380.991,725.541 380.991,726.374 378.5,727C 379.833,728 381.167,729 382.5,730C 381.551,730.617 380.718,730.451 380,729.5C 377.904,730.715 378.071,731.549 380.5,732C 379.338,732.827 378.171,733.66 377,734.5C 376.228,734.355 375.561,734.022 375,733.5C 374.626,734.416 374.126,735.25 373.5,736C 376.087,737.525 376.92,739.692 376,742.5C 375.482,739.977 374.148,737.977 372,736.5C 369.516,739.259 368.35,738.926 368.5,735.5C 366.455,735.166 364.789,734.832 363.5,734.5C 365.603,732.684 367.103,730.017 368,726.5C 367.333,727.833 366.667,727.833 366,726.5C 365.363,728.303 364.197,729.636 362.5,730.5C 363.641,731.425 363.641,732.259 362.5,733C 359.008,735.013 355.675,734.846 352.5,732.5C 352.709,731.914 353.043,731.414 353.5,731C 352,728.833 350.833,729 350,731.5C 349.861,728.364 349.028,725.364 347.5,722.5C 344.729,722.579 342.063,722.079 339.5,721C 339.509,719.27 339.842,717.437 340.5,715.5C 341.167,715.167 341.833,714.833 342.5,714.5C 342.998,715.603 343.331,716.603 343.5,717.5C 345.688,715.245 345.354,713.078 342.5,711C 343.715,708.904 344.549,709.071 345,711.5C 346.049,710.483 347.216,710.316 348.5,711C 347.328,711.419 346.328,712.085 345.5,713C 347.174,716.351 349.508,717.017 352.5,715C 350.071,714.549 349.904,713.715 352,712.5C 353.991,713.303 356.325,714.303 359,715.5C 361.111,713.172 361.945,710.672 361.5,708C 360.062,706.759 358.562,706.259 357,706.5C 356.5,707 356,707.5 355.5,708C 357.26,708.965 357.594,710.132 356.5,711.5C 354.833,710.167 353.167,710.167 351.5,711.5C 350.646,710.478 349.646,709.645 348.5,709C 349.28,707.927 349.113,706.76 348,705.5C 347.781,706.938 347.281,708.271 346.5,709.5C 344.139,705.457 341.139,704.123 337.5,705.5C 337.167,705 336.833,704.5 336.5,704C 337.56,701.749 338.393,699.582 339,697.5C 335.586,693.416 331.586,690.082 327,687.5C 326.555,689.943 326.555,692.61 327,695.5C 324.379,691.367 322.379,691.701 321,696.5C 320.692,695.692 320.192,695.025 319.5,694.5C 317.941,695.447 316.274,696.113 314.5,696.5C 311.187,694.906 309.02,695.906 308,699.5C 307,698.167 306,698.167 305,699.5C 304.691,701.513 305.358,701.846 307,700.5C 307.5,701.667 308.333,702.5 309.5,703C 309.167,703.333 308.833,703.667 308.5,704C 309.833,704.667 310.833,705.667 311.5,707C 308.581,707.552 305.914,706.885 303.5,705C 303.833,704.667 304.167,704.333 304.5,704C 303.324,702.086 302.324,702.252 301.5,704.5C 300.281,703.354 298.948,702.354 297.5,701.5C 300.065,699.564 302.732,697.731 305.5,696C 304.874,695.25 304.374,694.416 304,693.5C 302.732,693.616 301.398,693.949 300,694.5C 299.598,693.128 299.098,691.795 298.5,690.5C 299.025,689.808 299.692,689.308 300.5,689C 298.195,686.73 296.029,686.564 294,688.5C 293.342,686.892 293.842,685.725 295.5,685C 294.5,684.667 293.5,684.333 292.5,684C 296.508,680.234 300.842,677.734 305.5,676.5C 307.373,676.482 307.706,676.982 306.5,678C 307.999,679.797 309.499,681.631 311,683.5C 312.452,682.093 312.285,680.593 310.5,679C 311.646,678.355 312.646,677.522 313.5,676.5C 315.893,677.518 317.893,676.851 319.5,674.5C 318.833,673.833 318.167,673.167 317.5,672.5C 318.861,672.212 320.194,671.879 321.5,671.5C 322.117,671.611 322.617,671.944 323,672.5C 323.49,671.207 323.657,669.873 323.5,668.5 Z"/></g>
<g><path style="opacity:0.997" fill="#040404" d="M 351.5,701.5 C 353.216,701.629 354.883,701.962 356.5,702.5C 359.977,703.323 363.644,703.823 367.5,704C 463.668,704.832 559.668,704.666 655.5,703.5C 660.412,702.797 665.746,702.13 671.5,701.5C 672.552,701.351 673.552,701.517 674.5,702C 671.091,703.74 667.424,704.74 663.5,705C 561.5,705.667 459.5,705.667 357.5,705C 353.981,704.605 350.648,703.605 347.5,702C 348.793,701.51 350.127,701.343 351.5,701.5 Z"/></g>
<g><path style="opacity:0.825" fill="#201f20" d="M 356.5,702.5 C 379.528,702.555 402.528,702.888 425.5,703.5C 427.833,703.5 430.167,703.5 432.5,703.5C 432.833,703.5 433.167,703.5 433.5,703.5C 465.5,703.5 497.5,703.5 529.5,703.5C 529.833,703.5 530.167,703.5 530.5,703.5C 535.167,703.5 539.833,703.5 544.5,703.5C 547.799,702.253 551.133,702.253 554.5,703.5C 556.5,703.5 558.5,703.5 560.5,703.5C 563.833,702.167 567.167,702.167 570.5,703.5C 571.833,703.5 573.167,703.5 574.5,703.5C 583.445,702.698 592.445,702.698 601.5,703.5C 603.833,703.5 606.167,703.5 608.5,703.5C 621.565,702.568 634.565,702.568 647.5,703.5C 649.833,703.5 652.167,703.5 654.5,703.5C 654.833,703.5 655.167,703.5 655.5,703.5C 559.668,704.666 463.668,704.832 367.5,704C 363.644,703.823 359.977,703.323 356.5,702.5 Z"/></g>
<g><path style="opacity:0.011" fill="#4e4c4c" d="M 654.5,703.5 C 652.167,703.5 649.833,703.5 647.5,703.5C 650.04,701.574 652.373,701.574 654.5,703.5 Z"/></g>
<g><path style="opacity:0.012" fill="#4f4d4c" d="M 608.5,703.5 C 606.167,703.5 603.833,703.5 601.5,703.5C 603.627,701.574 605.96,701.574 608.5,703.5 Z"/></g>
<g><path style="opacity:0.012" fill="#4e4c4c" d="M 574.5,703.5 C 573.167,703.5 571.833,703.5 570.5,703.5C 571.634,701.219 572.968,701.219 574.5,703.5 Z"/></g>
<g><path style="opacity:0.011" fill="#4d4b4b" d="M 560.5,703.5 C 558.5,703.5 556.5,703.5 554.5,703.5C 554.783,702.711 555.283,702.044 556,701.5C 557.622,702.099 559.122,702.766 560.5,703.5 Z"/></g>
<g><path style="opacity:0.013" fill="#4d4c4c" d="M 544.5,703.5 C 539.833,703.5 535.167,703.5 530.5,703.5C 530.783,702.711 531.283,702.044 532,701.5C 536.268,702.14 540.435,702.807 544.5,703.5 Z"/></g>
<g><path style="opacity:0.01" fill="#4b4a4a" d="M 529.5,703.5 C 497.5,703.5 465.5,703.5 433.5,703.5C 434.172,702.733 435.005,702.066 436,701.5C 460.484,702.472 484.484,702.472 508,701.5C 515.266,702.151 522.432,702.818 529.5,703.5 Z"/></g>
<g><path style="opacity:0.012" fill="#4d4b4b" d="M 432.5,703.5 C 430.167,703.5 427.833,703.5 425.5,703.5C 427.627,701.574 429.96,701.574 432.5,703.5 Z"/></g>
<g><path style="opacity:0.004" fill="#383636" d="M 474.5,677.5 C 475.873,677.343 477.207,677.51 478.5,678C 476.876,680.019 475.543,679.852 474.5,677.5 Z"/></g>
<g><path style="opacity:0.008" fill="#383635" d="M 474.5,676.5 C 474.5,676.833 474.5,677.167 474.5,677.5C 473.233,678.087 472.233,678.087 471.5,677.5C 472.325,676.614 473.325,676.281 474.5,676.5 Z"/></g>
<g><path style="opacity:0.012" fill="#3e3c3c" d="M 288.5,706.5 C 288.833,706.5 289.167,706.5 289.5,706.5C 289.167,709.167 288.833,709.167 288.5,706.5 Z"/></g>
<g><path style="opacity:0.004" fill="#393839" d="M 734.5,707.5 C 735.833,708.167 735.833,708.167 734.5,707.5 Z"/></g>
<g><path style="opacity:0.004" fill="#3c3d3b" d="M 731.5,709.5 C 732.833,710.167 732.833,710.167 731.5,709.5 Z"/></g>
<g><path style="opacity:0.004" fill="#3b3c3a" d="M 295.5,719.5 C 296.833,720.167 296.833,720.167 295.5,719.5 Z"/></g>
<g><path style="opacity:0.008" fill="#3a3b3a" d="M 300.5,723.5 C 301.833,724.167 301.833,724.167 300.5,723.5 Z"/></g>
<g><path style="opacity:0.004" fill="#3c3c39" d="M 301.5,726.5 C 302.833,727.167 302.833,727.167 301.5,726.5 Z"/></g>
<g><path style="opacity:0.004" fill="#3e3b39" d="M 717.5,726.5 C 718.833,727.167 718.833,727.167 717.5,726.5 Z"/></g>
<g><path style="opacity:0.004" fill="#3a3a3a" d="M 308.5,729.5 C 307.833,730.167 307.833,730.167 308.5,729.5 Z"/></g>
<g><path style="opacity:0.004" fill="#3b3c3b" d="M 313.5,733.5 C 312.833,734.167 312.833,734.167 313.5,733.5 Z"/></g>
<g><path style="opacity:0.006" fill="#393737" d="M 322.5,738.5 C 322.103,739.525 321.437,739.692 320.5,739C 321.094,738.536 321.761,738.369 322.5,738.5 Z"/></g>
<g><path style="opacity:0.008" fill="#383838" d="M 327.5,740.5 C 327.5,740.833 327.5,741.167 327.5,741.5C 326.83,741.019 326.83,740.685 327.5,740.5 Z"/></g>
<g><path style="opacity:0.012" fill="#393738" d="M 327.5,741.5 C 328.492,741.328 329.158,741.662 329.5,742.5C 328.508,742.672 327.842,742.338 327.5,741.5 Z"/></g>
<g><path style="opacity:0.004" fill="#393938" d="M 329.5,742.5 C 330.833,743.167 330.833,743.167 329.5,742.5 Z"/></g>
<g><path style="opacity:0.004" fill="#393837" d="M 333.5,742.5 C 332.833,743.167 332.833,743.167 333.5,742.5 Z"/></g>
<g><path style="opacity:0.008" fill="#3a3838" d="M 695.5,742.5 C 696.833,743.167 696.833,743.167 695.5,742.5 Z"/></g>
<g><path style="opacity:0.999" fill="#030202" d="M 365.5,835.5 C 364.89,834.609 364.557,833.609 364.5,832.5C 364.5,803.167 364.5,773.833 364.5,744.5C 365.337,772.095 365.837,800.428 366,829.5C 366.346,831.218 366.846,832.885 367.5,834.5C 367.043,835.298 366.376,835.631 365.5,835.5 Z"/></g>
<g><path style="opacity:0.996" fill="#050505" d="M 571.5,744.5 C 571.5,773.167 571.5,801.833 571.5,830.5C 571.5,831.5 571.5,832.5 571.5,833.5C 570.512,834.795 569.512,836.128 568.5,837.5C 567.624,837.631 566.957,837.298 566.5,836.5C 567.531,835.3 568.365,833.966 569,832.5C 569.175,802.791 569.675,773.125 570.5,743.5C 588.157,742.334 605.824,742.167 623.5,743C 605.995,743.168 588.662,743.668 571.5,744.5 Z"/></g>
<g><path style="opacity:0.987" fill="#101010" d="M 540.5,837.5 C 538.129,835.003 537.129,832.003 537.5,828.5C 537.831,800.328 537.498,772.328 536.5,744.5C 519.803,744.609 503.137,744.942 486.5,745.5C 485.167,745.833 485.167,746.167 486.5,746.5C 486.732,774.886 486.399,803.552 485.5,832.5C 484.211,835.391 482.211,837.725 479.5,839.5C 479.389,838.883 479.056,838.383 478.5,838C 481.268,836.238 482.768,833.738 483,830.5C 483.5,801.169 483.667,771.835 483.5,742.5C 501.845,742.167 520.179,742.5 538.5,743.5C 539.325,772.458 539.825,801.458 540,830.5C 540.233,832.78 541.066,834.78 542.5,836.5C 542.043,837.298 541.376,837.631 540.5,837.5 Z"/></g>
<g><path style="opacity:0.004" fill="#31312f" d="M 486.5,745.5 C 487.833,746.167 487.833,746.167 486.5,745.5 Z"/></g>
<g><path style="opacity:0.991" fill="#141313" d="M 626.5,834.5 C 626.5,833.833 626.167,833.5 625.5,833.5C 624.799,829.713 624.132,825.88 623.5,822C 623.743,805.497 624.076,788.997 624.5,772.5C 624.334,762.828 624.5,753.161 625,743.5C 625.333,743.833 625.667,744.167 626,744.5C 626.182,773.857 626.682,803.19 627.5,832.5C 627.457,833.416 627.124,834.083 626.5,834.5 Z"/></g>
<g><path style="opacity:0.971" fill="#141414" d="M 679.5,743.5 C 672.687,744.491 665.687,744.825 658.5,744.5C 659.23,767.363 659.564,790.03 659.5,812.5C 658.704,819.117 658.204,825.783 658,832.5C 657.722,833.416 657.222,834.082 656.5,834.5C 655.876,834.083 655.543,833.416 655.5,832.5C 656.318,802.856 656.818,773.19 657,743.5C 664.598,742.173 672.098,742.173 679.5,743.5 Z"/></g>
<g><path style="opacity:0.008" fill="#373533" d="M 361.5,746.5 C 362.833,747.167 362.833,747.167 361.5,746.5 Z"/></g>
<g><path style="opacity:0.997" fill="#121212" d="M 397.5,742.5 C 416.833,742.5 436.167,742.5 455.5,742.5C 455.766,748.893 456.099,755.059 456.5,761C 453.851,784.761 453.185,808.594 454.5,832.5C 454.043,833.298 453.376,833.631 452.5,833.5C 451.732,832.737 451.232,831.737 451,830.5C 450.5,801.835 450.333,773.169 450.5,744.5C 433.167,744.5 415.833,744.5 398.5,744.5C 397.502,773.329 397.169,802.329 397.5,831.5C 397.008,833.819 396.008,835.819 394.5,837.5C 394.586,836.504 394.252,835.671 393.5,835C 394.717,833.352 395.55,831.519 396,829.5C 396.175,800.428 396.675,771.428 397.5,742.5 Z"/></g>
<g><path style="opacity:0.008" fill="#31312f" d="M 448.5,746.5 C 447.833,745.167 447.833,745.167 448.5,746.5 Z"/></g>
<g><path style="opacity:0.027" fill="#333633" d="M 573.5,746.5 C 574.833,747.167 574.833,747.167 573.5,746.5 Z"/></g>
<g><path style="opacity:0.008" fill="#333231" d="M 448.5,746.5 C 449.573,747.251 449.74,748.251 449,749.5C 448.517,748.552 448.351,747.552 448.5,746.5 Z"/></g>
<g><path style="opacity:0.004" fill="#363534" d="M 662.5,747.5 C 663.833,748.167 663.833,748.167 662.5,747.5 Z"/></g>
<g><path style="opacity:0.004" fill="#373734" d="M 361.5,751.5 C 362.525,751.897 362.692,752.563 362,753.5C 361.536,752.906 361.369,752.239 361.5,751.5 Z"/></g>
<g><path style="opacity:0.004" fill="#323132" d="M 448.5,750.5 C 449.525,750.897 449.692,751.563 449,752.5C 448.536,751.906 448.369,751.239 448.5,750.5 Z"/></g>
<g><path style="opacity:0.004" fill="#383735" d="M 361.5,754.5 C 362.525,754.897 362.692,755.563 362,756.5C 361.536,755.906 361.369,755.239 361.5,754.5 Z"/></g>
<g><path style="opacity:0.01" fill="#353431" d="M 448.5,753.5 C 449.598,754.601 449.765,755.934 449,757.5C 448.51,756.207 448.343,754.873 448.5,753.5 Z"/></g>
<g><path style="opacity:0.004" fill="#333230" d="M 573.5,755.5 C 574.833,756.167 574.833,756.167 573.5,755.5 Z"/></g>
<g><path style="opacity:0.006" fill="#353333" d="M 573.5,758.5 C 574.525,758.897 574.692,759.563 574,760.5C 573.536,759.906 573.369,759.239 573.5,758.5 Z"/></g>
<g><path style="opacity:0.012" fill="#343231" d="M 448.5,758.5 C 449.573,759.251 449.74,760.251 449,761.5C 448.517,760.552 448.351,759.552 448.5,758.5 Z"/></g>
<g><path style="opacity:0.105" fill="#484646" d="M 536.5,744.5 C 537.498,772.328 537.831,800.328 537.5,828.5C 536.828,806.098 536.162,783.598 535.5,761C 536.033,755.743 536.367,750.243 536.5,744.5 Z"/></g>
<g><path style="opacity:0.008" fill="#353432" d="M 448.5,762.5 C 449.573,763.251 449.74,764.251 449,765.5C 448.517,764.552 448.351,763.552 448.5,762.5 Z"/></g>
<g><path style="opacity:0.004" fill="#383835" d="M 361.5,762.5 C 362.525,762.897 362.692,763.563 362,764.5C 361.536,763.906 361.369,763.239 361.5,762.5 Z"/></g>
<g><path style="opacity:0.008" fill="#353432" d="M 573.5,767.5 C 574.833,768.167 574.833,768.167 573.5,767.5 Z"/></g>
<g><path style="opacity:0.008" fill="#383634" d="M 361.5,768.5 C 362.833,769.167 362.833,769.167 361.5,768.5 Z"/></g>
<g><path style="opacity:0.009" fill="#343332" d="M 448.5,766.5 C 449.653,772.319 449.819,778.319 449,784.5C 448.774,781.905 448.274,779.405 447.5,777C 447.902,773.508 448.236,770.008 448.5,766.5 Z"/></g>
<g><path style="opacity:0.213" fill="#424040" d="M 571.5,744.5 C 571.833,744.5 572.167,744.5 572.5,744.5C 572.449,746.57 573.115,748.403 574.5,750C 572.858,776.884 571.858,803.717 571.5,830.5C 571.5,801.833 571.5,773.167 571.5,744.5 Z"/></g>
<g><path style="opacity:0.004" fill="#393836" d="M 361.5,770.5 C 362.525,770.897 362.692,771.563 362,772.5C 361.536,771.906 361.369,771.239 361.5,770.5 Z"/></g>
<g><path style="opacity:0.008" fill="#353434" d="M 573.5,774.5 C 574.833,775.167 574.833,775.167 573.5,774.5 Z"/></g>
<g><path style="opacity:0.004" fill="#3a3837" d="M 361.5,775.5 C 362.525,775.897 362.692,776.563 362,777.5C 361.536,776.906 361.369,776.239 361.5,775.5 Z"/></g>
<g><path style="opacity:0.004" fill="#3a3938" d="M 362.5,782.5 C 361.833,783.167 361.833,783.167 362.5,782.5 Z"/></g>
<g><path style="opacity:0.004" fill="#373433" d="M 573.5,782.5 C 574.525,782.897 574.692,783.563 574,784.5C 573.536,783.906 573.369,783.239 573.5,782.5 Z"/></g>
<g><path style="opacity:0.009" fill="#363534" d="M 448.5,785.5 C 449.647,789.646 449.814,793.98 449,798.5C 448.501,794.179 448.334,789.846 448.5,785.5 Z"/></g>
<g><path style="opacity:0.006" fill="#353333" d="M 573.5,790.5 C 574.525,790.897 574.692,791.563 574,792.5C 573.536,791.906 573.369,791.239 573.5,790.5 Z"/></g>
<g><path style="opacity:0.275" fill="#444444" d="M 398.5,744.5 C 398.183,773.199 398.517,802.032 399.5,831C 398.906,831.464 398.239,831.631 397.5,831.5C 397.169,802.329 397.502,773.329 398.5,744.5 Z"/></g>
<g><path style="opacity:0.673" fill="#252424" d="M 363.5,744.5 C 363.833,744.5 364.167,744.5 364.5,744.5C 364.5,773.833 364.5,803.167 364.5,832.5C 364.167,832.5 363.833,832.5 363.5,832.5C 363.667,821.162 363.5,809.828 363,798.5C 362.626,797.584 362.126,796.75 361.5,796C 363.478,793.503 363.978,790.669 363,787.5C 362.346,788.696 361.846,788.696 361.5,787.5C 363.484,785.954 363.817,784.287 362.5,782.5C 361.588,781.262 361.421,779.928 362,778.5C 362.333,779.167 362.667,779.833 363,780.5C 363.38,768.344 363.547,756.344 363.5,744.5 Z"/></g>
<g><path style="opacity:0.01" fill="#363435" d="M 573.5,797.5 C 574.525,797.897 574.692,798.563 574,799.5C 573.536,798.906 573.369,798.239 573.5,797.5 Z"/></g>
<g><path style="opacity:0.01" fill="#363535" d="M 448.5,799.5 C 449.622,801.288 449.789,803.288 449,805.5C 448.505,803.527 448.338,801.527 448.5,799.5 Z"/></g>
<g><path style="opacity:0.004" fill="#3a3837" d="M 361.5,800.5 C 362.833,801.167 362.833,801.167 361.5,800.5 Z"/></g>
<g><path style="opacity:0.004" fill="#3a3b38" d="M 361.5,802.5 C 362.525,802.897 362.692,803.563 362,804.5C 361.536,803.906 361.369,803.239 361.5,802.5 Z"/></g>
<g><path style="opacity:0.004" fill="#3c3b39" d="M 361.5,807.5 C 362.833,808.167 362.833,808.167 361.5,807.5 Z"/></g>
<g><path style="opacity:0.012" fill="#373636" d="M 448.5,807.5 C 449.833,808.167 449.833,808.167 448.5,807.5 Z"/></g>
<g><path style="opacity:0.004" fill="#3e3b3c" d="M 359.5,810.5 C 360.833,811.167 360.833,811.167 359.5,810.5 Z"/></g>
<g><path style="opacity:0.004" fill="#3d3c3b" d="M 361.5,810.5 C 362.525,810.897 362.692,811.563 362,812.5C 361.536,811.906 361.369,811.239 361.5,810.5 Z"/></g>
<g><path style="opacity:0.012" fill="#3a3837" d="M 448.5,809.5 C 449.629,811.628 449.796,813.961 449,816.5C 448.503,814.19 448.337,811.857 448.5,809.5 Z"/></g>
<g><path style="opacity:0.004" fill="#5a5b58" d="M 739.5,813.5 C 740.833,814.167 740.833,814.167 739.5,813.5 Z"/></g>
<g><path style="opacity:0.004" fill="#3e3d3d" d="M 361.5,815.5 C 362.525,815.897 362.692,816.563 362,817.5C 361.536,816.906 361.369,816.239 361.5,815.5 Z"/></g>
<g><path style="opacity:0.012" fill="#3a3a38" d="M 448.5,817.5 C 449.573,818.251 449.74,819.251 449,820.5C 448.517,819.552 448.351,818.552 448.5,817.5 Z"/></g>
<g><path style="opacity:0.004" fill="#3f3f3e" d="M 361.5,819.5 C 362.833,820.167 362.833,820.167 361.5,819.5 Z"/></g>
<g><path style="opacity:0.008" fill="#3a3a39" d="M 448.5,821.5 C 449.573,822.251 449.74,823.251 449,824.5C 448.517,823.552 448.351,822.552 448.5,821.5 Z"/></g>
<g><path style="opacity:0.008" fill="#3c3a3a" d="M 573.5,822.5 C 574.833,823.167 574.833,823.167 573.5,822.5 Z"/></g>
<g><path style="opacity:0.004" fill="#3e3f3d" d="M 359.5,824.5 C 360.833,825.167 360.833,825.167 359.5,824.5 Z"/></g>
<g><path style="opacity:0.006" fill="#3c3b3b" d="M 448.5,825.5 C 449.525,825.897 449.692,826.563 449,827.5C 448.536,826.906 448.369,826.239 448.5,825.5 Z"/></g>
<g><path style="opacity:0.004" fill="#3d3e3c" d="M 448.5,828.5 C 449.833,829.167 449.833,829.167 448.5,828.5 Z"/></g>
<g><path style="opacity:0.005" fill="#403f3f" d="M 362.5,832.5 C 361.378,830.712 361.211,828.712 362,826.5C 362.495,828.473 362.662,830.473 362.5,832.5 Z"/></g>
<g><path style="opacity:0.004" fill="#3d3e3c" d="M 486.5,831.5 C 487.833,832.167 487.833,832.167 486.5,831.5 Z"/></g>
<g><path style="opacity:0.008" fill="#3f3c3e" d="M 485.5,832.5 C 485.833,832.5 486.167,832.5 486.5,832.5C 486.315,833.17 485.981,833.17 485.5,832.5 Z"/></g>
<g><path style="opacity:0.008" fill="#3c3d3c" d="M 535.5,832.5 C 536.833,833.167 536.833,833.167 535.5,832.5 Z"/></g>
<g><path style="opacity:0.004" fill="#41403e" d="M 360.5,833.5 C 361.833,834.167 361.833,834.167 360.5,833.5 Z"/></g>
<g><path style="opacity:0.004" fill="#403e3e" d="M 362.5,832.5 C 362.833,832.5 363.167,832.5 363.5,832.5C 363.167,835.167 362.833,835.167 362.5,832.5 Z"/></g>
<g><path style="opacity:0.008" fill="#403f3f" d="M 571.5,833.5 C 572.833,834.167 572.833,834.167 571.5,833.5 Z"/></g>
<g><path style="opacity:0.004" fill="#424142" d="M 625.5,833.5 C 626.167,833.5 626.5,833.833 626.5,834.5C 625.352,835.895 624.352,835.728 623.5,834C 624.094,833.536 624.761,833.369 625.5,833.5 Z"/></g>
<g><path style="opacity:0.004" fill="#424141" d="M 360.5,834.5 C 359.833,835.167 359.833,835.167 360.5,834.5 Z"/></g>
<g><path style="opacity:0.004" fill="#3d3f3d" d="M 486.5,834.5 C 487.833,835.167 487.833,835.167 486.5,834.5 Z"/></g>
<g><path style="opacity:0.008" fill="#3d3d3b" d="M 536.5,834.5 C 537.833,835.167 537.833,835.167 536.5,834.5 Z"/></g>
<g><path style="opacity:0.004" fill="#41403f" d="M 484.5,835.5 C 485.833,836.167 485.833,836.167 484.5,835.5 Z"/></g>
<g><path style="opacity:0.008" fill="#3f403f" d="M 365.5,836.5 C 364.833,837.167 364.833,837.167 365.5,836.5 Z"/></g>
<g><path style="opacity:0.004" fill="#41423f" d="M 397.5,837.5 C 398.833,838.167 398.833,838.167 397.5,837.5 Z"/></g>
<g><path style="opacity:0.004" fill="#404040" d="M 453.5,838.5 C 452.761,838.631 452.094,838.464 451.5,838C 452.437,837.308 453.103,837.475 453.5,838.5 Z"/></g>
<g><path style="opacity:0.008" fill="#3e3d3d" d="M 538.5,837.5 C 539.833,838.167 539.833,838.167 538.5,837.5 Z"/></g>
<g><path style="opacity:0.009" fill="#424040" d="M 627.5,837.5 C 628.167,837.5 628.5,837.833 628.5,838.5C 628.44,839.043 628.107,839.376 627.5,839.5C 626.227,838.743 626.227,838.077 627.5,837.5 Z"/></g>
<g><path style="opacity:0.004" fill="#414241" d="M 365.5,838.5 C 366.833,839.167 366.833,839.167 365.5,838.5 Z"/></g>
<g><path style="opacity:0.012" fill="#3e3f3e" d="M 453.5,838.5 C 453.833,838.5 454.167,838.5 454.5,838.5C 454.315,839.17 453.981,839.17 453.5,838.5 Z"/></g>
<g><path style="opacity:0.004" fill="#3d3d3f" d="M 536.5,838.5 C 537.833,839.167 537.833,839.167 536.5,838.5 Z"/></g>
<g><path style="opacity:0.008" fill="#424241" d="M 456.5,840.5 C 455.833,841.167 455.833,841.167 456.5,840.5 Z"/></g>
<g><path style="opacity:0.008" fill="#434142" d="M 369.5,840.5 C 370.167,840.5 370.5,840.833 370.5,841.5C 370.5,841.833 370.5,842.167 370.5,842.5C 367.54,841.968 367.207,841.301 369.5,840.5 Z"/></g>
<g><path style="opacity:0.004" fill="#424142" d="M 370.5,842.5 C 371.833,843.167 371.833,843.167 370.5,842.5 Z"/></g>
<g><path style="opacity:0.004" fill="#44413e" d="M 543.5,842.5 C 544.833,843.167 544.833,843.167 543.5,842.5 Z"/></g>
<g><path style="opacity:0.008" fill="#434440" d="M 631.5,842.5 C 632.833,843.167 632.833,843.167 631.5,842.5 Z"/></g>
<g><path style="opacity:0.016" fill="#4e4d4d" d="M 465.5,843.5 C 466.833,843.5 468.167,843.5 469.5,843.5C 467.909,844.219 466.409,845.219 465,846.5C 464.53,845.423 464.697,844.423 465.5,843.5 Z"/></g>
<g><path style="opacity:0.004" fill="#444441" d="M 634.5,844.5 C 633.833,843.167 633.833,843.167 634.5,844.5 Z"/></g>
<g><path style="opacity:0.008" fill="#434242" d="M 472.5,845.5 C 472.897,844.475 473.563,844.308 474.5,845C 473.906,845.464 473.239,845.631 472.5,845.5 Z"/></g>
<g><path style="opacity:0.004" fill="#40403e" d="M 549.5,844.5 C 550.833,845.167 550.833,845.167 549.5,844.5 Z"/></g>
<g><path style="opacity:0.008" fill="#434442" d="M 633.5,844.5 C 632.833,845.167 632.833,845.167 633.5,844.5 Z"/></g>
<g><path style="opacity:0.004" fill="#444442" d="M 634.5,844.5 C 635.833,845.167 635.833,845.167 634.5,844.5 Z"/></g>
<g><path style="opacity:0.004" fill="#424542" d="M 467.5,845.5 C 468.833,846.167 468.833,846.167 467.5,845.5 Z"/></g>
<g><path style="opacity:0.004" fill="#424341" d="M 469.5,845.5 C 470.833,846.167 470.833,846.167 469.5,845.5 Z"/></g>
<g><path style="opacity:0.004" fill="#454342" d="M 546.5,846.5 C 546.897,845.475 547.563,845.308 548.5,846C 547.906,846.464 547.239,846.631 546.5,846.5 Z"/></g>
<g><path style="opacity:0.004" fill="#434340" d="M 553.5,845.5 C 554.833,846.167 554.833,846.167 553.5,845.5 Z"/></g>
<g><path style="opacity:0.004" fill="#424141" d="M 555.5,845.5 C 556.833,846.167 556.833,846.167 555.5,845.5 Z"/></g>
<g><path style="opacity:0.004" fill="#595a58" d="M 107.5,901.5 C 108.833,902.167 108.833,902.167 107.5,901.5 Z"/></g>
<g><path style="opacity:0.004" fill="#575856" d="M 899.5,925.5 C 900.833,926.167 900.833,926.167 899.5,925.5 Z"/></g>
<g><path style="opacity:0.004" fill="#5d5f5d" d="M 307.5,933.5 C 308.833,934.167 308.833,934.167 307.5,933.5 Z"/></g>
<g><path style="opacity:0.004" fill="#5f5f5d" d="M 643.5,957.5 C 644.833,958.167 644.833,958.167 643.5,957.5 Z"/></g>
<g><path style="opacity:0.004" fill="#555554" d="M 915.5,965.5 C 916.833,966.167 916.833,966.167 915.5,965.5 Z"/></g>
<g><path style="opacity:0.004" fill="#555755" d="M 819.5,973.5 C 820.833,974.167 820.833,974.167 819.5,973.5 Z"/></g>
</svg>
