<?xml version="1.0" encoding="UTF-8"?>
<!DOCTYPE svg PUBLIC "-//W3C//DTD SVG 1.1//EN" "http://www.w3.org/Graphics/SVG/1.1/DTD/svg11.dtd">
<svg xmlns="http://www.w3.org/2000/svg" version="1.1" width="1024px" height="1024px" style="transform: scale(1.1); shape-rendering:geometricPrecision; text-rendering:geometricPrecision; image-rendering:optimizeQuality; fill-rule:evenodd; clip-rule:evenodd" xmlns:xlink="http://www.w3.org/1999/xlink">
<g><path style="opacity:0.008" fill="#111312" d="M 739.5,55.5 C 740.833,56.1667 740.833,56.1667 739.5,55.5 Z"/></g>
<g><path style="opacity:0.004" fill="#131310" d="M 749.5,57.5 C 750.833,58.1667 750.833,58.1667 749.5,57.5 Z"/></g>
<g><path style="opacity:0.004" fill="#121410" d="M 736.5,58.5 C 737.833,59.1667 737.833,59.1667 736.5,58.5 Z"/></g>
<g><path style="opacity:0.004" fill="#13110f" d="M 753.5,58.5 C 754.833,59.1667 754.833,59.1667 753.5,58.5 Z"/></g>
<g><path style="opacity:0.008" fill="#131413" d="M 758.5,58.5 C 759.833,59.1667 759.833,59.1667 758.5,58.5 Z"/></g>
<g><path style="opacity:0.004" fill="#131511" d="M 761.5,58.5 C 762.833,59.1667 762.833,59.1667 761.5,58.5 Z"/></g>
<g><path style="opacity:0.004" fill="#111212" d="M 722.5,60.5 C 723.833,61.1667 723.833,61.1667 722.5,60.5 Z"/></g>
<g><path style="opacity:0.998" fill="#010101" d="M 786.5,64.5 C 787.568,65.4345 788.901,65.7678 790.5,65.5C 799.426,68.8113 808.426,72.1446 817.5,75.5C 817.842,76.3382 818.508,76.6716 819.5,76.5C 821.566,78.1991 823.9,79.5324 826.5,80.5C 834.749,85.4078 842.749,90.7411 850.5,96.5C 857.126,102.49 863.792,108.49 870.5,114.5C 883.716,130.923 894.383,148.923 902.5,168.5C 916.598,209.435 914.765,249.768 897,289.5C 890.078,304.342 882.912,319.009 875.5,333.5C 874.167,333.833 874.167,334.167 875.5,334.5C 866.765,346.954 858.765,359.954 851.5,373.5C 837.782,393.223 824.449,413.223 811.5,433.5C 802.409,445.662 794.409,457.328 787.5,468.5C 781.777,475.586 776.277,482.92 771,490.5C 763.283,499.628 753.616,502.961 742,500.5C 740.913,502.932 740.413,502.598 740.5,499.5C 739.5,499.5 738.5,499.5 737.5,499.5C 737.167,498.167 736.833,498.167 736.5,499.5C 732.391,496.222 728.724,492.388 725.5,488C 722.456,487.641 722.122,486.974 724.5,486C 723.449,484.615 722.116,483.615 720.5,483C 720.833,482.667 721.167,482.333 721.5,482C 720.267,480.333 718.933,478.833 717.5,477.5C 717.5,476.833 717.167,476.5 716.5,476.5C 716.262,474.596 715.262,473.262 713.5,472.5C 712.567,469.63 710.9,467.296 708.5,465.5C 708.262,463.596 707.262,462.262 705.5,461.5C 703.237,456.635 700.237,452.302 696.5,448.5C 695.876,446.246 694.543,444.579 692.5,443.5C 692.573,441.973 691.906,440.973 690.5,440.5C 690.672,439.508 690.338,438.842 689.5,438.5C 685.644,432.109 681.311,426.109 676.5,420.5C 675.89,418.566 674.89,416.899 673.5,415.5C 671.555,411.264 668.888,407.597 665.5,404.5C 665.672,403.508 665.338,402.842 664.5,402.5C 663.551,400.223 662.218,398.223 660.5,396.5C 660.167,395.167 659.833,395.167 659.5,396.5C 657.014,395.538 657.014,394.705 659.5,394C 658.956,393.283 658.289,392.783 657.5,392.5C 654.996,387.485 651.996,382.819 648.5,378.5C 647.66,376.147 646.326,374.147 644.5,372.5C 644.459,370.255 643.625,369.588 642,370.5C 641.383,369.551 641.549,368.718 642.5,368C 639.849,363.176 636.849,358.676 633.5,354.5C 631.668,350.164 629.335,346.164 626.5,342.5C 626.672,341.508 626.338,340.842 625.5,340.5C 625.672,339.508 625.338,338.842 624.5,338.5C 624.25,336.326 623.25,334.659 621.5,333.5C 621.34,331.847 620.674,330.514 619.5,329.5C 617.341,323.849 614.674,318.516 611.5,313.5C 608.939,307.36 605.939,301.027 602.5,294.5C 599.68,285.544 596.346,276.878 592.5,268.5C 590.907,259.298 588.574,250.131 585.5,241C 584.783,219.229 587.117,197.729 592.5,176.5C 593.738,174.786 594.405,172.786 594.5,170.5C 596.874,165.723 598.874,160.723 600.5,155.5C 606.159,146.172 611.826,136.838 617.5,127.5C 624.138,119.859 630.804,112.192 637.5,104.5C 640.784,102.883 643.451,100.55 645.5,97.5C 649.127,95.2065 652.461,92.5398 655.5,89.5C 659.025,88.2411 662.025,86.2411 664.5,83.5C 702.643,61.4075 743.31,55.0741 786.5,64.5 Z M 778.5,122.5 C 780.099,122.232 781.432,122.566 782.5,123.5C 784.786,123.595 786.786,124.262 788.5,125.5C 800.973,129.896 811.973,136.563 821.5,145.5C 820.453,146.078 820.62,146.744 822,147.5C 822.399,147.272 822.565,146.938 822.5,146.5C 823.5,146.833 824.167,147.5 824.5,148.5C 825.5,148.833 826.167,149.5 826.5,150.5C 829.167,151.833 831.167,153.833 832.5,156.5C 831.453,157.078 831.62,157.744 833,158.5C 833.399,158.272 833.565,157.938 833.5,157.5C 835.262,158.262 836.262,159.596 836.5,161.5C 839.471,163.443 841.471,166.109 842.5,169.5C 842.167,169.5 841.833,169.5 841.5,169.5C 842.072,171.255 842.906,172.922 844,174.5C 844.333,173.833 844.667,173.167 845,172.5C 847.437,177.041 849.604,181.708 851.5,186.5C 852.404,187.209 852.737,188.209 852.5,189.5C 853.404,190.209 853.737,191.209 853.5,192.5C 855.41,195.452 856.41,198.786 856.5,202.5C 858.386,209.911 859.386,217.578 859.5,225.5C 859.446,228.939 858.78,232.106 857.5,235C 857.886,248.291 854.886,260.791 848.5,272.5C 844.202,283.763 838.868,294.43 832.5,304.5C 831.258,308.655 829.258,312.322 826.5,315.5C 821.248,325.678 815.248,335.345 808.5,344.5C 795.942,364.719 782.608,384.386 768.5,403.5C 762.22,412.953 755.72,422.287 749,431.5C 741.001,421.491 733.501,411.158 726.5,400.5C 715.104,385.39 704.438,369.724 694.5,353.5C 695.547,352.922 695.38,352.256 694,351.5C 693.601,351.728 693.435,352.062 693.5,352.5C 690.084,348.677 687.418,344.343 685.5,339.5C 684.094,339.027 683.427,338.027 683.5,336.5C 665.165,311.168 650.999,283.501 641,253.5C 632.063,213.53 641.23,179.197 668.5,150.5C 672.515,146.487 676.848,142.821 681.5,139.5C 704.318,122.421 729.818,115.754 758,119.5C 765.15,118.498 771.983,119.498 778.5,122.5 Z"/></g>
<g><path style="opacity:0.004" fill="#10110f" d="M 696.5,63.5 C 697.833,64.1667 697.833,64.1667 696.5,63.5 Z"/></g>
<g><path style="opacity:0.004" fill="#121311" d="M 700.5,63.5 C 701.833,64.1667 701.833,64.1667 700.5,63.5 Z"/></g>
<g><path style="opacity:0.008" fill="#121213" d="M 706.5,64.5 C 706.897,63.475 707.563,63.3083 708.5,64C 707.906,64.4643 707.239,64.631 706.5,64.5 Z"/></g>
<g><path style="opacity:0.008" fill="#0f100f" d="M 786.5,64.5 C 786.897,63.475 787.563,63.3083 788.5,64C 787.906,64.4643 787.239,64.631 786.5,64.5 Z"/></g>
<g><path style="opacity:0.008" fill="#10100e" d="M 790.5,64.5 C 789.833,63.1667 789.833,63.1667 790.5,64.5 Z"/></g>
<g><path style="opacity:0.004" fill="#131312" d="M 702.5,64.5 C 703.833,65.1667 703.833,65.1667 702.5,64.5 Z"/></g>
<g><path style="opacity:0.012" fill="#0e0f0d" d="M 790.5,64.5 C 791.833,65.1667 791.833,65.1667 790.5,64.5 Z"/></g>
<g><path style="opacity:0.004" fill="#121111" d="M 699.5,66.5 C 699.897,65.475 700.563,65.3083 701.5,66C 700.906,66.4643 700.239,66.631 699.5,66.5 Z"/></g>
<g><path style="opacity:0.004" fill="#111411" d="M 797.5,65.5 C 798.833,66.1667 798.833,66.1667 797.5,65.5 Z"/></g>
<g><path style="opacity:0.008" fill="#111210" d="M 697.5,65.5 C 698.043,65.56 698.376,65.8933 698.5,66.5C 697.635,67.5827 696.635,67.7494 695.5,67C 696.416,66.7216 697.082,66.2216 697.5,65.5 Z"/></g>
<g><path style="opacity:0.01" fill="#0e0f0f" d="M 683.5,72.5 C 683.897,71.475 684.563,71.3083 685.5,72C 684.906,72.4643 684.239,72.631 683.5,72.5 Z"/></g>
<g><path style="opacity:0.008" fill="#101110" d="M 811.5,71.5 C 812.833,72.1667 812.833,72.1667 811.5,71.5 Z"/></g>
<g><path style="opacity:0.008" fill="#110f0e" d="M 679.5,73.5 C 680.833,74.1667 680.833,74.1667 679.5,73.5 Z"/></g>
<g><path style="opacity:0.008" fill="#131510" d="M 817.5,74.5 C 818.833,75.1667 818.833,75.1667 817.5,74.5 Z"/></g>
<g><path style="opacity:0.004" fill="#121411" d="M 819.5,75.5 C 820.833,76.1667 820.833,76.1667 819.5,75.5 Z"/></g>
<g><path style="opacity:0.008" fill="#0e0f0e" d="M 668.5,79.5 C 669.833,80.1667 669.833,80.1667 668.5,79.5 Z"/></g>
<g><path style="opacity:0.008" fill="#11110f" d="M 826.5,80.5 C 826.897,79.475 827.563,79.3083 828.5,80C 827.906,80.4643 827.239,80.631 826.5,80.5 Z"/></g>
<g><path style="opacity:0.004" fill="#0f100f" d="M 664.5,83.5 C 663.833,82.1667 663.833,82.1667 664.5,83.5 Z"/></g>
<g><path style="opacity:0.004" fill="#110f0f" d="M 652.5,87.5 C 653.833,88.1667 653.833,88.1667 652.5,87.5 Z"/></g>
<g><path style="opacity:0.008" fill="#10100f" d="M 655.5,87.5 C 656.833,88.1667 656.833,88.1667 655.5,87.5 Z"/></g>
<g><path style="opacity:0.004" fill="#0f100d" d="M 652.5,88.5 C 651.833,89.1667 651.833,89.1667 652.5,88.5 Z"/></g>
<g><path style="opacity:0.008" fill="#0f100e" d="M 655.5,88.5 C 655.5,88.8333 655.5,89.1667 655.5,89.5C 654.83,89.0187 654.83,88.6853 655.5,88.5 Z"/></g>
<g><path style="opacity:0.004" fill="#0f0e0d" d="M 647.5,89.5 C 648.833,90.1667 648.833,90.1667 647.5,89.5 Z"/></g>
<g><path style="opacity:0.004" fill="#0f0f0d" d="M 651.5,89.5 C 650.833,90.1667 650.833,90.1667 651.5,89.5 Z"/></g>
<g><path style="opacity:0.004" fill="#0f110e" d="M 641.5,95.5 C 642.833,96.1667 642.833,96.1667 641.5,95.5 Z"/></g>
<g><path style="opacity:0.004" fill="#0f0d0b" d="M 645.5,95.5 C 646.833,96.1667 646.833,96.1667 645.5,95.5 Z"/></g>
<g><path style="opacity:0.008" fill="#0d100d" d="M 850.5,95.5 C 851.833,96.1667 851.833,96.1667 850.5,95.5 Z"/></g>
<g><path style="opacity:0.008" fill="#0b0d0d" d="M 645.5,96.5 C 645.5,96.8333 645.5,97.1667 645.5,97.5C 644.83,97.0187 644.83,96.6853 645.5,96.5 Z"/></g>
<g><path style="opacity:0.004" fill="#0d0e0d" d="M 641.5,98.5 C 642.833,99.1667 642.833,99.1667 641.5,98.5 Z"/></g>
<g><path style="opacity:0.004" fill="#0d0e0f" d="M 639.5,99.5 C 640.833,100.167 640.833,100.167 639.5,99.5 Z"/></g>
<g><path style="opacity:0.004" fill="#010201" d="M 963.5,101.5 C 964.833,102.167 964.833,102.167 963.5,101.5 Z"/></g>
<g><path style="opacity:0.004" fill="#0e0d0d" d="M 637.5,104.5 C 636.833,103.167 636.833,103.167 637.5,104.5 Z"/></g>
<g><path style="opacity:0.012" fill="#0e0f0e" d="M 628.5,111.5 C 629.833,112.167 629.833,112.167 628.5,111.5 Z"/></g>
<g><path style="opacity:0.004" fill="#0b0d0d" d="M 626.5,113.5 C 627.833,114.167 627.833,114.167 626.5,113.5 Z"/></g>
<g><path style="opacity:0.004" fill="#0b0c0a" d="M 870.5,113.5 C 871.833,114.167 871.833,114.167 870.5,113.5 Z"/></g>
<g><path style="opacity:0.008" fill="#0f100e" d="M 620.5,120.5 C 619.833,119.167 619.833,119.167 620.5,120.5 Z"/></g>
<g><path style="opacity:0.004" fill="#0e0f0d" d="M 620.5,120.5 C 621.833,121.167 621.833,121.167 620.5,120.5 Z"/></g>
<g><path style="opacity:0.004" fill="#0e0e0c" d="M 615.5,121.5 C 616.833,122.167 616.833,122.167 615.5,121.5 Z"/></g>
<g><path style="opacity:0.004" fill="#0d0c0c" d="M 617.5,127.5 C 616.833,126.167 616.833,126.167 617.5,127.5 Z"/></g>
<g><path style="opacity:0.008" fill="#0f0f0f" d="M 616.5,127.5 C 615.833,128.167 615.833,128.167 616.5,127.5 Z"/></g>
<g><path style="opacity:0.004" fill="#000000" d="M 259.5,141.5 C 260.833,142.167 260.833,142.167 259.5,141.5 Z"/></g>
<g><path style="opacity:0.008" fill="#0d0f0c" d="M 604.5,144.5 C 605.833,145.167 605.833,145.167 604.5,144.5 Z"/></g>
<g><path style="opacity:0.004" fill="#110f0e" d="M 599.5,145.5 C 600.525,145.897 600.692,146.563 600,147.5C 599.536,146.906 599.369,146.239 599.5,145.5 Z"/></g>
<g><path style="opacity:0.004" fill="#0e0e0f" d="M 600.5,151.5 C 601.833,152.167 601.833,152.167 600.5,151.5 Z"/></g>
<g><path style="opacity:0.006" fill="#101010" d="M 600.5,155.5 C 599.475,155.103 599.308,154.437 600,153.5C 600.464,154.094 600.631,154.761 600.5,155.5 Z"/></g>
<g><path style="opacity:0.004" fill="#0f100d" d="M 897.5,154.5 C 898.833,155.167 898.833,155.167 897.5,154.5 Z"/></g>
<g><path style="opacity:0.004" fill="#0f100e" d="M 593.5,160.5 C 594.833,161.167 594.833,161.167 593.5,160.5 Z"/></g>
<g><path style="opacity:0.32" fill="#1c1d1d" d="M 757.5,161.5 C 751.167,161.5 744.833,161.5 738.5,161.5C 738.369,160.761 738.536,160.094 739,159.5C 745.479,160.555 751.812,160.555 758,159.5C 758.5,159.667 759,159.833 759.5,160C 758.584,160.278 757.918,160.778 757.5,161.5 Z"/></g>
<g><path style="opacity:0.999" fill="#010101" d="M 738.5,161.5 C 744.833,161.5 751.167,161.5 757.5,161.5C 761.557,161.848 765.557,162.514 769.5,163.5C 804.637,179.781 818.137,207.447 810,246.5C 801.852,269.46 785.686,284.126 761.5,290.5C 745.762,292.728 730.762,290.395 716.5,283.5C 710.689,279.083 705.022,274.416 699.5,269.5C 697.555,265.264 694.888,261.597 691.5,258.5C 691.771,256.62 691.104,255.287 689.5,254.5C 687.853,249.661 686.353,244.327 685,238.5C 684.346,239.696 683.846,239.696 683.5,238.5C 683.239,229.872 683.572,221.205 684.5,212.5C 687.645,199.624 694.311,187.624 704.5,176.5C 708.382,174.066 712.048,171.399 715.5,168.5C 722.728,164.758 730.395,162.424 738.5,161.5 Z"/></g>
<g><path style="opacity:0.004" fill="#0c0a0b" d="M 902.5,168.5 C 902.369,167.761 902.536,167.094 903,166.5C 903.692,167.437 903.525,168.103 902.5,168.5 Z"/></g>
<g><path style="opacity:0.004" fill="#0f0f0f" d="M 594.5,170.5 C 593.833,169.167 593.833,169.167 594.5,170.5 Z"/></g>
<g><path style="opacity:0.004" fill="#0c0f0e" d="M 592.5,176.5 C 591.833,175.167 591.833,175.167 592.5,176.5 Z"/></g>
<g><path style="opacity:0.008" fill="#111110" d="M 588.5,184.5 C 589.833,185.167 589.833,185.167 588.5,184.5 Z"/></g>
<g><path style="opacity:0.008" fill="#101010" d="M 908.5,184.5 C 909.833,185.167 909.833,185.167 908.5,184.5 Z"/></g>
<g><path style="opacity:0.005" fill="#11100f" d="M 851.5,186.5 C 850.923,187.773 850.257,187.773 849.5,186.5C 849.97,185.537 850.637,185.537 851.5,186.5 Z"/></g>
<g><path style="opacity:0.008" fill="#121212" d="M 586.5,191.5 C 587.573,192.251 587.74,193.251 587,194.5C 586.517,193.552 586.351,192.552 586.5,191.5 Z"/></g>
<g><path style="opacity:0.004" fill="#111011" d="M 583.5,194.5 C 584.833,195.167 584.833,195.167 583.5,194.5 Z"/></g>
<g><path style="opacity:0.004" fill="#10120f" d="M 585.5,195.5 C 586.833,196.167 586.833,196.167 585.5,195.5 Z"/></g>
<g><path style="opacity:0.008" fill="#121312" d="M 585.5,199.5 C 586.833,200.167 586.833,200.167 585.5,199.5 Z"/></g>
<g><path style="opacity:0.004" fill="#121212" d="M 583.5,203.5 C 584.251,202.427 585.251,202.26 586.5,203C 585.648,204.728 584.648,204.895 583.5,203.5 Z"/></g>
<g><path style="opacity:0.008" fill="#110f0e" d="M 584.5,206.5 C 585.833,207.167 585.833,207.167 584.5,206.5 Z"/></g>
<g><path style="opacity:0.008" fill="#151414" d="M 584.5,210.5 C 585.833,211.167 585.833,211.167 584.5,210.5 Z"/></g>
<g><path style="opacity:0.004" fill="#131312" d="M 855.5,211.5 C 855.56,210.957 855.893,210.624 856.5,210.5C 857.583,211.365 857.749,212.365 857,213.5C 856.722,212.584 856.222,211.918 855.5,211.5 Z"/></g>
<g><path style="opacity:0.004" fill="#121111" d="M 583.5,217.5 C 584.525,217.897 584.692,218.563 584,219.5C 583.536,218.906 583.369,218.239 583.5,217.5 Z"/></g>
<g><path style="opacity:0.004" fill="#111211" d="M 583.5,224.5 C 584.833,225.167 584.833,225.167 583.5,224.5 Z"/></g>
<g><path style="opacity:0.012" fill="#151613" d="M 584.5,233.5 C 585.525,233.897 585.692,234.563 585,235.5C 584.536,234.906 584.369,234.239 584.5,233.5 Z"/></g>
<g><path style="opacity:0.008" fill="#141412" d="M 584.5,236.5 C 585.833,237.167 585.833,237.167 584.5,236.5 Z"/></g>
<g><path style="opacity:0.004" fill="#131012" d="M 584.5,238.5 C 585.833,239.167 585.833,239.167 584.5,238.5 Z"/></g>
<g><path style="opacity:0.004" fill="#111110" d="M 410.5,240.5 C 411.077,239.227 411.743,239.227 412.5,240.5C 412.03,241.463 411.363,241.463 410.5,240.5 Z"/></g>
<g><path style="opacity:0.007" fill="#111010" d="M 423.5,240.5 C 426.64,239.359 429.973,239.192 433.5,240C 430.183,240.498 426.85,240.665 423.5,240.5 Z"/></g>
<g><path style="opacity:0.013" fill="#171717" d="M 476.5,242.5 C 469.443,242.76 462.443,242.427 455.5,241.5C 455.47,240.503 455.97,239.836 457,239.5C 458.667,240.167 460.333,240.833 462,241.5C 463.68,240.453 465.514,239.787 467.5,239.5C 470.725,240.197 473.725,241.197 476.5,242.5 Z"/></g>
<g><path style="opacity:0.008" fill="#0e0f0d" d="M 461.5,239.5 C 462.833,240.167 462.833,240.167 461.5,239.5 Z"/></g>
<g><path style="opacity:0.004" fill="#120f11" d="M 472.5,239.5 C 473.833,240.167 473.833,240.167 472.5,239.5 Z"/></g>
<g><path style="opacity:0.008" fill="#121110" d="M 410.5,240.5 C 409.833,241.167 409.833,241.167 410.5,240.5 Z"/></g>
<g><path style="opacity:0.004" fill="#10120e" d="M 415.5,240.5 C 416.833,241.167 416.833,241.167 415.5,240.5 Z"/></g>
<g><path style="opacity:0.024" fill="#232424" d="M 454.5,241.5 C 449.5,241.5 444.5,241.5 439.5,241.5C 440.312,240.007 441.645,239.34 443.5,239.5C 447.226,239.893 450.726,239.893 454,239.5C 454.464,240.094 454.631,240.761 454.5,241.5 Z"/></g>
<g><path style="opacity:0.004" fill="#101010" d="M 478.5,241.5 C 478.897,240.475 479.563,240.308 480.5,241C 479.906,241.464 479.239,241.631 478.5,241.5 Z"/></g>
<g><path style="opacity:0.004" fill="#111310" d="M 483.5,240.5 C 484.833,241.167 484.833,241.167 483.5,240.5 Z"/></g>
<g><path style="opacity:0.998" fill="#010101" d="M 439.5,241.5 C 444.5,241.5 449.5,241.5 454.5,241.5C 454.833,241.5 455.167,241.5 455.5,241.5C 462.443,242.427 469.443,242.76 476.5,242.5C 490.312,243.524 503.978,245.524 517.5,248.5C 531.872,252.243 545.872,256.41 559.5,261C 561.563,267.696 563.896,274.196 566.5,280.5C 568.496,287.655 570.996,294.655 574,301.5C 583.139,321.112 592.806,340.445 603,359.5C 608.857,371.909 614.024,384.576 618.5,397.5C 618.791,402.141 620.458,402.807 623.5,399.5C 626.5,398.167 629.5,396.833 632.5,395.5C 633.5,395.5 634.5,395.5 635.5,395.5C 635.992,397.819 636.992,399.819 638.5,401.5C 643.745,413.825 649.412,425.992 655.5,438C 649.163,442.284 642.163,445.117 634.5,446.5C 644.505,486.207 650.172,526.541 651.5,567.5C 683.662,568.498 715.996,568.832 748.5,568.5C 748.5,566.5 748.5,564.5 748.5,562.5C 747.556,553.553 747.222,544.553 747.5,535.5C 747.325,533.379 747.659,531.379 748.5,529.5C 753.073,528.612 757.406,527.279 761.5,525.5C 766.272,524.801 770.605,523.134 774.5,520.5C 780.059,518.387 785.392,515.721 790.5,512.5C 802.609,583.257 796.109,652.257 771,719.5C 753.753,761.203 729.586,798.203 698.5,830.5C 690.474,838.194 682.474,845.861 674.5,853.5C 665.53,860.324 656.53,867.158 647.5,874C 638.325,879.696 629.325,885.53 620.5,891.5C 594.66,905.082 567.66,915.915 539.5,924C 530.631,926.54 521.631,928.374 512.5,929.5C 512.649,930.552 512.483,931.552 512,932.5C 511.481,931.484 510.647,930.818 509.5,930.5C 476.291,936.178 443.624,937.512 411.5,934.5C 395.923,931.696 380.256,928.696 364.5,925.5C 356.689,922.877 348.689,920.543 340.5,918.5C 338.786,917.262 336.786,916.595 334.5,916.5C 327.44,913.313 320.106,910.646 312.5,908.5C 312.158,907.662 311.492,907.328 310.5,907.5C 309.486,906.326 308.153,905.66 306.5,905.5C 302.787,903.315 298.787,901.648 294.5,900.5C 294.158,899.662 293.492,899.328 292.5,899.5C 292.158,898.662 291.492,898.328 290.5,898.5C 290.167,897.167 289.833,897.167 289.5,898.5C 289.167,898.5 288.833,898.5 288.5,898.5C 288.586,897.504 288.252,896.671 287.5,896C 283.598,893.881 279.598,892.048 275.5,890.5C 275.027,889.094 274.027,888.427 272.5,888.5C 270.664,886.412 268.331,885.079 265.5,884.5C 263.025,881.759 260.025,879.759 256.5,878.5C 254.777,876.782 252.777,875.449 250.5,874.5C 248.14,872.147 245.473,870.147 242.5,868.5C 234.54,861.844 226.54,855.177 218.5,848.5C 213.526,843.861 208.526,839.195 203.5,834.5C 197.87,827.535 191.87,820.868 185.5,814.5C 180.516,807.52 175.183,800.854 169.5,794.5C 169.262,792.596 168.262,791.262 166.5,790.5C 162.885,784.223 158.885,778.223 154.5,772.5C 154.672,771.508 154.338,770.842 153.5,770.5C 152.649,768.118 151.316,766.118 149.5,764.5C 142.498,750.495 135.498,736.495 128.5,722.5C 127.02,716.891 125.02,711.557 122.5,706.5C 122.598,704.447 121.931,702.78 120.5,701.5C 118.739,693.558 116.406,685.891 113.5,678.5C 110.088,662.117 107.088,645.783 104.5,629.5C 98.0932,561.941 108.76,497.275 136.5,435.5C 151.616,405.721 170.283,378.388 192.5,353.5C 194.167,352.5 195.5,351.167 196.5,349.5C 205.559,340.438 214.892,331.771 224.5,323.5C 229.569,320.305 234.235,316.638 238.5,312.5C 241.135,311.189 243.469,309.522 245.5,307.5C 246.167,307.5 246.5,307.167 246.5,306.5C 250.852,304.327 254.852,301.66 258.5,298.5C 268.838,292.492 279.172,286.492 289.5,280.5C 295.357,278.07 301.023,275.403 306.5,272.5C 317.243,268.147 327.909,263.813 338.5,259.5C 341.443,259.02 344.11,258.02 346.5,256.5C 355.368,254.538 364.035,252.205 372.5,249.5C 392.897,245.001 413.897,242.168 435.5,241C 434.294,239.982 434.627,239.482 436.5,239.5C 437.476,240.195 438.476,240.862 439.5,241.5 Z M 424.5,309.5 C 425.456,313.604 425.789,317.937 425.5,322.5C 424.761,322.369 424.094,322.536 423.5,323C 424.099,324.622 424.766,326.122 425.5,327.5C 424.016,328.473 423.516,329.807 424,331.5C 425.003,329.065 425.503,329.398 425.5,332.5C 425.272,334.207 424.938,335.874 424.5,337.5C 423.529,338.962 423.862,340.295 425.5,341.5C 425.649,346.177 425.315,350.844 424.5,355.5C 425.062,364.115 425.062,372.115 424.5,379.5C 424.787,388.668 424.787,398.334 424.5,408.5C 423.167,409.5 423.167,410.5 424.5,411.5C 425.235,418.267 425.568,424.934 425.5,431.5C 392.613,429.876 361.78,424.876 333,416.5C 330.361,415.006 327.528,414.339 324.5,414.5C 332.955,388.291 345.955,363.624 363.5,340.5C 374.469,323.007 389.469,310.173 408.5,302C 414.086,300.383 419.753,299.216 425.5,298.5C 425.752,301.244 425.085,303.744 423.5,306C 423.944,307.762 424.444,307.595 425,305.5C 425.579,306.928 425.412,308.262 424.5,309.5 Z M 474.5,300.5 C 477.473,299.476 480.473,299.643 483.5,301C 482.167,301.333 480.833,301.667 479.5,302C 486.281,301.221 492.281,303.055 497.5,307.5C 498.492,307.328 499.158,307.662 499.5,308.5C 500.492,308.328 501.158,308.662 501.5,309.5C 504.117,310.786 506.45,312.453 508.5,314.5C 511.994,316.736 515.661,319.569 519.5,323C 521.742,324.77 523.408,326.937 524.5,329.5C 530.359,334.238 535.026,339.904 538.5,346.5C 539.906,346.973 540.573,347.973 540.5,349.5C 539.453,350.078 539.62,350.744 541,351.5C 541.399,351.272 541.565,350.938 541.5,350.5C 545.525,355.69 549.192,361.69 552.5,368.5C 551.287,369.497 551.454,370.497 553,371.5C 553.399,371.272 553.565,370.938 553.5,370.5C 554.674,371.514 555.34,372.847 555.5,374.5C 556.338,374.842 556.672,375.508 556.5,376.5C 558.642,378.765 560.309,381.432 561.5,384.5C 560.833,384.833 560.167,385.167 559.5,385.5C 560.098,386.795 560.598,388.128 561,389.5C 561.333,388.5 561.667,387.5 562,386.5C 564.729,391.288 566.896,396.288 568.5,401.5C 569.404,402.209 569.737,403.209 569.5,404.5C 571.562,407.518 572.728,410.852 573,414.5C 571.913,412.068 571.413,412.402 571.5,415.5C 569.194,415.993 566.861,416.326 564.5,416.5C 562.162,418.04 559.495,418.706 556.5,418.5C 547.842,421.501 538.842,423.501 529.5,424.5C 510.825,428.354 491.825,430.688 472.5,431.5C 472.333,387.165 472.5,342.832 473,298.5C 473.717,299.044 474.217,299.711 474.5,300.5 Z M 314.5,323.5 C 311.528,329.122 308.195,334.455 304.5,339.5C 293.604,359.292 283.771,379.625 275,400.5C 261.864,394.897 248.698,389.564 235.5,384.5C 234.005,384.585 233.005,383.919 232.5,382.5C 233.521,380.812 234.855,379.479 236.5,378.5C 247.868,366.987 260.202,356.654 273.5,347.5C 277.983,343.863 282.65,340.363 287.5,337C 291.22,335.14 294.886,333.307 298.5,331.5C 303.236,327.798 308.57,325.132 314.5,323.5 Z M 218.5,430.5 C 221.485,431.326 224.151,432.659 226.5,434.5C 230.127,435.321 233.46,436.654 236.5,438.5C 239.912,439.075 242.912,440.408 245.5,442.5C 251.438,443.979 257.105,446.146 262.5,449C 259.3,459.301 256.8,469.801 255,480.5C 252.819,495.31 250.652,509.976 248.5,524.5C 247.656,538.825 246.989,553.158 246.5,567.5C 214.833,567.5 183.167,567.5 151.5,567.5C 153.387,528.191 163.387,491.191 181.5,456.5C 187.011,444.644 193.678,433.478 201.5,423C 207.614,424.388 213.281,426.888 218.5,430.5 Z M 309.5,459.5 C 329.324,465.528 349.324,470.528 369.5,474.5C 387.377,477.434 405.377,479.268 423.5,480C 424.416,480.278 425.082,480.778 425.5,481.5C 424.624,481.369 423.957,481.702 423.5,482.5C 423.994,484.026 424.661,485.359 425.5,486.5C 424.89,487.391 424.557,488.391 424.5,489.5C 423.167,489.833 423.167,490.167 424.5,490.5C 425.581,494.91 425.581,499.577 424.5,504.5C 423.167,505.5 423.167,506.5 424.5,507.5C 425.234,508.708 425.567,510.041 425.5,511.5C 423.067,512.548 423.067,513.214 425.5,513.5C 425.096,516.129 424.763,518.795 424.5,521.5C 423.285,522.779 423.618,523.779 425.5,524.5C 424.725,526.612 424.725,528.612 425.5,530.5C 423.443,530.957 423.443,531.957 425.5,533.5C 425.795,535.735 425.461,537.735 424.5,539.5C 425.562,541.234 425.562,542.901 424.5,544.5C 425.452,551.986 425.785,559.486 425.5,567C 381.501,567.5 337.501,567.667 293.5,567.5C 294.71,531.828 299.376,496.495 307.5,461.5C 307.833,461.5 308.167,461.5 308.5,461.5C 308.328,460.508 308.662,459.842 309.5,459.5 Z M 594.5,480.5 C 595.451,481.919 595.784,483.585 595.5,485.5C 600.201,506.105 602.868,527.105 603.5,548.5C 604.461,550.265 604.795,552.265 604.5,554.5C 604.665,558.182 604.499,561.848 604,565.5C 603.086,564.346 602.253,564.513 601.5,566C 602.793,566.49 604.127,566.657 605.5,566.5C 561.335,567.665 517.002,567.831 472.5,567C 472.516,538.041 472.516,508.875 472.5,479.5C 491.936,479.186 510.936,477.519 529.5,474.5C 541.876,472.291 554.209,469.958 566.5,467.5C 574.275,464.633 582.275,462.466 590.5,461C 592.533,467.333 593.867,473.833 594.5,480.5 Z M 225.5,612.5 C 232.5,612.5 239.5,612.5 246.5,612.5C 246.177,618.69 246.51,624.69 247.5,630.5C 248.738,658.164 252.404,685.497 258.5,712.5C 260.263,716.96 261.763,721.627 263,726.5C 263.798,728.259 263.631,729.926 262.5,731.5C 256.949,733.905 251.283,735.905 245.5,737.5C 231.225,744.054 217.058,751.054 203,758.5C 173.374,715.106 156.207,667.44 151.5,615.5C 182.81,614.473 213.976,614.473 245,615.5C 245.167,615.167 245.333,614.833 245.5,614.5C 238.679,613.833 232.012,613.167 225.5,612.5 Z M 472.5,612.5 C 474.833,612.5 477.167,612.5 479.5,612.5C 482.261,614.167 485.428,615.167 489,615.5C 513,614.167 537,614.167 561,615.5C 564.745,614.703 568.579,614.203 572.5,614C 570.618,613.802 568.952,613.302 567.5,612.5C 570.518,612.335 573.518,612.502 576.5,613C 575.5,613.333 574.5,613.667 573.5,614C 576.095,614.226 578.595,614.726 581,615.5C 588.735,614.676 596.068,614.342 603,614.5C 603.317,616.301 603.984,616.634 605,615.5C 605.497,618.146 605.664,620.813 605.5,623.5C 604.013,646.245 600.68,668.578 595.5,690.5C 593.946,700.137 591.612,709.471 588.5,718.5C 588.167,717.167 587.833,717.167 587.5,718.5C 583.298,717.868 579.298,716.868 575.5,715.5C 556.093,711.114 536.759,707.614 517.5,705C 518.696,704.346 518.696,703.846 517.5,703.5C 515.686,703.445 513.686,703.779 511.5,704.5C 498.509,703.236 485.509,702.069 472.5,701C 472.969,672.297 472.969,642.797 472.5,612.5 Z M 658.5,612.5 C 657.048,613.302 655.382,613.802 653.5,614C 654,614.5 654.5,615 655,615.5C 685.468,614.512 715.801,614.179 746,614.5C 746.495,616.473 746.662,618.473 746.5,620.5C 743.931,646.772 737.931,672.105 728.5,696.5C 720.039,719.089 709.206,740.423 696,760.5C 685.486,754.994 674.986,749.66 664.5,744.5C 653.306,740.006 642.972,735.673 633.5,731.5C 640.351,706.365 645.684,681.032 649.5,655.5C 650.473,643.185 651.14,630.851 651.5,618.5C 652.461,616.735 652.795,614.735 652.5,612.5C 654.5,612.5 656.5,612.5 658.5,612.5 Z M 424.5,613.5 C 424.833,613.5 425.167,613.5 425.5,613.5C 424.634,618.383 424.301,623.049 424.5,627.5C 425.391,631.613 425.391,635.946 424.5,640.5C 424.994,648.993 424.994,657.993 424.5,667.5C 424.755,678.627 424.755,689.294 424.5,699.5C 424.611,700.117 424.944,700.617 425.5,701C 410.463,701.914 395.463,703.08 380.5,704.5C 379.194,704.121 377.861,703.788 376.5,703.5C 375.702,703.957 375.369,704.624 375.5,705.5C 353.45,707.91 331.784,712.243 310.5,718.5C 309.914,718.291 309.414,717.957 309,717.5C 300.546,687.282 295.379,655.616 293.5,622.5C 293.5,619.833 293.5,617.167 293.5,614.5C 326.055,614.578 358.889,614.911 392,615.5C 402.931,614.844 413.765,614.177 424.5,613.5 Z M 424.5,749.5 C 425.338,749.842 425.672,750.508 425.5,751.5C 424.483,760.116 423.816,768.782 423.5,777.5C 422.167,777.833 422.167,778.167 423.5,778.5C 423.879,785.104 424.546,791.771 425.5,798.5C 424.167,800.167 424.167,801.833 425.5,803.5C 424.79,805.893 424.123,808.393 423.5,811C 424.085,812.302 424.751,813.469 425.5,814.5C 424.859,815.482 424.193,816.482 423.5,817.5C 423.624,818.107 423.957,818.44 424.5,818.5C 424.261,825.562 424.594,832.562 425.5,839.5C 424.751,840.531 424.085,841.698 423.5,843C 424.123,845.607 424.79,848.107 425.5,850.5C 425.277,860.946 425.277,871.113 425.5,881C 423.934,881.765 422.601,881.598 421.5,880.5C 410.655,878.384 400.655,874.218 391.5,868C 381.624,860.958 373.291,852.458 366.5,842.5C 348.621,821.222 335.288,797.222 326.5,770.5C 325.519,768.604 324.519,766.604 323.5,764.5C 356.564,754.375 390.231,749.375 424.5,749.5 Z M 560.5,792.5 C 554.613,807.284 546.947,820.951 537.5,833.5C 537.672,834.492 537.338,835.158 536.5,835.5C 531.219,843.114 525.219,850.114 518.5,856.5C 507.074,869.717 492.74,878.05 475.5,881.5C 474.222,881.218 473.222,880.551 472.5,879.5C 473.098,837.123 473.098,793.456 472.5,748.5C 506.104,749.681 539.104,754.681 571.5,763.5C 569.195,773.758 565.528,783.425 560.5,792.5 Z M 621.5,777.5 C 620.833,777.5 620.5,777.833 620.5,778.5C 620.167,778.5 619.833,778.5 619.5,778.5C 619.711,776.576 620.377,776.243 621.5,777.5 Z M 621.5,777.5 C 622.791,777.263 623.791,777.596 624.5,778.5C 631.579,780.742 638.246,783.742 644.5,787.5C 648.776,788.971 652.776,790.971 656.5,793.5C 657.492,793.328 658.158,793.662 658.5,794.5C 658.062,794.435 657.728,794.601 657.5,795C 658.474,797.665 659.141,797.831 659.5,795.5C 660.922,795.709 662.255,796.209 663.5,797C 661.297,799.372 658.963,801.539 656.5,803.5C 654.281,806.597 651.614,809.263 648.5,811.5C 647.167,813.5 645.5,815.167 643.5,816.5C 642.833,817.833 641.833,818.833 640.5,819.5C 638.45,821.547 636.117,823.214 633.5,824.5C 633.44,823.957 633.107,823.624 632.5,823.5C 631.227,824.257 631.227,824.923 632.5,825.5C 630.621,828.115 628.288,830.281 625.5,832C 619.613,836.104 613.613,839.938 607.5,843.5C 599.983,849.43 591.65,854.097 582.5,857.5C 579.744,859.204 576.744,860.537 573.5,861.5C 575.779,857.884 578.445,854.551 581.5,851.5C 596.526,828.449 609.193,804.116 619.5,778.5C 619.833,779.833 620.167,779.833 620.5,778.5C 621.167,778.5 621.5,778.167 621.5,777.5 Z M 281.5,792.5 C 285.009,799.684 288.676,806.85 292.5,814C 291.833,814.333 291.167,814.667 290.5,815C 293.911,817.3 296.244,820.466 297.5,824.5C 298.338,824.842 298.672,825.508 298.5,826.5C 297.167,827.167 297.167,827.833 298.5,828.5C 299.032,831.46 299.699,831.793 300.5,829.5C 302.53,831.897 304.197,834.563 305.5,837.5C 310.08,844.755 315.08,851.755 320.5,858.5C 319.883,858.611 319.383,858.944 319,859.5C 312.194,856.186 305.694,852.519 299.5,848.5C 295.827,847 292.494,845 289.5,842.5C 284.431,840.072 279.431,836.739 274.5,832.5C 268.525,828.519 262.858,824.186 257.5,819.5C 256.167,818.833 255.167,817.833 254.5,816.5C 250.88,814.547 247.88,811.881 245.5,808.5C 242.5,806.167 239.833,803.5 237.5,800.5C 236.038,799.542 234.705,798.376 233.5,797C 246.711,789.766 260.378,783.599 274.5,778.5C 277.849,782.53 280.182,787.197 281.5,792.5 Z M 320.5,858.5 C 321.289,858.783 321.956,859.283 322.5,860C 321.184,860.528 320.517,860.028 320.5,858.5 Z"/></g>
<g><path style="opacity:0.004" fill="#101010" d="M 397.5,242.5 C 398.833,243.167 398.833,243.167 397.5,242.5 Z"/></g>
<g><path style="opacity:0.008" fill="#0f100c" d="M 399.5,242.5 C 400.833,243.167 400.833,243.167 399.5,242.5 Z"/></g>
<g><path style="opacity:0.012" fill="#0e0e0d" d="M 401.5,242.5 C 402.833,243.167 402.833,243.167 401.5,242.5 Z"/></g>
<g><path style="opacity:0.012" fill="#111211" d="M 585.5,242.5 C 586.598,243.601 586.765,244.934 586,246.5C 585.51,245.207 585.343,243.873 585.5,242.5 Z"/></g>
<g><path style="opacity:0.004" fill="#0f0f0e" d="M 368.5,247.5 C 369.289,247.783 369.956,248.283 370.5,249C 369.184,249.528 368.517,249.028 368.5,247.5 Z"/></g>
<g><path style="opacity:0.012" fill="#100d0b" d="M 372.5,248.5 C 372.897,247.475 373.563,247.308 374.5,248C 373.906,248.464 373.239,248.631 372.5,248.5 Z"/></g>
<g><path style="opacity:0.004" fill="#0d0d0b" d="M 517.5,247.5 C 518.833,248.167 518.833,248.167 517.5,247.5 Z"/></g>
<g><path style="opacity:0.008" fill="#10100f" d="M 519.5,248.5 C 519.897,247.475 520.563,247.308 521.5,248C 520.906,248.464 520.239,248.631 519.5,248.5 Z"/></g>
<g><path style="opacity:0.004" fill="#0f1210" d="M 522.5,247.5 C 523.833,248.167 523.833,248.167 522.5,247.5 Z"/></g>
<g><path style="opacity:0.008" fill="#0e0f0c" d="M 372.5,248.5 C 372.5,248.833 372.5,249.167 372.5,249.5C 371.83,249.019 371.83,248.685 372.5,248.5 Z"/></g>
<g><path style="opacity:0.004" fill="#0f0f10" d="M 583.5,248.5 C 584.833,249.167 584.833,249.167 583.5,248.5 Z"/></g>
<g><path style="opacity:0.008" fill="#111211" d="M 529.5,249.5 C 530.833,250.167 530.833,250.167 529.5,249.5 Z"/></g>
<g><path style="opacity:0.004" fill="#131011" d="M 586.5,248.5 C 587.525,248.897 587.692,249.563 587,250.5C 586.536,249.906 586.369,249.239 586.5,248.5 Z"/></g>
<g><path style="opacity:0.012" fill="#101011" d="M 910.5,249.5 C 911.833,250.167 911.833,250.167 910.5,249.5 Z"/></g>
<g><path style="opacity:0.004" fill="#10100e" d="M 359.5,250.5 C 360.833,251.167 360.833,251.167 359.5,250.5 Z"/></g>
<g><path style="opacity:0.004" fill="#10100f" d="M 354.5,252.5 C 355.833,253.167 355.833,253.167 354.5,252.5 Z"/></g>
<g><path style="opacity:0.004" fill="#121111" d="M 587.5,253.5 C 586.833,252.167 586.833,252.167 587.5,253.5 Z"/></g>
<g><path style="opacity:0.004" fill="#111111" d="M 587.5,253.5 C 588.525,253.897 588.692,254.563 588,255.5C 587.536,254.906 587.369,254.239 587.5,253.5 Z"/></g>
<g><path style="opacity:0.008" fill="#110f10" d="M 346.5,256.5 C 345.448,256.649 344.448,256.483 343.5,256C 344.749,255.26 345.749,255.427 346.5,256.5 Z"/></g>
<g><path style="opacity:0.008" fill="#0f0f0f" d="M 548.5,255.5 C 549.833,256.167 549.833,256.167 548.5,255.5 Z"/></g>
<g><path style="opacity:0.008" fill="#0d0d0f" d="M 550.5,255.5 C 551.833,256.167 551.833,256.167 550.5,255.5 Z"/></g>
<g><path style="opacity:0.008" fill="#0f0f0e" d="M 338.5,259.5 C 337.448,259.649 336.448,259.483 335.5,259C 336.749,258.26 337.749,258.427 338.5,259.5 Z"/></g>
<g><path style="opacity:0.004" fill="#121314" d="M 907.5,261.5 C 908.525,261.897 908.692,262.563 908,263.5C 907.536,262.906 907.369,262.239 907.5,261.5 Z"/></g>
<g><path style="opacity:0.012" fill="#0f1010" d="M 323.5,263.5 C 324.833,264.167 324.833,264.167 323.5,263.5 Z"/></g>
<g><path style="opacity:0.004" fill="#0e0f0c" d="M 318.5,264.5 C 319.833,265.167 319.833,265.167 318.5,264.5 Z"/></g>
<g><path style="opacity:0.004" fill="#101210" d="M 592.5,268.5 C 592.631,269.239 592.464,269.906 592,270.5C 591.308,269.563 591.475,268.897 592.5,268.5 Z"/></g>
<g><path style="opacity:0.024" fill="#0f0f0d" d="M 306.5,272.5 C 305.448,272.649 304.448,272.483 303.5,272C 304.749,271.26 305.749,271.427 306.5,272.5 Z"/></g>
<g><path style="opacity:0.008" fill="#0f0e0f" d="M 592.5,271.5 C 593.525,271.897 593.692,272.563 593,273.5C 592.536,272.906 592.369,272.239 592.5,271.5 Z"/></g>
<g><path style="opacity:0.004" fill="#10100e" d="M 295.5,272.5 C 296.833,273.167 296.833,273.167 295.5,272.5 Z"/></g>
<g><path style="opacity:0.008" fill="#0c0e0e" d="M 902.5,277.5 C 903.833,278.167 903.833,278.167 902.5,277.5 Z"/></g>
<g><path style="opacity:0.004" fill="#10110f" d="M 592.5,278.5 C 593.833,279.167 593.833,279.167 592.5,278.5 Z"/></g>
<g><path style="opacity:0.014" fill="#0f0e0d" d="M 289.5,280.5 C 288.761,280.631 288.094,280.464 287.5,280C 288.437,279.308 289.103,279.475 289.5,280.5 Z"/></g>
<g><path style="opacity:0.008" fill="#0d0e0c" d="M 566.5,279.5 C 567.833,280.167 567.833,280.167 566.5,279.5 Z"/></g>
<g><path style="opacity:0.004" fill="#101110" d="M 596.5,284.5 C 597.833,285.167 597.833,285.167 596.5,284.5 Z"/></g>
<g><path style="opacity:0.004" fill="#111113" d="M 899.5,285.5 C 900.833,286.167 900.833,286.167 899.5,285.5 Z"/></g>
<g><path style="opacity:0.008" fill="#0e0f0f" d="M 599.5,290.5 C 600.833,291.167 600.833,291.167 599.5,290.5 Z"/></g>
<g><path style="opacity:0.004" fill="#111110" d="M 599.5,292.5 C 600.833,293.167 600.833,293.167 599.5,292.5 Z"/></g>
<g><path style="opacity:0.008" fill="#111011" d="M 602.5,294.5 C 601.833,295.167 601.833,295.167 602.5,294.5 Z"/></g>
<g><path style="opacity:0.008" fill="#0d0c0a" d="M 260.5,295.5 C 261.833,296.167 261.833,296.167 260.5,295.5 Z"/></g>
<g><path style="opacity:0.004" fill="#0c0b0b" d="M 258.5,298.5 C 257.833,297.167 257.833,297.167 258.5,298.5 Z"/></g>
<g><path style="opacity:0.005" fill="#0f0f0e" d="M 603.5,299.5 C 604.267,300.172 604.934,301.005 605.5,302C 603.939,302.188 603.272,301.355 603.5,299.5 Z"/></g>
<g><path style="opacity:0.012" fill="#121111" d="M 893.5,299.5 C 894.833,300.167 894.833,300.167 893.5,299.5 Z"/></g>
<g><path style="opacity:0.004" fill="#0e110e" d="M 239.5,305.5 C 240.833,306.167 240.833,306.167 239.5,305.5 Z"/></g>
<g><path style="opacity:0.004" fill="#0d0d0d" d="M 246.5,306.5 C 245.833,306.5 245.5,306.833 245.5,307.5C 243.025,307.253 243.025,306.587 245.5,305.5C 246.107,305.624 246.44,305.957 246.5,306.5 Z"/></g>
<g><path style="opacity:0.012" fill="#0f0f0e" d="M 501.5,309.5 C 502.463,310.363 502.463,311.03 501.5,311.5C 500.227,310.743 500.227,310.077 501.5,309.5 Z"/></g>
<g><path style="opacity:0.004" fill="#090908" d="M 238.5,312.5 C 237.833,311.167 237.833,311.167 238.5,312.5 Z"/></g>
<g><path style="opacity:0.006" fill="#10100e" d="M 609.5,312.5 C 606.999,312.489 606.832,311.822 609,310.5C 609.464,311.094 609.631,311.761 609.5,312.5 Z"/></g>
<g><path style="opacity:0.004" fill="#0d0f0e" d="M 609.5,312.5 C 610.167,312.5 610.5,312.833 610.5,313.5C 610.167,313.167 609.833,312.833 609.5,312.5 Z"/></g>
<g><path style="opacity:0.004" fill="#0c0d0c" d="M 610.5,313.5 C 610.833,313.5 611.167,313.5 611.5,313.5C 611.315,314.17 610.981,314.17 610.5,313.5 Z"/></g>
<g><path style="opacity:0.004" fill="#0e100c" d="M 609.5,315.5 C 610.833,316.167 610.833,316.167 609.5,315.5 Z"/></g>
<g><path style="opacity:0.004" fill="#11110f" d="M 885.5,315.5 C 886.833,316.167 886.833,316.167 885.5,315.5 Z"/></g>
<g><path style="opacity:0.004" fill="#0e0f0c" d="M 611.5,316.5 C 612.833,317.167 612.833,317.167 611.5,316.5 Z"/></g>
<g><path style="opacity:0.008" fill="#0e0f0e" d="M 611.5,317.5 C 610.833,318.167 610.833,318.167 611.5,317.5 Z"/></g>
<g><path style="opacity:0.004" fill="#100f0d" d="M 612.5,318.5 C 613.833,319.167 613.833,319.167 612.5,318.5 Z"/></g>
<g><path style="opacity:0.004" fill="#0d0d0d" d="M 226.5,319.5 C 227.833,320.167 227.833,320.167 226.5,319.5 Z"/></g>
<g><path style="opacity:0.008" fill="#0e100f" d="M 883.5,319.5 C 884.833,320.167 884.833,320.167 883.5,319.5 Z"/></g>
<g><path style="opacity:0.016" fill="#0e0e0e" d="M 224.5,323.5 C 223.833,322.167 223.833,322.167 224.5,323.5 Z"/></g>
<g><path style="opacity:0.008" fill="#2e3031" d="M 425.5,322.5 C 425.5,324.167 425.5,325.833 425.5,327.5C 424.766,326.122 424.099,324.622 423.5,323C 424.094,322.536 424.761,322.369 425.5,322.5 Z"/></g>
<g><path style="opacity:0.004" fill="#11100e" d="M 616.5,326.5 C 617.833,327.167 617.833,327.167 616.5,326.5 Z"/></g>
<g><path style="opacity:0.004" fill="#101110" d="M 588.5,328.5 C 589.833,329.167 589.833,329.167 588.5,328.5 Z"/></g>
<g><path style="opacity:0.004" fill="#0e1010" d="M 618.5,329.5 C 617.833,328.167 617.833,328.167 618.5,329.5 Z"/></g>
<g><path style="opacity:0.004" fill="#0f1010" d="M 878.5,328.5 C 879.833,329.167 879.833,329.167 878.5,328.5 Z"/></g>
<g><path style="opacity:0.004" fill="#0f0e0e" d="M 214.5,329.5 C 215.833,330.167 215.833,330.167 214.5,329.5 Z"/></g>
<g><path style="opacity:0.004" fill="#0c0e0c" d="M 618.5,329.5 C 618.833,329.5 619.167,329.5 619.5,329.5C 619.315,330.17 618.981,330.17 618.5,329.5 Z"/></g>
<g><path style="opacity:0.004" fill="#0b0c0a" d="M 621.5,333.5 C 620.833,334.167 620.833,334.167 621.5,333.5 Z"/></g>
<g><path style="opacity:0.004" fill="#0f110f" d="M 875.5,333.5 C 876.833,334.167 876.833,334.167 875.5,333.5 Z"/></g>
<g><path style="opacity:0.005" fill="#292b2c" d="M 424.5,337.5 C 424.5,338.167 424.833,338.5 425.5,338.5C 425.5,339.5 425.5,340.5 425.5,341.5C 423.862,340.295 423.529,338.962 424.5,337.5 Z"/></g>
<g><path style="opacity:0.012" fill="#0c0d0b" d="M 624.5,338.5 C 623.833,339.167 623.833,339.167 624.5,338.5 Z"/></g>
<g><path style="opacity:0.008" fill="#0e0e0c" d="M 625.5,340.5 C 624.833,341.167 624.833,341.167 625.5,340.5 Z"/></g>
<g><path style="opacity:0.008" fill="#11120d" d="M 626.5,342.5 C 625.833,343.167 625.833,343.167 626.5,342.5 Z"/></g>
<g><path style="opacity:0.008" fill="#0d0e0c" d="M 196.5,349.5 C 195.833,348.167 195.833,348.167 196.5,349.5 Z"/></g>
<g><path style="opacity:0.004" fill="#0d0e0e" d="M 883.5,349.5 C 884.833,350.167 884.833,350.167 883.5,349.5 Z"/></g>
<g><path style="opacity:0.004" fill="#0d0f0a" d="M 192.5,353.5 C 191.833,352.167 191.833,352.167 192.5,353.5 Z"/></g>
<g><path style="opacity:0.004" fill="#0f0f0d" d="M 633.5,354.5 C 632.833,355.167 632.833,355.167 633.5,354.5 Z"/></g>
<g><path style="opacity:0.004" fill="#0f0f0e" d="M 187.5,356.5 C 188.833,357.167 188.833,357.167 187.5,356.5 Z"/></g>
<g><path style="opacity:0.004" fill="#10120f" d="M 603.5,357.5 C 604.833,358.167 604.833,358.167 603.5,357.5 Z"/></g>
<g><path style="opacity:0.004" fill="#101010" d="M 641.5,371.5 C 642.833,372.167 642.833,372.167 641.5,371.5 Z"/></g>
<g><path style="opacity:0.004" fill="#0f0f0f" d="M 854.5,371.5 C 855.833,372.167 855.833,372.167 854.5,371.5 Z"/></g>
<g><path style="opacity:0.008" fill="#0f0e0c" d="M 644.5,372.5 C 643.833,373.167 643.833,373.167 644.5,372.5 Z"/></g>
<g><path style="opacity:0.004" fill="#0f1011" d="M 851.5,373.5 C 852.833,374.167 852.833,374.167 851.5,373.5 Z"/></g>
<g><path style="opacity:0.004" fill="#0e0f0f" d="M 648.5,378.5 C 647.833,379.167 647.833,379.167 648.5,378.5 Z"/></g>
<g><path style="opacity:0.008" fill="#0f130e" d="M 648.5,382.5 C 647.833,381.167 647.833,381.167 648.5,382.5 Z"/></g>
<g><path style="opacity:0.004" fill="#0f1010" d="M 648.5,382.5 C 649.833,383.167 649.833,383.167 648.5,382.5 Z"/></g>
<g><path style="opacity:0.012" fill="#100f0d" d="M 164.5,384.5 C 165.833,385.167 165.833,385.167 164.5,384.5 Z"/></g>
<g><path style="opacity:0.008" fill="#0d120d" d="M 160.5,390.5 C 161.833,391.167 161.833,391.167 160.5,390.5 Z"/></g>
<g><path style="opacity:0.012" fill="#10110e" d="M 657.5,392.5 C 656.833,393.167 656.833,393.167 657.5,392.5 Z"/></g>
<g><path style="opacity:0.008" fill="#100f0e" d="M 656.5,393.5 C 656.631,394.239 656.464,394.906 656,395.5C 655.308,394.563 655.475,393.897 656.5,393.5 Z"/></g>
<g><path style="opacity:0.012" fill="#0d0b0a" d="M 632.5,395.5 C 631.833,394.167 631.833,394.167 632.5,395.5 Z"/></g>
<g><path style="opacity:0.004" fill="#0d0d0e" d="M 635.5,394.5 C 636.833,395.167 636.833,395.167 635.5,394.5 Z"/></g>
<g><path style="opacity:0.006" fill="#0f100f" d="M 659.5,396.5 C 659.833,396.5 660.167,396.5 660.5,396.5C 660.539,397.756 660.039,398.756 659,399.5C 658.53,398.423 658.697,397.423 659.5,396.5 Z"/></g>
<g><path style="opacity:0.039" fill="#1c1e1e" d="M 618.5,397.5 C 619.82,398.942 621.486,399.608 623.5,399.5C 620.458,402.807 618.791,402.141 618.5,397.5 Z"/></g>
<g><path style="opacity:0.012" fill="#0f110f" d="M 638.5,401.5 C 638.369,400.761 638.536,400.094 639,399.5C 639.692,400.437 639.525,401.103 638.5,401.5 Z"/></g>
<g><path style="opacity:0.012" fill="#11100e" d="M 664.5,402.5 C 663.833,403.167 663.833,403.167 664.5,402.5 Z"/></g>
<g><path style="opacity:0.008" fill="#121110" d="M 665.5,404.5 C 664.833,405.167 664.833,405.167 665.5,404.5 Z"/></g>
<g><path style="opacity:0.004" fill="#10100f" d="M 830.5,408.5 C 829.833,407.167 829.833,407.167 830.5,408.5 Z"/></g>
<g><path style="opacity:0.004" fill="#101010" d="M 148.5,408.5 C 149.833,409.167 149.833,409.167 148.5,408.5 Z"/></g>
<g><path style="opacity:0.004" fill="#100e0e" d="M 829.5,408.5 C 828.833,409.167 828.833,409.167 829.5,408.5 Z"/></g>
<g><path style="opacity:0.004" fill="#10100f" d="M 830.5,408.5 C 831.833,409.167 831.833,409.167 830.5,408.5 Z"/></g>
<g><path style="opacity:0.004" fill="#0f110f" d="M 643.5,410.5 C 644.833,411.167 644.833,411.167 643.5,410.5 Z"/></g>
<g><path style="opacity:0.008" fill="#111210" d="M 146.5,412.5 C 147.833,413.167 147.833,413.167 146.5,412.5 Z"/></g>
<g><path style="opacity:0.004" fill="#121212" d="M 144.5,415.5 C 145.833,416.167 145.833,416.167 144.5,415.5 Z"/></g>
<g><path style="opacity:0.006" fill="#0d0d0d" d="M 556.5,418.5 C 553.093,418.875 552.593,417.875 555,415.5C 555.513,416.527 556.013,417.527 556.5,418.5 Z"/></g>
<g><path style="opacity:0.004" fill="#0e0d0d" d="M 673.5,415.5 C 672.833,416.167 672.833,416.167 673.5,415.5 Z"/></g>
<g><path style="opacity:0.016" fill="#111210" d="M 143.5,417.5 C 144.833,418.167 144.833,418.167 143.5,417.5 Z"/></g>
<g><path style="opacity:0.006" fill="#10100e" d="M 676.5,420.5 C 676.631,421.239 676.464,421.906 676,422.5C 675.308,421.563 675.475,420.897 676.5,420.5 Z"/></g>
<g><path style="opacity:0.004" fill="#110f0e" d="M 679.5,426.5 C 680.833,427.167 680.833,427.167 679.5,426.5 Z"/></g>
<g><path style="opacity:0.008" fill="#131213" d="M 136.5,431.5 C 137.833,432.167 137.833,432.167 136.5,431.5 Z"/></g>
<g><path style="opacity:0.004" fill="#111210" d="M 813.5,433.5 C 812.833,432.167 812.833,432.167 813.5,433.5 Z"/></g>
<g><path style="opacity:0.004" fill="#131212" d="M 136.5,432.5 C 136.5,433.5 136.5,434.5 136.5,435.5C 135.167,434.5 135.167,433.5 136.5,432.5 Z"/></g>
<g><path style="opacity:0.008" fill="#131310" d="M 811.5,433.5 C 811.833,433.5 812.167,433.5 812.5,433.5C 812.315,434.17 811.981,434.17 811.5,433.5 Z"/></g>
<g><path style="opacity:0.004" fill="#12130f" d="M 813.5,433.5 C 814.833,434.167 814.833,434.167 813.5,433.5 Z"/></g>
<g><path style="opacity:0.008" fill="#0f1310" d="M 689.5,438.5 C 688.833,439.167 688.833,439.167 689.5,438.5 Z"/></g>
<g><path style="opacity:0.004" fill="#111011" d="M 812.5,438.5 C 813.833,439.167 813.833,439.167 812.5,438.5 Z"/></g>
<g><path style="opacity:0.012" fill="#121211" d="M 690.5,440.5 C 689.833,441.167 689.833,441.167 690.5,440.5 Z"/></g>
<g><path style="opacity:0.004" fill="#121212" d="M 131.5,441.5 C 132.833,442.167 132.833,442.167 131.5,441.5 Z"/></g>
<g><path style="opacity:0.004" fill="#111110" d="M 689.5,442.5 C 690.833,443.167 690.833,443.167 689.5,442.5 Z"/></g>
<g><path style="opacity:0.004" fill="#141213" d="M 692.5,443.5 C 691.833,444.167 691.833,444.167 692.5,443.5 Z"/></g>
<g><path style="opacity:0.004" fill="#121412" d="M 128.5,448.5 C 129.833,449.167 129.833,449.167 128.5,448.5 Z"/></g>
<g><path style="opacity:0.004" fill="#121213" d="M 696.5,448.5 C 695.833,449.167 695.833,449.167 696.5,448.5 Z"/></g>
<g><path style="opacity:0.006" fill="#101011" d="M 127.5,450.5 C 128.525,450.897 128.692,451.563 128,452.5C 127.536,451.906 127.369,451.239 127.5,450.5 Z"/></g>
<g><path style="opacity:0.004" fill="#131313" d="M 696.5,450.5 C 697.833,451.167 697.833,451.167 696.5,450.5 Z"/></g>
<g><path style="opacity:0.004" fill="#121311" d="M 695.5,454.5 C 696.833,455.167 696.833,455.167 695.5,454.5 Z"/></g>
<g><path style="opacity:0.008" fill="#2a2829" d="M 309.5,459.5 C 308.662,459.842 308.328,460.508 308.5,461.5C 308.167,461.5 307.833,461.5 307.5,461.5C 307.281,460.325 307.614,459.325 308.5,458.5C 309.107,458.624 309.44,458.957 309.5,459.5 Z"/></g>
<g><path style="opacity:0.004" fill="#0f0d0e" d="M 308.5,461.5 C 311.001,461.511 311.168,462.178 309,463.5C 308.536,462.906 308.369,462.239 308.5,461.5 Z"/></g>
<g><path style="opacity:0.004" fill="#141413" d="M 705.5,461.5 C 704.833,462.167 704.833,462.167 705.5,461.5 Z"/></g>
<g><path style="opacity:0.004" fill="#141313" d="M 795.5,461.5 C 796.833,462.167 796.833,462.167 795.5,461.5 Z"/></g>
<g><path style="opacity:0.004" fill="#151615" d="M 708.5,465.5 C 707.833,466.167 707.833,466.167 708.5,465.5 Z"/></g>
<g><path style="opacity:0.004" fill="#151412" d="M 121.5,466.5 C 122.833,467.167 122.833,467.167 121.5,466.5 Z"/></g>
<g><path style="opacity:0.008" fill="#141414" d="M 790.5,466.5 C 791.525,466.897 791.692,467.563 791,468.5C 790.536,467.906 790.369,467.239 790.5,466.5 Z"/></g>
<g><path style="opacity:0.004" fill="#161514" d="M 787.5,468.5 C 788.833,469.167 788.833,469.167 787.5,468.5 Z"/></g>
<g><path style="opacity:0.008" fill="#0e100e" d="M 120.5,470.5 C 121.833,471.167 121.833,471.167 120.5,470.5 Z"/></g>
<g><path style="opacity:0.004" fill="#121212" d="M 119.5,472.5 C 120.833,473.167 120.833,473.167 119.5,472.5 Z"/></g>
<g><path style="opacity:0.004" fill="#121312" d="M 641.5,472.5 C 642.833,473.167 642.833,473.167 641.5,472.5 Z"/></g>
<g><path style="opacity:0.004" fill="#151514" d="M 713.5,472.5 C 713.103,473.525 712.437,473.692 711.5,473C 712.094,472.536 712.761,472.369 713.5,472.5 Z"/></g>
<g><path style="opacity:0.004" fill="#161514" d="M 713.5,474.5 C 714.833,475.167 714.833,475.167 713.5,474.5 Z"/></g>
<g><path style="opacity:0.008" fill="#12110f" d="M 642.5,476.5 C 643.833,477.167 643.833,477.167 642.5,476.5 Z"/></g>
<g><path style="opacity:0.004" fill="#151513" d="M 716.5,476.5 C 717.167,476.5 717.5,476.833 717.5,477.5C 717.44,478.043 717.107,478.376 716.5,478.5C 715.227,477.743 715.227,477.077 716.5,476.5 Z"/></g>
<g><path style="opacity:0.008" fill="#10100e" d="M 642.5,478.5 C 643.833,479.167 643.833,479.167 642.5,478.5 Z"/></g>
<g><path style="opacity:0.006" fill="#2d2f30" d="M 425.5,481.5 C 425.5,483.167 425.5,484.833 425.5,486.5C 424.661,485.359 423.994,484.026 423.5,482.5C 423.957,481.702 424.624,481.369 425.5,481.5 Z"/></g>
<g><path style="opacity:0.004" fill="#121311" d="M 114.5,487.5 C 115.833,488.167 115.833,488.167 114.5,487.5 Z"/></g>
<g><path style="opacity:0.004" fill="#121310" d="M 113.5,490.5 C 114.833,491.167 114.833,491.167 113.5,490.5 Z"/></g>
<g><path style="opacity:0.004" fill="#1b1b19" d="M 736.5,499.5 C 736.833,499.5 737.167,499.5 737.5,499.5C 737.315,500.17 736.981,500.17 736.5,499.5 Z"/></g>
<g><path style="opacity:0.008" fill="#1a1b1a" d="M 736.5,500.5 C 735.833,501.167 735.833,501.167 736.5,500.5 Z"/></g>
<g><path style="opacity:0.016" fill="#1b1919" d="M 738.5,500.5 C 739.833,501.167 739.833,501.167 738.5,500.5 Z"/></g>
<g><path style="opacity:0.004" fill="#1b1a1b" d="M 758.5,500.5 C 759.833,501.167 759.833,501.167 758.5,500.5 Z"/></g>
<g><path style="opacity:0.004" fill="#0d0c0c" d="M 646.5,502.5 C 647.833,503.167 647.833,503.167 646.5,502.5 Z"/></g>
<g><path style="opacity:0.004" fill="#191a18" d="M 744.5,502.5 C 745.833,503.167 745.833,503.167 744.5,502.5 Z"/></g>
<g><path style="opacity:0.008" fill="#171618" d="M 747.5,503.5 C 747.897,502.475 748.563,502.308 749.5,503C 748.906,503.464 748.239,503.631 747.5,503.5 Z"/></g>
<g><path style="opacity:0.004" fill="#161716" d="M 750.5,502.5 C 751.833,503.167 751.833,503.167 750.5,502.5 Z"/></g>
<g><path style="opacity:0.004" fill="#313435" d="M 425.5,511.5 C 425.5,512.167 425.5,512.833 425.5,513.5C 423.067,513.214 423.067,512.548 425.5,511.5 Z"/></g>
<g><path style="opacity:0.004" fill="#1b1c19" d="M 774.5,520.5 C 773.833,519.167 773.833,519.167 774.5,520.5 Z"/></g>
<g><path style="opacity:0.004" fill="#181817" d="M 793.5,520.5 C 794.833,521.167 794.833,521.167 793.5,520.5 Z"/></g>
<g><path style="opacity:0.004" fill="#2e3031" d="M 424.5,521.5 C 424.5,522.167 424.833,522.5 425.5,522.5C 425.5,523.167 425.5,523.833 425.5,524.5C 423.618,523.779 423.285,522.779 424.5,521.5 Z"/></g>
<g><path style="opacity:0.004" fill="#141513" d="M 106.5,524.5 C 107.833,525.167 107.833,525.167 106.5,524.5 Z"/></g>
<g><path style="opacity:0.004" fill="#1b1a19" d="M 761.5,525.5 C 760.833,524.167 760.833,524.167 761.5,525.5 Z"/></g>
<g><path style="opacity:0.004" fill="#1c1b1d" d="M 746.5,528.5 C 747.251,527.427 748.251,527.26 749.5,528C 748.552,528.483 747.552,528.649 746.5,528.5 Z"/></g>
<g><path style="opacity:0.004" fill="#191818" d="M 794.5,527.5 C 795.833,528.167 795.833,528.167 794.5,527.5 Z"/></g>
<g><path style="opacity:0.004" fill="#121211" d="M 105.5,530.5 C 106.833,531.167 106.833,531.167 105.5,530.5 Z"/></g>
<g><path style="opacity:0.004" fill="#36393b" d="M 425.5,530.5 C 425.5,531.5 425.5,532.5 425.5,533.5C 423.443,531.957 423.443,530.957 425.5,530.5 Z"/></g>
<g><path style="opacity:0.133" fill="#2d2c2d" d="M 748.5,529.5 C 747.659,531.379 747.325,533.379 747.5,535.5C 746.853,534.726 746.52,533.726 746.5,532.5C 746.64,530.97 747.307,529.97 748.5,529.5 Z"/></g>
<g><path style="opacity:0.004" fill="#181918" d="M 795.5,538.5 C 796.833,539.167 796.833,539.167 795.5,538.5 Z"/></g>
<g><path style="opacity:0.004" fill="#1b1b1a" d="M 745.5,541.5 C 746.833,542.167 746.833,542.167 745.5,541.5 Z"/></g>
<g><path style="opacity:0.004" fill="#191918" d="M 795.5,541.5 C 796.833,542.167 796.833,542.167 795.5,541.5 Z"/></g>
<g><path style="opacity:0.008" fill="#19181a" d="M 745.5,543.5 C 746.525,543.897 746.692,544.563 746,545.5C 745.536,544.906 745.369,544.239 745.5,543.5 Z"/></g>
<g><path style="opacity:0.004" fill="#131112" d="M 103.5,544.5 C 104.573,545.251 104.74,546.251 104,547.5C 103.517,546.552 103.351,545.552 103.5,544.5 Z"/></g>
<g><path style="opacity:0.008" fill="#161717" d="M 743.5,546.5 C 744.833,547.167 744.833,547.167 743.5,546.5 Z"/></g>
<g><path style="opacity:0.004" fill="#151817" d="M 745.5,547.5 C 746.833,548.167 746.833,548.167 745.5,547.5 Z"/></g>
<g><path style="opacity:0.004" fill="#161514" d="M 745.5,554.5 C 746.833,555.167 746.833,555.167 745.5,554.5 Z"/></g>
<g><path style="opacity:0.276" fill="#1e1e1f" d="M 604.5,554.5 C 605.483,558.298 605.817,562.298 605.5,566.5C 604.127,566.657 602.793,566.49 601.5,566C 602.253,564.513 603.086,564.346 604,565.5C 604.499,561.848 604.665,558.182 604.5,554.5 Z"/></g>
<g><path style="opacity:0.008" fill="#111210" d="M 658.5,566.5 C 658.897,565.475 659.563,565.308 660.5,566C 659.906,566.464 659.239,566.631 658.5,566.5 Z"/></g>
<g><path style="opacity:0.004" fill="#0f1110" d="M 662.5,565.5 C 663.833,566.167 663.833,566.167 662.5,565.5 Z"/></g>
<g><path style="opacity:0.004" fill="#101110" d="M 667.5,565.5 C 668.833,566.167 668.833,566.167 667.5,565.5 Z"/></g>
<g><path style="opacity:0.004" fill="#111210" d="M 675.5,565.5 C 676.833,566.167 676.833,566.167 675.5,565.5 Z"/></g>
<g><path style="opacity:0.004" fill="#111111" d="M 682.5,566.5 C 682.897,565.475 683.563,565.308 684.5,566C 683.906,566.464 683.239,566.631 682.5,566.5 Z"/></g>
<g><path style="opacity:0.008" fill="#121310" d="M 699.5,565.5 C 700.833,566.167 700.833,566.167 699.5,565.5 Z"/></g>
<g><path style="opacity:0.008" fill="#101110" d="M 707.5,565.5 C 708.833,566.167 708.833,566.167 707.5,565.5 Z"/></g>
<g><path style="opacity:0.004" fill="#121210" d="M 715.5,566.5 C 715.897,565.475 716.563,565.308 717.5,566C 716.906,566.464 716.239,566.631 715.5,566.5 Z"/></g>
<g><path style="opacity:0.008" fill="#121310" d="M 723.5,565.5 C 724.833,566.167 724.833,566.167 723.5,565.5 Z"/></g>
<g><path style="opacity:0.006" fill="#131311" d="M 730.5,566.5 C 730.897,565.475 731.563,565.308 732.5,566C 731.906,566.464 731.239,566.631 730.5,566.5 Z"/></g>
<g><path style="opacity:0.008" fill="#111210" d="M 739.5,565.5 C 740.833,566.167 740.833,566.167 739.5,565.5 Z"/></g>
<g><path style="opacity:0.493" fill="#212222" d="M 748.5,562.5 C 748.5,564.5 748.5,566.5 748.5,568.5C 715.996,568.832 683.662,568.498 651.5,567.5C 683.5,567.5 715.5,567.5 747.5,567.5C 747.216,565.585 747.549,563.919 748.5,562.5 Z"/></g>
<g><path style="opacity:0.004" fill="#121412" d="M 797.5,583.5 C 798.833,584.167 798.833,584.167 797.5,583.5 Z"/></g>
<g><path style="opacity:0.22" fill="#1a1a1b" d="M 151.5,612.5 C 183.329,611.502 215.329,611.168 247.5,611.5C 247.5,617.833 247.5,624.167 247.5,630.5C 246.51,624.69 246.177,618.69 246.5,612.5C 239.5,612.5 232.5,612.5 225.5,612.5C 225.167,612.5 224.833,612.5 224.5,612.5C 224.167,612.5 223.833,612.5 223.5,612.5C 223.167,612.5 222.833,612.5 222.5,612.5C 205.167,612.5 187.833,612.5 170.5,612.5C 169.833,612.5 169.167,612.5 168.5,612.5C 162.833,612.5 157.167,612.5 151.5,612.5 Z"/></g>
<g><path style="opacity:0.226" fill="#1a1a1b" d="M 425.5,613.5 C 425.167,613.5 424.833,613.5 424.5,613.5C 417.687,612.509 410.687,612.175 403.5,612.5C 403.167,612.5 402.833,612.5 402.5,612.5C 396.5,612.5 390.5,612.5 384.5,612.5C 384.167,612.5 383.833,612.5 383.5,612.5C 381.5,612.5 379.5,612.5 377.5,612.5C 376.833,612.5 376.167,612.5 375.5,612.5C 366.167,612.5 356.833,612.5 347.5,612.5C 347.167,612.5 346.833,612.5 346.5,612.5C 346.167,612.5 345.833,612.5 345.5,612.5C 345.167,612.5 344.833,612.5 344.5,612.5C 339.5,612.5 334.5,612.5 329.5,612.5C 329.167,612.5 328.833,612.5 328.5,612.5C 326.167,612.5 323.833,612.5 321.5,612.5C 321.167,612.5 320.833,612.5 320.5,612.5C 313.5,612.5 306.5,612.5 299.5,612.5C 299.167,612.5 298.833,612.5 298.5,612.5C 298.167,612.5 297.833,612.5 297.5,612.5C 297.167,612.5 296.833,612.5 296.5,612.5C 295.209,612.263 294.209,612.596 293.5,613.5C 293.5,613.833 293.5,614.167 293.5,614.5C 293.5,617.167 293.5,619.833 293.5,622.5C 292.518,619.038 292.185,615.371 292.5,611.5C 337.179,610.839 381.513,611.505 425.5,613.5 Z"/></g>
<g><path style="opacity:0.227" fill="#181819" d="M 472.5,612.5 C 517.167,611.167 561.833,611.167 606.5,612.5C 602.5,612.833 602.5,613.167 606.5,613.5C 606.813,617.042 606.479,620.375 605.5,623.5C 605.664,620.813 605.497,618.146 605,615.5C 603.984,616.634 603.317,616.301 603,614.5C 596.068,614.342 588.735,614.676 581,615.5C 578.595,614.726 576.095,614.226 573.5,614C 574.5,613.667 575.5,613.333 576.5,613C 573.518,612.502 570.518,612.335 567.5,612.5C 567.167,612.5 566.833,612.5 566.5,612.5C 565.833,612.5 565.167,612.5 564.5,612.5C 563.833,612.5 563.167,612.5 562.5,612.5C 560.167,612.5 557.833,612.5 555.5,612.5C 554.5,612.5 553.5,612.5 552.5,612.5C 548.167,612.5 543.833,612.5 539.5,612.5C 539.167,612.5 538.833,612.5 538.5,612.5C 538.167,612.5 537.833,612.5 537.5,612.5C 537.167,612.5 536.833,612.5 536.5,612.5C 534.833,612.5 533.167,612.5 531.5,612.5C 531.167,612.5 530.833,612.5 530.5,612.5C 527.5,612.5 524.5,612.5 521.5,612.5C 521.167,612.5 520.833,612.5 520.5,612.5C 513.167,612.5 505.833,612.5 498.5,612.5C 498.167,612.5 497.833,612.5 497.5,612.5C 492.833,612.5 488.167,612.5 483.5,612.5C 482.167,612.5 480.833,612.5 479.5,612.5C 477.167,612.5 474.833,612.5 472.5,612.5 Z"/></g>
<g><path style="opacity:0.234" fill="#1a1a1a" d="M 747.5,612.5 C 741.5,612.5 735.5,612.5 729.5,612.5C 729.167,612.5 728.833,612.5 728.5,612.5C 716.167,612.5 703.833,612.5 691.5,612.5C 691.167,612.5 690.833,612.5 690.5,612.5C 685.5,612.5 680.5,612.5 675.5,612.5C 675.167,612.5 674.833,612.5 674.5,612.5C 674.167,612.5 673.833,612.5 673.5,612.5C 673.167,612.5 672.833,612.5 672.5,612.5C 668.167,612.5 663.833,612.5 659.5,612.5C 659.167,612.5 658.833,612.5 658.5,612.5C 656.5,612.5 654.5,612.5 652.5,612.5C 652.795,614.735 652.461,616.735 651.5,618.5C 651.5,616.167 651.5,613.833 651.5,611.5C 683.671,611.168 715.671,611.502 747.5,612.5 Z"/></g>
<g><path style="opacity:0.016" fill="#0f0f0f" d="M 168.5,612.5 C 169.167,612.5 169.833,612.5 170.5,612.5C 187.833,613.833 205.167,613.833 222.5,612.5C 222.833,612.5 223.167,612.5 223.5,612.5C 223.833,613.833 224.167,613.833 224.5,612.5C 224.833,612.5 225.167,612.5 225.5,612.5C 232.012,613.167 238.679,613.833 245.5,614.5C 245.333,614.833 245.167,615.167 245,615.5C 213.976,614.473 182.81,614.473 151.5,615.5C 151.5,614.833 151.5,614.167 151.5,613.5C 157.358,613.822 163.025,613.489 168.5,612.5 Z"/></g>
<g><path style="opacity:0.015" fill="#0e0e0e" d="M 479.5,612.5 C 480.833,612.5 482.167,612.5 483.5,612.5C 488.167,613.833 492.833,613.833 497.5,612.5C 497.833,612.5 498.167,612.5 498.5,612.5C 505.833,613.833 513.167,613.833 520.5,612.5C 520.833,612.5 521.167,612.5 521.5,612.5C 524.5,613.833 527.5,613.833 530.5,612.5C 530.833,612.5 531.167,612.5 531.5,612.5C 533.167,613.833 534.833,613.833 536.5,612.5C 536.833,612.5 537.167,612.5 537.5,612.5C 537.833,613.833 538.167,613.833 538.5,612.5C 538.833,612.5 539.167,612.5 539.5,612.5C 543.833,613.833 548.167,613.833 552.5,612.5C 553.5,612.5 554.5,612.5 555.5,612.5C 557.833,613.833 560.167,613.833 562.5,612.5C 563.167,612.5 563.833,612.5 564.5,612.5C 565.167,613.833 565.833,613.833 566.5,612.5C 566.833,612.5 567.167,612.5 567.5,612.5C 568.952,613.302 570.618,613.802 572.5,614C 568.579,614.203 564.745,614.703 561,615.5C 537,614.167 513,614.167 489,615.5C 485.428,615.167 482.261,614.167 479.5,612.5 Z"/></g>
<g><path style="opacity:0.016" fill="#0f0f0f" d="M 658.5,612.5 C 658.833,612.5 659.167,612.5 659.5,612.5C 663.833,613.833 668.167,613.833 672.5,612.5C 672.833,612.5 673.167,612.5 673.5,612.5C 673.833,613.833 674.167,613.833 674.5,612.5C 674.833,612.5 675.167,612.5 675.5,612.5C 680.5,613.833 685.5,613.833 690.5,612.5C 690.833,612.5 691.167,612.5 691.5,612.5C 703.833,613.833 716.167,613.833 728.5,612.5C 728.833,612.5 729.167,612.5 729.5,612.5C 735.31,613.49 741.31,613.823 747.5,613.5C 747.802,616.059 747.468,618.393 746.5,620.5C 746.662,618.473 746.495,616.473 746,614.5C 715.801,614.179 685.468,614.512 655,615.5C 654.5,615 654,614.5 653.5,614C 655.382,613.802 657.048,613.302 658.5,612.5 Z"/></g>
<g><path style="opacity:0.015" fill="#0e0e0e" d="M 296.5,612.5 C 296.833,612.5 297.167,612.5 297.5,612.5C 297.833,613.833 298.167,613.833 298.5,612.5C 298.833,612.5 299.167,612.5 299.5,612.5C 306.5,613.833 313.5,613.833 320.5,612.5C 320.833,612.5 321.167,612.5 321.5,612.5C 323.833,613.833 326.167,613.833 328.5,612.5C 328.833,612.5 329.167,612.5 329.5,612.5C 334.5,613.833 339.5,613.833 344.5,612.5C 344.833,612.5 345.167,612.5 345.5,612.5C 345.833,613.833 346.167,613.833 346.5,612.5C 346.833,612.5 347.167,612.5 347.5,612.5C 356.833,613.833 366.167,613.833 375.5,612.5C 376.167,612.5 376.833,612.5 377.5,612.5C 379.5,613.833 381.5,613.833 383.5,612.5C 383.833,612.5 384.167,612.5 384.5,612.5C 390.5,613.833 396.5,613.833 402.5,612.5C 402.833,612.5 403.167,612.5 403.5,612.5C 410.313,613.491 417.313,613.825 424.5,613.5C 413.765,614.177 402.931,614.844 392,615.5C 358.889,614.911 326.055,614.578 293.5,614.5C 293.5,614.167 293.5,613.833 293.5,613.5C 294.791,613.737 295.791,613.404 296.5,612.5 Z"/></g>
<g><path style="opacity:0.004" fill="#151515" d="M 795.5,621.5 C 796.833,622.167 796.833,622.167 795.5,621.5 Z"/></g>
<g><path style="opacity:0.004" fill="#101111" d="M 104.5,629.5 C 103.833,630.167 103.833,630.167 104.5,629.5 Z"/></g>
<g><path style="opacity:0.004" fill="#131212" d="M 794.5,631.5 C 795.833,632.167 795.833,632.167 794.5,631.5 Z"/></g>
<g><path style="opacity:0.004" fill="#131410" d="M 105.5,645.5 C 106.833,646.167 106.833,646.167 105.5,645.5 Z"/></g>
<g><path style="opacity:0.008" fill="#141612" d="M 105.5,647.5 C 106.833,648.167 106.833,648.167 105.5,647.5 Z"/></g>
<g><path style="opacity:0.008" fill="#131311" d="M 106.5,652.5 C 107.833,653.167 107.833,653.167 106.5,652.5 Z"/></g>
<g><path style="opacity:0.008" fill="#111211" d="M 107.5,657.5 C 108.833,658.167 108.833,658.167 107.5,657.5 Z"/></g>
<g><path style="opacity:0.004" fill="#121311" d="M 107.5,659.5 C 108.833,660.167 108.833,660.167 107.5,659.5 Z"/></g>
<g><path style="opacity:0.008" fill="#131315" d="M 787.5,669.5 C 788.525,669.897 788.692,670.563 788,671.5C 787.536,670.906 787.369,670.239 787.5,669.5 Z"/></g>
<g><path style="opacity:0.004" fill="#0e1110" d="M 113.5,678.5 C 112.833,679.167 112.833,679.167 113.5,678.5 Z"/></g>
<g><path style="opacity:0.008" fill="#111211" d="M 113.5,682.5 C 114.525,682.897 114.692,683.563 114,684.5C 113.536,683.906 113.369,683.239 113.5,682.5 Z"/></g>
<g><path style="opacity:0.008" fill="#0f1111" d="M 114.5,687.5 C 115.833,688.167 115.833,688.167 114.5,687.5 Z"/></g>
<g><path style="opacity:0.004" fill="#111011" d="M 111.5,688.5 C 112.833,689.167 112.833,689.167 111.5,688.5 Z"/></g>
<g><path style="opacity:0.004" fill="#121112" d="M 115.5,689.5 C 116.525,689.897 116.692,690.563 116,691.5C 115.536,690.906 115.369,690.239 115.5,689.5 Z"/></g>
<g><path style="opacity:0.016" fill="#0e0f0c" d="M 116.5,692.5 C 117.833,693.167 117.833,693.167 116.5,692.5 Z"/></g>
<g><path style="opacity:0.004" fill="#100f10" d="M 120.5,701.5 C 120.631,702.239 120.464,702.906 120,703.5C 119.308,702.563 119.475,701.897 120.5,701.5 Z"/></g>
<g><path style="opacity:0.012" fill="#101111" d="M 365.5,704.5 C 364.503,705.713 363.503,705.546 362.5,704C 363.577,703.53 364.577,703.697 365.5,704.5 Z"/></g>
<g><path style="opacity:0.11" fill="#212122" d="M 380.5,704.5 C 379.081,705.451 377.415,705.784 375.5,705.5C 375.369,704.624 375.702,703.957 376.5,703.5C 377.861,703.788 379.194,704.121 380.5,704.5 Z"/></g>
<g><path style="opacity:0.02" fill="#0c0c0a" d="M 122.5,706.5 C 121.833,707.167 121.833,707.167 122.5,706.5 Z"/></g>
<g><path style="opacity:0.004" fill="#101112" d="M 122.5,710.5 C 123.833,711.167 123.833,711.167 122.5,710.5 Z"/></g>
<g><path style="opacity:0.004" fill="#0f0f0e" d="M 318.5,712.5 C 319.043,712.56 319.376,712.893 319.5,713.5C 318.743,714.773 318.077,714.773 317.5,713.5C 318.167,713.5 318.5,713.167 318.5,712.5 Z"/></g>
<g><path style="opacity:0.012" fill="#111210" d="M 128.5,722.5 C 127.833,723.167 127.833,723.167 128.5,722.5 Z"/></g>
<g><path style="opacity:0.004" fill="#141110" d="M 127.5,724.5 C 128.833,725.167 128.833,725.167 127.5,724.5 Z"/></g>
<g><path style="opacity:0.008" fill="#11120f" d="M 129.5,727.5 C 130.833,728.167 130.833,728.167 129.5,727.5 Z"/></g>
<g><path style="opacity:0.02" fill="#0e100e" d="M 763.5,738.5 C 764.833,739.167 764.833,739.167 763.5,738.5 Z"/></g>
<g><path style="opacity:0.007" fill="#10100f" d="M 137.5,744.5 C 138.267,745.172 138.934,746.005 139.5,747C 137.939,747.188 137.272,746.355 137.5,744.5 Z"/></g>
<g><path style="opacity:0.004" fill="#0f100d" d="M 136.5,748.5 C 137.833,749.167 137.833,749.167 136.5,748.5 Z"/></g>
<g><path style="opacity:0.004" fill="#0f100f" d="M 139.5,749.5 C 138.833,748.167 138.833,748.167 139.5,749.5 Z"/></g>
<g><path style="opacity:0.02" fill="#0e110f" d="M 139.5,749.5 C 140.167,749.5 140.5,749.833 140.5,750.5C 140.167,750.167 139.833,749.833 139.5,749.5 Z"/></g>
<g><path style="opacity:0.004" fill="#100f0e" d="M 140.5,750.5 C 141.833,751.167 141.833,751.167 140.5,750.5 Z"/></g>
<g><path style="opacity:0.004" fill="#12110f" d="M 757.5,753.5 C 758.833,754.167 758.833,754.167 757.5,753.5 Z"/></g>
<g><path style="opacity:0.004" fill="#0e0c0c" d="M 754.5,756.5 C 755.833,757.167 755.833,757.167 754.5,756.5 Z"/></g>
<g><path style="opacity:0.008" fill="#0e0f0d" d="M 145.5,762.5 C 146.833,763.167 146.833,763.167 145.5,762.5 Z"/></g>
<g><path style="opacity:0.004" fill="#120f0f" d="M 146.5,764.5 C 147.833,765.167 147.833,765.167 146.5,764.5 Z"/></g>
<g><path style="opacity:0.004" fill="#0f0f0c" d="M 149.5,764.5 C 148.833,765.167 148.833,765.167 149.5,764.5 Z"/></g>
<g><path style="opacity:0.006" fill="#100f0f" d="M 567.5,764.5 C 569.355,764.272 570.188,764.939 570,766.5C 568.984,765.366 568.317,765.699 568,767.5C 567.517,766.552 567.351,765.552 567.5,764.5 Z"/></g>
<g><path style="opacity:0.019" fill="#2a2b2d" d="M 425.5,751.5 C 425.5,759.833 425.5,768.167 425.5,776.5C 424.833,776.5 424.5,776.833 424.5,777.5C 424.167,777.5 423.833,777.5 423.5,777.5C 423.816,768.782 424.483,760.116 425.5,751.5 Z"/></g>
<g><path style="opacity:0.008" fill="#0e0f0c" d="M 153.5,770.5 C 152.833,771.167 152.833,771.167 153.5,770.5 Z"/></g>
<g><path style="opacity:0.008" fill="#0e0d0d" d="M 154.5,772.5 C 153.833,773.167 153.833,773.167 154.5,772.5 Z"/></g>
<g><path style="opacity:0.004" fill="#100f0e" d="M 159.5,784.5 C 159.897,783.475 160.563,783.308 161.5,784C 160.906,784.464 160.239,784.631 159.5,784.5 Z"/></g>
<g><path style="opacity:0.004" fill="#0f100d" d="M 160.5,788.5 C 161.833,789.167 161.833,789.167 160.5,788.5 Z"/></g>
<g><path style="opacity:0.004" fill="#0e110c" d="M 166.5,790.5 C 165.833,791.167 165.833,791.167 166.5,790.5 Z"/></g>
<g><path style="opacity:0.02" fill="#2f3031" d="M 424.5,777.5 C 424.833,777.5 425.167,777.5 425.5,777.5C 425.5,784.5 425.5,791.5 425.5,798.5C 424.546,791.771 423.879,785.104 423.5,778.5C 424.167,778.5 424.5,778.167 424.5,777.5 Z"/></g>
<g><path style="opacity:0.004" fill="#0f0f0d" d="M 169.5,794.5 C 168.833,795.167 168.833,795.167 169.5,794.5 Z"/></g>
<g><path style="opacity:0.01" fill="#2e2f30" d="M 425.5,803.5 C 425.5,807.167 425.5,810.833 425.5,814.5C 424.751,813.469 424.085,812.302 423.5,811C 424.123,808.393 424.79,805.893 425.5,803.5 Z"/></g>
<g><path style="opacity:0.004" fill="#0e100f" d="M 185.5,814.5 C 184.833,815.167 184.833,815.167 185.5,814.5 Z"/></g>
<g><path style="opacity:0.004" fill="#0f100f" d="M 716.5,814.5 C 717.833,815.167 717.833,815.167 716.5,814.5 Z"/></g>
<g><path style="opacity:0.004" fill="#100e0c" d="M 183.5,818.5 C 184.833,819.167 184.833,819.167 183.5,818.5 Z"/></g>
<g><path style="opacity:0.008" fill="#0d0d0b" d="M 633.5,824.5 C 632.833,824.5 632.5,824.833 632.5,825.5C 631.227,824.923 631.227,824.257 632.5,823.5C 633.107,823.624 633.44,823.957 633.5,824.5 Z"/></g>
<g><path style="opacity:0.004" fill="#0e0e0a" d="M 193.5,826.5 C 194.833,827.167 194.833,827.167 193.5,826.5 Z"/></g>
<g><path style="opacity:0.004" fill="#0f0f0e" d="M 193.5,827.5 C 192.833,828.167 192.833,828.167 193.5,827.5 Z"/></g>
<g><path style="opacity:0.008" fill="#10100e" d="M 192.5,828.5 C 191.833,829.167 191.833,829.167 192.5,828.5 Z"/></g>
<g><path style="opacity:0.008" fill="#0f0e0d" d="M 298.5,828.5 C 298.833,828.5 299.167,828.5 299.5,828.5C 299.5,829.167 299.833,829.5 300.5,829.5C 299.699,831.793 299.032,831.46 298.5,828.5 Z"/></g>
<g><path style="opacity:0.004" fill="#100e0d" d="M 698.5,830.5 C 699.833,831.167 699.833,831.167 698.5,830.5 Z"/></g>
<g><path style="opacity:0.004" fill="#0e0d0c" d="M 203.5,834.5 C 202.833,835.167 202.833,835.167 203.5,834.5 Z"/></g>
<g><path style="opacity:0.006" fill="#0e0e0c" d="M 305.5,837.5 C 305.489,840.001 304.822,840.168 303.5,838C 304.094,837.536 304.761,837.369 305.5,837.5 Z"/></g>
<g><path style="opacity:0.004" fill="#10100e" d="M 208.5,842.5 C 209.833,843.167 209.833,843.167 208.5,842.5 Z"/></g>
<g><path style="opacity:0.008" fill="#2e3030" d="M 425.5,839.5 C 425.5,843.167 425.5,846.833 425.5,850.5C 424.79,848.107 424.123,845.607 423.5,843C 424.085,841.698 424.751,840.531 425.5,839.5 Z"/></g>
<g><path style="opacity:0.004" fill="#0f0e0d" d="M 218.5,848.5 C 217.833,849.167 217.833,849.167 218.5,848.5 Z"/></g>
<g><path style="opacity:0.004" fill="#0f110e" d="M 219.5,853.5 C 220.833,854.167 220.833,854.167 219.5,853.5 Z"/></g>
<g><path style="opacity:0.008" fill="#11130f" d="M 674.5,853.5 C 675.833,854.167 675.833,854.167 674.5,853.5 Z"/></g>
<g><path style="opacity:0.007" fill="#0f100f" d="M 578.5,856.5 C 579.773,857.077 579.773,857.743 578.5,858.5C 577.537,858.03 577.537,857.363 578.5,856.5 Z"/></g>
<g><path style="opacity:0.008" fill="#0b0a0a" d="M 582.5,857.5 C 581.227,856.923 581.227,856.257 582.5,855.5C 583.463,855.97 583.463,856.637 582.5,857.5 Z"/></g>
<g><path style="opacity:0.004" fill="#100f0e" d="M 666.5,860.5 C 667.833,861.167 667.833,861.167 666.5,860.5 Z"/></g>
<g><path style="opacity:0.004" fill="#0f110e" d="M 227.5,861.5 C 228.833,862.167 228.833,862.167 227.5,861.5 Z"/></g>
<g><path style="opacity:0.004" fill="#0e100f" d="M 242.5,868.5 C 241.833,869.167 241.833,869.167 242.5,868.5 Z"/></g>
<g><path style="opacity:0.004" fill="#0e0f0d" d="M 662.5,868.5 C 663.833,869.167 663.833,869.167 662.5,868.5 Z"/></g>
<g><path style="opacity:0.004" fill="#0e0e0e" d="M 247.5,874.5 C 248.833,875.167 248.833,875.167 247.5,874.5 Z"/></g>
<g><path style="opacity:0.008" fill="#0c0e0a" d="M 250.5,874.5 C 249.833,875.167 249.833,875.167 250.5,874.5 Z"/></g>
<g><path style="opacity:0.004" fill="#0e0e0f" d="M 250.5,877.5 C 251.833,878.167 251.833,878.167 250.5,877.5 Z"/></g>
<g><path style="opacity:0.004" fill="#10100e" d="M 256.5,878.5 C 255.833,879.167 255.833,879.167 256.5,878.5 Z"/></g>
<g><path style="opacity:0.004" fill="#10100f" d="M 644.5,878.5 C 645.833,879.167 645.833,879.167 644.5,878.5 Z"/></g>
<g><path style="opacity:0.318" fill="#2a282a" d="M 472.5,879.5 C 473.222,880.551 474.222,881.218 475.5,881.5C 474.791,882.404 473.791,882.737 472.5,882.5C 472.5,881.5 472.5,880.5 472.5,879.5 Z"/></g>
<g><path style="opacity:0.008" fill="#101310" d="M 265.5,884.5 C 264.833,885.167 264.833,885.167 265.5,884.5 Z"/></g>
<g><path style="opacity:0.004" fill="#101210" d="M 267.5,886.5 C 268.833,887.167 268.833,887.167 267.5,886.5 Z"/></g>
<g><path style="opacity:0.004" fill="#0d0d0e" d="M 272.5,888.5 C 271.833,889.167 271.833,889.167 272.5,888.5 Z"/></g>
<g><path style="opacity:0.008" fill="#0f0e0d" d="M 275.5,890.5 C 274.833,891.167 274.833,891.167 275.5,890.5 Z"/></g>
<g><path style="opacity:0.016" fill="#0e0f0d" d="M 622.5,890.5 C 623.833,891.167 623.833,891.167 622.5,890.5 Z"/></g>
<g><path style="opacity:0.004" fill="#0f110f" d="M 620.5,891.5 C 621.833,892.167 621.833,892.167 620.5,891.5 Z"/></g>
<g><path style="opacity:0.008" fill="#0f0f0e" d="M 281.5,894.5 C 282.833,895.167 282.833,895.167 281.5,894.5 Z"/></g>
<g><path style="opacity:0.004" fill="#0f110f" d="M 288.5,898.5 C 287.833,899.167 287.833,899.167 288.5,898.5 Z"/></g>
<g><path style="opacity:0.004" fill="#0f100c" d="M 289.5,898.5 C 289.833,898.5 290.167,898.5 290.5,898.5C 290.315,899.17 289.981,899.17 289.5,898.5 Z"/></g>
<g><path style="opacity:0.004" fill="#10100d" d="M 292.5,899.5 C 291.833,900.167 291.833,900.167 292.5,899.5 Z"/></g>
<g><path style="opacity:0.004" fill="#100f0e" d="M 294.5,900.5 C 293.833,901.167 293.833,901.167 294.5,900.5 Z"/></g>
<g><path style="opacity:0.004" fill="#111010" d="M 603.5,900.5 C 604.833,901.167 604.833,901.167 603.5,900.5 Z"/></g>
<g><path style="opacity:0.004" fill="#10110f" d="M 605.5,901.5 C 606.833,902.167 606.833,902.167 605.5,901.5 Z"/></g>
<g><path style="opacity:0.004" fill="#0d0d0d" d="M 292.5,902.5 C 293.833,903.167 293.833,903.167 292.5,902.5 Z"/></g>
<g><path style="opacity:0.004" fill="#10100f" d="M 297.5,902.5 C 298.833,903.167 298.833,903.167 297.5,902.5 Z"/></g>
<g><path style="opacity:0.004" fill="#10100e" d="M 605.5,902.5 C 604.833,903.167 604.833,903.167 605.5,902.5 Z"/></g>
<g><path style="opacity:0.005" fill="#0e0d0d" d="M 306.5,905.5 C 307.895,906.648 307.728,907.648 306,908.5C 305.26,907.251 305.427,906.251 306.5,905.5 Z"/></g>
<g><path style="opacity:0.004" fill="#0e0e0c" d="M 310.5,907.5 C 309.833,908.167 309.833,908.167 310.5,907.5 Z"/></g>
<g><path style="opacity:0.004" fill="#151514" d="M 312.5,908.5 C 311.833,909.167 311.833,909.167 312.5,908.5 Z"/></g>
<g><path style="opacity:0.004" fill="#131312" d="M 571.5,914.5 C 572.833,915.167 572.833,915.167 571.5,914.5 Z"/></g>
<g><path style="opacity:0.004" fill="#111210" d="M 328.5,915.5 C 329.833,916.167 329.833,916.167 328.5,915.5 Z"/></g>
<g><path style="opacity:0.004" fill="#111210" d="M 331.5,916.5 C 332.833,917.167 332.833,917.167 331.5,916.5 Z"/></g>
<g><path style="opacity:0.004" fill="#0d0f0d" d="M 334.5,916.5 C 333.833,917.167 333.833,917.167 334.5,916.5 Z"/></g>
<g><path style="opacity:0.004" fill="#0c0d0c" d="M 335.5,917.5 C 336.833,918.167 336.833,918.167 335.5,917.5 Z"/></g>
<g><path style="opacity:0.008" fill="#0d0e0d" d="M 340.5,918.5 C 339.833,919.167 339.833,919.167 340.5,918.5 Z"/></g>
<g><path style="opacity:0.004" fill="#131214" d="M 550.5,921.5 C 551.833,922.167 551.833,922.167 550.5,921.5 Z"/></g>
<g><path style="opacity:0.004" fill="#121310" d="M 548.5,922.5 C 549.833,923.167 549.833,923.167 548.5,922.5 Z"/></g>
<g><path style="opacity:0.004" fill="#101211" d="M 356.5,924.5 C 357.833,925.167 357.833,925.167 356.5,924.5 Z"/></g>
<g><path style="opacity:0.004" fill="#121213" d="M 364.5,925.5 C 364.5,925.833 364.5,926.167 364.5,926.5C 361.833,926.167 361.833,925.833 364.5,925.5 Z"/></g>
<g><path style="opacity:0.004" fill="#131211" d="M 537.5,926.5 C 537.897,925.475 538.563,925.308 539.5,926C 538.906,926.464 538.239,926.631 537.5,926.5 Z"/></g>
<g><path style="opacity:0.004" fill="#101011" d="M 356.5,926.5 C 357.833,927.167 357.833,927.167 356.5,926.5 Z"/></g>
<g><path style="opacity:0.004" fill="#13110f" d="M 364.5,926.5 C 365.833,927.167 365.833,927.167 364.5,926.5 Z"/></g>
<g><path style="opacity:0.008" fill="#111311" d="M 378.5,929.5 C 379.833,930.167 379.833,930.167 378.5,929.5 Z"/></g>
<g><path style="opacity:0.012" fill="#101310" d="M 383.5,930.5 C 384.833,931.167 384.833,931.167 383.5,930.5 Z"/></g>
<g><path style="opacity:0.008" fill="#11120d" d="M 385.5,930.5 C 386.833,931.167 386.833,931.167 385.5,930.5 Z"/></g>
<g><path style="opacity:0.004" fill="#141314" d="M 514.5,930.5 C 515.833,931.167 515.833,931.167 514.5,930.5 Z"/></g>
<g><path style="opacity:0.004" fill="#131211" d="M 388.5,931.5 C 389.833,932.167 389.833,932.167 388.5,931.5 Z"/></g>
<g><path style="opacity:0.004" fill="#141413" d="M 504.5,932.5 C 505.833,933.167 505.833,933.167 504.5,932.5 Z"/></g>
<g><path style="opacity:0.004" fill="#0c0d0b" d="M 307.5,933.5 C 308.833,934.167 308.833,934.167 307.5,933.5 Z"/></g>
<g><path style="opacity:0.004" fill="#131512" d="M 395.5,933.5 C 396.833,934.167 396.833,934.167 395.5,933.5 Z"/></g>
<g><path style="opacity:0.008" fill="#151515" d="M 399.5,934.5 C 399.897,933.475 400.563,933.308 401.5,934C 400.906,934.464 400.239,934.631 399.5,934.5 Z"/></g>
<g><path style="opacity:0.004" fill="#121210" d="M 403.5,933.5 C 404.833,934.167 404.833,934.167 403.5,933.5 Z"/></g>
<g><path style="opacity:0.004" fill="#141314" d="M 498.5,934.5 C 498.897,933.475 499.563,933.308 500.5,934C 499.906,934.464 499.239,934.631 498.5,934.5 Z"/></g>
<g><path style="opacity:0.009" fill="#141413" d="M 411.5,934.5 C 410.399,935.598 409.066,935.765 407.5,935C 408.793,934.51 410.127,934.343 411.5,934.5 Z"/></g>
<g><path style="opacity:0.004" fill="#141615" d="M 488.5,934.5 C 489.833,935.167 489.833,935.167 488.5,934.5 Z"/></g>
<g><path style="opacity:0.008" fill="#151614" d="M 491.5,934.5 C 492.833,935.167 492.833,935.167 491.5,934.5 Z"/></g>
<g><path style="opacity:0.004" fill="#000000" d="M 842.5,964.5 C 843.833,965.167 843.833,965.167 842.5,964.5 Z"/></g>
</svg>
