<?xml version="1.0" encoding="UTF-8"?>
<!DOCTYPE svg PUBLIC "-//W3C//DTD SVG 1.1//EN" "http://www.w3.org/Graphics/SVG/1.1/DTD/svg11.dtd">
<svg xmlns="http://www.w3.org/2000/svg" version="1.1" width="1024px" height="1024px" style="shape-rendering:geometricPrecision; text-rendering:geometricPrecision; image-rendering:optimizeQuality; fill-rule:evenodd; clip-rule:evenodd;  transform: scale(1.1);" xmlns:xlink="http://www.w3.org/1999/xlink">
<g><path style="opacity:0.004" fill="#232423" d="M 699.5,69.5 C 700.833,70.1667 700.833,70.1667 699.5,69.5 Z"/></g>
<g><path style="opacity:0.008" fill="#212222" d="M 662.5,72.5 C 663.251,71.4265 664.251,71.2599 665.5,72C 664.552,72.4828 663.552,72.6495 662.5,72.5 Z"/></g>
<g><path style="opacity:0.998" fill="#010000" d="M 702.5,72.5 C 706.011,73.6641 709.677,74.6641 713.5,75.5C 716.515,77.6744 719.849,79.3411 723.5,80.5C 739.608,90.3876 751.275,104.054 758.5,121.5C 758.284,123.681 759.117,125.347 761,126.5C 783.01,125.764 805.343,125.43 828,125.5C 832.629,126.011 837.129,127.011 841.5,128.5C 841.842,129.338 842.508,129.672 843.5,129.5C 857.153,136.534 863.819,147.868 863.5,163.5C 879.957,163.481 895.957,163.148 911.5,162.5C 912.167,162.5 912.833,162.5 913.5,162.5C 921.99,163.33 930.657,163.83 939.5,164C 955.187,168.354 964.687,178.521 968,194.5C 968.163,403.816 968.663,609.316 969.5,811C 969.403,818.42 968.069,825.587 965.5,832.5C 959.049,842.946 949.715,848.946 937.5,850.5C 804.167,850.5 670.833,850.5 537.5,850.5C 535.784,850.371 534.117,850.038 532.5,849.5C 531.833,848.167 530.833,847.167 529.5,846.5C 528.191,842.388 528.524,838.388 530.5,834.5C 535.854,830.113 540.52,825.113 544.5,819.5C 548.5,816.167 552.167,812.5 555.5,808.5C 557.5,807.167 559.167,805.5 560.5,803.5C 562.01,802.164 563.677,800.997 565.5,800C 679.5,799.667 793.5,799.333 907.5,799C 912.016,798.58 915.35,796.413 917.5,792.5C 919.714,790.005 920.881,787.005 921,783.5C 920.56,766.302 920.727,749.969 921.5,734.5C 921.5,732.167 921.5,729.833 921.5,727.5C 921.5,727.167 921.5,726.833 921.5,726.5C 921.5,724.833 921.5,723.167 921.5,721.5C 921.5,721.167 921.5,720.833 921.5,720.5C 921.5,674.833 921.5,629.167 921.5,583.5C 921.5,522.833 921.5,462.167 921.5,401.5C 921.5,374.167 921.5,346.833 921.5,319.5C 921.831,289.995 921.498,260.662 920.5,231.5C 919.502,227.495 917.502,224.161 914.5,221.5C 910.924,218.581 906.757,216.914 902,216.5C 889.567,216.635 876.734,216.635 863.5,216.5C 864.59,231.43 858.923,242.93 846.5,251C 843.688,252.549 840.688,253.382 837.5,253.5C 830.5,253.5 823.5,253.5 816.5,253.5C 722.167,253.5 627.833,253.5 533.5,253.5C 531.194,253.007 528.861,252.674 526.5,252.5C 525.5,252.5 524.5,252.5 523.5,252.5C 523.158,251.662 522.492,251.328 521.5,251.5C 519.14,249.147 516.473,247.147 513.5,245.5C 511.735,242.291 509.735,239.291 507.5,236.5C 507.672,235.508 507.338,234.842 506.5,234.5C 506.007,232.194 505.674,229.861 505.5,227.5C 505.815,223.629 505.482,219.962 504.5,216.5C 491.496,216.333 478.496,216.5 465.5,217C 453.907,218.448 447.907,225.281 447.5,237.5C 447.713,260.194 448.046,282.36 448.5,304C 447.987,310.509 444.987,315.509 439.5,319C 431.712,322.394 424.045,326.061 416.5,330C 410.903,331.18 405.903,330.013 401.5,326.5C 398.205,321.39 396.538,315.723 396.5,309.5C 396.768,275.266 396.768,241.1 396.5,207C 396.768,199.286 398.101,191.786 400.5,184.5C 402.153,181.869 403.819,179.203 405.5,176.5C 408.526,173.805 411.526,171.138 414.5,168.5C 421.17,164.778 428.336,162.778 436,162.5C 458.283,163.16 480.783,163.494 503.5,163.5C 505.344,161.721 506.01,159.388 505.5,156.5C 508.898,137.353 520.398,127.02 540,125.5C 540.383,126.056 540.883,126.389 541.5,126.5C 564.525,127.156 587.191,126.49 609.5,124.5C 610.257,120.317 611.59,116.317 613.5,112.5C 617.134,107.19 620.801,101.856 624.5,96.5C 646.268,75.2178 672.268,67.2178 702.5,72.5 Z M 705.5,129.5 C 706.5,129.833 707.167,130.5 707.5,131.5C 705.067,131.786 705.067,132.452 707.5,133.5C 708.006,135.105 708.673,135.439 709.5,134.5C 715.013,143.302 715.846,152.635 712,162.5C 710.723,164.747 709.223,166.747 707.5,168.5C 707.144,170.19 706.144,171.19 704.5,171.5C 702.929,174.231 700.595,176.065 697.5,177C 687.175,182.015 677.175,181.349 667.5,175C 665.627,173.296 663.96,171.463 662.5,169.5C 663.547,168.922 663.38,168.256 662,167.5C 661.601,167.728 661.435,168.062 661.5,168.5C 658.919,165.68 657.086,162.346 656,158.5C 653.524,145.928 657.024,135.428 666.5,127C 668.577,125.295 670.91,124.128 673.5,123.5C 683.428,119.077 693.095,119.911 702.5,126C 703.71,127.039 704.71,128.206 705.5,129.5 Z"/></g>
<g><path style="opacity:0.008" fill="#1e1e20" d="M 702.5,71.5 C 703.833,72.1667 703.833,72.1667 702.5,71.5 Z"/></g>
<g><path style="opacity:0.008" fill="#262521" d="M 704.5,71.5 C 705.833,72.1667 705.833,72.1667 704.5,71.5 Z"/></g>
<g><path style="opacity:0.004" fill="#222320" d="M 656.5,73.5 C 657.833,74.1667 657.833,74.1667 656.5,73.5 Z"/></g>
<g><path style="opacity:0.008" fill="#252521" d="M 713.5,74.5 C 714.833,75.1667 714.833,75.1667 713.5,74.5 Z"/></g>
<g><path style="opacity:0.004" fill="#201f20" d="M 649.5,76.5 C 650.833,77.1667 650.833,77.1667 649.5,76.5 Z"/></g>
<g><path style="opacity:0.004" fill="#1e1e1b" d="M 723.5,79.5 C 724.833,80.1667 724.833,80.1667 723.5,79.5 Z"/></g>
<g><path style="opacity:0.004" fill="#1f1e1d" d="M 726.5,80.5 C 727.833,81.1667 727.833,81.1667 726.5,80.5 Z"/></g>
<g><path style="opacity:0.004" fill="#232221" d="M 735.5,87.5 C 736.833,88.1667 736.833,88.1667 735.5,87.5 Z"/></g>
<g><path style="opacity:0.016" fill="#1e201e" d="M 624.5,96.5 C 623.833,95.1667 623.833,95.1667 624.5,96.5 Z"/></g>
<g><path style="opacity:0.004" fill="#211e1e" d="M 613.5,112.5 C 612.833,111.167 612.833,111.167 613.5,112.5 Z"/></g>
<g><path style="opacity:0.004" fill="#1e1c1b" d="M 607.5,114.5 C 608.833,115.167 608.833,115.167 607.5,114.5 Z"/></g>
<g><path style="opacity:0.01" fill="#1d1e1e" d="M 758.5,121.5 C 758.369,120.761 758.536,120.094 759,119.5C 759.692,120.437 759.525,121.103 758.5,121.5 Z"/></g>
<g><path style="opacity:0.008" fill="#1e1b1c" d="M 607.5,121.5 C 608.525,121.897 608.692,122.563 608,123.5C 607.536,122.906 607.369,122.239 607.5,121.5 Z"/></g>
<g><path style="opacity:0.004" fill="#22201e" d="M 569.5,122.5 C 570.833,123.167 570.833,123.167 569.5,122.5 Z"/></g>
<g><path style="opacity:0.004" fill="#1f1d1c" d="M 603.5,123.5 C 604.833,124.167 604.833,124.167 603.5,123.5 Z"/></g>
<g><path style="opacity:0.004" fill="#232221" d="M 530.5,124.5 C 531.833,125.167 531.833,125.167 530.5,124.5 Z"/></g>
<g><path style="opacity:0.004" fill="#1f1f1d" d="M 536.5,124.5 C 537.833,125.167 537.833,125.167 536.5,124.5 Z"/></g>
<g><path style="opacity:0.038" fill="#403f3e" d="M 609.5,124.5 C 587.191,126.49 564.525,127.156 541.5,126.5C 564.069,125.823 586.735,125.157 609.5,124.5 Z"/></g>
<g><path style="opacity:0.004" fill="#232322" d="M 520.5,128.5 C 521.833,129.167 521.833,129.167 520.5,128.5 Z"/></g>
<g><path style="opacity:0.012" fill="#2d2e2d" d="M 843.5,129.5 C 842.508,129.672 841.842,129.338 841.5,128.5C 843.838,126.989 844.504,127.323 843.5,129.5 Z"/></g>
<g><path style="opacity:0.004" fill="#212120" d="M 845.5,128.5 C 846.833,129.167 846.833,129.167 845.5,128.5 Z"/></g>
<g><path style="opacity:0.004" fill="#201f1d" d="M 707.5,131.5 C 707.5,132.167 707.5,132.833 707.5,133.5C 705.067,132.452 705.067,131.786 707.5,131.5 Z"/></g>
<g><path style="opacity:0.004" fill="#0e0f0e" d="M 259.5,141.5 C 260.833,142.167 260.833,142.167 259.5,141.5 Z"/></g>
<g><path style="opacity:0.004" fill="#222020" d="M 711.5,147.5 C 712.077,146.227 712.743,146.227 713.5,147.5C 713.03,148.463 712.363,148.463 711.5,147.5 Z"/></g>
<g><path style="opacity:0.024" fill="#424342" d="M 505.5,156.5 C 506.01,159.388 505.344,161.721 503.5,163.5C 503.5,163.167 503.5,162.833 503.5,162.5C 504.167,160.5 504.833,158.5 505.5,156.5 Z"/></g>
<g><path style="opacity:0.004" fill="#272525" d="M 903.5,159.5 C 904.833,160.167 904.833,160.167 903.5,159.5 Z"/></g>
<g><path style="opacity:0.004" fill="#262523" d="M 911.5,162.5 C 910.833,162.167 910.167,161.833 909.5,161.5C 908.031,159.895 908.365,159.395 910.5,160C 911.252,160.671 911.586,161.504 911.5,162.5 Z"/></g>
<g><path style="opacity:0.004" fill="#292a29" d="M 432.5,160.5 C 433.833,161.167 433.833,161.167 432.5,160.5 Z"/></g>
<g><path style="opacity:0.004" fill="#2a2a28" d="M 438.5,160.5 C 439.833,161.167 439.833,161.167 438.5,160.5 Z"/></g>
<g><path style="opacity:0.004" fill="#292a27" d="M 462.5,160.5 C 463.833,161.167 463.833,161.167 462.5,160.5 Z"/></g>
<g><path style="opacity:0.004" fill="#2c2c28" d="M 470.5,160.5 C 471.833,161.167 471.833,161.167 470.5,160.5 Z"/></g>
<g><path style="opacity:0.004" fill="#262724" d="M 881.5,160.5 C 882.833,161.167 882.833,161.167 881.5,160.5 Z"/></g>
<g><path style="opacity:0.004" fill="#262724" d="M 885.5,160.5 C 886.833,161.167 886.833,161.167 885.5,160.5 Z"/></g>
<g><path style="opacity:0.012" fill="#252623" d="M 903.5,160.5 C 902.833,161.167 902.833,161.167 903.5,160.5 Z"/></g>
<g><path style="opacity:0.004" fill="#262722" d="M 918.5,160.5 C 919.833,161.167 919.833,161.167 918.5,160.5 Z"/></g>
<g><path style="opacity:0.004" fill="#242624" d="M 921.5,160.5 C 922.833,161.167 922.833,161.167 921.5,160.5 Z"/></g>
<g><path style="opacity:0.004" fill="#242422" d="M 928.5,161.5 C 929.251,160.427 930.251,160.26 931.5,161C 930.552,161.483 929.552,161.649 928.5,161.5 Z"/></g>
<g><path style="opacity:0.004" fill="#262325" d="M 483.5,161.5 C 484.833,162.167 484.833,162.167 483.5,161.5 Z"/></g>
<g><path style="opacity:0.006" fill="#232420" d="M 503.5,162.5 C 502.761,162.631 502.094,162.464 501.5,162C 502.437,161.308 503.103,161.475 503.5,162.5 Z"/></g>
<g><path style="opacity:0.004" fill="#212221" d="M 864.5,161.5 C 865.833,162.167 865.833,162.167 864.5,161.5 Z"/></g>
<g><path style="opacity:0.008" fill="#21221f" d="M 867.5,162.5 C 867.897,161.475 868.563,161.308 869.5,162C 868.906,162.464 868.239,162.631 867.5,162.5 Z"/></g>
<g><path style="opacity:0.004" fill="#252423" d="M 909.5,161.5 C 909.103,162.525 908.437,162.692 907.5,162C 908.094,161.536 908.761,161.369 909.5,161.5 Z"/></g>
<g><path style="opacity:0.004" fill="#222221" d="M 913.5,161.5 C 914.833,162.167 914.833,162.167 913.5,161.5 Z"/></g>
<g><path style="opacity:0.004" fill="#222220" d="M 918.5,161.5 C 917.833,162.167 917.833,162.167 918.5,161.5 Z"/></g>
<g><path style="opacity:0.012" fill="#232221" d="M 936.5,162.5 C 936.897,161.475 937.563,161.308 938.5,162C 937.906,162.464 937.239,162.631 936.5,162.5 Z"/></g>
<g><path style="opacity:0.006" fill="#272726" d="M 422.5,163.5 C 422.897,162.475 423.563,162.308 424.5,163C 423.906,163.464 423.239,163.631 422.5,163.5 Z"/></g>
<g><path style="opacity:0.008" fill="#272724" d="M 414.5,168.5 C 413.833,167.167 413.833,167.167 414.5,168.5 Z"/></g>
<g><path style="opacity:0.008" fill="#252523" d="M 408.5,170.5 C 409.833,171.167 409.833,171.167 408.5,170.5 Z"/></g>
<g><path style="opacity:0.004" fill="#252422" d="M 405.5,176.5 C 404.833,175.167 404.833,175.167 405.5,176.5 Z"/></g>
<g><path style="opacity:0.012" fill="#232122" d="M 960.5,175.5 C 961.833,176.167 961.833,176.167 960.5,175.5 Z"/></g>
<g><path style="opacity:0.004" fill="#232321" d="M 400.5,178.5 C 399.833,177.167 399.833,177.167 400.5,178.5 Z"/></g>
<g><path style="opacity:0.004" fill="#252323" d="M 400.5,178.5 C 401.525,178.897 401.692,179.563 401,180.5C 400.536,179.906 400.369,179.239 400.5,178.5 Z"/></g>
<g><path style="opacity:0.004" fill="#232223" d="M 400.5,184.5 C 399.833,183.167 399.833,183.167 400.5,184.5 Z"/></g>
<g><path style="opacity:0.008" fill="#212020" d="M 965.5,183.5 C 966.833,184.167 966.833,184.167 965.5,183.5 Z"/></g>
<g><path style="opacity:0.008" fill="#212322" d="M 966.5,185.5 C 967.833,186.167 967.833,186.167 966.5,185.5 Z"/></g>
<g><path style="opacity:0.004" fill="#262424" d="M 395.5,193.5 C 396.525,193.897 396.692,194.563 396,195.5C 395.536,194.906 395.369,194.239 395.5,193.5 Z"/></g>
<g><path style="opacity:0.004" fill="#252422" d="M 394.5,204.5 C 395.833,205.167 395.833,205.167 394.5,204.5 Z"/></g>
<g><path style="opacity:0.004" fill="#20211f" d="M 969.5,210.5 C 970.833,211.167 970.833,211.167 969.5,210.5 Z"/></g>
<g><path style="opacity:0.004" fill="#1e1e1f" d="M 969.5,212.5 C 970.833,213.167 970.833,213.167 969.5,212.5 Z"/></g>
<g><path style="opacity:0.004" fill="#232222" d="M 391.5,216.5 C 392.833,217.167 392.833,217.167 391.5,216.5 Z"/></g>
<g><path style="opacity:0.004" fill="#222120" d="M 478.5,217.5 C 479.833,218.167 479.833,218.167 478.5,217.5 Z"/></g>
<g><path style="opacity:0.006" fill="#232220" d="M 905.5,219.5 C 905.897,218.475 906.563,218.308 907.5,219C 906.906,219.464 906.239,219.631 905.5,219.5 Z"/></g>
<g><path style="opacity:0.004" fill="#24241f" d="M 908.5,219.5 C 909.833,220.167 909.833,220.167 908.5,219.5 Z"/></g>
<g><path style="opacity:0.089" fill="#363636" d="M 504.5,216.5 C 505.482,219.962 505.815,223.629 505.5,227.5C 504.799,224.437 504.132,221.27 503.5,218C 504.056,217.617 504.389,217.117 504.5,216.5 Z"/></g>
<g><path style="opacity:0.008" fill="#252222" d="M 914.5,221.5 C 914.103,222.525 913.437,222.692 912.5,222C 913.094,221.536 913.761,221.369 914.5,221.5 Z"/></g>
<g><path style="opacity:0.004" fill="#222220" d="M 452.5,224.5 C 453.833,225.167 453.833,225.167 452.5,224.5 Z"/></g>
<g><path style="opacity:0.004" fill="#23221f" d="M 454.5,224.5 C 455.833,225.167 455.833,225.167 454.5,224.5 Z"/></g>
<g><path style="opacity:0.004" fill="#262324" d="M 505.5,234.5 C 504.475,234.103 504.308,233.437 505,232.5C 505.464,233.094 505.631,233.761 505.5,234.5 Z"/></g>
<g><path style="opacity:0.004" fill="#22201e" d="M 505.5,234.5 C 505.833,234.5 506.167,234.5 506.5,234.5C 506.315,235.17 505.981,235.17 505.5,234.5 Z"/></g>
<g><path style="opacity:0.004" fill="#242222" d="M 394.5,236.5 C 395.833,237.167 395.833,237.167 394.5,236.5 Z"/></g>
<g><path style="opacity:0.004" fill="#292425" d="M 507.5,236.5 C 507.631,237.239 507.464,237.906 507,238.5C 506.308,237.563 506.475,236.897 507.5,236.5 Z"/></g>
<g><path style="opacity:0.012" fill="#2b2a28" d="M 513.5,245.5 C 512.833,246.167 512.833,246.167 513.5,245.5 Z"/></g>
<g><path style="opacity:0.008" fill="#2d2b2a" d="M 521.5,251.5 C 521.631,252.239 521.464,252.906 521,253.5C 520.308,252.563 520.475,251.897 521.5,251.5 Z"/></g>
<g><path style="opacity:0.004" fill="#2a2929" d="M 523.5,252.5 C 522.833,253.167 522.833,253.167 523.5,252.5 Z"/></g>
<g><path style="opacity:0.624" fill="#2a2a2b" d="M 526.5,252.5 C 528.861,252.674 531.194,253.007 533.5,253.5C 533.5,253.833 533.5,254.167 533.5,254.5C 530.848,254.59 528.515,253.924 526.5,252.5 Z"/></g>
<g><path style="opacity:0.873" fill="#222223" d="M 533.5,254.5 C 533.5,254.167 533.5,253.833 533.5,253.5C 627.833,253.5 722.167,253.5 816.5,253.5C 816.5,254.167 816.167,254.5 815.5,254.5C 722.91,255.412 628.91,255.412 533.5,254.5 Z"/></g>
<g><path style="opacity:0.84" fill="#212222" d="M 816.5,253.5 C 823.5,253.5 830.5,253.5 837.5,253.5C 834.437,254.201 831.27,254.868 828,255.5C 824.043,255.232 819.877,254.899 815.5,254.5C 816.167,254.5 816.5,254.167 816.5,253.5 Z"/></g>
<g><path style="opacity:0.359" fill="#333535" d="M 920.5,231.5 C 921.498,260.662 921.831,289.995 921.5,319.5C 921.167,319.5 920.833,319.5 920.5,319.5C 919.975,290.621 919.975,261.288 920.5,231.5 Z"/></g>
<g><path style="opacity:0.004" fill="#262524" d="M 394.5,260.5 C 395.833,261.167 395.833,261.167 394.5,260.5 Z"/></g>
<g><path style="opacity:0.004" fill="#272524" d="M 394.5,276.5 C 395.833,277.167 395.833,277.167 394.5,276.5 Z"/></g>
<g><path style="opacity:0.004" fill="#262723" d="M 394.5,284.5 C 395.833,285.167 395.833,285.167 394.5,284.5 Z"/></g>
<g><path style="opacity:0.004" fill="#282926" d="M 394.5,300.5 C 395.833,301.167 395.833,301.167 394.5,300.5 Z"/></g>
<g><path style="opacity:0.008" fill="#2d2d2a" d="M 638.5,319.5 C 639.833,320.167 639.833,320.167 638.5,319.5 Z"/></g>
<g><path style="opacity:0.004" fill="#2a2a28" d="M 645.5,319.5 C 646.833,320.167 646.833,320.167 645.5,319.5 Z"/></g>
<g><path style="opacity:0.004" fill="#2c2b2a" d="M 396.5,320.5 C 397.833,321.167 397.833,321.167 396.5,320.5 Z"/></g>
<g><path style="opacity:0.008" fill="#464443" d="M 705.5,321.5 C 704.5,321.5 703.5,321.5 702.5,321.5C 703.5,318.833 704.5,318.833 705.5,321.5 Z"/></g>
<g><path style="opacity:0.012" fill="#2c2c2c" d="M 639.5,321.5 C 640.833,322.167 640.833,322.167 639.5,321.5 Z"/></g>
<g><path style="opacity:0.998" fill="#010101" d="M 702.5,321.5 C 703.5,321.5 704.5,321.5 705.5,321.5C 709.477,320.489 713.811,320.489 718.5,321.5C 721.455,322.159 724.455,322.492 727.5,322.5C 731.099,324.263 733.932,326.93 736,330.5C 736.333,359.167 736.667,387.833 737,416.5C 736.89,420.932 738.39,424.598 741.5,427.5C 741.973,428.906 742.973,429.573 744.5,429.5C 745.29,430.401 746.29,431.068 747.5,431.5C 748.263,432.268 749.263,432.768 750.5,433C 777.831,433.5 805.165,433.667 832.5,433.5C 836.138,433.738 838.971,435.404 841,438.5C 842.282,441.54 843.782,444.373 845.5,447C 843.515,471.605 842.849,496.438 843.5,521.5C 840.356,526.795 835.689,529.962 829.5,531C 801.833,531.333 774.167,531.667 746.5,532C 744.934,532.608 743.6,533.442 742.5,534.5C 741.5,534.833 740.833,535.5 740.5,536.5C 739.026,537.436 738.026,538.77 737.5,540.5C 736.778,540.918 736.278,541.584 736,542.5C 735.5,572.165 735.333,601.831 735.5,631.5C 732.019,638.415 726.352,642.081 718.5,642.5C 707.792,642.108 696.792,642.108 685.5,642.5C 706.668,593.495 713.335,542.495 705.5,489.5C 705.768,487.901 705.434,486.568 704.5,485.5C 703.738,481.329 702.738,477.329 701.5,473.5C 701.59,470.848 700.924,468.515 699.5,466.5C 699.768,464.901 699.434,463.568 698.5,462.5C 698.768,460.901 698.434,459.568 697.5,458.5C 695.804,450.738 693.137,443.405 689.5,436.5C 689.5,435.833 689.5,435.167 689.5,434.5C 689.5,433.833 689.167,433.5 688.5,433.5C 686.343,427.854 683.677,422.52 680.5,417.5C 680.573,415.973 679.906,414.973 678.5,414.5C 677.59,411.008 675.924,408.008 673.5,405.5C 672.189,402.865 670.522,400.531 668.5,398.5C 668.262,396.596 667.262,395.262 665.5,394.5C 664.928,392.745 664.094,391.078 663,389.5C 659.664,384.998 655.831,380.998 651.5,377.5C 650.117,374.784 648.117,372.784 645.5,371.5C 642.51,368.009 639.343,364.676 636,361.5C 635.027,359.608 634.36,357.608 634,355.5C 633.333,348.5 633.333,341.5 634,334.5C 635.752,325.119 641.419,320.453 651,320.5C 667.826,320.51 684.993,320.843 702.5,321.5 Z"/></g>
<g><path style="opacity:0.941" fill="#282726" d="M 718.5,321.5 C 718.917,320.876 719.584,320.543 720.5,320.5C 723.029,320.929 725.362,321.596 727.5,322.5C 724.455,322.492 721.455,322.159 718.5,321.5 Z"/></g>
<g><path style="opacity:0.008" fill="#282a27" d="M 401.5,326.5 C 400.833,327.167 400.833,327.167 401.5,326.5 Z"/></g>
<g><path style="opacity:0.004" fill="#2b2c28" d="M 409.5,331.5 C 410.833,332.167 410.833,332.167 409.5,331.5 Z"/></g>
<g><path style="opacity:0.004" fill="#222220" d="M 275.5,333.5 C 276.833,334.167 276.833,334.167 275.5,333.5 Z"/></g>
<g><path style="opacity:0.004" fill="#2b2a29" d="M 631.5,338.5 C 632.833,339.167 632.833,339.167 631.5,338.5 Z"/></g>
<g><path style="opacity:0.004" fill="#272826" d="M 737.5,338.5 C 738.833,339.167 738.833,339.167 737.5,338.5 Z"/></g>
<g><path style="opacity:0.004" fill="#2c2c28" d="M 531.5,341.5 C 532.833,342.167 532.833,342.167 531.5,341.5 Z"/></g>
<g><path style="opacity:0.004" fill="#2a2927" d="M 479.5,343.5 C 480.833,344.167 480.833,344.167 479.5,343.5 Z"/></g>
<g><path style="opacity:0.008" fill="#262524" d="M 207.5,347.5 C 207.897,346.475 208.563,346.308 209.5,347C 208.906,347.464 208.239,347.631 207.5,347.5 Z"/></g>
<g><path style="opacity:0.004" fill="#222324" d="M 211.5,346.5 C 212.833,347.167 212.833,347.167 211.5,346.5 Z"/></g>
<g><path style="opacity:0.004" fill="#232422" d="M 213.5,346.5 C 214.833,347.167 214.833,347.167 213.5,346.5 Z"/></g>
<g><path style="opacity:0.004" fill="#252524" d="M 215.5,346.5 C 216.833,347.167 216.833,347.167 215.5,346.5 Z"/></g>
<g><path style="opacity:0.004" fill="#252423" d="M 217.5,346.5 C 218.833,347.167 218.833,347.167 217.5,346.5 Z"/></g>
<g><path style="opacity:0.004" fill="#232422" d="M 220.5,346.5 C 221.833,347.167 221.833,347.167 220.5,346.5 Z"/></g>
<g><path style="opacity:0.008" fill="#232423" d="M 223.5,346.5 C 224.833,347.167 224.833,347.167 223.5,346.5 Z"/></g>
<g><path style="opacity:0.008" fill="#272624" d="M 231.5,347.5 C 232.251,346.427 233.251,346.26 234.5,347C 233.552,347.483 232.552,347.649 231.5,347.5 Z"/></g>
<g><path style="opacity:0.008" fill="#292826" d="M 479.5,346.5 C 480.833,347.167 480.833,347.167 479.5,346.5 Z"/></g>
<g><path style="opacity:0.004" fill="#2a2a28" d="M 487.5,346.5 C 488.833,347.167 488.833,347.167 487.5,346.5 Z"/></g>
<g><path style="opacity:0.008" fill="#282926" d="M 491.5,346.5 C 492.833,347.167 492.833,347.167 491.5,346.5 Z"/></g>
<g><path style="opacity:0.004" fill="#242524" d="M 200.5,347.5 C 201.833,348.167 201.833,348.167 200.5,347.5 Z"/></g>
<g><path style="opacity:0.004" fill="#242422" d="M 203.5,347.5 C 204.833,348.167 204.833,348.167 203.5,347.5 Z"/></g>
<g><path style="opacity:0.004" fill="#282827" d="M 483.5,347.5 C 484.833,348.167 484.833,348.167 483.5,347.5 Z"/></g>
<g><path style="opacity:0.004" fill="#2b2b2a" d="M 523.5,347.5 C 524.833,348.167 524.833,348.167 523.5,347.5 Z"/></g>
<g><path style="opacity:0.004" fill="#232421" d="M 195.5,348.5 C 196.833,349.167 196.833,349.167 195.5,348.5 Z"/></g>
<g><path style="opacity:0.999" fill="#000000" d="M 263.5,352.5 C 272.007,356.007 280.674,359.34 289.5,362.5C 289.842,363.338 290.508,363.672 291.5,363.5C 294.999,365.75 298.665,367.75 302.5,369.5C 303.29,370.401 304.29,371.068 305.5,371.5C 307.822,373.664 310.489,375.331 313.5,376.5C 317.134,379.984 321.134,382.984 325.5,385.5C 330.807,390.472 336.14,395.472 341.5,400.5C 348.9,409.623 356.067,418.956 363,428.5C 363.464,427.906 363.631,427.239 363.5,426.5C 365.9,424.704 367.567,422.37 368.5,419.5C 372.845,415.153 376.845,410.486 380.5,405.5C 389.929,395.731 399.929,386.731 410.5,378.5C 412.795,377.525 414.795,376.192 416.5,374.5C 418.23,373.974 419.564,372.974 420.5,371.5C 422.674,371.25 424.341,370.25 425.5,368.5C 430.965,366.017 436.298,363.35 441.5,360.5C 473.626,347.66 506.626,344.993 540.5,352.5C 548.478,354.937 556.478,357.604 564.5,360.5C 574.582,365.042 584.249,370.375 593.5,376.5C 611.875,389.874 627.541,405.874 640.5,424.5C 649.621,439.186 656.621,454.853 661.5,471.5C 661.263,472.791 661.596,473.791 662.5,474.5C 663.36,477.632 664.36,480.632 665.5,483.5C 673.049,520.523 671.549,557.189 661,593.5C 655.984,608.525 650.151,623.192 643.5,637.5C 631.71,657.801 618.877,677.468 605,696.5C 586.533,719.093 567.367,741.093 547.5,762.5C 545.167,764.167 543.167,766.167 541.5,768.5C 520.966,789.365 499.966,810.032 478.5,830.5C 477.5,830.833 476.833,831.5 476.5,832.5C 475.833,832.5 475.5,832.833 475.5,833.5C 454.842,851.492 434.509,869.825 414.5,888.5C 411.474,891.195 408.474,893.862 405.5,896.5C 398.509,902.158 391.843,908.158 385.5,914.5C 379.197,919.658 372.864,924.825 366.5,930C 363.833,930.667 361.167,930.667 358.5,930C 349.274,921.933 339.941,914.099 330.5,906.5C 329.5,904.833 328.167,903.5 326.5,902.5C 320.157,896.158 313.491,890.158 306.5,884.5C 306.167,883.5 305.5,882.833 304.5,882.5C 303.415,880.413 301.749,879.08 299.5,878.5C 281.493,861.161 263.16,844.161 244.5,827.5C 238.5,820.833 232.167,814.5 225.5,808.5C 218.833,801.167 211.833,794.167 204.5,787.5C 201.833,784.167 198.833,781.167 195.5,778.5C 194.833,777.167 193.833,776.167 192.5,775.5C 191.833,774.167 190.833,773.167 189.5,772.5C 184.537,765.869 178.87,759.869 172.5,754.5C 170.57,750.9 167.903,747.9 164.5,745.5C 161.858,741.225 158.525,737.558 154.5,734.5C 152.883,731.216 150.55,728.549 147.5,726.5C 144.514,722.183 141.18,718.183 137.5,714.5C 136.557,711.891 134.89,709.891 132.5,708.5C 132.167,707.5 131.5,706.833 130.5,706.5C 130.672,705.508 130.338,704.842 129.5,704.5C 129.5,703.833 129.167,703.5 128.5,703.5C 128.5,702.167 127.833,701.5 126.5,701.5C 126.262,699.596 125.262,698.262 123.5,697.5C 120.277,691.936 116.277,686.936 111.5,682.5C 111.863,681.817 112.196,681.15 112.5,680.5C 113.167,680.5 113.833,680.5 114.5,680.5C 126.143,681.381 137.976,681.714 150,681.5C 150.333,680.833 150.667,680.167 151,679.5C 153.041,680.752 155.375,681.419 158,681.5C 160.873,681.058 163.54,681.058 166,681.5C 166.333,680.833 166.667,680.167 167,679.5C 167.388,680.428 168.055,681.095 169,681.5C 171.879,680.208 174.713,680.208 177.5,681.5C 179.5,681.5 181.5,681.5 183.5,681.5C 184.5,681.5 185.5,681.5 186.5,681.5C 188.167,681.5 189.833,681.5 191.5,681.5C 192.167,681.5 192.5,681.167 192.5,680.5C 193.167,680.833 193.833,681.167 194.5,681.5C 196.5,681.5 198.5,681.5 200.5,681.5C 208.212,680.748 215.878,680.414 223.5,680.5C 230.838,681.681 238.505,680.514 246.5,677C 249.118,674.894 251.118,672.394 252.5,669.5C 258.123,659.312 262.79,648.646 266.5,637.5C 269.678,631.804 272.344,625.804 274.5,619.5C 275.404,618.791 275.737,617.791 275.5,616.5C 279.399,608.82 282.733,600.82 285.5,592.5C 287.592,589.912 288.925,586.912 289.5,583.5C 292.363,576.773 295.53,570.106 299,563.5C 305.372,587.333 311.872,610.999 318.5,634.5C 330.504,682.184 342.671,729.851 355,777.5C 356.425,784.07 359.925,789.07 365.5,792.5C 379.551,799.232 390.051,795.565 397,781.5C 399.155,775.291 400.655,769.291 401.5,763.5C 404.434,755.78 406.767,747.78 408.5,739.5C 411.34,730.974 414.007,722.307 416.5,713.5C 417.404,712.791 417.737,711.791 417.5,710.5C 418.656,706.207 419.656,701.874 420.5,697.5C 426.142,678.902 431.808,660.235 437.5,641.5C 438.167,641.833 438.833,642.167 439.5,642.5C 444.654,652.14 449.821,661.806 455,671.5C 458.754,676.25 463.587,679.25 469.5,680.5C 475.645,681.49 481.978,681.823 488.5,681.5C 510.265,681.273 531.932,681.273 553.5,681.5C 557.19,680.806 560.857,679.972 564.5,679C 567.595,678.065 569.929,676.231 571.5,673.5C 572.167,673.5 572.5,673.167 572.5,672.5C 577.949,664.519 577.782,656.519 572,648.5C 570.028,646.768 567.861,645.435 565.5,644.5C 565.158,643.662 564.492,643.328 563.5,643.5C 557.906,641.935 552.073,640.935 546,640.5C 529.723,640.337 513.223,640.67 496.5,641.5C 488.745,641.464 483.078,638.131 479.5,631.5C 479.068,630.29 478.401,629.29 477.5,628.5C 475.621,628.607 475.288,628.107 476.5,627C 471.471,617.821 466.138,608.321 460.5,598.5C 460.5,597.833 460.167,597.5 459.5,597.5C 457.293,591.65 454.293,586.316 450.5,581.5C 450.573,579.973 449.906,578.973 448.5,578.5C 448.106,576.29 446.773,574.957 444.5,574.5C 444.027,573.094 443.027,572.427 441.5,572.5C 441.158,571.662 440.492,571.328 439.5,571.5C 427.307,567.189 418.14,570.855 412,582.5C 400.516,621.106 389.35,659.773 378.5,698.5C 377.833,698.5 377.167,698.5 376.5,698.5C 375.422,695.598 374.756,692.598 374.5,689.5C 374.737,688.209 374.404,687.209 373.5,686.5C 372.461,682.319 371.128,678.319 369.5,674.5C 369.784,672.585 369.451,670.919 368.5,669.5C 367.924,664.191 366.591,659.191 364.5,654.5C 364.102,650.239 363.102,646.239 361.5,642.5C 360.435,635.573 358.768,628.906 356.5,622.5C 351.319,600.441 345.819,578.441 340,556.5C 338.957,560.226 338.457,559.893 338.5,555.5C 339.645,553.047 339.312,550.713 337.5,548.5C 335.482,537.762 333.149,527.096 330.5,516.5C 330.737,515.209 330.404,514.209 329.5,513.5C 328.341,509.535 327.174,505.535 326,501.5C 324.974,498.761 323.474,496.428 321.5,494.5C 320.089,492.086 318.089,490.419 315.5,489.5C 314.653,488.034 313.32,487.2 311.5,487C 308.207,486.174 304.874,485.674 301.5,485.5C 299.901,485.232 298.568,485.566 297.5,486.5C 294.079,487.539 291.412,489.539 289.5,492.5C 285.696,496.084 282.863,500.417 281,505.5C 262.139,547.083 243.473,588.75 225,630.5C 222.448,634.719 218.948,637.886 214.5,640C 173.833,640.667 133.167,640.667 92.5,640C 88.7587,638.262 85.592,635.762 83,632.5C 80.3924,626.947 77.5591,621.613 74.5,616.5C 73.5975,612.111 71.9308,608.111 69.5,604.5C 69.7373,603.209 69.404,602.209 68.5,601.5C 68.1667,599.5 67.8333,597.5 67.5,595.5C 67.6716,594.508 67.3382,593.842 66.5,593.5C 66.0113,592.005 65.3446,590.671 64.5,589.5C 63.3433,584.538 62.3433,579.538 61.5,574.5C 61.7373,573.209 61.404,572.209 60.5,571.5C 59.7347,568.904 59.4013,566.237 59.5,563.5C 59.7678,561.901 59.4345,560.568 58.5,559.5C 53.8034,529.953 55.8034,500.62 64.5,471.5C 66.0739,469.898 66.7406,467.898 66.5,465.5C 70.0027,453.988 74.6694,442.988 80.5,432.5C 88.6072,419.308 97.9405,406.975 108.5,395.5C 116.022,388.917 123.689,382.584 131.5,376.5C 137.339,373.415 143.006,370.082 148.5,366.5C 158.299,361.099 168.633,357.099 179.5,354.5C 182.228,354.829 184.562,354.163 186.5,352.5C 211.708,346.912 236.874,347.245 262,353.5C 262.765,353.43 263.265,353.097 263.5,352.5 Z"/></g>
<g><path style="opacity:0.004" fill="#252625" d="M 883.5,349.5 C 884.833,350.167 884.833,350.167 883.5,349.5 Z"/></g>
<g><path style="opacity:0.004" fill="#1e201e" d="M 1003.5,349.5 C 1004.83,350.167 1004.83,350.167 1003.5,349.5 Z"/></g>
<g><path style="opacity:0.004" fill="#23221f" d="M 173.5,351.5 C 174.833,352.167 174.833,352.167 173.5,351.5 Z"/></g>
<g><path style="opacity:0.004" fill="#1f2021" d="M 179.5,351.5 C 180.833,352.167 180.833,352.167 179.5,351.5 Z"/></g>
<g><path style="opacity:0.008" fill="#1e1f1e" d="M 183.5,352.5 C 182.761,352.631 182.094,352.464 181.5,352C 182.437,351.308 183.103,351.475 183.5,352.5 Z"/></g>
<g><path style="opacity:0.006" fill="#1e1f1d" d="M 263.5,352.5 C 262.761,352.631 262.094,352.464 261.5,352C 262.437,351.308 263.103,351.475 263.5,352.5 Z"/></g>
<g><path style="opacity:0.008" fill="#252523" d="M 540.5,352.5 C 541.251,351.427 542.251,351.26 543.5,352C 542.552,352.483 541.552,352.649 540.5,352.5 Z"/></g>
<g><path style="opacity:0.004" fill="#2a2828" d="M 631.5,351.5 C 632.525,351.897 632.692,352.563 632,353.5C 631.536,352.906 631.369,352.239 631.5,351.5 Z"/></g>
<g><path style="opacity:0.012" fill="#22241f" d="M 176.5,352.5 C 177.833,353.167 177.833,353.167 176.5,352.5 Z"/></g>
<g><path style="opacity:0.004" fill="#262423" d="M 447.5,352.5 C 448.833,353.167 448.833,353.167 447.5,352.5 Z"/></g>
<g><path style="opacity:0.004" fill="#262622" d="M 458.5,352.5 C 459.833,353.167 459.833,353.167 458.5,352.5 Z"/></g>
<g><path style="opacity:0.004" fill="#272626" d="M 548.5,352.5 C 549.289,352.783 549.956,353.283 550.5,354C 549.184,354.528 548.517,354.028 548.5,352.5 Z"/></g>
<g><path style="opacity:0.004" fill="#1d1c1e" d="M 918.5,352.5 C 919.833,353.167 919.833,353.167 918.5,352.5 Z"/></g>
<g><path style="opacity:0.996" fill="#242524" d="M 183.5,352.5 C 184.5,352.5 185.5,352.5 186.5,352.5C 184.562,354.163 182.228,354.829 179.5,354.5C 180.833,353.833 182.167,353.167 183.5,352.5 Z"/></g>
<g><path style="opacity:0.004" fill="#242521" d="M 270.5,353.5 C 271.833,354.167 271.833,354.167 270.5,353.5 Z"/></g>
<g><path style="opacity:0.004" fill="#282826" d="M 555.5,355.5 C 556.833,356.167 556.833,356.167 555.5,355.5 Z"/></g>
<g><path style="opacity:0.012" fill="#2a2829" d="M 632.5,356.5 C 633.833,357.167 633.833,357.167 632.5,356.5 Z"/></g>
<g><path style="opacity:0.024" fill="#262325" d="M 441.5,360.5 C 440.761,360.631 440.094,360.464 439.5,360C 440.437,359.308 441.103,359.475 441.5,360.5 Z"/></g>
<g><path style="opacity:0.004" fill="#232321" d="M 564.5,359.5 C 565.833,360.167 565.833,360.167 564.5,359.5 Z"/></g>
<g><path style="opacity:0.004" fill="#222421" d="M 567.5,360.5 C 566.833,359.167 566.833,359.167 567.5,360.5 Z"/></g>
<g><path style="opacity:0.008" fill="#262723" d="M 436.5,360.5 C 437.833,361.167 437.833,361.167 436.5,360.5 Z"/></g>
<g><path style="opacity:0.004" fill="#292926" d="M 567.5,360.5 C 568.833,361.167 568.833,361.167 567.5,360.5 Z"/></g>
<g><path style="opacity:0.004" fill="#222220" d="M 289.5,361.5 C 290.833,362.167 290.833,362.167 289.5,361.5 Z"/></g>
<g><path style="opacity:0.012" fill="#222221" d="M 291.5,362.5 C 292.833,363.167 292.833,363.167 291.5,362.5 Z"/></g>
<g><path style="opacity:0.004" fill="#272725" d="M 433.5,362.5 C 434.833,363.167 434.833,363.167 433.5,362.5 Z"/></g>
<g><path style="opacity:0.004" fill="#21201d" d="M 148.5,366.5 C 147.833,365.167 147.833,365.167 148.5,366.5 Z"/></g>
<g><path style="opacity:0.004" fill="#21211f" d="M 141.5,367.5 C 142.833,368.167 142.833,368.167 141.5,367.5 Z"/></g>
<g><path style="opacity:0.004" fill="#262b25" d="M 415.5,367.5 C 416.833,368.167 416.833,368.167 415.5,367.5 Z"/></g>
<g><path style="opacity:0.004" fill="#262424" d="M 425.5,368.5 C 424.761,368.631 424.094,368.464 423.5,368C 424.437,367.308 425.103,367.475 425.5,368.5 Z"/></g>
<g><path style="opacity:0.008" fill="#22201f" d="M 302.5,369.5 C 302.897,368.475 303.563,368.308 304.5,369C 303.906,369.464 303.239,369.631 302.5,369.5 Z"/></g>
<g><path style="opacity:0.004" fill="#23231f" d="M 135.5,370.5 C 136.833,371.167 136.833,371.167 135.5,370.5 Z"/></g>
<g><path style="opacity:0.008" fill="#232421" d="M 137.5,370.5 C 138.833,371.167 138.833,371.167 137.5,370.5 Z"/></g>
<g><path style="opacity:0.008" fill="#1d1f1a" d="M 305.5,370.5 C 306.833,371.167 306.833,371.167 305.5,370.5 Z"/></g>
<g><path style="opacity:0.004" fill="#252724" d="M 417.5,370.5 C 418.833,371.167 418.833,371.167 417.5,370.5 Z"/></g>
<g><path style="opacity:0.004" fill="#272726" d="M 420.5,371.5 C 419.833,370.167 419.833,370.167 420.5,371.5 Z"/></g>
<g><path style="opacity:0.004" fill="#292a25" d="M 645.5,371.5 C 644.833,372.167 644.833,372.167 645.5,371.5 Z"/></g>
<g><path style="opacity:0.004" fill="#252825" d="M 416.5,374.5 C 415.833,373.167 415.833,373.167 416.5,374.5 Z"/></g>
<g><path style="opacity:0.004" fill="#292929" d="M 803.5,373.5 C 804.833,374.167 804.833,374.167 803.5,373.5 Z"/></g>
<g><path style="opacity:0.004" fill="#201e1f" d="M 131.5,376.5 C 130.833,375.167 130.833,375.167 131.5,376.5 Z"/></g>
<g><path style="opacity:0.008" fill="#232420" d="M 313.5,375.5 C 314.833,376.167 314.833,376.167 313.5,375.5 Z"/></g>
<g><path style="opacity:0.006" fill="#262726" d="M 593.5,376.5 C 593.897,375.475 594.563,375.308 595.5,376C 594.906,376.464 594.239,376.631 593.5,376.5 Z"/></g>
<g><path style="opacity:0.004" fill="#282825" d="M 406.5,376.5 C 407.833,377.167 407.833,377.167 406.5,376.5 Z"/></g>
<g><path style="opacity:0.39" fill="#262727" d="M 920.5,319.5 C 920.833,319.5 921.167,319.5 921.5,319.5C 921.5,346.833 921.5,374.167 921.5,401.5C 921.167,401.5 920.833,401.5 920.5,401.5C 920.525,394.139 920.192,386.805 919.5,379.5C 918.979,377.44 919.312,375.274 920.5,373C 920.05,371.715 919.383,370.548 918.5,369.5C 920.276,368.685 920.943,367.518 920.5,366C 919.833,365.667 919.167,365.333 918.5,365C 919.979,359.986 920.646,354.819 920.5,349.5C 920.357,339.07 920.357,329.07 920.5,319.5 Z"/></g>
<g><path style="opacity:0.004" fill="#252725" d="M 410.5,378.5 C 409.833,377.167 409.833,377.167 410.5,378.5 Z"/></g>
<g><path style="opacity:0.004" fill="#292a28" d="M 651.5,377.5 C 650.833,378.167 650.833,378.167 651.5,377.5 Z"/></g>
<g><path style="opacity:0.004" fill="#272726" d="M 407.5,378.5 C 408.833,379.167 408.833,379.167 407.5,378.5 Z"/></g>
<g><path style="opacity:0.004" fill="#212020" d="M 919.5,379.5 C 918.833,380.167 918.833,380.167 919.5,379.5 Z"/></g>
<g><path style="opacity:0.005" fill="#292827" d="M 655.5,383.5 C 656.289,383.783 656.956,384.283 657.5,385C 656.184,385.528 655.517,385.028 655.5,383.5 Z"/></g>
<g><path style="opacity:0.004" fill="#232120" d="M 325.5,384.5 C 326.833,385.167 326.833,385.167 325.5,384.5 Z"/></g>
<g><path style="opacity:0.004" fill="#20211f" d="M 918.5,385.5 C 919.833,386.167 919.833,386.167 918.5,385.5 Z"/></g>
<g><path style="opacity:0.008" fill="#292925" d="M 657.5,386.5 C 658.833,387.167 658.833,387.167 657.5,386.5 Z"/></g>
<g><path style="opacity:0.004" fill="#232420" d="M 918.5,392.5 C 919.833,393.167 919.833,393.167 918.5,392.5 Z"/></g>
<g><path style="opacity:0.004" fill="#24231f" d="M 108.5,395.5 C 107.833,394.167 107.833,394.167 108.5,395.5 Z"/></g>
<g><path style="opacity:0.008" fill="#2d2c29" d="M 665.5,394.5 C 664.833,395.167 664.833,395.167 665.5,394.5 Z"/></g>
<g><path style="opacity:0.004" fill="#272a25" d="M 668.5,398.5 C 667.833,399.167 667.833,399.167 668.5,398.5 Z"/></g>
<g><path style="opacity:0.004" fill="#212121" d="M 341.5,399.5 C 342.833,400.167 342.833,400.167 341.5,399.5 Z"/></g>
<g><path style="opacity:0.004" fill="#232421" d="M 918.5,401.5 C 919.833,402.167 919.833,402.167 918.5,401.5 Z"/></g>
<g><path style="opacity:0.004" fill="#272724" d="M 380.5,405.5 C 379.833,404.167 379.833,404.167 380.5,405.5 Z"/></g>
<g><path style="opacity:0.004" fill="#2b2929" d="M 673.5,405.5 C 673.483,407.028 672.816,407.528 671.5,407C 672.044,406.283 672.711,405.783 673.5,405.5 Z"/></g>
<g><path style="opacity:0.004" fill="#2a2a29" d="M 671.5,408.5 C 672.833,409.167 672.833,409.167 671.5,408.5 Z"/></g>
<g><path style="opacity:0.008" fill="#2a2827" d="M 673.5,411.5 C 674.833,412.167 674.833,412.167 673.5,411.5 Z"/></g>
<g><path style="opacity:0.008" fill="#2b2d2b" d="M 675.5,411.5 C 676.833,412.167 676.833,412.167 675.5,411.5 Z"/></g>
<g><path style="opacity:0.004" fill="#252524" d="M 371.5,413.5 C 372.833,414.167 372.833,414.167 371.5,413.5 Z"/></g>
<g><path style="opacity:0.01" fill="#2a2928" d="M 677.5,414.5 C 676.761,414.631 676.094,414.464 675.5,414C 676.437,413.308 677.103,413.475 677.5,414.5 Z"/></g>
<g><path style="opacity:0.004" fill="#2c2b29" d="M 677.5,414.5 C 677.833,414.5 678.167,414.5 678.5,414.5C 678.315,415.17 677.981,415.17 677.5,414.5 Z"/></g>
<g><path style="opacity:0.004" fill="#262524" d="M 356.5,416.5 C 357.833,417.167 357.833,417.167 356.5,416.5 Z"/></g>
<g><path style="opacity:0.004" fill="#2b2929" d="M 680.5,417.5 C 680.631,418.239 680.464,418.906 680,419.5C 679.308,418.563 679.475,417.897 680.5,417.5 Z"/></g>
<g><path style="opacity:0.008" fill="#252523" d="M 368.5,419.5 C 367.833,418.167 367.833,418.167 368.5,419.5 Z"/></g>
<g><path style="opacity:0.012" fill="#2a2a2a" d="M 680.5,420.5 C 681.833,421.167 681.833,421.167 680.5,420.5 Z"/></g>
<g><path style="opacity:0.008" fill="#2d2c2a" d="M 681.5,422.5 C 682.833,423.167 682.833,423.167 681.5,422.5 Z"/></g>
<g><path style="opacity:0.004" fill="#282523" d="M 640.5,423.5 C 641.833,424.167 641.833,424.167 640.5,423.5 Z"/></g>
<g><path style="opacity:0.004" fill="#272826" d="M 918.5,424.5 C 919.833,425.167 919.833,425.167 918.5,424.5 Z"/></g>
<g><path style="opacity:0.008" fill="#232323" d="M 363.5,426.5 C 362.833,425.167 362.833,425.167 363.5,426.5 Z"/></g>
<g><path style="opacity:0.004" fill="#2b2828" d="M 679.5,426.5 C 680.833,427.167 680.833,427.167 679.5,426.5 Z"/></g>
<g><path style="opacity:0.004" fill="#242622" d="M 741.5,426.5 C 742.833,427.167 742.833,427.167 741.5,426.5 Z"/></g>
<g><path style="opacity:0.004" fill="#232120" d="M 744.5,428.5 C 745.833,429.167 745.833,429.167 744.5,428.5 Z"/></g>
<g><path style="opacity:0.004" fill="#2c2c28" d="M 684.5,429.5 C 685.833,430.167 685.833,430.167 684.5,429.5 Z"/></g>
<g><path style="opacity:0.027" fill="#1b1d1a" d="M 80.5,432.5 C 79.8333,431.167 79.8333,431.167 80.5,432.5 Z"/></g>
<g><path style="opacity:0.78" fill="#1e1e1e" d="M 747.5,431.5 C 773.531,432.23 799.365,432.23 825,431.5C 827.607,432.123 830.107,432.79 832.5,433.5C 805.165,433.667 777.831,433.5 750.5,433C 749.263,432.768 748.263,432.268 747.5,431.5 Z"/></g>
<g><path style="opacity:0.008" fill="#312e2e" d="M 688.5,433.5 C 689.167,433.5 689.5,433.833 689.5,434.5C 688.662,434.842 688.328,435.508 688.5,436.5C 687.167,435.5 687.167,434.5 688.5,433.5 Z"/></g>
<g><path style="opacity:0.004" fill="#222320" d="M 969.5,434.5 C 970.833,435.167 970.833,435.167 969.5,434.5 Z"/></g>
<g><path style="opacity:0.012" fill="#2b2928" d="M 688.5,436.5 C 688.833,436.5 689.167,436.5 689.5,436.5C 689.167,440.5 688.833,440.5 688.5,436.5 Z"/></g>
<g><path style="opacity:0.004" fill="#2a2a2a" d="M 650.5,439.5 C 651.833,440.167 651.833,440.167 650.5,439.5 Z"/></g>
<g><path style="opacity:0.004" fill="#2c2b2a" d="M 843.5,439.5 C 844.833,440.167 844.833,440.167 843.5,439.5 Z"/></g>
<g><path style="opacity:0.012" fill="#2c2c2a" d="M 689.5,440.5 C 690.833,441.167 690.833,441.167 689.5,440.5 Z"/></g>
<g><path style="opacity:0.004" fill="#232422" d="M 73.5,441.5 C 74.8333,442.167 74.8333,442.167 73.5,441.5 Z"/></g>
<g><path style="opacity:0.004" fill="#2c2b29" d="M 689.5,442.5 C 690.833,443.167 690.833,443.167 689.5,442.5 Z"/></g>
<g><path style="opacity:0.008" fill="#2b2b29" d="M 691.5,444.5 C 692.525,444.897 692.692,445.563 692,446.5C 691.536,445.906 691.369,445.239 691.5,444.5 Z"/></g>
<g><path style="opacity:0.004" fill="#2a2928" d="M 654.5,447.5 C 655.525,447.897 655.692,448.563 655,449.5C 654.536,448.906 654.369,448.239 654.5,447.5 Z"/></g>
<g><path style="opacity:0.004" fill="#232421" d="M 68.5,452.5 C 69.8333,453.167 69.8333,453.167 68.5,452.5 Z"/></g>
<g><path style="opacity:0.008" fill="#2e2b2a" d="M 696.5,458.5 C 695.427,457.749 695.26,456.749 696,455.5C 696.483,456.448 696.649,457.448 696.5,458.5 Z"/></g>
<g><path style="opacity:0.004" fill="#2d2d2c" d="M 696.5,458.5 C 696.833,458.5 697.167,458.5 697.5,458.5C 697.167,461.167 696.833,461.167 696.5,458.5 Z"/></g>
<g><path style="opacity:0.004" fill="#2d2d2b" d="M 698.5,462.5 C 697.833,463.167 697.833,463.167 698.5,462.5 Z"/></g>
<g><path style="opacity:0.004" fill="#222223" d="M 63.5,464.5 C 64.8333,465.167 64.8333,465.167 63.5,464.5 Z"/></g>
<g><path style="opacity:0.008" fill="#2b2c2a" d="M 695.5,464.5 C 696.833,465.167 696.833,465.167 695.5,464.5 Z"/></g>
<g><path style="opacity:0.004" fill="#212223" d="M 64.5,467.5 C 63.8333,466.167 63.8333,466.167 64.5,467.5 Z"/></g>
<g><path style="opacity:0.004" fill="#2c2d29" d="M 696.5,466.5 C 697.833,467.167 697.833,467.167 696.5,466.5 Z"/></g>
<g><path style="opacity:0.008" fill="#2c2c2b" d="M 699.5,466.5 C 698.833,467.167 698.833,467.167 699.5,466.5 Z"/></g>
<g><path style="opacity:0.984" fill="#232424" d="M 66.5,465.5 C 66.7406,467.898 66.0739,469.898 64.5,471.5C 64.5,470.167 64.5,468.833 64.5,467.5C 65.1667,466.833 65.8333,466.167 66.5,465.5 Z"/></g>
<g><path style="opacity:0.008" fill="#2e2d2b" d="M 698.5,468.5 C 699.833,469.167 699.833,469.167 698.5,468.5 Z"/></g>
<g><path style="opacity:0.004" fill="#2b2c2b" d="M 695.5,469.5 C 696.833,470.167 696.833,470.167 695.5,469.5 Z"/></g>
<g><path style="opacity:0.008" fill="#2c2c2b" d="M 699.5,470.5 C 700.833,471.167 700.833,471.167 699.5,470.5 Z"/></g>
<g><path style="opacity:0.165" fill="#373737" d="M 661.5,471.5 C 662.239,471.369 662.906,471.536 663.5,472C 662.748,472.671 662.414,473.504 662.5,474.5C 661.596,473.791 661.263,472.791 661.5,471.5 Z"/></g>
<g><path style="opacity:0.004" fill="#2b2b29" d="M 700.5,473.5 C 699.833,472.167 699.833,472.167 700.5,473.5 Z"/></g>
<g><path style="opacity:0.004" fill="#2b2928" d="M 700.5,473.5 C 700.833,473.5 701.167,473.5 701.5,473.5C 701.167,478.833 700.833,478.833 700.5,473.5 Z"/></g>
<g><path style="opacity:0.004" fill="#2b2a28" d="M 665.5,480.5 C 666.833,481.167 666.833,481.167 665.5,480.5 Z"/></g>
<g><path style="opacity:0.004" fill="#292b26" d="M 665.5,482.5 C 666.833,483.167 666.833,483.167 665.5,482.5 Z"/></g>
<g><path style="opacity:0.012" fill="#272725" d="M 58.5,484.5 C 59.8333,485.167 59.8333,485.167 58.5,484.5 Z"/></g>
<g><path style="opacity:0.02" fill="#363737" d="M 297.5,486.5 C 298.568,485.566 299.901,485.232 301.5,485.5C 301.918,486.222 302.584,486.722 303.5,487C 301.512,487.18 299.512,487.014 297.5,486.5 Z"/></g>
<g><path style="opacity:0.125" fill="#3b3939" d="M 704.5,485.5 C 705.434,486.568 705.768,487.901 705.5,489.5C 705.167,489.5 704.833,489.5 704.5,489.5C 703.595,488.298 703.595,486.964 704.5,485.5 Z"/></g>
<g><path style="opacity:0.004" fill="#272928" d="M 311.5,488.5 C 312.833,489.167 312.833,489.167 311.5,488.5 Z"/></g>
<g><path style="opacity:0.004" fill="#262424" d="M 293.5,489.5 C 294.833,490.167 294.833,490.167 293.5,489.5 Z"/></g>
<g><path style="opacity:0.004" fill="#272826" d="M 315.5,489.5 C 314.833,490.167 314.833,490.167 315.5,489.5 Z"/></g>
<g><path style="opacity:0.004" fill="#2b2a28" d="M 704.5,489.5 C 703.833,490.167 703.833,490.167 704.5,489.5 Z"/></g>
<g><path style="opacity:0.004" fill="#272a24" d="M 57.5,490.5 C 58.8333,491.167 58.8333,491.167 57.5,490.5 Z"/></g>
<g><path style="opacity:0.004" fill="#282725" d="M 314.5,490.5 C 313.833,491.167 313.833,491.167 314.5,490.5 Z"/></g>
<g><path style="opacity:0.012" fill="#252625" d="M 289.5,492.5 C 290.833,493.167 290.833,493.167 289.5,492.5 Z"/></g>
<g><path style="opacity:0.008" fill="#2d2b2b" d="M 703.5,491.5 C 704.525,491.897 704.692,492.563 704,493.5C 703.536,492.906 703.369,492.239 703.5,491.5 Z"/></g>
<g><path style="opacity:0.004" fill="#282827" d="M 321.5,494.5 C 320.833,495.167 320.833,495.167 321.5,494.5 Z"/></g>
<g><path style="opacity:0.004" fill="#282726" d="M 56.5,495.5 C 57.8333,496.167 57.8333,496.167 56.5,495.5 Z"/></g>
<g><path style="opacity:0.004" fill="#2d2a2c" d="M 668.5,494.5 C 669.525,494.897 669.692,495.563 669,496.5C 668.536,495.906 668.369,495.239 668.5,494.5 Z"/></g>
<g><path style="opacity:0.008" fill="#272624" d="M 56.5,497.5 C 57.8333,498.167 57.8333,498.167 56.5,497.5 Z"/></g>
<g><path style="opacity:0.008" fill="#2b2a29" d="M 704.5,498.5 C 705.573,499.251 705.74,500.251 705,501.5C 704.517,500.552 704.351,499.552 704.5,498.5 Z"/></g>
<g><path style="opacity:0.004" fill="#282927" d="M 323.5,501.5 C 324.833,502.167 324.833,502.167 323.5,501.5 Z"/></g>
<g><path style="opacity:0.004" fill="#252425" d="M 55.5,502.5 C 56.8333,503.167 56.8333,503.167 55.5,502.5 Z"/></g>
<g><path style="opacity:0.004" fill="#292828" d="M 705.5,505.5 C 706.573,506.251 706.74,507.251 706,508.5C 705.517,507.552 705.351,506.552 705.5,505.5 Z"/></g>
<g><path style="opacity:0.004" fill="#2c2a2a" d="M 670.5,509.5 C 671.525,509.897 671.692,510.563 671,511.5C 670.536,510.906 670.369,510.239 670.5,509.5 Z"/></g>
<g><path style="opacity:0.004" fill="#2a2a28" d="M 705.5,509.5 C 706.833,510.167 706.833,510.167 705.5,509.5 Z"/></g>
<g><path style="opacity:0.004" fill="#2b2728" d="M 328.5,515.5 C 327.475,515.103 327.308,514.437 328,513.5C 328.464,514.094 328.631,514.761 328.5,515.5 Z"/></g>
<g><path style="opacity:0.008" fill="#3a3937" d="M 329.5,513.5 C 330.404,514.209 330.737,515.209 330.5,516.5C 329.508,516.672 328.842,516.338 328.5,515.5C 329.338,515.158 329.672,514.492 329.5,513.5 Z"/></g>
<g><path style="opacity:0.006" fill="#292728" d="M 328.5,517.5 C 329.525,517.897 329.692,518.563 329,519.5C 328.536,518.906 328.369,518.239 328.5,517.5 Z"/></g>
<g><path style="opacity:0.32" fill="#393a39" d="M 920.5,401.5 C 920.833,401.5 921.167,401.5 921.5,401.5C 921.5,462.167 921.5,522.833 921.5,583.5C 921.167,583.5 920.833,583.5 920.5,583.5C 920.434,522.689 920.434,462.023 920.5,401.5 Z"/></g>
<g><path style="opacity:0.004" fill="#2d2c2a" d="M 843.5,521.5 C 844.833,522.167 844.833,522.167 843.5,521.5 Z"/></g>
<g><path style="opacity:0.004" fill="#292826" d="M 330.5,525.5 C 331.833,526.167 331.833,526.167 330.5,525.5 Z"/></g>
<g><path style="opacity:0.004" fill="#2c2c2a" d="M 838.5,528.5 C 839.833,529.167 839.833,529.167 838.5,528.5 Z"/></g>
<g><path style="opacity:0.004" fill="#282626" d="M 331.5,529.5 C 332.833,530.167 332.833,530.167 331.5,529.5 Z"/></g>
<g><path style="opacity:0.004" fill="#2b2c29" d="M 760.5,532.5 C 761.833,533.167 761.833,533.167 760.5,532.5 Z"/></g>
<g><path style="opacity:0.004" fill="#2d2c2a" d="M 768.5,532.5 C 769.833,533.167 769.833,533.167 768.5,532.5 Z"/></g>
<g><path style="opacity:0.004" fill="#2e2d2c" d="M 775.5,533.5 C 775.897,532.475 776.563,532.308 777.5,533C 776.906,533.464 776.239,533.631 775.5,533.5 Z"/></g>
<g><path style="opacity:0.004" fill="#2b2e2b" d="M 783.5,532.5 C 784.833,533.167 784.833,533.167 783.5,532.5 Z"/></g>
<g><path style="opacity:0.008" fill="#2e2e2c" d="M 792.5,532.5 C 793.833,533.167 793.833,533.167 792.5,532.5 Z"/></g>
<g><path style="opacity:0.004" fill="#2e2d2c" d="M 810.5,532.5 C 811.833,533.167 811.833,533.167 810.5,532.5 Z"/></g>
<g><path style="opacity:0.008" fill="#302e2b" d="M 824.5,532.5 C 825.833,533.167 825.833,533.167 824.5,532.5 Z"/></g>
<g><path style="opacity:0.004" fill="#292a26" d="M 745.5,533.5 C 746.833,534.167 746.833,534.167 745.5,533.5 Z"/></g>
<g><path style="opacity:0.016" fill="#262624" d="M 742.5,534.5 C 743.833,535.167 743.833,535.167 742.5,534.5 Z"/></g>
<g><path style="opacity:0.004" fill="#272524" d="M 706.5,536.5 C 707.833,537.167 707.833,537.167 706.5,536.5 Z"/></g>
<g><path style="opacity:0.008" fill="#262522" d="M 740.5,536.5 C 741.167,536.5 741.5,536.833 741.5,537.5C 741.167,537.167 740.833,536.833 740.5,536.5 Z"/></g>
<g><path style="opacity:0.004" fill="#272523" d="M 742.5,536.5 C 743.833,537.167 743.833,537.167 742.5,536.5 Z"/></g>
<g><path style="opacity:0.004" fill="#272626" d="M 267.5,537.5 C 268.833,538.167 268.833,538.167 267.5,537.5 Z"/></g>
<g><path style="opacity:0.004" fill="#262524" d="M 741.5,537.5 C 741.833,537.5 742.167,537.5 742.5,537.5C 742.315,538.17 741.981,538.17 741.5,537.5 Z"/></g>
<g><path style="opacity:0.004" fill="#262624" d="M 739.5,538.5 C 740.833,539.167 740.833,539.167 739.5,538.5 Z"/></g>
<g><path style="opacity:0.004" fill="#262624" d="M 706.5,540.5 C 707.833,541.167 707.833,541.167 706.5,540.5 Z"/></g>
<g><path style="opacity:0.004" fill="#272323" d="M 738.5,540.5 C 739.833,541.167 739.833,541.167 738.5,540.5 Z"/></g>
<g><path style="opacity:0.006" fill="#282626" d="M 335.5,545.5 C 336.525,545.897 336.692,546.563 336,547.5C 335.536,546.906 335.369,546.239 335.5,545.5 Z"/></g>
<g><path style="opacity:0.012" fill="#2b2a2c" d="M 670.5,545.5 C 671.833,546.167 671.833,546.167 670.5,545.5 Z"/></g>
<g><path style="opacity:0.004" fill="#2b2b2d" d="M 670.5,547.5 C 671.833,548.167 671.833,548.167 670.5,547.5 Z"/></g>
<g><path style="opacity:0.004" fill="#272625" d="M 337.5,548.5 C 336.833,549.167 336.833,549.167 337.5,548.5 Z"/></g>
<g><path style="opacity:0.004" fill="#252526" d="M 55.5,549.5 C 56.8333,550.167 56.8333,550.167 55.5,549.5 Z"/></g>
<g><path style="opacity:0.004" fill="#2c292c" d="M 670.5,549.5 C 671.525,549.897 671.692,550.563 671,551.5C 670.536,550.906 670.369,550.239 670.5,549.5 Z"/></g>
<g><path style="opacity:0.004" fill="#282627" d="M 337.5,552.5 C 336.833,551.167 336.833,551.167 337.5,552.5 Z"/></g>
<g><path style="opacity:0.008" fill="#292827" d="M 55.5,553.5 C 56.8333,554.167 56.8333,554.167 55.5,553.5 Z"/></g>
<g><path style="opacity:0.008" fill="#262724" d="M 337.5,552.5 C 338.404,553.209 338.737,554.209 338.5,555.5C 337.596,554.791 337.263,553.791 337.5,552.5 Z"/></g>
<g><path style="opacity:0.004" fill="#2a2827" d="M 703.5,554.5 C 704.833,555.167 704.833,555.167 703.5,554.5 Z"/></g>
<g><path style="opacity:0.004" fill="#272925" d="M 705.5,555.5 C 706.833,556.167 706.833,556.167 705.5,555.5 Z"/></g>
<g><path style="opacity:0.008" fill="#262626" d="M 56.5,559.5 C 57.8333,560.167 57.8333,560.167 56.5,559.5 Z"/></g>
<g><path style="opacity:0.004" fill="#2b2929" d="M 669.5,559.5 C 670.833,560.167 670.833,560.167 669.5,559.5 Z"/></g>
<g><path style="opacity:0.008" fill="#2e312f" d="M 295.5,560.5 C 296.833,561.167 296.833,561.167 295.5,560.5 Z"/></g>
<g><path style="opacity:0.104" fill="#383836" d="M 58.5,559.5 C 59.4345,560.568 59.7678,561.901 59.5,563.5C 58.7611,563.631 58.0944,563.464 57.5,563C 58.3366,561.989 58.67,560.822 58.5,559.5 Z"/></g>
<g><path style="opacity:0.008" fill="#2a2825" d="M 704.5,562.5 C 705.833,563.167 705.833,563.167 704.5,562.5 Z"/></g>
<g><path style="opacity:0.004" fill="#2e2d2e" d="M 302.5,563.5 C 303.833,564.167 303.833,564.167 302.5,563.5 Z"/></g>
<g><path style="opacity:0.004" fill="#262625" d="M 57.5,564.5 C 58.8333,565.167 58.8333,565.167 57.5,564.5 Z"/></g>
<g><path style="opacity:0.004" fill="#282827" d="M 340.5,566.5 C 341.833,567.167 341.833,567.167 340.5,566.5 Z"/></g>
<g><path style="opacity:0.004" fill="#292b29" d="M 668.5,566.5 C 669.833,567.167 669.833,567.167 668.5,566.5 Z"/></g>
<g><path style="opacity:0.008" fill="#282726" d="M 704.5,566.5 C 705.833,567.167 705.833,567.167 704.5,566.5 Z"/></g>
<g><path style="opacity:0.012" fill="#2c2c2b" d="M 301.5,567.5 C 302.833,568.167 302.833,568.167 301.5,567.5 Z"/></g>
<g><path style="opacity:0.004" fill="#272928" d="M 703.5,568.5 C 704.833,569.167 704.833,569.167 703.5,568.5 Z"/></g>
<g><path style="opacity:0.012" fill="#292726" d="M 429.5,571.5 C 430.251,570.427 431.251,570.26 432.5,571C 431.552,571.483 430.552,571.649 429.5,571.5 Z"/></g>
<g><path style="opacity:0.012" fill="#282b26" d="M 433.5,570.5 C 434.833,571.167 434.833,571.167 433.5,570.5 Z"/></g>
<g><path style="opacity:0.012" fill="#282828" d="M 425.5,571.5 C 426.833,572.167 426.833,572.167 425.5,571.5 Z"/></g>
<g><path style="opacity:0.004" fill="#292726" d="M 439.5,571.5 C 438.833,572.167 438.833,572.167 439.5,571.5 Z"/></g>
<g><path style="opacity:0.008" fill="#292927" d="M 667.5,571.5 C 668.833,572.167 668.833,572.167 667.5,571.5 Z"/></g>
<g><path style="opacity:0.012" fill="#282928" d="M 703.5,571.5 C 704.833,572.167 704.833,572.167 703.5,571.5 Z"/></g>
<g><path style="opacity:0.008" fill="#292926" d="M 434.5,572.5 C 435.833,573.167 435.833,573.167 434.5,572.5 Z"/></g>
<g><path style="opacity:0.02" fill="#272626" d="M 441.5,572.5 C 440.833,573.167 440.833,573.167 441.5,572.5 Z"/></g>
<g><path style="opacity:0.008" fill="#292a27" d="M 251.5,573.5 C 252.833,574.167 252.833,574.167 251.5,573.5 Z"/></g>
<g><path style="opacity:0.012" fill="#2e2e2c" d="M 60.5,571.5 C 61.404,572.209 61.7373,573.209 61.5,574.5C 60.1329,575.853 59.1329,575.519 58.5,573.5C 58.8457,572.304 59.3457,572.304 60,573.5C 60.4643,572.906 60.631,572.239 60.5,571.5 Z"/></g>
<g><path style="opacity:0.004" fill="#292926" d="M 439.5,574.5 C 440.833,575.167 440.833,575.167 439.5,574.5 Z"/></g>
<g><path style="opacity:0.004" fill="#282925" d="M 444.5,574.5 C 443.833,575.167 443.833,575.167 444.5,574.5 Z"/></g>
<g><path style="opacity:0.004" fill="#272928" d="M 703.5,574.5 C 704.833,575.167 704.833,575.167 703.5,574.5 Z"/></g>
<g><path style="opacity:0.004" fill="#292926" d="M 666.5,576.5 C 667.833,577.167 667.833,577.167 666.5,576.5 Z"/></g>
<g><path style="opacity:0.004" fill="#272526" d="M 343.5,576.5 C 344.573,577.251 344.74,578.251 344,579.5C 343.517,578.552 343.351,577.552 343.5,576.5 Z"/></g>
<g><path style="opacity:0.004" fill="#282926" d="M 448.5,578.5 C 447.833,579.167 447.833,579.167 448.5,578.5 Z"/></g>
<g><path style="opacity:0.008" fill="#282625" d="M 449.5,581.5 C 448.833,580.167 448.833,580.167 449.5,581.5 Z"/></g>
<g><path style="opacity:0.004" fill="#282925" d="M 413.5,581.5 C 414.833,582.167 414.833,582.167 413.5,581.5 Z"/></g>
<g><path style="opacity:0.004" fill="#282927" d="M 449.5,581.5 C 449.833,581.5 450.167,581.5 450.5,581.5C 450.315,582.17 449.981,582.17 449.5,581.5 Z"/></g>
<g><path style="opacity:0.008" fill="#2d2d2b" d="M 289.5,583.5 C 288.833,582.167 288.833,582.167 289.5,583.5 Z"/></g>
<g><path style="opacity:0.012" fill="#2c2a2b" d="M 288.5,583.5 C 287.833,584.167 287.833,584.167 288.5,583.5 Z"/></g>
<g><path style="opacity:0.008" fill="#2e2c2b" d="M 306.5,584.5 C 307.833,585.167 307.833,585.167 306.5,584.5 Z"/></g>
<g><path style="opacity:0.004" fill="#272725" d="M 345.5,584.5 C 346.833,585.167 346.833,585.167 345.5,584.5 Z"/></g>
<g><path style="opacity:0.004" fill="#292926" d="M 343.5,586.5 C 344.833,587.167 344.833,587.167 343.5,586.5 Z"/></g>
<g><path style="opacity:0.004" fill="#272826" d="M 345.5,586.5 C 346.833,587.167 346.833,587.167 345.5,586.5 Z"/></g>
<g><path style="opacity:0.008" fill="#272525" d="M 411.5,586.5 C 412.833,587.167 412.833,587.167 411.5,586.5 Z"/></g>
<g><path style="opacity:0.004" fill="#292a27" d="M 346.5,588.5 C 347.833,589.167 347.833,589.167 346.5,588.5 Z"/></g>
<g><path style="opacity:0.004" fill="#242523" d="M 64.5,589.5 C 63.8333,590.167 63.8333,590.167 64.5,589.5 Z"/></g>
<g><path style="opacity:0.004" fill="#2d2d2d" d="M 285.5,592.5 C 284.833,591.167 284.833,591.167 285.5,592.5 Z"/></g>
<g><path style="opacity:0.006" fill="#282626" d="M 456.5,594.5 C 455.475,594.103 455.308,593.437 456,592.5C 456.464,593.094 456.631,593.761 456.5,594.5 Z"/></g>
<g><path style="opacity:0.004" fill="#242624" d="M 65.5,594.5 C 64.8333,593.167 64.8333,593.167 65.5,594.5 Z"/></g>
<g><path style="opacity:0.008" fill="#2b2b28" d="M 280.5,593.5 C 281.833,594.167 281.833,594.167 280.5,593.5 Z"/></g>
<g><path style="opacity:0.008" fill="#292827" d="M 347.5,593.5 C 348.833,594.167 348.833,594.167 347.5,593.5 Z"/></g>
<g><path style="opacity:0.004" fill="#2a2a2a" d="M 699.5,593.5 C 700.833,594.167 700.833,594.167 699.5,593.5 Z"/></g>
<g><path style="opacity:0.106" fill="#31302f" d="M 66.5,593.5 C 67.3382,593.842 67.6716,594.508 67.5,595.5C 66.0335,598.258 65.3668,597.925 65.5,594.5C 66.1667,594.5 66.5,594.167 66.5,593.5 Z"/></g>
<g><path style="opacity:0.004" fill="#282826" d="M 456.5,594.5 C 457.525,594.897 457.692,595.563 457,596.5C 456.536,595.906 456.369,595.239 456.5,594.5 Z"/></g>
<g><path style="opacity:0.004" fill="#282826" d="M 348.5,596.5 C 349.833,597.167 349.833,597.167 348.5,596.5 Z"/></g>
<g><path style="opacity:0.006" fill="#292626" d="M 459.5,597.5 C 460.167,597.5 460.5,597.833 460.5,598.5C 460.44,599.043 460.107,599.376 459.5,599.5C 458.227,598.743 458.227,598.077 459.5,597.5 Z"/></g>
<g><path style="opacity:0.004" fill="#2d2e2b" d="M 279.5,598.5 C 280.833,599.167 280.833,599.167 279.5,598.5 Z"/></g>
<g><path style="opacity:0.547" fill="#212121" d="M 737.5,540.5 C 736.856,570.973 736.189,601.307 735.5,631.5C 735.333,601.831 735.5,572.165 736,542.5C 736.278,541.584 736.778,540.918 737.5,540.5 Z"/></g>
<g><path style="opacity:0.004" fill="#242624" d="M 66.5,599.5 C 67.8333,600.167 67.8333,600.167 66.5,599.5 Z"/></g>
<g><path style="opacity:0.004" fill="#242424" d="M 64.5,600.5 C 65.8333,601.167 65.8333,601.167 64.5,600.5 Z"/></g>
<g><path style="opacity:0.004" fill="#282925" d="M 460.5,601.5 C 461.833,602.167 461.833,602.167 460.5,601.5 Z"/></g>
<g><path style="opacity:0.004" fill="#262625" d="M 68.5,601.5 C 68.631,602.239 68.4643,602.906 68,603.5C 67.3083,602.563 67.475,601.897 68.5,601.5 Z"/></g>
<g><path style="opacity:0.004" fill="#2c2c2b" d="M 279.5,602.5 C 280.833,603.167 280.833,603.167 279.5,602.5 Z"/></g>
<g><path style="opacity:0.004" fill="#262322" d="M 69.5,604.5 C 68.8333,605.167 68.8333,605.167 69.5,604.5 Z"/></g>
<g><path style="opacity:0.008" fill="#272827" d="M 464.5,608.5 C 465.833,609.167 465.833,609.167 464.5,608.5 Z"/></g>
<g><path style="opacity:0.004" fill="#2a2a29" d="M 275.5,609.5 C 276.833,610.167 276.833,610.167 275.5,609.5 Z"/></g>
<g><path style="opacity:0.004" fill="#282727" d="M 464.5,609.5 C 463.833,610.167 463.833,610.167 464.5,609.5 Z"/></g>
<g><path style="opacity:0.008" fill="#282a26" d="M 465.5,610.5 C 466.833,611.167 466.833,611.167 465.5,610.5 Z"/></g>
<g><path style="opacity:0.004" fill="#2c2d2b" d="M 275.5,611.5 C 276.833,612.167 276.833,612.167 275.5,611.5 Z"/></g>
<g><path style="opacity:0.004" fill="#2a2928" d="M 464.5,612.5 C 465.833,613.167 465.833,613.167 464.5,612.5 Z"/></g>
<g><path style="opacity:0.008" fill="#2a2a2a" d="M 466.5,612.5 C 467.833,613.167 467.833,613.167 466.5,612.5 Z"/></g>
<g><path style="opacity:0.004" fill="#212220" d="M 971.5,613.5 C 972.833,614.167 972.833,614.167 971.5,613.5 Z"/></g>
<g><path style="opacity:0.016" fill="#292827" d="M 403.5,614.5 C 404.833,615.167 404.833,615.167 403.5,614.5 Z"/></g>
<g><path style="opacity:0.008" fill="#272825" d="M 654.5,614.5 C 655.833,615.167 655.833,615.167 654.5,614.5 Z"/></g>
<g><path style="opacity:0.008" fill="#252424" d="M 74.5,616.5 C 74.5912,618.698 73.9245,619.031 72.5,617.5C 72.3668,614.075 73.0335,613.742 74.5,616.5 Z"/></g>
<g><path style="opacity:0.012" fill="#2a2a28" d="M 275.5,616.5 C 274.833,615.167 274.833,615.167 275.5,616.5 Z"/></g>
<g><path style="opacity:0.004" fill="#2a2c29" d="M 314.5,616.5 C 315.833,617.167 315.833,617.167 314.5,616.5 Z"/></g>
<g><path style="opacity:0.004" fill="#242423" d="M 72.5,617.5 C 71.8333,618.167 71.8333,618.167 72.5,617.5 Z"/></g>
<g><path style="opacity:0.004" fill="#292a27" d="M 274.5,619.5 C 273.833,618.167 273.833,618.167 274.5,619.5 Z"/></g>
<g><path style="opacity:0.004" fill="#2a2927" d="M 351.5,618.5 C 352.833,619.167 352.833,619.167 351.5,618.5 Z"/></g>
<g><path style="opacity:0.008" fill="#282b27" d="M 353.5,618.5 C 354.833,619.167 354.833,619.167 353.5,618.5 Z"/></g>
<g><path style="opacity:0.004" fill="#282a27" d="M 652.5,618.5 C 653.833,619.167 653.833,619.167 652.5,618.5 Z"/></g>
<g><path style="opacity:0.008" fill="#2b2c2a" d="M 273.5,619.5 C 272.833,620.167 272.833,620.167 273.5,619.5 Z"/></g>
<g><path style="opacity:0.016" fill="#242624" d="M 75.5,621.5 C 76.8333,622.167 76.8333,622.167 75.5,621.5 Z"/></g>
<g><path style="opacity:0.004" fill="#2b2b28" d="M 355.5,622.5 C 354.475,622.103 354.308,621.437 355,620.5C 355.464,621.094 355.631,621.761 355.5,622.5 Z"/></g>
<g><path style="opacity:0.004" fill="#282a29" d="M 651.5,621.5 C 652.833,622.167 652.833,622.167 651.5,621.5 Z"/></g>
<g><path style="opacity:0.012" fill="#262826" d="M 355.5,622.5 C 355.833,622.5 356.167,622.5 356.5,622.5C 356.315,623.17 355.981,623.17 355.5,622.5 Z"/></g>
<g><path style="opacity:0.008" fill="#2b2a2a" d="M 472.5,623.5 C 473.833,624.167 473.833,624.167 472.5,623.5 Z"/></g>
<g><path style="opacity:0.004" fill="#252527" d="M 737.5,626.5 C 738.833,627.167 738.833,627.167 737.5,626.5 Z"/></g>
<g><path style="opacity:0.004" fill="#2c2c2a" d="M 227.5,627.5 C 228.833,628.167 228.833,628.167 227.5,627.5 Z"/></g>
<g><path style="opacity:0.008" fill="#292b27" d="M 356.5,628.5 C 357.833,629.167 357.833,629.167 356.5,628.5 Z"/></g>
<g><path style="opacity:0.008" fill="#373635" d="M 477.5,628.5 C 478.401,629.29 479.068,630.29 479.5,631.5C 478.448,631.649 477.448,631.483 476.5,631C 477.252,630.329 477.586,629.496 477.5,628.5 Z"/></g>
<g><path style="opacity:0.008" fill="#272928" d="M 318.5,631.5 C 319.833,632.167 319.833,632.167 318.5,631.5 Z"/></g>
<g><path style="opacity:0.004" fill="#292826" d="M 318.5,633.5 C 319.833,634.167 319.833,634.167 318.5,633.5 Z"/></g>
<g><path style="opacity:0.008" fill="#2c2b2a" d="M 266.5,637.5 C 265.833,636.167 265.833,636.167 266.5,637.5 Z"/></g>
<g><path style="opacity:0.012" fill="#292c2a" d="M 643.5,637.5 C 644.833,638.167 644.833,638.167 643.5,637.5 Z"/></g>
<g><path style="opacity:0.072" fill="#232321" d="M 920.5,583.5 C 920.833,583.5 921.167,583.5 921.5,583.5C 921.5,629.167 921.5,674.833 921.5,720.5C 920.167,720.833 920.167,721.167 921.5,721.5C 921.5,723.167 921.5,724.833 921.5,726.5C 920.467,725.088 919.801,723.422 919.5,721.5C 919.914,675.043 920.247,629.043 920.5,583.5 Z"/></g>
<g><path style="opacity:0.004" fill="#2c2d2c" d="M 396.5,638.5 C 397.833,639.167 397.833,639.167 396.5,638.5 Z"/></g>
<g><path style="opacity:0.008" fill="#2b2b2a" d="M 479.5,638.5 C 480.833,639.167 480.833,639.167 479.5,638.5 Z"/></g>
<g><path style="opacity:0.05" fill="#323232" d="M 439.5,642.5 C 438.833,642.167 438.167,641.833 437.5,641.5C 437.369,640.624 437.702,639.957 438.5,639.5C 439.386,640.325 439.719,641.325 439.5,642.5 Z"/></g>
<g><path style="opacity:0.004" fill="#2b2b2b" d="M 683.5,639.5 C 684.833,640.167 684.833,640.167 683.5,639.5 Z"/></g>
<g><path style="opacity:0.004" fill="#292926" d="M 101.5,641.5 C 102.833,642.167 102.833,642.167 101.5,641.5 Z"/></g>
<g><path style="opacity:0.004" fill="#2f2f2d" d="M 431.5,641.5 C 432.833,642.167 432.833,642.167 431.5,641.5 Z"/></g>
<g><path style="opacity:0.004" fill="#302f2d" d="M 489.5,641.5 C 490.833,642.167 490.833,642.167 489.5,641.5 Z"/></g>
<g><path style="opacity:0.004" fill="#302e2d" d="M 149.5,642.5 C 150.833,643.167 150.833,643.167 149.5,642.5 Z"/></g>
<g><path style="opacity:0.004" fill="#31302e" d="M 181.5,642.5 C 182.833,643.167 182.833,643.167 181.5,642.5 Z"/></g>
<g><path style="opacity:0.008" fill="#2d2d2a" d="M 361.5,642.5 C 360.833,643.167 360.833,643.167 361.5,642.5 Z"/></g>
<g><path style="opacity:0.004" fill="#30312e" d="M 533.5,642.5 C 534.833,643.167 534.833,643.167 533.5,642.5 Z"/></g>
<g><path style="opacity:0.004" fill="#2d2c2b" d="M 553.5,642.5 C 554.833,643.167 554.833,643.167 553.5,642.5 Z"/></g>
<g><path style="opacity:0.004" fill="#2b2b28" d="M 557.5,642.5 C 558.833,643.167 558.833,643.167 557.5,642.5 Z"/></g>
<g><path style="opacity:0.004" fill="#2d2e2b" d="M 718.5,642.5 C 717.833,643.167 717.833,643.167 718.5,642.5 Z"/></g>
<g><path style="opacity:0.004" fill="#292726" d="M 563.5,643.5 C 562.749,644.573 561.749,644.74 560.5,644C 561.448,643.517 562.448,643.351 563.5,643.5 Z"/></g>
<g><path style="opacity:0.004" fill="#2d2b2a" d="M 686.5,643.5 C 687.833,644.167 687.833,644.167 686.5,643.5 Z"/></g>
<g><path style="opacity:0.004" fill="#2e2d2a" d="M 360.5,644.5 C 361.833,645.167 361.833,645.167 360.5,644.5 Z"/></g>
<g><path style="opacity:0.004" fill="#292927" d="M 565.5,644.5 C 564.833,645.167 564.833,645.167 565.5,644.5 Z"/></g>
<g><path style="opacity:0.004" fill="#2a2a28" d="M 255.5,647.5 C 256.833,648.167 256.833,648.167 255.5,647.5 Z"/></g>
<g><path style="opacity:0.008" fill="#2f2e2f" d="M 432.5,649.5 C 433.833,650.167 433.833,650.167 432.5,649.5 Z"/></g>
<g><path style="opacity:0.004" fill="#2c2a2b" d="M 359.5,650.5 C 360.525,650.897 360.692,651.563 360,652.5C 359.536,651.906 359.369,651.239 359.5,650.5 Z"/></g>
<g><path style="opacity:0.008" fill="#2e2c2b" d="M 362.5,651.5 C 363.525,651.897 363.692,652.563 363,653.5C 362.536,652.906 362.369,652.239 362.5,651.5 Z"/></g>
<g><path style="opacity:0.008" fill="#2a2c29" d="M 364.5,654.5 C 363.833,655.167 363.833,655.167 364.5,654.5 Z"/></g>
<g><path style="opacity:0.004" fill="#292626" d="M 324.5,654.5 C 325.525,654.897 325.692,655.563 325,656.5C 324.536,655.906 324.369,655.239 324.5,654.5 Z"/></g>
<g><path style="opacity:0.004" fill="#2d2e2b" d="M 359.5,656.5 C 360.833,657.167 360.833,657.167 359.5,656.5 Z"/></g>
<g><path style="opacity:0.012" fill="#292727" d="M 325.5,658.5 C 326.833,659.167 326.833,659.167 325.5,658.5 Z"/></g>
<g><path style="opacity:0.004" fill="#292826" d="M 326.5,661.5 C 327.833,662.167 327.833,662.167 326.5,661.5 Z"/></g>
<g><path style="opacity:0.008" fill="#2c2e2c" d="M 389.5,663.5 C 390.833,664.167 390.833,664.167 389.5,663.5 Z"/></g>
<g><path style="opacity:0.004" fill="#292824" d="M 252.5,669.5 C 251.833,668.167 251.833,668.167 252.5,669.5 Z"/></g>
<g><path style="opacity:0.008" fill="#282a27" d="M 368.5,669.5 C 367.833,670.167 367.833,670.167 368.5,669.5 Z"/></g>
<g><path style="opacity:0.004" fill="#2c2d2e" d="M 387.5,669.5 C 388.833,670.167 388.833,670.167 387.5,669.5 Z"/></g>
<g><path style="opacity:0.007" fill="#282727" d="M 572.5,672.5 C 571.833,672.5 571.5,672.833 571.5,673.5C 570.957,673.44 570.624,673.107 570.5,672.5C 571.257,671.227 571.923,671.227 572.5,672.5 Z"/></g>
<g><path style="opacity:0.012" fill="#2e2e2b" d="M 369.5,674.5 C 368.833,675.167 368.833,675.167 369.5,674.5 Z"/></g>
<g><path style="opacity:0.004" fill="#2c2c2a" d="M 467.5,677.5 C 468.833,678.167 468.833,678.167 467.5,677.5 Z"/></g>
<g><path style="opacity:0.008" fill="#242524" d="M 112.5,680.5 C 111.833,679.167 111.833,679.167 112.5,680.5 Z"/></g>
<g><path style="opacity:0.012" fill="#232021" d="M 114.5,679.5 C 115.833,680.167 115.833,680.167 114.5,679.5 Z"/></g>
<g><path style="opacity:0.004" fill="#292b29" d="M 223.5,680.5 C 222.833,679.167 222.833,679.167 223.5,680.5 Z"/></g>
<g><path style="opacity:0.008" fill="#3d3c3a" d="M 183.5,681.5 C 181.5,681.5 179.5,681.5 177.5,681.5C 179.218,680.776 181.052,680.109 183,679.5C 183.464,680.094 183.631,680.761 183.5,681.5 Z"/></g>
<g><path style="opacity:0.008" fill="#3b3838" d="M 192.5,680.5 C 191.833,680.5 191.5,680.833 191.5,681.5C 189.833,681.5 188.167,681.5 186.5,681.5C 187.997,680.694 189.664,680.028 191.5,679.5C 192.107,679.624 192.44,679.957 192.5,680.5 Z"/></g>
<g><path style="opacity:0.016" fill="#3d3b3b" d="M 200.5,681.5 C 198.5,681.5 196.5,681.5 194.5,681.5C 196.642,679.269 198.642,679.269 200.5,681.5 Z"/></g>
<g><path style="opacity:0.024" fill="#3e3d3d" d="M 488.5,681.5 C 481.978,681.823 475.645,681.49 469.5,680.5C 476.19,679.488 482.523,679.821 488.5,681.5 Z"/></g>
<g><path style="opacity:0.004" fill="#2e2d2c" d="M 368.5,681.5 C 369.833,682.167 369.833,682.167 368.5,681.5 Z"/></g>
<g><path style="opacity:0.008" fill="#2f2f2f" d="M 371.5,686.5 C 372.833,687.167 372.833,687.167 371.5,686.5 Z"/></g>
<g><path style="opacity:0.004" fill="#202121" d="M 114.5,687.5 C 115.833,688.167 115.833,688.167 114.5,687.5 Z"/></g>
<g><path style="opacity:0.004" fill="#222121" d="M 111.5,688.5 C 112.833,689.167 112.833,689.167 111.5,688.5 Z"/></g>
<g><path style="opacity:0.024" fill="#3c3b39" d="M 373.5,686.5 C 374.404,687.209 374.737,688.209 374.5,689.5C 373.761,689.631 373.094,689.464 372.5,689C 373.252,688.329 373.586,687.496 373.5,686.5 Z"/></g>
<g><path style="opacity:0.008" fill="#20201f" d="M 119.5,696.5 C 120.833,697.167 120.833,697.167 119.5,696.5 Z"/></g>
<g><path style="opacity:0.004" fill="#2b2c2a" d="M 416.5,697.5 C 415.833,696.167 415.833,696.167 416.5,697.5 Z"/></g>
<g><path style="opacity:0.004" fill="#272828" d="M 420.5,697.5 C 419.833,696.167 419.833,696.167 420.5,697.5 Z"/></g>
<g><path style="opacity:0.004" fill="#212122" d="M 123.5,697.5 C 122.833,698.167 122.833,698.167 123.5,697.5 Z"/></g>
<g><path style="opacity:0.004" fill="#2e2d2e" d="M 379.5,697.5 C 380.833,698.167 380.833,698.167 379.5,697.5 Z"/></g>
<g><path style="opacity:0.004" fill="#2a2d2b" d="M 416.5,697.5 C 417.833,698.167 417.833,698.167 416.5,697.5 Z"/></g>
<g><path style="opacity:0.004" fill="#211f1e" d="M 119.5,698.5 C 120.833,699.167 120.833,699.167 119.5,698.5 Z"/></g>
<g><path style="opacity:0.008" fill="#2d292a" d="M 416.5,698.5 C 415.833,699.167 415.833,699.167 416.5,698.5 Z"/></g>
<g><path style="opacity:0.009" fill="#333231" d="M 376.5,698.5 C 377.167,698.5 377.833,698.5 378.5,698.5C 377.814,702.051 376.814,702.217 375.5,699C 375.728,698.601 376.062,698.435 376.5,698.5 Z"/></g>
<g><path style="opacity:0.008" fill="#2b2a29" d="M 417.5,699.5 C 418.833,700.167 418.833,700.167 417.5,699.5 Z"/></g>
<g><path style="opacity:0.004" fill="#20201e" d="M 126.5,701.5 C 125.749,702.573 124.749,702.74 123.5,702C 124.448,701.517 125.448,701.351 126.5,701.5 Z"/></g>
<g><path style="opacity:0.004" fill="#2f2f2f" d="M 380.5,702.5 C 381.833,703.167 381.833,703.167 380.5,702.5 Z"/></g>
<g><path style="opacity:0.004" fill="#1f1f1f" d="M 128.5,703.5 C 129.167,703.5 129.5,703.833 129.5,704.5C 129.44,705.043 129.107,705.376 128.5,705.5C 127.227,704.743 127.227,704.077 128.5,703.5 Z"/></g>
<g><path style="opacity:0.004" fill="#2a2a2a" d="M 416.5,704.5 C 417.525,704.897 417.692,705.563 417,706.5C 416.536,705.906 416.369,705.239 416.5,704.5 Z"/></g>
<g><path style="opacity:0.008" fill="#20211d" d="M 130.5,706.5 C 129.833,707.167 129.833,707.167 130.5,706.5 Z"/></g>
<g><path style="opacity:0.004" fill="#2b2828" d="M 415.5,707.5 C 416.833,708.167 416.833,708.167 415.5,707.5 Z"/></g>
<g><path style="opacity:0.004" fill="#242425" d="M 598.5,707.5 C 599.833,708.167 599.833,708.167 598.5,707.5 Z"/></g>
<g><path style="opacity:0.004" fill="#201d1c" d="M 132.5,708.5 C 131.833,709.167 131.833,709.167 132.5,708.5 Z"/></g>
<g><path style="opacity:0.141" fill="#3a393a" d="M 417.5,710.5 C 417.737,711.791 417.404,712.791 416.5,713.5C 415.185,712.105 415.519,711.105 417.5,710.5 Z"/></g>
<g><path style="opacity:0.012" fill="#20201d" d="M 137.5,714.5 C 136.833,715.167 136.833,715.167 137.5,714.5 Z"/></g>
<g><path style="opacity:0.004" fill="#2b2b29" d="M 411.5,722.5 C 412.833,723.167 412.833,723.167 411.5,722.5 Z"/></g>
<g><path style="opacity:0.008" fill="#1b1d1a" d="M 144.5,724.5 C 145.833,725.167 145.833,725.167 144.5,724.5 Z"/></g>
<g><path style="opacity:0.004" fill="#2a2a29" d="M 410.5,725.5 C 411.833,726.167 411.833,726.167 410.5,725.5 Z"/></g>
<g><path style="opacity:0.004" fill="#1d1d1d" d="M 147.5,726.5 C 146.833,727.167 146.833,727.167 147.5,726.5 Z"/></g>
<g><path style="opacity:0.012" fill="#2b2a29" d="M 921.5,727.5 C 921.5,729.833 921.5,732.167 921.5,734.5C 920.661,733.359 919.994,732.026 919.5,730.5C 920.641,729.575 920.641,728.741 919.5,728C 920.094,727.536 920.761,727.369 921.5,727.5 Z"/></g>
<g><path style="opacity:0.004" fill="#2b2a29" d="M 409.5,729.5 C 410.525,729.897 410.692,730.563 410,731.5C 409.536,730.906 409.369,730.239 409.5,729.5 Z"/></g>
<g><path style="opacity:0.008" fill="#201f1f" d="M 154.5,734.5 C 153.833,735.167 153.833,735.167 154.5,734.5 Z"/></g>
<g><path style="opacity:0.008" fill="#282626" d="M 408.5,739.5 C 407.475,739.103 407.308,738.437 408,737.5C 408.464,738.094 408.631,738.761 408.5,739.5 Z"/></g>
<g><path style="opacity:0.004" fill="#212221" d="M 919.5,736.5 C 920.573,737.251 920.74,738.251 920,739.5C 919.517,738.552 919.351,737.552 919.5,736.5 Z"/></g>
<g><path style="opacity:0.012" fill="#1b1d1b" d="M 164.5,745.5 C 163.833,746.167 163.833,746.167 164.5,745.5 Z"/></g>
<g><path style="opacity:0.004" fill="#22211f" d="M 919.5,745.5 C 920.833,746.167 920.833,746.167 919.5,745.5 Z"/></g>
<g><path style="opacity:0.008" fill="#1d1e1a" d="M 172.5,754.5 C 171.833,755.167 171.833,755.167 172.5,754.5 Z"/></g>
<g><path style="opacity:0.004" fill="#292927" d="M 399.5,754.5 C 400.833,755.167 400.833,755.167 399.5,754.5 Z"/></g>
<g><path style="opacity:0.007" fill="#282827" d="M 401.5,763.5 C 400.427,762.749 400.26,761.749 401,760.5C 401.483,761.448 401.649,762.448 401.5,763.5 Z"/></g>
<g><path style="opacity:0.004" fill="#1f201d" d="M 550.5,760.5 C 551.833,761.167 551.833,761.167 550.5,760.5 Z"/></g>
<g><path style="opacity:0.006" fill="#232323" d="M 919.5,760.5 C 920.525,760.897 920.692,761.563 920,762.5C 919.536,761.906 919.369,761.239 919.5,760.5 Z"/></g>
<g><path style="opacity:0.004" fill="#1e1e1c" d="M 547.5,762.5 C 548.833,763.167 548.833,763.167 547.5,762.5 Z"/></g>
<g><path style="opacity:0.008" fill="#1f1e1b" d="M 184.5,768.5 C 183.833,767.167 183.833,767.167 184.5,768.5 Z"/></g>
<g><path style="opacity:0.004" fill="#232524" d="M 919.5,767.5 C 920.833,768.167 920.833,768.167 919.5,767.5 Z"/></g>
<g><path style="opacity:0.004" fill="#1e1d1d" d="M 184.5,768.5 C 185.833,769.167 185.833,769.167 184.5,768.5 Z"/></g>
<g><path style="opacity:0.004" fill="#1f1f1f" d="M 541.5,768.5 C 542.833,769.167 542.833,769.167 541.5,768.5 Z"/></g>
<g><path style="opacity:0.004" fill="#252422" d="M 970.5,768.5 C 971.833,769.167 971.833,769.167 970.5,768.5 Z"/></g>
<g><path style="opacity:0.004" fill="#201e1d" d="M 540.5,770.5 C 541.833,771.167 541.833,771.167 540.5,770.5 Z"/></g>
<g><path style="opacity:0.004" fill="#232423" d="M 919.5,770.5 C 920.833,771.167 920.833,771.167 919.5,770.5 Z"/></g>
<g><path style="opacity:0.004" fill="#1e1d1d" d="M 189.5,772.5 C 188.833,773.167 188.833,773.167 189.5,772.5 Z"/></g>
<g><path style="opacity:0.004" fill="#1c1c1a" d="M 188.5,774.5 C 189.833,775.167 189.833,775.167 188.5,774.5 Z"/></g>
<g><path style="opacity:0.004" fill="#20201e" d="M 192.5,775.5 C 191.833,776.167 191.833,776.167 192.5,775.5 Z"/></g>
<g><path style="opacity:0.004" fill="#252523" d="M 919.5,777.5 C 920.833,778.167 920.833,778.167 919.5,777.5 Z"/></g>
<g><path style="opacity:0.004" fill="#1e1e1c" d="M 195.5,778.5 C 194.833,779.167 194.833,779.167 195.5,778.5 Z"/></g>
<g><path style="opacity:0.004" fill="#282824" d="M 395.5,778.5 C 396.833,779.167 396.833,779.167 395.5,778.5 Z"/></g>
<g><path style="opacity:0.004" fill="#272625" d="M 357.5,781.5 C 358.833,782.167 358.833,782.167 357.5,781.5 Z"/></g>
<g><path style="opacity:0.008" fill="#1d1c1a" d="M 191.5,782.5 C 192.833,783.167 192.833,783.167 191.5,782.5 Z"/></g>
<g><path style="opacity:0.004" fill="#1d1d1b" d="M 204.5,787.5 C 203.833,788.167 203.833,788.167 204.5,787.5 Z"/></g>
<g><path style="opacity:0.004" fill="#201f1d" d="M 365.5,791.5 C 366.833,792.167 366.833,792.167 365.5,791.5 Z"/></g>
<g><path style="opacity:0.004" fill="#232423" d="M 912.5,791.5 C 913.833,792.167 913.833,792.167 912.5,791.5 Z"/></g>
<g><path style="opacity:0.016" fill="#20201f" d="M 917.5,792.5 C 916.833,791.167 916.833,791.167 917.5,792.5 Z"/></g>
<g><path style="opacity:0.004" fill="#272525" d="M 372.5,794.5 C 372.897,793.475 373.563,793.308 374.5,794C 373.906,794.464 373.239,794.631 372.5,794.5 Z"/></g>
<g><path style="opacity:0.004" fill="#1c1c1b" d="M 210.5,797.5 C 211.833,798.167 211.833,798.167 210.5,797.5 Z"/></g>
<g><path style="opacity:0.004" fill="#292627" d="M 603.5,797.5 C 604.833,798.167 604.833,798.167 603.5,797.5 Z"/></g>
<g><path style="opacity:0.004" fill="#272726" d="M 627.5,797.5 C 628.833,798.167 628.833,798.167 627.5,797.5 Z"/></g>
<g><path style="opacity:0.004" fill="#292a28" d="M 651.5,797.5 C 652.833,798.167 652.833,798.167 651.5,797.5 Z"/></g>
<g><path style="opacity:0.004" fill="#292a29" d="M 659.5,797.5 C 660.833,798.167 660.833,798.167 659.5,797.5 Z"/></g>
<g><path style="opacity:0.008" fill="#2a2a28" d="M 683.5,797.5 C 684.833,798.167 684.833,798.167 683.5,797.5 Z"/></g>
<g><path style="opacity:0.004" fill="#2a2929" d="M 723.5,797.5 C 724.833,798.167 724.833,798.167 723.5,797.5 Z"/></g>
<g><path style="opacity:0.004" fill="#2a2a29" d="M 731.5,797.5 C 732.833,798.167 732.833,798.167 731.5,797.5 Z"/></g>
<g><path style="opacity:0.004" fill="#292827" d="M 755.5,797.5 C 756.833,798.167 756.833,798.167 755.5,797.5 Z"/></g>
<g><path style="opacity:0.004" fill="#292726" d="M 763.5,797.5 C 764.833,798.167 764.833,798.167 763.5,797.5 Z"/></g>
<g><path style="opacity:0.004" fill="#2a2727" d="M 779.5,797.5 C 780.833,798.167 780.833,798.167 779.5,797.5 Z"/></g>
<g><path style="opacity:0.008" fill="#272827" d="M 787.5,797.5 C 788.833,798.167 788.833,798.167 787.5,797.5 Z"/></g>
<g><path style="opacity:0.008" fill="#282826" d="M 795.5,797.5 C 796.833,798.167 796.833,798.167 795.5,797.5 Z"/></g>
<g><path style="opacity:0.004" fill="#282726" d="M 803.5,797.5 C 804.833,798.167 804.833,798.167 803.5,797.5 Z"/></g>
<g><path style="opacity:0.004" fill="#282726" d="M 819.5,797.5 C 820.833,798.167 820.833,798.167 819.5,797.5 Z"/></g>
<g><path style="opacity:0.004" fill="#272725" d="M 827.5,797.5 C 828.833,798.167 828.833,798.167 827.5,797.5 Z"/></g>
<g><path style="opacity:0.004" fill="#272723" d="M 835.5,797.5 C 836.833,798.167 836.833,798.167 835.5,797.5 Z"/></g>
<g><path style="opacity:0.008" fill="#262626" d="M 843.5,797.5 C 844.833,798.167 844.833,798.167 843.5,797.5 Z"/></g>
<g><path style="opacity:0.004" fill="#272625" d="M 851.5,797.5 C 852.833,798.167 852.833,798.167 851.5,797.5 Z"/></g>
<g><path style="opacity:0.004" fill="#272724" d="M 859.5,797.5 C 860.833,798.167 860.833,798.167 859.5,797.5 Z"/></g>
<g><path style="opacity:0.004" fill="#262524" d="M 875.5,797.5 C 876.833,798.167 876.833,798.167 875.5,797.5 Z"/></g>
<g><path style="opacity:0.004" fill="#252625" d="M 883.5,797.5 C 884.833,798.167 884.833,798.167 883.5,797.5 Z"/></g>
<g><path style="opacity:0.004" fill="#252522" d="M 891.5,797.5 C 892.833,798.167 892.833,798.167 891.5,797.5 Z"/></g>
<g><path style="opacity:0.004" fill="#252422" d="M 899.5,797.5 C 900.833,798.167 900.833,798.167 899.5,797.5 Z"/></g>
<g><path style="opacity:0.004" fill="#222121" d="M 560.5,803.5 C 559.833,802.167 559.833,802.167 560.5,803.5 Z"/></g>
<g><path style="opacity:0.004" fill="#242623" d="M 555.5,808.5 C 554.833,807.167 554.833,807.167 555.5,808.5 Z"/></g>
<g><path style="opacity:0.008" fill="#1e1c1c" d="M 225.5,808.5 C 224.833,809.167 224.833,809.167 225.5,808.5 Z"/></g>
<g><path style="opacity:0.004" fill="#1a1b17" d="M 233.5,818.5 C 234.833,819.167 234.833,819.167 233.5,818.5 Z"/></g>
<g><path style="opacity:0.004" fill="#252524" d="M 544.5,819.5 C 543.833,818.167 543.833,818.167 544.5,819.5 Z"/></g>
<g><path style="opacity:0.004" fill="#1c1c1c" d="M 239.5,824.5 C 240.833,825.167 240.833,825.167 239.5,824.5 Z"/></g>
<g><path style="opacity:0.004" fill="#1e1e1b" d="M 244.5,827.5 C 243.833,828.167 243.833,828.167 244.5,827.5 Z"/></g>
<g><path style="opacity:0.012" fill="#232322" d="M 478.5,830.5 C 479.833,831.167 479.833,831.167 478.5,830.5 Z"/></g>
<g><path style="opacity:0.004" fill="#1e1c19" d="M 249.5,833.5 C 248.833,832.167 248.833,832.167 249.5,833.5 Z"/></g>
<g><path style="opacity:0.004" fill="#1e1d1d" d="M 476.5,832.5 C 477.167,832.5 477.5,832.833 477.5,833.5C 477.167,833.167 476.833,832.833 476.5,832.5 Z"/></g>
<g><path style="opacity:0.008" fill="#232423" d="M 965.5,832.5 C 966.833,833.167 966.833,833.167 965.5,832.5 Z"/></g>
<g><path style="opacity:0.004" fill="#1b191a" d="M 249.5,833.5 C 250.833,834.167 250.833,834.167 249.5,833.5 Z"/></g>
<g><path style="opacity:0.004" fill="#1e1e1e" d="M 475.5,833.5 C 475.833,833.5 476.167,833.5 476.5,833.5C 476.315,834.17 475.981,834.17 475.5,833.5 Z"/></g>
<g><path style="opacity:0.004" fill="#20201d" d="M 477.5,833.5 C 478.833,834.167 478.833,834.167 477.5,833.5 Z"/></g>
<g><path style="opacity:0.004" fill="#252423" d="M 530.5,834.5 C 529.833,833.167 529.833,833.167 530.5,834.5 Z"/></g>
<g><path style="opacity:0.004" fill="#1d1d18" d="M 249.5,834.5 C 248.833,835.167 248.833,835.167 249.5,834.5 Z"/></g>
<g><path style="opacity:0.008" fill="#242524" d="M 966.5,836.5 C 967.833,837.167 967.833,837.167 966.5,836.5 Z"/></g>
<g><path style="opacity:0.006" fill="#272324" d="M 529.5,846.5 C 529.103,847.525 528.437,847.692 527.5,847C 528.094,846.536 528.761,846.369 529.5,846.5 Z"/></g>
<g><path style="opacity:0.008" fill="#242423" d="M 532.5,849.5 C 531.833,850.167 531.833,850.167 532.5,849.5 Z"/></g>
<g><path style="opacity:0.231" fill="#373633" d="M 537.5,850.5 C 670.833,850.5 804.167,850.5 937.5,850.5C 921.005,851.332 904.338,851.832 887.5,852C 889.595,852.556 889.762,853.056 888,853.5C 886.941,853.37 886.108,852.87 885.5,852C 875.5,851.333 865.5,851.333 855.5,852C 856.833,852.333 858.167,852.667 859.5,853C 844.598,851.507 829.598,851.174 814.5,852C 815.5,852.333 816.5,852.667 817.5,853C 814.366,854.252 811.366,854.252 808.5,853C 810.167,852.667 811.833,852.333 813.5,852C 810.937,851.082 808.77,851.582 807,853.5C 803.767,852.214 800.267,851.547 796.5,851.5C 792.982,851.502 789.649,851.835 786.5,852.5C 786.167,852.5 785.833,852.5 785.5,852.5C 781.354,851.353 777.02,851.186 772.5,852C 772.833,852.333 773.167,852.667 773.5,853C 771.833,853.667 770.167,853.667 768.5,853C 768.833,852.667 769.167,852.333 769.5,852C 765.167,851.833 760.833,851.667 756.5,851.5C 751.746,851.534 747.246,852.201 743,853.5C 738.142,851.586 732.975,850.919 727.5,851.5C 726.833,851.5 726.167,851.5 725.5,851.5C 711.163,851.333 696.829,851.5 682.5,852C 684.271,852.535 684.604,853.369 683.5,854.5C 681.885,853.846 680.218,853.346 678.5,853C 679.5,852.667 680.5,852.333 681.5,852C 677.642,851.19 673.976,851.357 670.5,852.5C 670.167,852.5 669.833,852.5 669.5,852.5C 667.359,851.837 665.025,851.503 662.5,851.5C 657.919,852.076 653.752,852.743 650,853.5C 645.752,853.397 645.586,852.897 649.5,852C 646.167,851.333 642.833,851.333 639.5,852C 641.058,852.21 642.391,852.71 643.5,853.5C 632.747,852.29 621.913,851.623 611,851.5C 601.437,851.514 592.104,852.181 583,853.5C 582.617,852.944 582.117,852.611 581.5,852.5C 566.833,851.833 552.167,851.167 537.5,850.5 Z"/></g>
<g><path style="opacity:0.004" fill="#242422" d="M 942.5,851.5 C 943.833,852.167 943.833,852.167 942.5,851.5 Z"/></g>
<g><path style="opacity:0.004" fill="#242420" d="M 536.5,852.5 C 537.833,853.167 537.833,853.167 536.5,852.5 Z"/></g>
<g><path style="opacity:0.004" fill="#232222" d="M 542.5,852.5 C 543.833,853.167 543.833,853.167 542.5,852.5 Z"/></g>
<g><path style="opacity:0.004" fill="#202120" d="M 550.5,852.5 C 551.833,853.167 551.833,853.167 550.5,852.5 Z"/></g>
<g><path style="opacity:0.008" fill="#242220" d="M 552.5,852.5 C 553.833,853.167 553.833,853.167 552.5,852.5 Z"/></g>
<g><path style="opacity:0.008" fill="#222020" d="M 554.5,852.5 C 555.833,853.167 555.833,853.167 554.5,852.5 Z"/></g>
<g><path style="opacity:0.004" fill="#1f1d1d" d="M 558.5,853.5 C 559.946,852.387 561.613,852.22 563.5,853C 561.866,853.494 560.199,853.66 558.5,853.5 Z"/></g>
<g><path style="opacity:0.004" fill="#1f1e1e" d="M 566.5,852.5 C 567.833,853.167 567.833,853.167 566.5,852.5 Z"/></g>
<g><path style="opacity:0.008" fill="#201f1e" d="M 568.5,852.5 C 569.833,853.167 569.833,853.167 568.5,852.5 Z"/></g>
<g><path style="opacity:0.004" fill="#201f1d" d="M 570.5,852.5 C 571.833,853.167 571.833,853.167 570.5,852.5 Z"/></g>
<g><path style="opacity:0.004" fill="#1f1d1c" d="M 574.5,853.5 C 576.035,852.212 577.701,852.212 579.5,853.5C 578.113,853.807 576.446,853.807 574.5,853.5 Z"/></g>
<g><path style="opacity:0.008" fill="#1c1e1c" d="M 581.5,852.5 C 580.833,853.167 580.833,853.167 581.5,852.5 Z"/></g>
<g><path style="opacity:0.008" fill="#1e1d1a" d="M 584.5,852.5 C 585.833,853.167 585.833,853.167 584.5,852.5 Z"/></g>
<g><path style="opacity:0.004" fill="#1e1d1a" d="M 586.5,852.5 C 587.833,853.167 587.833,853.167 586.5,852.5 Z"/></g>
<g><path style="opacity:0.008" fill="#1d1e1c" d="M 590.5,852.5 C 591.833,853.167 591.833,853.167 590.5,852.5 Z"/></g>
<g><path style="opacity:0.007" fill="#1e1c1b" d="M 592.5,853.5 C 593.251,852.427 594.251,852.26 595.5,853C 594.552,853.483 593.552,853.649 592.5,853.5 Z"/></g>
<g><path style="opacity:0.004" fill="#1c1d1d" d="M 596.5,852.5 C 597.833,853.167 597.833,853.167 596.5,852.5 Z"/></g>
<g><path style="opacity:0.012" fill="#1d1d1c" d="M 598.5,852.5 C 599.833,853.167 599.833,853.167 598.5,852.5 Z"/></g>
<g><path style="opacity:0.004" fill="#1f1f1b" d="M 600.5,852.5 C 601.833,853.167 601.833,853.167 600.5,852.5 Z"/></g>
<g><path style="opacity:0.012" fill="#1f1d1c" d="M 602.5,852.5 C 603.833,853.167 603.833,853.167 602.5,852.5 Z"/></g>
<g><path style="opacity:0.006" fill="#1f1d1c" d="M 606.5,853.5 C 607.946,852.387 609.613,852.22 611.5,853C 609.866,853.494 608.199,853.66 606.5,853.5 Z"/></g>
<g><path style="opacity:0.004" fill="#1d1e1a" d="M 612.5,852.5 C 613.833,853.167 613.833,853.167 612.5,852.5 Z"/></g>
<g><path style="opacity:0.009" fill="#1d1c1b" d="M 614.5,853.5 C 616.628,852.371 618.961,852.204 621.5,853C 621,853.5 620.5,854 620,854.5C 618.301,853.594 616.467,853.261 614.5,853.5 Z"/></g>
<g><path style="opacity:0.008" fill="#1f1e1c" d="M 622.5,852.5 C 623.833,853.167 623.833,853.167 622.5,852.5 Z"/></g>
<g><path style="opacity:0.005" fill="#1d1c1b" d="M 624.5,853.5 C 625.946,852.387 627.613,852.22 629.5,853C 629,853.5 628.5,854 628,854.5C 626.989,853.663 625.822,853.33 624.5,853.5 Z"/></g>
<g><path style="opacity:0.006" fill="#1d1c1c" d="M 630.5,853.5 C 632.628,852.371 634.961,852.204 637.5,853C 637,853.5 636.5,854 636,854.5C 634.301,853.594 632.467,853.261 630.5,853.5 Z"/></g>
<g><path style="opacity:0.008" fill="#1e1e1c" d="M 644.5,852.5 C 645.833,853.167 645.833,853.167 644.5,852.5 Z"/></g>
<g><path style="opacity:0.007" fill="#1e1d1c" d="M 656.5,853.5 C 657.946,852.387 659.613,852.22 661.5,853C 661,853.5 660.5,854 660,854.5C 658.989,853.663 657.822,853.33 656.5,853.5 Z"/></g>
<g><path style="opacity:0.008" fill="#1f1e1d" d="M 669.5,852.5 C 669.189,853.478 668.522,854.145 667.5,854.5C 665.885,853.846 664.218,853.346 662.5,853C 664.81,852.503 667.143,852.337 669.5,852.5 Z"/></g>
<g><path style="opacity:0.006" fill="#1f1e1c" d="M 670.5,852.5 C 672.857,852.337 675.19,852.503 677.5,853C 675.973,854.368 674.473,854.868 673,854.5C 672.005,853.934 671.172,853.267 670.5,852.5 Z"/></g>
<g><path style="opacity:0.014" fill="#201e1e" d="M 686.5,853.5 C 687.251,852.427 688.251,852.26 689.5,853C 688.552,853.483 687.552,853.649 686.5,853.5 Z"/></g>
<g><path style="opacity:0.004" fill="#201e1d" d="M 690.5,853.5 C 691.077,852.227 691.743,852.227 692.5,853.5C 692.03,854.463 691.363,854.463 690.5,853.5 Z"/></g>
<g><path style="opacity:0.007" fill="#201f1e" d="M 699.5,853.5 C 697.801,853.66 696.134,853.494 694.5,853C 696.387,852.22 698.054,852.387 699.5,853.5 Z"/></g>
<g><path style="opacity:0.004" fill="#1f1f1e" d="M 700.5,852.5 C 701.833,853.167 701.833,853.167 700.5,852.5 Z"/></g>
<g><path style="opacity:0.006" fill="#201e1e" d="M 702.5,853.5 C 704.288,852.378 706.288,852.211 708.5,853C 708,853.5 707.5,854 707,854.5C 705.644,853.62 704.144,853.286 702.5,853.5 Z"/></g>
<g><path style="opacity:0.004" fill="#201f1e" d="M 710.5,853.5 C 711.251,852.427 712.251,852.26 713.5,853C 712.552,853.483 711.552,853.649 710.5,853.5 Z"/></g>
<g><path style="opacity:0.008" fill="#1e1e1d" d="M 715.5,853.5 C 714.833,852.167 714.833,852.167 715.5,853.5 Z"/></g>
<g><path style="opacity:0.008" fill="#1f1e1d" d="M 718.5,853.5 C 720.364,852.207 722.364,852.207 724.5,853.5C 722.78,853.746 720.78,853.746 718.5,853.5 Z"/></g>
<g><path style="opacity:0.008" fill="#1f1e1d" d="M 725.5,851.5 C 726.167,851.5 726.833,851.5 727.5,851.5C 731.5,852.167 735.5,852.833 739.5,853.5C 736.881,853.232 734.381,853.565 732,854.5C 729.467,854.05 727.3,853.05 725.5,851.5 Z"/></g>
<g><path style="opacity:0.004" fill="#1d211e" d="M 740.5,852.5 C 741.833,853.167 741.833,853.167 740.5,852.5 Z"/></g>
<g><path style="opacity:0.008" fill="#1e211e" d="M 744.5,852.5 C 745.833,853.167 745.833,853.167 744.5,852.5 Z"/></g>
<g><path style="opacity:0.008" fill="#201f1e" d="M 747.5,853.5 C 746.833,852.167 746.833,852.167 747.5,853.5 Z"/></g>
<g><path style="opacity:0.01" fill="#211f1e" d="M 755.5,853.5 C 754.448,853.649 753.448,853.483 752.5,853C 753.749,852.26 754.749,852.427 755.5,853.5 Z"/></g>
<g><path style="opacity:0.004" fill="#211f1e" d="M 758.5,853.5 C 759.251,852.427 760.251,852.26 761.5,853C 760.552,853.483 759.552,853.649 758.5,853.5 Z"/></g>
<g><path style="opacity:0.004" fill="#1e1d1c" d="M 762.5,852.5 C 763.833,853.167 763.833,853.167 762.5,852.5 Z"/></g>
<g><path style="opacity:0.004" fill="#201e1d" d="M 766.5,852.5 C 767.833,853.167 767.833,853.167 766.5,852.5 Z"/></g>
<g><path style="opacity:0.004" fill="#1f1e1c" d="M 774.5,853.5 C 775.251,852.427 776.251,852.26 777.5,853C 776.552,853.483 775.552,853.649 774.5,853.5 Z"/></g>
<g><path style="opacity:0.008" fill="#1f1c1c" d="M 778.5,852.5 C 779.833,853.167 779.833,853.167 778.5,852.5 Z"/></g>
<g><path style="opacity:0.005" fill="#1f1e1d" d="M 785.5,852.5 C 784.749,853.573 783.749,853.74 782.5,853C 783.448,852.517 784.448,852.351 785.5,852.5 Z"/></g>
<g><path style="opacity:0.004" fill="#1e1e1d" d="M 788.5,852.5 C 789.833,853.167 789.833,853.167 788.5,852.5 Z"/></g>
<g><path style="opacity:0.01" fill="#1e1d1c" d="M 790.5,853.5 C 792.628,852.371 794.961,852.204 797.5,853C 797,853.5 796.5,854 796,854.5C 794.301,853.594 792.467,853.261 790.5,853.5 Z"/></g>
<g><path style="opacity:0.004" fill="#1e1e1b" d="M 798.5,852.5 C 799.833,853.167 799.833,853.167 798.5,852.5 Z"/></g>
<g><path style="opacity:0.008" fill="#1e201c" d="M 800.5,852.5 C 801.833,853.167 801.833,853.167 800.5,852.5 Z"/></g>
<g><path style="opacity:0.008" fill="#1f1d1d" d="M 802.5,852.5 C 803.833,853.167 803.833,853.167 802.5,852.5 Z"/></g>
<g><path style="opacity:0.008" fill="#1f1d1b" d="M 819.5,853.5 C 818.833,852.167 818.833,852.167 819.5,853.5 Z"/></g>
<g><path style="opacity:0.004" fill="#1f1b1e" d="M 822.5,852.5 C 823.833,853.167 823.833,853.167 822.5,852.5 Z"/></g>
<g><path style="opacity:0.008" fill="#1f1d1d" d="M 824.5,853.5 C 825.251,852.427 826.251,852.26 827.5,853C 826.552,853.483 825.552,853.649 824.5,853.5 Z"/></g>
<g><path style="opacity:0.006" fill="#1f1d1c" d="M 830.5,853.5 C 831.251,852.427 832.251,852.26 833.5,853C 832.552,853.483 831.552,853.649 830.5,853.5 Z"/></g>
<g><path style="opacity:0.004" fill="#1d1e1c" d="M 835.5,853.5 C 834.833,852.167 834.833,852.167 835.5,853.5 Z"/></g>
<g><path style="opacity:0.007" fill="#1e1c1c" d="M 838.5,853.5 C 840.288,852.378 842.288,852.211 844.5,853C 842.527,853.495 840.527,853.662 838.5,853.5 Z"/></g>
<g><path style="opacity:0.008" fill="#1e1d1d" d="M 846.5,853.5 C 848.035,852.212 849.701,852.212 851.5,853.5C 850.113,853.807 848.446,853.807 846.5,853.5 Z"/></g>
<g><path style="opacity:0.004" fill="#1d1c1d" d="M 852.5,852.5 C 853.833,853.167 853.833,853.167 852.5,852.5 Z"/></g>
<g><path style="opacity:0.008" fill="#1c1e1c" d="M 860.5,852.5 C 861.833,853.167 861.833,853.167 860.5,852.5 Z"/></g>
<g><path style="opacity:0.008" fill="#1f1d1d" d="M 868.5,853.5 C 868.44,854.043 868.107,854.376 867.5,854.5C 865.885,853.846 864.218,853.346 862.5,853C 864.598,852.322 866.598,852.489 868.5,853.5 Z"/></g>
<g><path style="opacity:0.004" fill="#1d1d1d" d="M 868.5,852.5 C 869.833,853.167 869.833,853.167 868.5,852.5 Z"/></g>
<g><path style="opacity:0.008" fill="#1f1d1d" d="M 870.5,853.5 C 872.035,852.212 873.701,852.212 875.5,853.5C 874.113,853.807 872.446,853.807 870.5,853.5 Z"/></g>
<g><path style="opacity:0.008" fill="#1f1d1c" d="M 883.5,853.5 C 881.801,853.66 880.134,853.494 878.5,853C 880.387,852.22 882.054,852.387 883.5,853.5 Z"/></g>
<g><path style="opacity:0.004" fill="#1f1e1d" d="M 894.5,852.5 C 895.833,853.167 895.833,853.167 894.5,852.5 Z"/></g>
<g><path style="opacity:0.008" fill="#20201e" d="M 902.5,852.5 C 903.833,853.167 903.833,853.167 902.5,852.5 Z"/></g>
<g><path style="opacity:0.004" fill="#201f1f" d="M 904.5,853.5 C 905.601,852.402 906.934,852.235 908.5,853C 907.207,853.49 905.873,853.657 904.5,853.5 Z"/></g>
<g><path style="opacity:0.008" fill="#20201f" d="M 912.5,852.5 C 913.833,853.167 913.833,853.167 912.5,852.5 Z"/></g>
<g><path style="opacity:0.006" fill="#21201e" d="M 914.5,853.5 C 915.077,852.227 915.743,852.227 916.5,853.5C 916.03,854.463 915.363,854.463 914.5,853.5 Z"/></g>
<g><path style="opacity:0.012" fill="#22201f" d="M 918.5,852.5 C 919.833,853.167 919.833,853.167 918.5,852.5 Z"/></g>
<g><path style="opacity:0.005" fill="#232021" d="M 920.5,853.5 C 921.251,852.427 922.251,852.26 923.5,853C 922.552,853.483 921.552,853.649 920.5,853.5 Z"/></g>
<g><path style="opacity:0.008" fill="#222120" d="M 927.5,853.5 C 927.897,852.475 928.563,852.308 929.5,853C 928.906,853.464 928.239,853.631 927.5,853.5 Z"/></g>
<g><path style="opacity:0.004" fill="#232120" d="M 931.5,853.5 C 930.833,852.167 930.833,852.167 931.5,853.5 Z"/></g>
<g><path style="opacity:0.004" fill="#252322" d="M 936.5,852.5 C 937.833,853.167 937.833,853.167 936.5,852.5 Z"/></g>
<g><path style="opacity:0.004" fill="#1d1c19" d="M 643.5,853.5 C 643.833,853.5 644.167,853.5 644.5,853.5C 644.315,854.17 643.981,854.17 643.5,853.5 Z"/></g>
<g><path style="opacity:0.004" fill="#1c1d1a" d="M 699.5,853.5 C 699.833,853.5 700.167,853.5 700.5,853.5C 700.315,854.17 699.981,854.17 699.5,853.5 Z"/></g>
<g><path style="opacity:0.004" fill="#1d1d1b" d="M 715.5,853.5 C 716.833,854.167 716.833,854.167 715.5,853.5 Z"/></g>
<g><path style="opacity:0.004" fill="#1d1e1a" d="M 739.5,853.5 C 739.833,853.5 740.167,853.5 740.5,853.5C 740.315,854.17 739.981,854.17 739.5,853.5 Z"/></g>
<g><path style="opacity:0.008" fill="#1e1d1c" d="M 747.5,853.5 C 748.833,854.167 748.833,854.167 747.5,853.5 Z"/></g>
<g><path style="opacity:0.004" fill="#1d1e1b" d="M 755.5,853.5 C 756.833,854.167 756.833,854.167 755.5,853.5 Z"/></g>
<g><path style="opacity:0.004" fill="#1e1c1c" d="M 786.5,852.5 C 787.167,852.833 787.833,853.167 788.5,853.5C 787.377,854.757 786.711,854.424 786.5,852.5 Z"/></g>
<g><path style="opacity:0.004" fill="#1e1e1b" d="M 819.5,853.5 C 820.833,854.167 820.833,854.167 819.5,853.5 Z"/></g>
<g><path style="opacity:0.004" fill="#1e1c19" d="M 822.5,853.5 C 821.833,854.167 821.833,854.167 822.5,853.5 Z"/></g>
<g><path style="opacity:0.004" fill="#1c1d1a" d="M 835.5,853.5 C 836.833,854.167 836.833,854.167 835.5,853.5 Z"/></g>
<g><path style="opacity:0.004" fill="#1d1f1c" d="M 883.5,853.5 C 884.833,854.167 884.833,854.167 883.5,853.5 Z"/></g>
<g><path style="opacity:0.004" fill="#1f1c1c" d="M 890.5,852.5 C 891.525,852.897 891.692,853.563 891,854.5C 890.536,853.906 890.369,853.239 890.5,852.5 Z"/></g>
<g><path style="opacity:0.006" fill="#201f1d" d="M 896.5,853.5 C 897.946,852.387 899.613,852.22 901.5,853C 900.038,854.628 898.372,854.795 896.5,853.5 Z"/></g>
<g><path style="opacity:0.004" fill="#22211f" d="M 931.5,853.5 C 932.833,854.167 932.833,854.167 931.5,853.5 Z"/></g>
<g><path style="opacity:0.004" fill="#1d1e1a" d="M 679.5,854.5 C 680.833,855.167 680.833,855.167 679.5,854.5 Z"/></g>
<g><path style="opacity:0.004" fill="#1f1e1c" d="M 685.5,854.5 C 686.833,855.167 686.833,855.167 685.5,854.5 Z"/></g>
<g><path style="opacity:0.004" fill="#1e1c19" d="M 695.5,854.5 C 696.833,855.167 696.833,855.167 695.5,854.5 Z"/></g>
<g><path style="opacity:0.006" fill="#1d1c1a" d="M 879.5,855.5 C 879.897,854.475 880.563,854.308 881.5,855C 880.906,855.464 880.239,855.631 879.5,855.5 Z"/></g>
<g><path style="opacity:0.008" fill="#191b19" d="M 288.5,869.5 C 289.833,870.167 289.833,870.167 288.5,869.5 Z"/></g>
<g><path style="opacity:0.004" fill="#222220" d="M 430.5,876.5 C 431.833,877.167 431.833,877.167 430.5,876.5 Z"/></g>
<g><path style="opacity:0.008" fill="#1d1d1b" d="M 299.5,878.5 C 298.833,879.167 298.833,879.167 299.5,878.5 Z"/></g>
<g><path style="opacity:0.004" fill="#1a1b19" d="M 304.5,882.5 C 303.833,883.167 303.833,883.167 304.5,882.5 Z"/></g>
<g><path style="opacity:0.004" fill="#1b1b19" d="M 306.5,884.5 C 305.833,885.167 305.833,885.167 306.5,884.5 Z"/></g>
<g><path style="opacity:0.004" fill="#222120" d="M 414.5,888.5 C 415.525,888.897 415.692,889.563 415,890.5C 414.536,889.906 414.369,889.239 414.5,888.5 Z"/></g>
<g><path style="opacity:0.008" fill="#1c1a19" d="M 312.5,891.5 C 313.833,892.167 313.833,892.167 312.5,891.5 Z"/></g>
<g><path style="opacity:0.004" fill="#1d1d19" d="M 314.5,893.5 C 315.833,894.167 315.833,894.167 314.5,893.5 Z"/></g>
<g><path style="opacity:0.004" fill="#1e1d1d" d="M 405.5,896.5 C 406.833,897.167 406.833,897.167 405.5,896.5 Z"/></g>
<g><path style="opacity:0.004" fill="#1a1a19" d="M 321.5,899.5 C 322.833,900.167 322.833,900.167 321.5,899.5 Z"/></g>
<g><path style="opacity:0.004" fill="#1c1c1a" d="M 326.5,902.5 C 325.833,903.167 325.833,903.167 326.5,902.5 Z"/></g>
<g><path style="opacity:0.004" fill="#1b1c19" d="M 327.5,906.5 C 328.833,907.167 328.833,907.167 327.5,906.5 Z"/></g>
<g><path style="opacity:0.004" fill="#1c1c17" d="M 330.5,906.5 C 329.833,907.167 329.833,907.167 330.5,906.5 Z"/></g>
<g><path style="opacity:0.012" fill="#1c1c19" d="M 331.5,909.5 C 332.833,910.167 332.833,910.167 331.5,909.5 Z"/></g>
<g><path style="opacity:0.004" fill="#22201e" d="M 390.5,910.5 C 391.833,911.167 391.833,911.167 390.5,910.5 Z"/></g>
<g><path style="opacity:0.004" fill="#20221f" d="M 385.5,914.5 C 386.833,915.167 386.833,915.167 385.5,914.5 Z"/></g>
<g><path style="opacity:0.004" fill="#1f1d1c" d="M 347.5,925.5 C 348.833,926.167 348.833,926.167 347.5,925.5 Z"/></g>
<g><path style="opacity:0.004" fill="#1f211e" d="M 361.5,931.5 C 362.833,932.167 362.833,932.167 361.5,931.5 Z"/></g>
<g><path style="opacity:0.004" fill="#171816" d="M 307.5,933.5 C 308.833,934.167 308.833,934.167 307.5,933.5 Z"/></g>
</svg>
